%TF.GenerationSoftware,KiCad,Pcbnew,(6.0.11-0)*%
%TF.CreationDate,2024-11-14T16:08:27+08:00*%
%TF.ProjectId,Li-Po_charger,4c692d50-6f5f-4636-9861-726765722e6b,V1.0*%
%TF.SameCoordinates,Original*%
%TF.FileFunction,Soldermask,Top*%
%TF.FilePolarity,Negative*%
%FSLAX46Y46*%
G04 Gerber Fmt 4.6, Leading zero omitted, Abs format (unit mm)*
G04 Created by KiCad (PCBNEW (6.0.11-0)) date 2024-11-14 16:08:27*
%MOMM*%
%LPD*%
G01*
G04 APERTURE LIST*
G04 Aperture macros list*
%AMRoundRect*
0 Rectangle with rounded corners*
0 $1 Rounding radius*
0 $2 $3 $4 $5 $6 $7 $8 $9 X,Y pos of 4 corners*
0 Add a 4 corners polygon primitive as box body*
4,1,4,$2,$3,$4,$5,$6,$7,$8,$9,$2,$3,0*
0 Add four circle primitives for the rounded corners*
1,1,$1+$1,$2,$3*
1,1,$1+$1,$4,$5*
1,1,$1+$1,$6,$7*
1,1,$1+$1,$8,$9*
0 Add four rect primitives between the rounded corners*
20,1,$1+$1,$2,$3,$4,$5,0*
20,1,$1+$1,$4,$5,$6,$7,0*
20,1,$1+$1,$6,$7,$8,$9,0*
20,1,$1+$1,$8,$9,$2,$3,0*%
%AMFreePoly0*
4,1,22,0.500000,-0.750000,0.000000,-0.750000,0.000000,-0.745033,-0.079941,-0.743568,-0.215256,-0.701293,-0.333266,-0.622738,-0.424486,-0.514219,-0.481581,-0.384460,-0.499164,-0.250000,-0.500000,-0.250000,-0.500000,0.250000,-0.499164,0.250000,-0.499963,0.256109,-0.478152,0.396186,-0.417904,0.524511,-0.324060,0.630769,-0.204165,0.706417,-0.067858,0.745374,0.000000,0.744959,0.000000,0.750000,
0.500000,0.750000,0.500000,-0.750000,0.500000,-0.750000,$1*%
%AMFreePoly1*
4,1,20,0.000000,0.744959,0.073905,0.744508,0.209726,0.703889,0.328688,0.626782,0.421226,0.519385,0.479903,0.390333,0.500000,0.250000,0.500000,-0.250000,0.499851,-0.262216,0.476331,-0.402017,0.414519,-0.529596,0.319384,-0.634700,0.198574,-0.708877,0.061801,-0.746166,0.000000,-0.745033,0.000000,-0.750000,-0.500000,-0.750000,-0.500000,0.750000,0.000000,0.750000,0.000000,0.744959,
0.000000,0.744959,$1*%
G04 Aperture macros list end*
%ADD10C,0.010000*%
%ADD11RoundRect,0.200000X-0.200000X-0.275000X0.200000X-0.275000X0.200000X0.275000X-0.200000X0.275000X0*%
%ADD12RoundRect,0.218750X-0.256250X0.218750X-0.256250X-0.218750X0.256250X-0.218750X0.256250X0.218750X0*%
%ADD13R,1.700000X1.700000*%
%ADD14O,1.700000X1.700000*%
%ADD15RoundRect,0.200000X0.200000X0.275000X-0.200000X0.275000X-0.200000X-0.275000X0.200000X-0.275000X0*%
%ADD16RoundRect,0.225000X-0.250000X0.225000X-0.250000X-0.225000X0.250000X-0.225000X0.250000X0.225000X0*%
%ADD17RoundRect,0.042000X-0.258000X0.943000X-0.258000X-0.943000X0.258000X-0.943000X0.258000X0.943000X0*%
%ADD18R,3.302000X2.413000*%
%ADD19RoundRect,0.200000X-0.275000X0.200000X-0.275000X-0.200000X0.275000X-0.200000X0.275000X0.200000X0*%
%ADD20RoundRect,0.218750X0.218750X0.256250X-0.218750X0.256250X-0.218750X-0.256250X0.218750X-0.256250X0*%
%ADD21C,2.700000*%
%ADD22RoundRect,0.200000X0.275000X-0.200000X0.275000X0.200000X-0.275000X0.200000X-0.275000X-0.200000X0*%
%ADD23RoundRect,0.218750X-0.218750X-0.256250X0.218750X-0.256250X0.218750X0.256250X-0.218750X0.256250X0*%
%ADD24R,1.600000X0.760000*%
%ADD25R,0.800000X0.930000*%
%ADD26C,0.900000*%
%ADD27R,0.900000X1.250000*%
%ADD28R,1.000000X1.000000*%
%ADD29FreePoly0,90.000000*%
%ADD30FreePoly1,90.000000*%
%ADD31RoundRect,0.250000X-0.250000X-1.500000X0.250000X-1.500000X0.250000X1.500000X-0.250000X1.500000X0*%
%ADD32RoundRect,0.250001X-0.499999X-1.449999X0.499999X-1.449999X0.499999X1.449999X-0.499999X1.449999X0*%
%ADD33R,0.800000X1.900000*%
%ADD34R,2.400000X4.200000*%
%ADD35C,0.650000*%
%ADD36R,0.300000X1.140000*%
%ADD37O,1.000000X2.100000*%
%ADD38O,1.000000X1.800000*%
%ADD39RoundRect,0.225000X-0.225000X-0.250000X0.225000X-0.250000X0.225000X0.250000X-0.225000X0.250000X0*%
%ADD40C,2.500000*%
G04 APERTURE END LIST*
%TO.C,U2*%
G36*
X126588000Y-72131000D02*
G01*
X126594000Y-72131000D01*
X126600000Y-72133000D01*
X126606000Y-72134000D01*
X126624000Y-72140000D01*
X126629000Y-72143000D01*
X126635000Y-72146000D01*
X126640000Y-72149000D01*
X126646000Y-72153000D01*
X126651000Y-72157000D01*
X126655000Y-72161000D01*
X126660000Y-72165000D01*
X126664000Y-72170000D01*
X126668000Y-72174000D01*
X126672000Y-72179000D01*
X126676000Y-72185000D01*
X126679000Y-72190000D01*
X126682000Y-72196000D01*
X126685000Y-72201000D01*
X126691000Y-72219000D01*
X126692000Y-72225000D01*
X126694000Y-72231000D01*
X126694000Y-72237000D01*
X126695000Y-72244000D01*
X126695000Y-72756000D01*
X126694000Y-72763000D01*
X126694000Y-72769000D01*
X126692000Y-72775000D01*
X126691000Y-72781000D01*
X126685000Y-72799000D01*
X126682000Y-72804000D01*
X126679000Y-72810000D01*
X126676000Y-72815000D01*
X126672000Y-72821000D01*
X126668000Y-72826000D01*
X126664000Y-72830000D01*
X126660000Y-72835000D01*
X126655000Y-72839000D01*
X126651000Y-72843000D01*
X126646000Y-72847000D01*
X126640000Y-72851000D01*
X126635000Y-72854000D01*
X126629000Y-72857000D01*
X126624000Y-72860000D01*
X126606000Y-72866000D01*
X126600000Y-72867000D01*
X126594000Y-72869000D01*
X126588000Y-72869000D01*
X126581000Y-72870000D01*
X126419000Y-72870000D01*
X126412000Y-72869000D01*
X126406000Y-72869000D01*
X126400000Y-72867000D01*
X126394000Y-72866000D01*
X126376000Y-72860000D01*
X126371000Y-72857000D01*
X126365000Y-72854000D01*
X126360000Y-72851000D01*
X126354000Y-72847000D01*
X126349000Y-72843000D01*
X126345000Y-72839000D01*
X126340000Y-72835000D01*
X126336000Y-72830000D01*
X126332000Y-72826000D01*
X126328000Y-72821000D01*
X126324000Y-72815000D01*
X126321000Y-72810000D01*
X126318000Y-72804000D01*
X126315000Y-72799000D01*
X126309000Y-72781000D01*
X126308000Y-72775000D01*
X126306000Y-72769000D01*
X126306000Y-72763000D01*
X126305000Y-72756000D01*
X126305000Y-72244000D01*
X126306000Y-72237000D01*
X126306000Y-72231000D01*
X126308000Y-72225000D01*
X126309000Y-72219000D01*
X126315000Y-72201000D01*
X126318000Y-72196000D01*
X126321000Y-72190000D01*
X126324000Y-72185000D01*
X126328000Y-72179000D01*
X126332000Y-72174000D01*
X126336000Y-72170000D01*
X126340000Y-72165000D01*
X126345000Y-72161000D01*
X126349000Y-72157000D01*
X126354000Y-72153000D01*
X126360000Y-72149000D01*
X126365000Y-72146000D01*
X126371000Y-72143000D01*
X126376000Y-72140000D01*
X126394000Y-72134000D01*
X126400000Y-72133000D01*
X126406000Y-72131000D01*
X126412000Y-72131000D01*
X126419000Y-72130000D01*
X126581000Y-72130000D01*
X126588000Y-72131000D01*
G37*
D10*
X126588000Y-72131000D02*
X126594000Y-72131000D01*
X126600000Y-72133000D01*
X126606000Y-72134000D01*
X126624000Y-72140000D01*
X126629000Y-72143000D01*
X126635000Y-72146000D01*
X126640000Y-72149000D01*
X126646000Y-72153000D01*
X126651000Y-72157000D01*
X126655000Y-72161000D01*
X126660000Y-72165000D01*
X126664000Y-72170000D01*
X126668000Y-72174000D01*
X126672000Y-72179000D01*
X126676000Y-72185000D01*
X126679000Y-72190000D01*
X126682000Y-72196000D01*
X126685000Y-72201000D01*
X126691000Y-72219000D01*
X126692000Y-72225000D01*
X126694000Y-72231000D01*
X126694000Y-72237000D01*
X126695000Y-72244000D01*
X126695000Y-72756000D01*
X126694000Y-72763000D01*
X126694000Y-72769000D01*
X126692000Y-72775000D01*
X126691000Y-72781000D01*
X126685000Y-72799000D01*
X126682000Y-72804000D01*
X126679000Y-72810000D01*
X126676000Y-72815000D01*
X126672000Y-72821000D01*
X126668000Y-72826000D01*
X126664000Y-72830000D01*
X126660000Y-72835000D01*
X126655000Y-72839000D01*
X126651000Y-72843000D01*
X126646000Y-72847000D01*
X126640000Y-72851000D01*
X126635000Y-72854000D01*
X126629000Y-72857000D01*
X126624000Y-72860000D01*
X126606000Y-72866000D01*
X126600000Y-72867000D01*
X126594000Y-72869000D01*
X126588000Y-72869000D01*
X126581000Y-72870000D01*
X126419000Y-72870000D01*
X126412000Y-72869000D01*
X126406000Y-72869000D01*
X126400000Y-72867000D01*
X126394000Y-72866000D01*
X126376000Y-72860000D01*
X126371000Y-72857000D01*
X126365000Y-72854000D01*
X126360000Y-72851000D01*
X126354000Y-72847000D01*
X126349000Y-72843000D01*
X126345000Y-72839000D01*
X126340000Y-72835000D01*
X126336000Y-72830000D01*
X126332000Y-72826000D01*
X126328000Y-72821000D01*
X126324000Y-72815000D01*
X126321000Y-72810000D01*
X126318000Y-72804000D01*
X126315000Y-72799000D01*
X126309000Y-72781000D01*
X126308000Y-72775000D01*
X126306000Y-72769000D01*
X126306000Y-72763000D01*
X126305000Y-72756000D01*
X126305000Y-72244000D01*
X126306000Y-72237000D01*
X126306000Y-72231000D01*
X126308000Y-72225000D01*
X126309000Y-72219000D01*
X126315000Y-72201000D01*
X126318000Y-72196000D01*
X126321000Y-72190000D01*
X126324000Y-72185000D01*
X126328000Y-72179000D01*
X126332000Y-72174000D01*
X126336000Y-72170000D01*
X126340000Y-72165000D01*
X126345000Y-72161000D01*
X126349000Y-72157000D01*
X126354000Y-72153000D01*
X126360000Y-72149000D01*
X126365000Y-72146000D01*
X126371000Y-72143000D01*
X126376000Y-72140000D01*
X126394000Y-72134000D01*
X126400000Y-72133000D01*
X126406000Y-72131000D01*
X126412000Y-72131000D01*
X126419000Y-72130000D01*
X126581000Y-72130000D01*
X126588000Y-72131000D01*
G36*
X125588000Y-72131000D02*
G01*
X125594000Y-72131000D01*
X125600000Y-72133000D01*
X125606000Y-72134000D01*
X125624000Y-72140000D01*
X125629000Y-72143000D01*
X125635000Y-72146000D01*
X125640000Y-72149000D01*
X125646000Y-72153000D01*
X125651000Y-72157000D01*
X125655000Y-72161000D01*
X125660000Y-72165000D01*
X125664000Y-72170000D01*
X125668000Y-72174000D01*
X125672000Y-72179000D01*
X125676000Y-72185000D01*
X125679000Y-72190000D01*
X125682000Y-72196000D01*
X125685000Y-72201000D01*
X125691000Y-72219000D01*
X125692000Y-72225000D01*
X125694000Y-72231000D01*
X125694000Y-72237000D01*
X125695000Y-72244000D01*
X125695000Y-72756000D01*
X125694000Y-72763000D01*
X125694000Y-72769000D01*
X125692000Y-72775000D01*
X125691000Y-72781000D01*
X125685000Y-72799000D01*
X125682000Y-72804000D01*
X125679000Y-72810000D01*
X125676000Y-72815000D01*
X125672000Y-72821000D01*
X125668000Y-72826000D01*
X125664000Y-72830000D01*
X125660000Y-72835000D01*
X125655000Y-72839000D01*
X125651000Y-72843000D01*
X125646000Y-72847000D01*
X125640000Y-72851000D01*
X125635000Y-72854000D01*
X125629000Y-72857000D01*
X125624000Y-72860000D01*
X125606000Y-72866000D01*
X125600000Y-72867000D01*
X125594000Y-72869000D01*
X125588000Y-72869000D01*
X125581000Y-72870000D01*
X125419000Y-72870000D01*
X125412000Y-72869000D01*
X125406000Y-72869000D01*
X125400000Y-72867000D01*
X125394000Y-72866000D01*
X125376000Y-72860000D01*
X125371000Y-72857000D01*
X125365000Y-72854000D01*
X125360000Y-72851000D01*
X125354000Y-72847000D01*
X125349000Y-72843000D01*
X125345000Y-72839000D01*
X125340000Y-72835000D01*
X125336000Y-72830000D01*
X125332000Y-72826000D01*
X125328000Y-72821000D01*
X125324000Y-72815000D01*
X125321000Y-72810000D01*
X125318000Y-72804000D01*
X125315000Y-72799000D01*
X125309000Y-72781000D01*
X125308000Y-72775000D01*
X125306000Y-72769000D01*
X125306000Y-72763000D01*
X125305000Y-72756000D01*
X125305000Y-72244000D01*
X125306000Y-72237000D01*
X125306000Y-72231000D01*
X125308000Y-72225000D01*
X125309000Y-72219000D01*
X125315000Y-72201000D01*
X125318000Y-72196000D01*
X125321000Y-72190000D01*
X125324000Y-72185000D01*
X125328000Y-72179000D01*
X125332000Y-72174000D01*
X125336000Y-72170000D01*
X125340000Y-72165000D01*
X125345000Y-72161000D01*
X125349000Y-72157000D01*
X125354000Y-72153000D01*
X125360000Y-72149000D01*
X125365000Y-72146000D01*
X125371000Y-72143000D01*
X125376000Y-72140000D01*
X125394000Y-72134000D01*
X125400000Y-72133000D01*
X125406000Y-72131000D01*
X125412000Y-72131000D01*
X125419000Y-72130000D01*
X125581000Y-72130000D01*
X125588000Y-72131000D01*
G37*
X125588000Y-72131000D02*
X125594000Y-72131000D01*
X125600000Y-72133000D01*
X125606000Y-72134000D01*
X125624000Y-72140000D01*
X125629000Y-72143000D01*
X125635000Y-72146000D01*
X125640000Y-72149000D01*
X125646000Y-72153000D01*
X125651000Y-72157000D01*
X125655000Y-72161000D01*
X125660000Y-72165000D01*
X125664000Y-72170000D01*
X125668000Y-72174000D01*
X125672000Y-72179000D01*
X125676000Y-72185000D01*
X125679000Y-72190000D01*
X125682000Y-72196000D01*
X125685000Y-72201000D01*
X125691000Y-72219000D01*
X125692000Y-72225000D01*
X125694000Y-72231000D01*
X125694000Y-72237000D01*
X125695000Y-72244000D01*
X125695000Y-72756000D01*
X125694000Y-72763000D01*
X125694000Y-72769000D01*
X125692000Y-72775000D01*
X125691000Y-72781000D01*
X125685000Y-72799000D01*
X125682000Y-72804000D01*
X125679000Y-72810000D01*
X125676000Y-72815000D01*
X125672000Y-72821000D01*
X125668000Y-72826000D01*
X125664000Y-72830000D01*
X125660000Y-72835000D01*
X125655000Y-72839000D01*
X125651000Y-72843000D01*
X125646000Y-72847000D01*
X125640000Y-72851000D01*
X125635000Y-72854000D01*
X125629000Y-72857000D01*
X125624000Y-72860000D01*
X125606000Y-72866000D01*
X125600000Y-72867000D01*
X125594000Y-72869000D01*
X125588000Y-72869000D01*
X125581000Y-72870000D01*
X125419000Y-72870000D01*
X125412000Y-72869000D01*
X125406000Y-72869000D01*
X125400000Y-72867000D01*
X125394000Y-72866000D01*
X125376000Y-72860000D01*
X125371000Y-72857000D01*
X125365000Y-72854000D01*
X125360000Y-72851000D01*
X125354000Y-72847000D01*
X125349000Y-72843000D01*
X125345000Y-72839000D01*
X125340000Y-72835000D01*
X125336000Y-72830000D01*
X125332000Y-72826000D01*
X125328000Y-72821000D01*
X125324000Y-72815000D01*
X125321000Y-72810000D01*
X125318000Y-72804000D01*
X125315000Y-72799000D01*
X125309000Y-72781000D01*
X125308000Y-72775000D01*
X125306000Y-72769000D01*
X125306000Y-72763000D01*
X125305000Y-72756000D01*
X125305000Y-72244000D01*
X125306000Y-72237000D01*
X125306000Y-72231000D01*
X125308000Y-72225000D01*
X125309000Y-72219000D01*
X125315000Y-72201000D01*
X125318000Y-72196000D01*
X125321000Y-72190000D01*
X125324000Y-72185000D01*
X125328000Y-72179000D01*
X125332000Y-72174000D01*
X125336000Y-72170000D01*
X125340000Y-72165000D01*
X125345000Y-72161000D01*
X125349000Y-72157000D01*
X125354000Y-72153000D01*
X125360000Y-72149000D01*
X125365000Y-72146000D01*
X125371000Y-72143000D01*
X125376000Y-72140000D01*
X125394000Y-72134000D01*
X125400000Y-72133000D01*
X125406000Y-72131000D01*
X125412000Y-72131000D01*
X125419000Y-72130000D01*
X125581000Y-72130000D01*
X125588000Y-72131000D01*
G36*
X126588000Y-70331000D02*
G01*
X126594000Y-70331000D01*
X126600000Y-70333000D01*
X126606000Y-70334000D01*
X126624000Y-70340000D01*
X126629000Y-70343000D01*
X126635000Y-70346000D01*
X126640000Y-70349000D01*
X126646000Y-70353000D01*
X126651000Y-70357000D01*
X126655000Y-70361000D01*
X126660000Y-70365000D01*
X126664000Y-70370000D01*
X126668000Y-70374000D01*
X126672000Y-70379000D01*
X126676000Y-70385000D01*
X126679000Y-70390000D01*
X126682000Y-70396000D01*
X126685000Y-70401000D01*
X126691000Y-70419000D01*
X126692000Y-70425000D01*
X126694000Y-70431000D01*
X126694000Y-70437000D01*
X126695000Y-70444000D01*
X126695000Y-71656000D01*
X126694000Y-71663000D01*
X126694000Y-71669000D01*
X126692000Y-71675000D01*
X126691000Y-71681000D01*
X126685000Y-71699000D01*
X126682000Y-71704000D01*
X126679000Y-71710000D01*
X126676000Y-71715000D01*
X126672000Y-71721000D01*
X126668000Y-71726000D01*
X126664000Y-71730000D01*
X126660000Y-71735000D01*
X126655000Y-71739000D01*
X126651000Y-71743000D01*
X126646000Y-71747000D01*
X126640000Y-71751000D01*
X126635000Y-71754000D01*
X126629000Y-71757000D01*
X126624000Y-71760000D01*
X126606000Y-71766000D01*
X126600000Y-71767000D01*
X126594000Y-71769000D01*
X126588000Y-71769000D01*
X126581000Y-71770000D01*
X126419000Y-71770000D01*
X126412000Y-71769000D01*
X126406000Y-71769000D01*
X126400000Y-71767000D01*
X126394000Y-71766000D01*
X126376000Y-71760000D01*
X126371000Y-71757000D01*
X126365000Y-71754000D01*
X126360000Y-71751000D01*
X126354000Y-71747000D01*
X126349000Y-71743000D01*
X126345000Y-71739000D01*
X126340000Y-71735000D01*
X126336000Y-71730000D01*
X126332000Y-71726000D01*
X126328000Y-71721000D01*
X126324000Y-71715000D01*
X126321000Y-71710000D01*
X126318000Y-71704000D01*
X126315000Y-71699000D01*
X126309000Y-71681000D01*
X126308000Y-71675000D01*
X126306000Y-71669000D01*
X126306000Y-71663000D01*
X126305000Y-71656000D01*
X126305000Y-70444000D01*
X126306000Y-70437000D01*
X126306000Y-70431000D01*
X126308000Y-70425000D01*
X126309000Y-70419000D01*
X126315000Y-70401000D01*
X126318000Y-70396000D01*
X126321000Y-70390000D01*
X126324000Y-70385000D01*
X126328000Y-70379000D01*
X126332000Y-70374000D01*
X126336000Y-70370000D01*
X126340000Y-70365000D01*
X126345000Y-70361000D01*
X126349000Y-70357000D01*
X126354000Y-70353000D01*
X126360000Y-70349000D01*
X126365000Y-70346000D01*
X126371000Y-70343000D01*
X126376000Y-70340000D01*
X126394000Y-70334000D01*
X126400000Y-70333000D01*
X126406000Y-70331000D01*
X126412000Y-70331000D01*
X126419000Y-70330000D01*
X126581000Y-70330000D01*
X126588000Y-70331000D01*
G37*
X126588000Y-70331000D02*
X126594000Y-70331000D01*
X126600000Y-70333000D01*
X126606000Y-70334000D01*
X126624000Y-70340000D01*
X126629000Y-70343000D01*
X126635000Y-70346000D01*
X126640000Y-70349000D01*
X126646000Y-70353000D01*
X126651000Y-70357000D01*
X126655000Y-70361000D01*
X126660000Y-70365000D01*
X126664000Y-70370000D01*
X126668000Y-70374000D01*
X126672000Y-70379000D01*
X126676000Y-70385000D01*
X126679000Y-70390000D01*
X126682000Y-70396000D01*
X126685000Y-70401000D01*
X126691000Y-70419000D01*
X126692000Y-70425000D01*
X126694000Y-70431000D01*
X126694000Y-70437000D01*
X126695000Y-70444000D01*
X126695000Y-71656000D01*
X126694000Y-71663000D01*
X126694000Y-71669000D01*
X126692000Y-71675000D01*
X126691000Y-71681000D01*
X126685000Y-71699000D01*
X126682000Y-71704000D01*
X126679000Y-71710000D01*
X126676000Y-71715000D01*
X126672000Y-71721000D01*
X126668000Y-71726000D01*
X126664000Y-71730000D01*
X126660000Y-71735000D01*
X126655000Y-71739000D01*
X126651000Y-71743000D01*
X126646000Y-71747000D01*
X126640000Y-71751000D01*
X126635000Y-71754000D01*
X126629000Y-71757000D01*
X126624000Y-71760000D01*
X126606000Y-71766000D01*
X126600000Y-71767000D01*
X126594000Y-71769000D01*
X126588000Y-71769000D01*
X126581000Y-71770000D01*
X126419000Y-71770000D01*
X126412000Y-71769000D01*
X126406000Y-71769000D01*
X126400000Y-71767000D01*
X126394000Y-71766000D01*
X126376000Y-71760000D01*
X126371000Y-71757000D01*
X126365000Y-71754000D01*
X126360000Y-71751000D01*
X126354000Y-71747000D01*
X126349000Y-71743000D01*
X126345000Y-71739000D01*
X126340000Y-71735000D01*
X126336000Y-71730000D01*
X126332000Y-71726000D01*
X126328000Y-71721000D01*
X126324000Y-71715000D01*
X126321000Y-71710000D01*
X126318000Y-71704000D01*
X126315000Y-71699000D01*
X126309000Y-71681000D01*
X126308000Y-71675000D01*
X126306000Y-71669000D01*
X126306000Y-71663000D01*
X126305000Y-71656000D01*
X126305000Y-70444000D01*
X126306000Y-70437000D01*
X126306000Y-70431000D01*
X126308000Y-70425000D01*
X126309000Y-70419000D01*
X126315000Y-70401000D01*
X126318000Y-70396000D01*
X126321000Y-70390000D01*
X126324000Y-70385000D01*
X126328000Y-70379000D01*
X126332000Y-70374000D01*
X126336000Y-70370000D01*
X126340000Y-70365000D01*
X126345000Y-70361000D01*
X126349000Y-70357000D01*
X126354000Y-70353000D01*
X126360000Y-70349000D01*
X126365000Y-70346000D01*
X126371000Y-70343000D01*
X126376000Y-70340000D01*
X126394000Y-70334000D01*
X126400000Y-70333000D01*
X126406000Y-70331000D01*
X126412000Y-70331000D01*
X126419000Y-70330000D01*
X126581000Y-70330000D01*
X126588000Y-70331000D01*
G36*
X127588000Y-70331000D02*
G01*
X127594000Y-70331000D01*
X127600000Y-70333000D01*
X127606000Y-70334000D01*
X127624000Y-70340000D01*
X127629000Y-70343000D01*
X127635000Y-70346000D01*
X127640000Y-70349000D01*
X127646000Y-70353000D01*
X127651000Y-70357000D01*
X127655000Y-70361000D01*
X127660000Y-70365000D01*
X127664000Y-70370000D01*
X127668000Y-70374000D01*
X127672000Y-70379000D01*
X127676000Y-70385000D01*
X127679000Y-70390000D01*
X127682000Y-70396000D01*
X127685000Y-70401000D01*
X127691000Y-70419000D01*
X127692000Y-70425000D01*
X127694000Y-70431000D01*
X127694000Y-70437000D01*
X127695000Y-70444000D01*
X127695000Y-71256000D01*
X127694000Y-71263000D01*
X127694000Y-71269000D01*
X127692000Y-71275000D01*
X127691000Y-71281000D01*
X127685000Y-71299000D01*
X127682000Y-71304000D01*
X127679000Y-71310000D01*
X127676000Y-71315000D01*
X127672000Y-71321000D01*
X127668000Y-71326000D01*
X127664000Y-71330000D01*
X127660000Y-71335000D01*
X127655000Y-71339000D01*
X127651000Y-71343000D01*
X127646000Y-71347000D01*
X127640000Y-71351000D01*
X127635000Y-71354000D01*
X127629000Y-71357000D01*
X127624000Y-71360000D01*
X127606000Y-71366000D01*
X127600000Y-71367000D01*
X127594000Y-71369000D01*
X127588000Y-71369000D01*
X127581000Y-71370000D01*
X127419000Y-71370000D01*
X127412000Y-71369000D01*
X127406000Y-71369000D01*
X127400000Y-71367000D01*
X127394000Y-71366000D01*
X127376000Y-71360000D01*
X127371000Y-71357000D01*
X127365000Y-71354000D01*
X127360000Y-71351000D01*
X127354000Y-71347000D01*
X127349000Y-71343000D01*
X127345000Y-71339000D01*
X127340000Y-71335000D01*
X127336000Y-71330000D01*
X127332000Y-71326000D01*
X127328000Y-71321000D01*
X127324000Y-71315000D01*
X127321000Y-71310000D01*
X127318000Y-71304000D01*
X127315000Y-71299000D01*
X127309000Y-71281000D01*
X127308000Y-71275000D01*
X127306000Y-71269000D01*
X127306000Y-71263000D01*
X127305000Y-71256000D01*
X127305000Y-70444000D01*
X127306000Y-70437000D01*
X127306000Y-70431000D01*
X127308000Y-70425000D01*
X127309000Y-70419000D01*
X127315000Y-70401000D01*
X127318000Y-70396000D01*
X127321000Y-70390000D01*
X127324000Y-70385000D01*
X127328000Y-70379000D01*
X127332000Y-70374000D01*
X127336000Y-70370000D01*
X127340000Y-70365000D01*
X127345000Y-70361000D01*
X127349000Y-70357000D01*
X127354000Y-70353000D01*
X127360000Y-70349000D01*
X127365000Y-70346000D01*
X127371000Y-70343000D01*
X127376000Y-70340000D01*
X127394000Y-70334000D01*
X127400000Y-70333000D01*
X127406000Y-70331000D01*
X127412000Y-70331000D01*
X127419000Y-70330000D01*
X127581000Y-70330000D01*
X127588000Y-70331000D01*
G37*
X127588000Y-70331000D02*
X127594000Y-70331000D01*
X127600000Y-70333000D01*
X127606000Y-70334000D01*
X127624000Y-70340000D01*
X127629000Y-70343000D01*
X127635000Y-70346000D01*
X127640000Y-70349000D01*
X127646000Y-70353000D01*
X127651000Y-70357000D01*
X127655000Y-70361000D01*
X127660000Y-70365000D01*
X127664000Y-70370000D01*
X127668000Y-70374000D01*
X127672000Y-70379000D01*
X127676000Y-70385000D01*
X127679000Y-70390000D01*
X127682000Y-70396000D01*
X127685000Y-70401000D01*
X127691000Y-70419000D01*
X127692000Y-70425000D01*
X127694000Y-70431000D01*
X127694000Y-70437000D01*
X127695000Y-70444000D01*
X127695000Y-71256000D01*
X127694000Y-71263000D01*
X127694000Y-71269000D01*
X127692000Y-71275000D01*
X127691000Y-71281000D01*
X127685000Y-71299000D01*
X127682000Y-71304000D01*
X127679000Y-71310000D01*
X127676000Y-71315000D01*
X127672000Y-71321000D01*
X127668000Y-71326000D01*
X127664000Y-71330000D01*
X127660000Y-71335000D01*
X127655000Y-71339000D01*
X127651000Y-71343000D01*
X127646000Y-71347000D01*
X127640000Y-71351000D01*
X127635000Y-71354000D01*
X127629000Y-71357000D01*
X127624000Y-71360000D01*
X127606000Y-71366000D01*
X127600000Y-71367000D01*
X127594000Y-71369000D01*
X127588000Y-71369000D01*
X127581000Y-71370000D01*
X127419000Y-71370000D01*
X127412000Y-71369000D01*
X127406000Y-71369000D01*
X127400000Y-71367000D01*
X127394000Y-71366000D01*
X127376000Y-71360000D01*
X127371000Y-71357000D01*
X127365000Y-71354000D01*
X127360000Y-71351000D01*
X127354000Y-71347000D01*
X127349000Y-71343000D01*
X127345000Y-71339000D01*
X127340000Y-71335000D01*
X127336000Y-71330000D01*
X127332000Y-71326000D01*
X127328000Y-71321000D01*
X127324000Y-71315000D01*
X127321000Y-71310000D01*
X127318000Y-71304000D01*
X127315000Y-71299000D01*
X127309000Y-71281000D01*
X127308000Y-71275000D01*
X127306000Y-71269000D01*
X127306000Y-71263000D01*
X127305000Y-71256000D01*
X127305000Y-70444000D01*
X127306000Y-70437000D01*
X127306000Y-70431000D01*
X127308000Y-70425000D01*
X127309000Y-70419000D01*
X127315000Y-70401000D01*
X127318000Y-70396000D01*
X127321000Y-70390000D01*
X127324000Y-70385000D01*
X127328000Y-70379000D01*
X127332000Y-70374000D01*
X127336000Y-70370000D01*
X127340000Y-70365000D01*
X127345000Y-70361000D01*
X127349000Y-70357000D01*
X127354000Y-70353000D01*
X127360000Y-70349000D01*
X127365000Y-70346000D01*
X127371000Y-70343000D01*
X127376000Y-70340000D01*
X127394000Y-70334000D01*
X127400000Y-70333000D01*
X127406000Y-70331000D01*
X127412000Y-70331000D01*
X127419000Y-70330000D01*
X127581000Y-70330000D01*
X127588000Y-70331000D01*
G36*
X127588000Y-72131000D02*
G01*
X127594000Y-72131000D01*
X127600000Y-72133000D01*
X127606000Y-72134000D01*
X127624000Y-72140000D01*
X127629000Y-72143000D01*
X127635000Y-72146000D01*
X127640000Y-72149000D01*
X127646000Y-72153000D01*
X127651000Y-72157000D01*
X127655000Y-72161000D01*
X127660000Y-72165000D01*
X127664000Y-72170000D01*
X127668000Y-72174000D01*
X127672000Y-72179000D01*
X127676000Y-72185000D01*
X127679000Y-72190000D01*
X127682000Y-72196000D01*
X127685000Y-72201000D01*
X127691000Y-72219000D01*
X127692000Y-72225000D01*
X127694000Y-72231000D01*
X127694000Y-72237000D01*
X127695000Y-72244000D01*
X127695000Y-72756000D01*
X127694000Y-72763000D01*
X127694000Y-72769000D01*
X127692000Y-72775000D01*
X127691000Y-72781000D01*
X127685000Y-72799000D01*
X127682000Y-72804000D01*
X127679000Y-72810000D01*
X127676000Y-72815000D01*
X127672000Y-72821000D01*
X127668000Y-72826000D01*
X127664000Y-72830000D01*
X127660000Y-72835000D01*
X127655000Y-72839000D01*
X127651000Y-72843000D01*
X127646000Y-72847000D01*
X127640000Y-72851000D01*
X127635000Y-72854000D01*
X127629000Y-72857000D01*
X127624000Y-72860000D01*
X127606000Y-72866000D01*
X127600000Y-72867000D01*
X127594000Y-72869000D01*
X127588000Y-72869000D01*
X127581000Y-72870000D01*
X127419000Y-72870000D01*
X127412000Y-72869000D01*
X127406000Y-72869000D01*
X127400000Y-72867000D01*
X127394000Y-72866000D01*
X127376000Y-72860000D01*
X127371000Y-72857000D01*
X127365000Y-72854000D01*
X127360000Y-72851000D01*
X127354000Y-72847000D01*
X127349000Y-72843000D01*
X127345000Y-72839000D01*
X127340000Y-72835000D01*
X127336000Y-72830000D01*
X127332000Y-72826000D01*
X127328000Y-72821000D01*
X127324000Y-72815000D01*
X127321000Y-72810000D01*
X127318000Y-72804000D01*
X127315000Y-72799000D01*
X127309000Y-72781000D01*
X127308000Y-72775000D01*
X127306000Y-72769000D01*
X127306000Y-72763000D01*
X127305000Y-72756000D01*
X127305000Y-72244000D01*
X127306000Y-72237000D01*
X127306000Y-72231000D01*
X127308000Y-72225000D01*
X127309000Y-72219000D01*
X127315000Y-72201000D01*
X127318000Y-72196000D01*
X127321000Y-72190000D01*
X127324000Y-72185000D01*
X127328000Y-72179000D01*
X127332000Y-72174000D01*
X127336000Y-72170000D01*
X127340000Y-72165000D01*
X127345000Y-72161000D01*
X127349000Y-72157000D01*
X127354000Y-72153000D01*
X127360000Y-72149000D01*
X127365000Y-72146000D01*
X127371000Y-72143000D01*
X127376000Y-72140000D01*
X127394000Y-72134000D01*
X127400000Y-72133000D01*
X127406000Y-72131000D01*
X127412000Y-72131000D01*
X127419000Y-72130000D01*
X127581000Y-72130000D01*
X127588000Y-72131000D01*
G37*
X127588000Y-72131000D02*
X127594000Y-72131000D01*
X127600000Y-72133000D01*
X127606000Y-72134000D01*
X127624000Y-72140000D01*
X127629000Y-72143000D01*
X127635000Y-72146000D01*
X127640000Y-72149000D01*
X127646000Y-72153000D01*
X127651000Y-72157000D01*
X127655000Y-72161000D01*
X127660000Y-72165000D01*
X127664000Y-72170000D01*
X127668000Y-72174000D01*
X127672000Y-72179000D01*
X127676000Y-72185000D01*
X127679000Y-72190000D01*
X127682000Y-72196000D01*
X127685000Y-72201000D01*
X127691000Y-72219000D01*
X127692000Y-72225000D01*
X127694000Y-72231000D01*
X127694000Y-72237000D01*
X127695000Y-72244000D01*
X127695000Y-72756000D01*
X127694000Y-72763000D01*
X127694000Y-72769000D01*
X127692000Y-72775000D01*
X127691000Y-72781000D01*
X127685000Y-72799000D01*
X127682000Y-72804000D01*
X127679000Y-72810000D01*
X127676000Y-72815000D01*
X127672000Y-72821000D01*
X127668000Y-72826000D01*
X127664000Y-72830000D01*
X127660000Y-72835000D01*
X127655000Y-72839000D01*
X127651000Y-72843000D01*
X127646000Y-72847000D01*
X127640000Y-72851000D01*
X127635000Y-72854000D01*
X127629000Y-72857000D01*
X127624000Y-72860000D01*
X127606000Y-72866000D01*
X127600000Y-72867000D01*
X127594000Y-72869000D01*
X127588000Y-72869000D01*
X127581000Y-72870000D01*
X127419000Y-72870000D01*
X127412000Y-72869000D01*
X127406000Y-72869000D01*
X127400000Y-72867000D01*
X127394000Y-72866000D01*
X127376000Y-72860000D01*
X127371000Y-72857000D01*
X127365000Y-72854000D01*
X127360000Y-72851000D01*
X127354000Y-72847000D01*
X127349000Y-72843000D01*
X127345000Y-72839000D01*
X127340000Y-72835000D01*
X127336000Y-72830000D01*
X127332000Y-72826000D01*
X127328000Y-72821000D01*
X127324000Y-72815000D01*
X127321000Y-72810000D01*
X127318000Y-72804000D01*
X127315000Y-72799000D01*
X127309000Y-72781000D01*
X127308000Y-72775000D01*
X127306000Y-72769000D01*
X127306000Y-72763000D01*
X127305000Y-72756000D01*
X127305000Y-72244000D01*
X127306000Y-72237000D01*
X127306000Y-72231000D01*
X127308000Y-72225000D01*
X127309000Y-72219000D01*
X127315000Y-72201000D01*
X127318000Y-72196000D01*
X127321000Y-72190000D01*
X127324000Y-72185000D01*
X127328000Y-72179000D01*
X127332000Y-72174000D01*
X127336000Y-72170000D01*
X127340000Y-72165000D01*
X127345000Y-72161000D01*
X127349000Y-72157000D01*
X127354000Y-72153000D01*
X127360000Y-72149000D01*
X127365000Y-72146000D01*
X127371000Y-72143000D01*
X127376000Y-72140000D01*
X127394000Y-72134000D01*
X127400000Y-72133000D01*
X127406000Y-72131000D01*
X127412000Y-72131000D01*
X127419000Y-72130000D01*
X127581000Y-72130000D01*
X127588000Y-72131000D01*
G36*
X125588000Y-70331000D02*
G01*
X125594000Y-70331000D01*
X125600000Y-70333000D01*
X125606000Y-70334000D01*
X125624000Y-70340000D01*
X125629000Y-70343000D01*
X125635000Y-70346000D01*
X125640000Y-70349000D01*
X125646000Y-70353000D01*
X125651000Y-70357000D01*
X125655000Y-70361000D01*
X125660000Y-70365000D01*
X125664000Y-70370000D01*
X125668000Y-70374000D01*
X125672000Y-70379000D01*
X125676000Y-70385000D01*
X125679000Y-70390000D01*
X125682000Y-70396000D01*
X125685000Y-70401000D01*
X125691000Y-70419000D01*
X125692000Y-70425000D01*
X125694000Y-70431000D01*
X125694000Y-70437000D01*
X125695000Y-70444000D01*
X125695000Y-71256000D01*
X125694000Y-71263000D01*
X125694000Y-71269000D01*
X125692000Y-71275000D01*
X125691000Y-71281000D01*
X125685000Y-71299000D01*
X125682000Y-71304000D01*
X125679000Y-71310000D01*
X125676000Y-71315000D01*
X125672000Y-71321000D01*
X125668000Y-71326000D01*
X125664000Y-71330000D01*
X125660000Y-71335000D01*
X125655000Y-71339000D01*
X125651000Y-71343000D01*
X125646000Y-71347000D01*
X125640000Y-71351000D01*
X125635000Y-71354000D01*
X125629000Y-71357000D01*
X125624000Y-71360000D01*
X125606000Y-71366000D01*
X125600000Y-71367000D01*
X125594000Y-71369000D01*
X125588000Y-71369000D01*
X125581000Y-71370000D01*
X125419000Y-71370000D01*
X125412000Y-71369000D01*
X125406000Y-71369000D01*
X125400000Y-71367000D01*
X125394000Y-71366000D01*
X125376000Y-71360000D01*
X125371000Y-71357000D01*
X125365000Y-71354000D01*
X125360000Y-71351000D01*
X125354000Y-71347000D01*
X125349000Y-71343000D01*
X125345000Y-71339000D01*
X125340000Y-71335000D01*
X125336000Y-71330000D01*
X125332000Y-71326000D01*
X125328000Y-71321000D01*
X125324000Y-71315000D01*
X125321000Y-71310000D01*
X125318000Y-71304000D01*
X125315000Y-71299000D01*
X125309000Y-71281000D01*
X125308000Y-71275000D01*
X125306000Y-71269000D01*
X125306000Y-71263000D01*
X125305000Y-71256000D01*
X125305000Y-70444000D01*
X125306000Y-70437000D01*
X125306000Y-70431000D01*
X125308000Y-70425000D01*
X125309000Y-70419000D01*
X125315000Y-70401000D01*
X125318000Y-70396000D01*
X125321000Y-70390000D01*
X125324000Y-70385000D01*
X125328000Y-70379000D01*
X125332000Y-70374000D01*
X125336000Y-70370000D01*
X125340000Y-70365000D01*
X125345000Y-70361000D01*
X125349000Y-70357000D01*
X125354000Y-70353000D01*
X125360000Y-70349000D01*
X125365000Y-70346000D01*
X125371000Y-70343000D01*
X125376000Y-70340000D01*
X125394000Y-70334000D01*
X125400000Y-70333000D01*
X125406000Y-70331000D01*
X125412000Y-70331000D01*
X125419000Y-70330000D01*
X125581000Y-70330000D01*
X125588000Y-70331000D01*
G37*
X125588000Y-70331000D02*
X125594000Y-70331000D01*
X125600000Y-70333000D01*
X125606000Y-70334000D01*
X125624000Y-70340000D01*
X125629000Y-70343000D01*
X125635000Y-70346000D01*
X125640000Y-70349000D01*
X125646000Y-70353000D01*
X125651000Y-70357000D01*
X125655000Y-70361000D01*
X125660000Y-70365000D01*
X125664000Y-70370000D01*
X125668000Y-70374000D01*
X125672000Y-70379000D01*
X125676000Y-70385000D01*
X125679000Y-70390000D01*
X125682000Y-70396000D01*
X125685000Y-70401000D01*
X125691000Y-70419000D01*
X125692000Y-70425000D01*
X125694000Y-70431000D01*
X125694000Y-70437000D01*
X125695000Y-70444000D01*
X125695000Y-71256000D01*
X125694000Y-71263000D01*
X125694000Y-71269000D01*
X125692000Y-71275000D01*
X125691000Y-71281000D01*
X125685000Y-71299000D01*
X125682000Y-71304000D01*
X125679000Y-71310000D01*
X125676000Y-71315000D01*
X125672000Y-71321000D01*
X125668000Y-71326000D01*
X125664000Y-71330000D01*
X125660000Y-71335000D01*
X125655000Y-71339000D01*
X125651000Y-71343000D01*
X125646000Y-71347000D01*
X125640000Y-71351000D01*
X125635000Y-71354000D01*
X125629000Y-71357000D01*
X125624000Y-71360000D01*
X125606000Y-71366000D01*
X125600000Y-71367000D01*
X125594000Y-71369000D01*
X125588000Y-71369000D01*
X125581000Y-71370000D01*
X125419000Y-71370000D01*
X125412000Y-71369000D01*
X125406000Y-71369000D01*
X125400000Y-71367000D01*
X125394000Y-71366000D01*
X125376000Y-71360000D01*
X125371000Y-71357000D01*
X125365000Y-71354000D01*
X125360000Y-71351000D01*
X125354000Y-71347000D01*
X125349000Y-71343000D01*
X125345000Y-71339000D01*
X125340000Y-71335000D01*
X125336000Y-71330000D01*
X125332000Y-71326000D01*
X125328000Y-71321000D01*
X125324000Y-71315000D01*
X125321000Y-71310000D01*
X125318000Y-71304000D01*
X125315000Y-71299000D01*
X125309000Y-71281000D01*
X125308000Y-71275000D01*
X125306000Y-71269000D01*
X125306000Y-71263000D01*
X125305000Y-71256000D01*
X125305000Y-70444000D01*
X125306000Y-70437000D01*
X125306000Y-70431000D01*
X125308000Y-70425000D01*
X125309000Y-70419000D01*
X125315000Y-70401000D01*
X125318000Y-70396000D01*
X125321000Y-70390000D01*
X125324000Y-70385000D01*
X125328000Y-70379000D01*
X125332000Y-70374000D01*
X125336000Y-70370000D01*
X125340000Y-70365000D01*
X125345000Y-70361000D01*
X125349000Y-70357000D01*
X125354000Y-70353000D01*
X125360000Y-70349000D01*
X125365000Y-70346000D01*
X125371000Y-70343000D01*
X125376000Y-70340000D01*
X125394000Y-70334000D01*
X125400000Y-70333000D01*
X125406000Y-70331000D01*
X125412000Y-70331000D01*
X125419000Y-70330000D01*
X125581000Y-70330000D01*
X125588000Y-70331000D01*
G36*
X126088000Y-72131000D02*
G01*
X126094000Y-72131000D01*
X126100000Y-72133000D01*
X126106000Y-72134000D01*
X126124000Y-72140000D01*
X126129000Y-72143000D01*
X126135000Y-72146000D01*
X126140000Y-72149000D01*
X126146000Y-72153000D01*
X126151000Y-72157000D01*
X126155000Y-72161000D01*
X126160000Y-72165000D01*
X126164000Y-72170000D01*
X126168000Y-72174000D01*
X126172000Y-72179000D01*
X126176000Y-72185000D01*
X126179000Y-72190000D01*
X126182000Y-72196000D01*
X126185000Y-72201000D01*
X126191000Y-72219000D01*
X126192000Y-72225000D01*
X126194000Y-72231000D01*
X126194000Y-72237000D01*
X126195000Y-72244000D01*
X126195000Y-72756000D01*
X126194000Y-72763000D01*
X126194000Y-72769000D01*
X126192000Y-72775000D01*
X126191000Y-72781000D01*
X126185000Y-72799000D01*
X126182000Y-72804000D01*
X126179000Y-72810000D01*
X126176000Y-72815000D01*
X126172000Y-72821000D01*
X126168000Y-72826000D01*
X126164000Y-72830000D01*
X126160000Y-72835000D01*
X126155000Y-72839000D01*
X126151000Y-72843000D01*
X126146000Y-72847000D01*
X126140000Y-72851000D01*
X126135000Y-72854000D01*
X126129000Y-72857000D01*
X126124000Y-72860000D01*
X126106000Y-72866000D01*
X126100000Y-72867000D01*
X126094000Y-72869000D01*
X126088000Y-72869000D01*
X126081000Y-72870000D01*
X125919000Y-72870000D01*
X125912000Y-72869000D01*
X125906000Y-72869000D01*
X125900000Y-72867000D01*
X125894000Y-72866000D01*
X125876000Y-72860000D01*
X125871000Y-72857000D01*
X125865000Y-72854000D01*
X125860000Y-72851000D01*
X125854000Y-72847000D01*
X125849000Y-72843000D01*
X125845000Y-72839000D01*
X125840000Y-72835000D01*
X125836000Y-72830000D01*
X125832000Y-72826000D01*
X125828000Y-72821000D01*
X125824000Y-72815000D01*
X125821000Y-72810000D01*
X125818000Y-72804000D01*
X125815000Y-72799000D01*
X125809000Y-72781000D01*
X125808000Y-72775000D01*
X125806000Y-72769000D01*
X125806000Y-72763000D01*
X125805000Y-72756000D01*
X125805000Y-72244000D01*
X125806000Y-72237000D01*
X125806000Y-72231000D01*
X125808000Y-72225000D01*
X125809000Y-72219000D01*
X125815000Y-72201000D01*
X125818000Y-72196000D01*
X125821000Y-72190000D01*
X125824000Y-72185000D01*
X125828000Y-72179000D01*
X125832000Y-72174000D01*
X125836000Y-72170000D01*
X125840000Y-72165000D01*
X125845000Y-72161000D01*
X125849000Y-72157000D01*
X125854000Y-72153000D01*
X125860000Y-72149000D01*
X125865000Y-72146000D01*
X125871000Y-72143000D01*
X125876000Y-72140000D01*
X125894000Y-72134000D01*
X125900000Y-72133000D01*
X125906000Y-72131000D01*
X125912000Y-72131000D01*
X125919000Y-72130000D01*
X126081000Y-72130000D01*
X126088000Y-72131000D01*
G37*
X126088000Y-72131000D02*
X126094000Y-72131000D01*
X126100000Y-72133000D01*
X126106000Y-72134000D01*
X126124000Y-72140000D01*
X126129000Y-72143000D01*
X126135000Y-72146000D01*
X126140000Y-72149000D01*
X126146000Y-72153000D01*
X126151000Y-72157000D01*
X126155000Y-72161000D01*
X126160000Y-72165000D01*
X126164000Y-72170000D01*
X126168000Y-72174000D01*
X126172000Y-72179000D01*
X126176000Y-72185000D01*
X126179000Y-72190000D01*
X126182000Y-72196000D01*
X126185000Y-72201000D01*
X126191000Y-72219000D01*
X126192000Y-72225000D01*
X126194000Y-72231000D01*
X126194000Y-72237000D01*
X126195000Y-72244000D01*
X126195000Y-72756000D01*
X126194000Y-72763000D01*
X126194000Y-72769000D01*
X126192000Y-72775000D01*
X126191000Y-72781000D01*
X126185000Y-72799000D01*
X126182000Y-72804000D01*
X126179000Y-72810000D01*
X126176000Y-72815000D01*
X126172000Y-72821000D01*
X126168000Y-72826000D01*
X126164000Y-72830000D01*
X126160000Y-72835000D01*
X126155000Y-72839000D01*
X126151000Y-72843000D01*
X126146000Y-72847000D01*
X126140000Y-72851000D01*
X126135000Y-72854000D01*
X126129000Y-72857000D01*
X126124000Y-72860000D01*
X126106000Y-72866000D01*
X126100000Y-72867000D01*
X126094000Y-72869000D01*
X126088000Y-72869000D01*
X126081000Y-72870000D01*
X125919000Y-72870000D01*
X125912000Y-72869000D01*
X125906000Y-72869000D01*
X125900000Y-72867000D01*
X125894000Y-72866000D01*
X125876000Y-72860000D01*
X125871000Y-72857000D01*
X125865000Y-72854000D01*
X125860000Y-72851000D01*
X125854000Y-72847000D01*
X125849000Y-72843000D01*
X125845000Y-72839000D01*
X125840000Y-72835000D01*
X125836000Y-72830000D01*
X125832000Y-72826000D01*
X125828000Y-72821000D01*
X125824000Y-72815000D01*
X125821000Y-72810000D01*
X125818000Y-72804000D01*
X125815000Y-72799000D01*
X125809000Y-72781000D01*
X125808000Y-72775000D01*
X125806000Y-72769000D01*
X125806000Y-72763000D01*
X125805000Y-72756000D01*
X125805000Y-72244000D01*
X125806000Y-72237000D01*
X125806000Y-72231000D01*
X125808000Y-72225000D01*
X125809000Y-72219000D01*
X125815000Y-72201000D01*
X125818000Y-72196000D01*
X125821000Y-72190000D01*
X125824000Y-72185000D01*
X125828000Y-72179000D01*
X125832000Y-72174000D01*
X125836000Y-72170000D01*
X125840000Y-72165000D01*
X125845000Y-72161000D01*
X125849000Y-72157000D01*
X125854000Y-72153000D01*
X125860000Y-72149000D01*
X125865000Y-72146000D01*
X125871000Y-72143000D01*
X125876000Y-72140000D01*
X125894000Y-72134000D01*
X125900000Y-72133000D01*
X125906000Y-72131000D01*
X125912000Y-72131000D01*
X125919000Y-72130000D01*
X126081000Y-72130000D01*
X126088000Y-72131000D01*
G36*
X126088000Y-70331000D02*
G01*
X126094000Y-70331000D01*
X126100000Y-70333000D01*
X126106000Y-70334000D01*
X126124000Y-70340000D01*
X126129000Y-70343000D01*
X126135000Y-70346000D01*
X126140000Y-70349000D01*
X126146000Y-70353000D01*
X126151000Y-70357000D01*
X126155000Y-70361000D01*
X126160000Y-70365000D01*
X126164000Y-70370000D01*
X126168000Y-70374000D01*
X126172000Y-70379000D01*
X126176000Y-70385000D01*
X126179000Y-70390000D01*
X126182000Y-70396000D01*
X126185000Y-70401000D01*
X126191000Y-70419000D01*
X126192000Y-70425000D01*
X126194000Y-70431000D01*
X126194000Y-70437000D01*
X126195000Y-70444000D01*
X126195000Y-71256000D01*
X126194000Y-71263000D01*
X126194000Y-71269000D01*
X126192000Y-71275000D01*
X126191000Y-71281000D01*
X126185000Y-71299000D01*
X126182000Y-71304000D01*
X126179000Y-71310000D01*
X126176000Y-71315000D01*
X126172000Y-71321000D01*
X126168000Y-71326000D01*
X126164000Y-71330000D01*
X126160000Y-71335000D01*
X126155000Y-71339000D01*
X126151000Y-71343000D01*
X126146000Y-71347000D01*
X126140000Y-71351000D01*
X126135000Y-71354000D01*
X126129000Y-71357000D01*
X126124000Y-71360000D01*
X126106000Y-71366000D01*
X126100000Y-71367000D01*
X126094000Y-71369000D01*
X126088000Y-71369000D01*
X126081000Y-71370000D01*
X125919000Y-71370000D01*
X125912000Y-71369000D01*
X125906000Y-71369000D01*
X125900000Y-71367000D01*
X125894000Y-71366000D01*
X125876000Y-71360000D01*
X125871000Y-71357000D01*
X125865000Y-71354000D01*
X125860000Y-71351000D01*
X125854000Y-71347000D01*
X125849000Y-71343000D01*
X125845000Y-71339000D01*
X125840000Y-71335000D01*
X125836000Y-71330000D01*
X125832000Y-71326000D01*
X125828000Y-71321000D01*
X125824000Y-71315000D01*
X125821000Y-71310000D01*
X125818000Y-71304000D01*
X125815000Y-71299000D01*
X125809000Y-71281000D01*
X125808000Y-71275000D01*
X125806000Y-71269000D01*
X125806000Y-71263000D01*
X125805000Y-71256000D01*
X125805000Y-70444000D01*
X125806000Y-70437000D01*
X125806000Y-70431000D01*
X125808000Y-70425000D01*
X125809000Y-70419000D01*
X125815000Y-70401000D01*
X125818000Y-70396000D01*
X125821000Y-70390000D01*
X125824000Y-70385000D01*
X125828000Y-70379000D01*
X125832000Y-70374000D01*
X125836000Y-70370000D01*
X125840000Y-70365000D01*
X125845000Y-70361000D01*
X125849000Y-70357000D01*
X125854000Y-70353000D01*
X125860000Y-70349000D01*
X125865000Y-70346000D01*
X125871000Y-70343000D01*
X125876000Y-70340000D01*
X125894000Y-70334000D01*
X125900000Y-70333000D01*
X125906000Y-70331000D01*
X125912000Y-70331000D01*
X125919000Y-70330000D01*
X126081000Y-70330000D01*
X126088000Y-70331000D01*
G37*
X126088000Y-70331000D02*
X126094000Y-70331000D01*
X126100000Y-70333000D01*
X126106000Y-70334000D01*
X126124000Y-70340000D01*
X126129000Y-70343000D01*
X126135000Y-70346000D01*
X126140000Y-70349000D01*
X126146000Y-70353000D01*
X126151000Y-70357000D01*
X126155000Y-70361000D01*
X126160000Y-70365000D01*
X126164000Y-70370000D01*
X126168000Y-70374000D01*
X126172000Y-70379000D01*
X126176000Y-70385000D01*
X126179000Y-70390000D01*
X126182000Y-70396000D01*
X126185000Y-70401000D01*
X126191000Y-70419000D01*
X126192000Y-70425000D01*
X126194000Y-70431000D01*
X126194000Y-70437000D01*
X126195000Y-70444000D01*
X126195000Y-71256000D01*
X126194000Y-71263000D01*
X126194000Y-71269000D01*
X126192000Y-71275000D01*
X126191000Y-71281000D01*
X126185000Y-71299000D01*
X126182000Y-71304000D01*
X126179000Y-71310000D01*
X126176000Y-71315000D01*
X126172000Y-71321000D01*
X126168000Y-71326000D01*
X126164000Y-71330000D01*
X126160000Y-71335000D01*
X126155000Y-71339000D01*
X126151000Y-71343000D01*
X126146000Y-71347000D01*
X126140000Y-71351000D01*
X126135000Y-71354000D01*
X126129000Y-71357000D01*
X126124000Y-71360000D01*
X126106000Y-71366000D01*
X126100000Y-71367000D01*
X126094000Y-71369000D01*
X126088000Y-71369000D01*
X126081000Y-71370000D01*
X125919000Y-71370000D01*
X125912000Y-71369000D01*
X125906000Y-71369000D01*
X125900000Y-71367000D01*
X125894000Y-71366000D01*
X125876000Y-71360000D01*
X125871000Y-71357000D01*
X125865000Y-71354000D01*
X125860000Y-71351000D01*
X125854000Y-71347000D01*
X125849000Y-71343000D01*
X125845000Y-71339000D01*
X125840000Y-71335000D01*
X125836000Y-71330000D01*
X125832000Y-71326000D01*
X125828000Y-71321000D01*
X125824000Y-71315000D01*
X125821000Y-71310000D01*
X125818000Y-71304000D01*
X125815000Y-71299000D01*
X125809000Y-71281000D01*
X125808000Y-71275000D01*
X125806000Y-71269000D01*
X125806000Y-71263000D01*
X125805000Y-71256000D01*
X125805000Y-70444000D01*
X125806000Y-70437000D01*
X125806000Y-70431000D01*
X125808000Y-70425000D01*
X125809000Y-70419000D01*
X125815000Y-70401000D01*
X125818000Y-70396000D01*
X125821000Y-70390000D01*
X125824000Y-70385000D01*
X125828000Y-70379000D01*
X125832000Y-70374000D01*
X125836000Y-70370000D01*
X125840000Y-70365000D01*
X125845000Y-70361000D01*
X125849000Y-70357000D01*
X125854000Y-70353000D01*
X125860000Y-70349000D01*
X125865000Y-70346000D01*
X125871000Y-70343000D01*
X125876000Y-70340000D01*
X125894000Y-70334000D01*
X125900000Y-70333000D01*
X125906000Y-70331000D01*
X125912000Y-70331000D01*
X125919000Y-70330000D01*
X126081000Y-70330000D01*
X126088000Y-70331000D01*
G36*
X127088000Y-72131000D02*
G01*
X127094000Y-72131000D01*
X127100000Y-72133000D01*
X127106000Y-72134000D01*
X127124000Y-72140000D01*
X127129000Y-72143000D01*
X127135000Y-72146000D01*
X127140000Y-72149000D01*
X127146000Y-72153000D01*
X127151000Y-72157000D01*
X127155000Y-72161000D01*
X127160000Y-72165000D01*
X127164000Y-72170000D01*
X127168000Y-72174000D01*
X127172000Y-72179000D01*
X127176000Y-72185000D01*
X127179000Y-72190000D01*
X127182000Y-72196000D01*
X127185000Y-72201000D01*
X127191000Y-72219000D01*
X127192000Y-72225000D01*
X127194000Y-72231000D01*
X127194000Y-72237000D01*
X127195000Y-72244000D01*
X127195000Y-72756000D01*
X127194000Y-72763000D01*
X127194000Y-72769000D01*
X127192000Y-72775000D01*
X127191000Y-72781000D01*
X127185000Y-72799000D01*
X127182000Y-72804000D01*
X127179000Y-72810000D01*
X127176000Y-72815000D01*
X127172000Y-72821000D01*
X127168000Y-72826000D01*
X127164000Y-72830000D01*
X127160000Y-72835000D01*
X127155000Y-72839000D01*
X127151000Y-72843000D01*
X127146000Y-72847000D01*
X127140000Y-72851000D01*
X127135000Y-72854000D01*
X127129000Y-72857000D01*
X127124000Y-72860000D01*
X127106000Y-72866000D01*
X127100000Y-72867000D01*
X127094000Y-72869000D01*
X127088000Y-72869000D01*
X127081000Y-72870000D01*
X126919000Y-72870000D01*
X126912000Y-72869000D01*
X126906000Y-72869000D01*
X126900000Y-72867000D01*
X126894000Y-72866000D01*
X126876000Y-72860000D01*
X126871000Y-72857000D01*
X126865000Y-72854000D01*
X126860000Y-72851000D01*
X126854000Y-72847000D01*
X126849000Y-72843000D01*
X126845000Y-72839000D01*
X126840000Y-72835000D01*
X126836000Y-72830000D01*
X126832000Y-72826000D01*
X126828000Y-72821000D01*
X126824000Y-72815000D01*
X126821000Y-72810000D01*
X126818000Y-72804000D01*
X126815000Y-72799000D01*
X126809000Y-72781000D01*
X126808000Y-72775000D01*
X126806000Y-72769000D01*
X126806000Y-72763000D01*
X126805000Y-72756000D01*
X126805000Y-72244000D01*
X126806000Y-72237000D01*
X126806000Y-72231000D01*
X126808000Y-72225000D01*
X126809000Y-72219000D01*
X126815000Y-72201000D01*
X126818000Y-72196000D01*
X126821000Y-72190000D01*
X126824000Y-72185000D01*
X126828000Y-72179000D01*
X126832000Y-72174000D01*
X126836000Y-72170000D01*
X126840000Y-72165000D01*
X126845000Y-72161000D01*
X126849000Y-72157000D01*
X126854000Y-72153000D01*
X126860000Y-72149000D01*
X126865000Y-72146000D01*
X126871000Y-72143000D01*
X126876000Y-72140000D01*
X126894000Y-72134000D01*
X126900000Y-72133000D01*
X126906000Y-72131000D01*
X126912000Y-72131000D01*
X126919000Y-72130000D01*
X127081000Y-72130000D01*
X127088000Y-72131000D01*
G37*
X127088000Y-72131000D02*
X127094000Y-72131000D01*
X127100000Y-72133000D01*
X127106000Y-72134000D01*
X127124000Y-72140000D01*
X127129000Y-72143000D01*
X127135000Y-72146000D01*
X127140000Y-72149000D01*
X127146000Y-72153000D01*
X127151000Y-72157000D01*
X127155000Y-72161000D01*
X127160000Y-72165000D01*
X127164000Y-72170000D01*
X127168000Y-72174000D01*
X127172000Y-72179000D01*
X127176000Y-72185000D01*
X127179000Y-72190000D01*
X127182000Y-72196000D01*
X127185000Y-72201000D01*
X127191000Y-72219000D01*
X127192000Y-72225000D01*
X127194000Y-72231000D01*
X127194000Y-72237000D01*
X127195000Y-72244000D01*
X127195000Y-72756000D01*
X127194000Y-72763000D01*
X127194000Y-72769000D01*
X127192000Y-72775000D01*
X127191000Y-72781000D01*
X127185000Y-72799000D01*
X127182000Y-72804000D01*
X127179000Y-72810000D01*
X127176000Y-72815000D01*
X127172000Y-72821000D01*
X127168000Y-72826000D01*
X127164000Y-72830000D01*
X127160000Y-72835000D01*
X127155000Y-72839000D01*
X127151000Y-72843000D01*
X127146000Y-72847000D01*
X127140000Y-72851000D01*
X127135000Y-72854000D01*
X127129000Y-72857000D01*
X127124000Y-72860000D01*
X127106000Y-72866000D01*
X127100000Y-72867000D01*
X127094000Y-72869000D01*
X127088000Y-72869000D01*
X127081000Y-72870000D01*
X126919000Y-72870000D01*
X126912000Y-72869000D01*
X126906000Y-72869000D01*
X126900000Y-72867000D01*
X126894000Y-72866000D01*
X126876000Y-72860000D01*
X126871000Y-72857000D01*
X126865000Y-72854000D01*
X126860000Y-72851000D01*
X126854000Y-72847000D01*
X126849000Y-72843000D01*
X126845000Y-72839000D01*
X126840000Y-72835000D01*
X126836000Y-72830000D01*
X126832000Y-72826000D01*
X126828000Y-72821000D01*
X126824000Y-72815000D01*
X126821000Y-72810000D01*
X126818000Y-72804000D01*
X126815000Y-72799000D01*
X126809000Y-72781000D01*
X126808000Y-72775000D01*
X126806000Y-72769000D01*
X126806000Y-72763000D01*
X126805000Y-72756000D01*
X126805000Y-72244000D01*
X126806000Y-72237000D01*
X126806000Y-72231000D01*
X126808000Y-72225000D01*
X126809000Y-72219000D01*
X126815000Y-72201000D01*
X126818000Y-72196000D01*
X126821000Y-72190000D01*
X126824000Y-72185000D01*
X126828000Y-72179000D01*
X126832000Y-72174000D01*
X126836000Y-72170000D01*
X126840000Y-72165000D01*
X126845000Y-72161000D01*
X126849000Y-72157000D01*
X126854000Y-72153000D01*
X126860000Y-72149000D01*
X126865000Y-72146000D01*
X126871000Y-72143000D01*
X126876000Y-72140000D01*
X126894000Y-72134000D01*
X126900000Y-72133000D01*
X126906000Y-72131000D01*
X126912000Y-72131000D01*
X126919000Y-72130000D01*
X127081000Y-72130000D01*
X127088000Y-72131000D01*
G36*
X127088000Y-70331000D02*
G01*
X127094000Y-70331000D01*
X127100000Y-70333000D01*
X127106000Y-70334000D01*
X127124000Y-70340000D01*
X127129000Y-70343000D01*
X127135000Y-70346000D01*
X127140000Y-70349000D01*
X127146000Y-70353000D01*
X127151000Y-70357000D01*
X127155000Y-70361000D01*
X127160000Y-70365000D01*
X127164000Y-70370000D01*
X127168000Y-70374000D01*
X127172000Y-70379000D01*
X127176000Y-70385000D01*
X127179000Y-70390000D01*
X127182000Y-70396000D01*
X127185000Y-70401000D01*
X127191000Y-70419000D01*
X127192000Y-70425000D01*
X127194000Y-70431000D01*
X127194000Y-70437000D01*
X127195000Y-70444000D01*
X127195000Y-71256000D01*
X127194000Y-71263000D01*
X127194000Y-71269000D01*
X127192000Y-71275000D01*
X127191000Y-71281000D01*
X127185000Y-71299000D01*
X127182000Y-71304000D01*
X127179000Y-71310000D01*
X127176000Y-71315000D01*
X127172000Y-71321000D01*
X127168000Y-71326000D01*
X127164000Y-71330000D01*
X127160000Y-71335000D01*
X127155000Y-71339000D01*
X127151000Y-71343000D01*
X127146000Y-71347000D01*
X127140000Y-71351000D01*
X127135000Y-71354000D01*
X127129000Y-71357000D01*
X127124000Y-71360000D01*
X127106000Y-71366000D01*
X127100000Y-71367000D01*
X127094000Y-71369000D01*
X127088000Y-71369000D01*
X127081000Y-71370000D01*
X126919000Y-71370000D01*
X126912000Y-71369000D01*
X126906000Y-71369000D01*
X126900000Y-71367000D01*
X126894000Y-71366000D01*
X126876000Y-71360000D01*
X126871000Y-71357000D01*
X126865000Y-71354000D01*
X126860000Y-71351000D01*
X126854000Y-71347000D01*
X126849000Y-71343000D01*
X126845000Y-71339000D01*
X126840000Y-71335000D01*
X126836000Y-71330000D01*
X126832000Y-71326000D01*
X126828000Y-71321000D01*
X126824000Y-71315000D01*
X126821000Y-71310000D01*
X126818000Y-71304000D01*
X126815000Y-71299000D01*
X126809000Y-71281000D01*
X126808000Y-71275000D01*
X126806000Y-71269000D01*
X126806000Y-71263000D01*
X126805000Y-71256000D01*
X126805000Y-70444000D01*
X126806000Y-70437000D01*
X126806000Y-70431000D01*
X126808000Y-70425000D01*
X126809000Y-70419000D01*
X126815000Y-70401000D01*
X126818000Y-70396000D01*
X126821000Y-70390000D01*
X126824000Y-70385000D01*
X126828000Y-70379000D01*
X126832000Y-70374000D01*
X126836000Y-70370000D01*
X126840000Y-70365000D01*
X126845000Y-70361000D01*
X126849000Y-70357000D01*
X126854000Y-70353000D01*
X126860000Y-70349000D01*
X126865000Y-70346000D01*
X126871000Y-70343000D01*
X126876000Y-70340000D01*
X126894000Y-70334000D01*
X126900000Y-70333000D01*
X126906000Y-70331000D01*
X126912000Y-70331000D01*
X126919000Y-70330000D01*
X127081000Y-70330000D01*
X127088000Y-70331000D01*
G37*
X127088000Y-70331000D02*
X127094000Y-70331000D01*
X127100000Y-70333000D01*
X127106000Y-70334000D01*
X127124000Y-70340000D01*
X127129000Y-70343000D01*
X127135000Y-70346000D01*
X127140000Y-70349000D01*
X127146000Y-70353000D01*
X127151000Y-70357000D01*
X127155000Y-70361000D01*
X127160000Y-70365000D01*
X127164000Y-70370000D01*
X127168000Y-70374000D01*
X127172000Y-70379000D01*
X127176000Y-70385000D01*
X127179000Y-70390000D01*
X127182000Y-70396000D01*
X127185000Y-70401000D01*
X127191000Y-70419000D01*
X127192000Y-70425000D01*
X127194000Y-70431000D01*
X127194000Y-70437000D01*
X127195000Y-70444000D01*
X127195000Y-71256000D01*
X127194000Y-71263000D01*
X127194000Y-71269000D01*
X127192000Y-71275000D01*
X127191000Y-71281000D01*
X127185000Y-71299000D01*
X127182000Y-71304000D01*
X127179000Y-71310000D01*
X127176000Y-71315000D01*
X127172000Y-71321000D01*
X127168000Y-71326000D01*
X127164000Y-71330000D01*
X127160000Y-71335000D01*
X127155000Y-71339000D01*
X127151000Y-71343000D01*
X127146000Y-71347000D01*
X127140000Y-71351000D01*
X127135000Y-71354000D01*
X127129000Y-71357000D01*
X127124000Y-71360000D01*
X127106000Y-71366000D01*
X127100000Y-71367000D01*
X127094000Y-71369000D01*
X127088000Y-71369000D01*
X127081000Y-71370000D01*
X126919000Y-71370000D01*
X126912000Y-71369000D01*
X126906000Y-71369000D01*
X126900000Y-71367000D01*
X126894000Y-71366000D01*
X126876000Y-71360000D01*
X126871000Y-71357000D01*
X126865000Y-71354000D01*
X126860000Y-71351000D01*
X126854000Y-71347000D01*
X126849000Y-71343000D01*
X126845000Y-71339000D01*
X126840000Y-71335000D01*
X126836000Y-71330000D01*
X126832000Y-71326000D01*
X126828000Y-71321000D01*
X126824000Y-71315000D01*
X126821000Y-71310000D01*
X126818000Y-71304000D01*
X126815000Y-71299000D01*
X126809000Y-71281000D01*
X126808000Y-71275000D01*
X126806000Y-71269000D01*
X126806000Y-71263000D01*
X126805000Y-71256000D01*
X126805000Y-70444000D01*
X126806000Y-70437000D01*
X126806000Y-70431000D01*
X126808000Y-70425000D01*
X126809000Y-70419000D01*
X126815000Y-70401000D01*
X126818000Y-70396000D01*
X126821000Y-70390000D01*
X126824000Y-70385000D01*
X126828000Y-70379000D01*
X126832000Y-70374000D01*
X126836000Y-70370000D01*
X126840000Y-70365000D01*
X126845000Y-70361000D01*
X126849000Y-70357000D01*
X126854000Y-70353000D01*
X126860000Y-70349000D01*
X126865000Y-70346000D01*
X126871000Y-70343000D01*
X126876000Y-70340000D01*
X126894000Y-70334000D01*
X126900000Y-70333000D01*
X126906000Y-70331000D01*
X126912000Y-70331000D01*
X126919000Y-70330000D01*
X127081000Y-70330000D01*
X127088000Y-70331000D01*
%TD*%
D11*
%TO.C,R3*%
X128050000Y-75300000D03*
X129700000Y-75300000D03*
%TD*%
D12*
%TO.C,D4*%
X144300000Y-63612500D03*
X144300000Y-65187500D03*
%TD*%
D13*
%TO.C,J3*%
X134250000Y-64475000D03*
D14*
X136790000Y-64475000D03*
%TD*%
D15*
%TO.C,R6*%
X126325000Y-75300000D03*
X124675000Y-75300000D03*
%TD*%
D16*
%TO.C,C4*%
X133500000Y-70825000D03*
X133500000Y-72375000D03*
%TD*%
D17*
%TO.C,U1*%
X105905000Y-73525000D03*
X104635000Y-73525000D03*
X103365000Y-73525000D03*
X102095000Y-73525000D03*
X102095000Y-78475000D03*
X103365000Y-78475000D03*
X104635000Y-78475000D03*
X105905000Y-78475000D03*
D18*
X104000000Y-76000000D03*
%TD*%
D16*
%TO.C,C5*%
X123130000Y-70825000D03*
X123130000Y-72375000D03*
%TD*%
D19*
%TO.C,R10*%
X146200000Y-63575000D03*
X146200000Y-65225000D03*
%TD*%
D20*
%TO.C,D2*%
X99487500Y-80900000D03*
X97912500Y-80900000D03*
%TD*%
D21*
%TO.C,H4*%
X156000000Y-81100000D03*
%TD*%
D16*
%TO.C,C2*%
X129550000Y-70825000D03*
X129550000Y-72375000D03*
%TD*%
D21*
%TO.C,H1*%
X78000000Y-65000000D03*
%TD*%
D22*
%TO.C,R8*%
X98000000Y-67025000D03*
X98000000Y-65375000D03*
%TD*%
D23*
%TO.C,D1*%
X108312500Y-80900000D03*
X109887500Y-80900000D03*
%TD*%
D24*
%TO.C,SW3*%
X125160000Y-78600000D03*
X130240000Y-78600000D03*
%TD*%
D25*
%TO.C,SW1*%
X120700000Y-63965000D03*
X120700000Y-66235000D03*
X113100000Y-66235000D03*
X113100000Y-63965000D03*
D26*
X115400000Y-65100000D03*
X118400000Y-65100000D03*
D27*
X119150000Y-67175000D03*
X116150000Y-67175000D03*
X114650000Y-67175000D03*
%TD*%
D15*
%TO.C,R5*%
X110125000Y-74300000D03*
X108475000Y-74300000D03*
%TD*%
D19*
%TO.C,R7*%
X119900000Y-72075000D03*
X119900000Y-73725000D03*
%TD*%
D15*
%TO.C,R1*%
X106625000Y-80900000D03*
X104975000Y-80900000D03*
%TD*%
D25*
%TO.C,SW2*%
X92500000Y-66280000D03*
X84900000Y-64010000D03*
X92500000Y-64010000D03*
X84900000Y-66280000D03*
D26*
X87200000Y-65145000D03*
X90200000Y-65145000D03*
D27*
X90950000Y-67220000D03*
X87950000Y-67220000D03*
X86450000Y-67220000D03*
%TD*%
D16*
%TO.C,C3*%
X131500000Y-70825000D03*
X131500000Y-72375000D03*
%TD*%
D28*
%TO.C,D3*%
X113500000Y-71650000D03*
X113500000Y-74150000D03*
%TD*%
D29*
%TO.C,JP1*%
X142000000Y-65050000D03*
D30*
X142000000Y-63750000D03*
%TD*%
D31*
%TO.C,J4*%
X86000000Y-75750000D03*
X88000000Y-75750000D03*
D32*
X83650000Y-81500000D03*
X90350000Y-81500000D03*
%TD*%
D33*
%TO.C,Q1*%
X117750000Y-71600000D03*
X115850000Y-71600000D03*
X116800000Y-74600000D03*
%TD*%
D34*
%TO.C,L1*%
X124250000Y-67000000D03*
X128750000Y-67000000D03*
%TD*%
D21*
%TO.C,H3*%
X156000000Y-65000000D03*
%TD*%
D22*
%TO.C,R9*%
X110200000Y-67025000D03*
X110200000Y-65375000D03*
%TD*%
D21*
%TO.C,H2*%
X78000000Y-81100000D03*
%TD*%
D35*
%TO.C,J1*%
X101172500Y-67890000D03*
X106952500Y-67890000D03*
D36*
X107412500Y-68990000D03*
X106612500Y-68990000D03*
X105312500Y-68990000D03*
X104312500Y-68990000D03*
X103812500Y-68990000D03*
X102812500Y-68990000D03*
X101512500Y-68990000D03*
X100712500Y-68990000D03*
X101012500Y-68990000D03*
X101812500Y-68990000D03*
X102312500Y-68990000D03*
X103312500Y-68990000D03*
X104812500Y-68990000D03*
X105812500Y-68990000D03*
X106312500Y-68990000D03*
X107112500Y-68990000D03*
D37*
X108382500Y-68390000D03*
X99742500Y-68390000D03*
D38*
X108382500Y-64240000D03*
X99742500Y-64240000D03*
%TD*%
D11*
%TO.C,R2*%
X101275000Y-80900000D03*
X102925000Y-80900000D03*
%TD*%
%TO.C,R4*%
X131475000Y-75300000D03*
X133125000Y-75300000D03*
%TD*%
D39*
%TO.C,C1*%
X108625000Y-71700000D03*
X110175000Y-71700000D03*
%TD*%
D40*
%TO.C,J2*%
X95000000Y-73000000D03*
X79000000Y-73000000D03*
%TD*%
%TO.C,J5*%
X155125000Y-73000000D03*
X139125000Y-73000000D03*
%TD*%
M02*
