%TF.GenerationSoftware,KiCad,Pcbnew,(6.0.11-0)*%
%TF.CreationDate,2024-11-14T16:08:27+08:00*%
%TF.ProjectId,Li-Po_charger,4c692d50-6f5f-4636-9861-726765722e6b,V1.0*%
%TF.SameCoordinates,Original*%
%TF.FileFunction,Copper,L1,Top*%
%TF.FilePolarity,Positive*%
%FSLAX46Y46*%
G04 Gerber Fmt 4.6, Leading zero omitted, Abs format (unit mm)*
G04 Created by KiCad (PCBNEW (6.0.11-0)) date 2024-11-14 16:08:27*
%MOMM*%
%LPD*%
G01*
G04 APERTURE LIST*
G04 Aperture macros list*
%AMRoundRect*
0 Rectangle with rounded corners*
0 $1 Rounding radius*
0 $2 $3 $4 $5 $6 $7 $8 $9 X,Y pos of 4 corners*
0 Add a 4 corners polygon primitive as box body*
4,1,4,$2,$3,$4,$5,$6,$7,$8,$9,$2,$3,0*
0 Add four circle primitives for the rounded corners*
1,1,$1+$1,$2,$3*
1,1,$1+$1,$4,$5*
1,1,$1+$1,$6,$7*
1,1,$1+$1,$8,$9*
0 Add four rect primitives between the rounded corners*
20,1,$1+$1,$2,$3,$4,$5,0*
20,1,$1+$1,$4,$5,$6,$7,0*
20,1,$1+$1,$6,$7,$8,$9,0*
20,1,$1+$1,$8,$9,$2,$3,0*%
%AMFreePoly0*
4,1,22,0.500000,-0.750000,0.000000,-0.750000,0.000000,-0.745033,-0.079941,-0.743568,-0.215256,-0.701293,-0.333266,-0.622738,-0.424486,-0.514219,-0.481581,-0.384460,-0.499164,-0.250000,-0.500000,-0.250000,-0.500000,0.250000,-0.499164,0.250000,-0.499963,0.256109,-0.478152,0.396186,-0.417904,0.524511,-0.324060,0.630769,-0.204165,0.706417,-0.067858,0.745374,0.000000,0.744959,0.000000,0.750000,
0.500000,0.750000,0.500000,-0.750000,0.500000,-0.750000,$1*%
%AMFreePoly1*
4,1,20,0.000000,0.744959,0.073905,0.744508,0.209726,0.703889,0.328688,0.626782,0.421226,0.519385,0.479903,0.390333,0.500000,0.250000,0.500000,-0.250000,0.499851,-0.262216,0.476331,-0.402017,0.414519,-0.529596,0.319384,-0.634700,0.198574,-0.708877,0.061801,-0.746166,0.000000,-0.745033,0.000000,-0.750000,-0.500000,-0.750000,-0.500000,0.750000,0.000000,0.750000,0.000000,0.744959,
0.000000,0.744959,$1*%
G04 Aperture macros list end*
%TA.AperFunction,SMDPad,CuDef*%
%ADD10RoundRect,0.200000X-0.200000X-0.275000X0.200000X-0.275000X0.200000X0.275000X-0.200000X0.275000X0*%
%TD*%
%TA.AperFunction,SMDPad,CuDef*%
%ADD11RoundRect,0.218750X-0.256250X0.218750X-0.256250X-0.218750X0.256250X-0.218750X0.256250X0.218750X0*%
%TD*%
%TA.AperFunction,ComponentPad*%
%ADD12R,1.700000X1.700000*%
%TD*%
%TA.AperFunction,ComponentPad*%
%ADD13O,1.700000X1.700000*%
%TD*%
%TA.AperFunction,SMDPad,CuDef*%
%ADD14RoundRect,0.200000X0.200000X0.275000X-0.200000X0.275000X-0.200000X-0.275000X0.200000X-0.275000X0*%
%TD*%
%TA.AperFunction,SMDPad,CuDef*%
%ADD15RoundRect,0.225000X-0.250000X0.225000X-0.250000X-0.225000X0.250000X-0.225000X0.250000X0.225000X0*%
%TD*%
%TA.AperFunction,SMDPad,CuDef*%
%ADD16RoundRect,0.012500X0.112500X-0.287500X0.112500X0.287500X-0.112500X0.287500X-0.112500X-0.287500X0*%
%TD*%
%TA.AperFunction,SMDPad,CuDef*%
%ADD17RoundRect,0.012500X0.112500X-0.437500X0.112500X0.437500X-0.112500X0.437500X-0.112500X-0.437500X0*%
%TD*%
%TA.AperFunction,SMDPad,CuDef*%
%ADD18RoundRect,0.012500X0.112500X-0.637500X0.112500X0.637500X-0.112500X0.637500X-0.112500X-0.637500X0*%
%TD*%
%TA.AperFunction,SMDPad,CuDef*%
%ADD19RoundRect,0.042000X-0.258000X0.943000X-0.258000X-0.943000X0.258000X-0.943000X0.258000X0.943000X0*%
%TD*%
%TA.AperFunction,SMDPad,CuDef*%
%ADD20R,3.302000X2.413000*%
%TD*%
%TA.AperFunction,SMDPad,CuDef*%
%ADD21RoundRect,0.200000X-0.275000X0.200000X-0.275000X-0.200000X0.275000X-0.200000X0.275000X0.200000X0*%
%TD*%
%TA.AperFunction,SMDPad,CuDef*%
%ADD22RoundRect,0.218750X0.218750X0.256250X-0.218750X0.256250X-0.218750X-0.256250X0.218750X-0.256250X0*%
%TD*%
%TA.AperFunction,SMDPad,CuDef*%
%ADD23RoundRect,0.200000X0.275000X-0.200000X0.275000X0.200000X-0.275000X0.200000X-0.275000X-0.200000X0*%
%TD*%
%TA.AperFunction,SMDPad,CuDef*%
%ADD24RoundRect,0.218750X-0.218750X-0.256250X0.218750X-0.256250X0.218750X0.256250X-0.218750X0.256250X0*%
%TD*%
%TA.AperFunction,SMDPad,CuDef*%
%ADD25R,1.600000X0.760000*%
%TD*%
%TA.AperFunction,SMDPad,CuDef*%
%ADD26R,0.800000X0.930000*%
%TD*%
%TA.AperFunction,SMDPad,CuDef*%
%ADD27R,0.900000X1.250000*%
%TD*%
%TA.AperFunction,SMDPad,CuDef*%
%ADD28R,1.000000X1.000000*%
%TD*%
%TA.AperFunction,SMDPad,CuDef*%
%ADD29FreePoly0,90.000000*%
%TD*%
%TA.AperFunction,SMDPad,CuDef*%
%ADD30FreePoly1,90.000000*%
%TD*%
%TA.AperFunction,SMDPad,CuDef*%
%ADD31RoundRect,0.250000X-0.250000X-1.500000X0.250000X-1.500000X0.250000X1.500000X-0.250000X1.500000X0*%
%TD*%
%TA.AperFunction,SMDPad,CuDef*%
%ADD32RoundRect,0.250001X-0.499999X-1.449999X0.499999X-1.449999X0.499999X1.449999X-0.499999X1.449999X0*%
%TD*%
%TA.AperFunction,SMDPad,CuDef*%
%ADD33R,0.800000X1.900000*%
%TD*%
%TA.AperFunction,SMDPad,CuDef*%
%ADD34R,2.400000X4.200000*%
%TD*%
%TA.AperFunction,SMDPad,CuDef*%
%ADD35R,0.300000X1.140000*%
%TD*%
%TA.AperFunction,ComponentPad*%
%ADD36O,1.000000X2.100000*%
%TD*%
%TA.AperFunction,ComponentPad*%
%ADD37O,1.000000X1.800000*%
%TD*%
%TA.AperFunction,SMDPad,CuDef*%
%ADD38RoundRect,0.225000X-0.225000X-0.250000X0.225000X-0.250000X0.225000X0.250000X-0.225000X0.250000X0*%
%TD*%
%TA.AperFunction,ComponentPad*%
%ADD39C,2.500000*%
%TD*%
%TA.AperFunction,ViaPad*%
%ADD40C,0.800000*%
%TD*%
%TA.AperFunction,Conductor*%
%ADD41C,0.250000*%
%TD*%
%TA.AperFunction,Conductor*%
%ADD42C,0.400000*%
%TD*%
%TA.AperFunction,Conductor*%
%ADD43C,0.600000*%
%TD*%
G04 APERTURE END LIST*
D10*
%TO.P,R3,1*%
%TO.N,Net-(R3-Pad1)*%
X128050000Y-75300000D03*
%TO.P,R3,2*%
%TO.N,Net-(R3-Pad2)*%
X129700000Y-75300000D03*
%TD*%
D11*
%TO.P,D4,1,K*%
%TO.N,Net-(D4-Pad1)*%
X144300000Y-63612500D03*
%TO.P,D4,2,A*%
%TO.N,Net-(D4-Pad2)*%
X144300000Y-65187500D03*
%TD*%
D12*
%TO.P,J3,1,Pin_1*%
%TO.N,Net-(C2-Pad1)*%
X134250000Y-64475000D03*
D13*
%TO.P,J3,2,Pin_2*%
%TO.N,GND*%
X136790000Y-64475000D03*
%TD*%
D14*
%TO.P,R6,1*%
%TO.N,Net-(R3-Pad1)*%
X126325000Y-75300000D03*
%TO.P,R6,2*%
%TO.N,GND*%
X124675000Y-75300000D03*
%TD*%
D15*
%TO.P,C4,1*%
%TO.N,Net-(C2-Pad1)*%
X133500000Y-70825000D03*
%TO.P,C4,2*%
%TO.N,GND*%
X133500000Y-72375000D03*
%TD*%
D16*
%TO.P,U2,1,EN*%
%TO.N,Net-(C5-Pad1)*%
X125500000Y-72500000D03*
%TO.P,U2,2,MODE*%
%TO.N,GND*%
X126000000Y-72500000D03*
%TO.P,U2,3,AGND*%
X126500000Y-72500000D03*
%TO.P,U2,4,FB*%
%TO.N,Net-(R3-Pad1)*%
X127000000Y-72500000D03*
%TO.P,U2,5,PG*%
%TO.N,unconnected-(U2-Pad5)*%
X127500000Y-72500000D03*
D17*
%TO.P,U2,6,VOUT*%
%TO.N,Net-(C2-Pad1)*%
X127500000Y-70850000D03*
%TO.P,U2,7,L2*%
%TO.N,Net-(L1-Pad2)*%
X127000000Y-70850000D03*
D18*
%TO.P,U2,8,GND*%
%TO.N,GND*%
X126500000Y-71050000D03*
D17*
%TO.P,U2,9,L1*%
%TO.N,Net-(L1-Pad1)*%
X126000000Y-70850000D03*
%TO.P,U2,10,VIN*%
%TO.N,Net-(C5-Pad1)*%
X125500000Y-70850000D03*
%TD*%
D19*
%TO.P,U1,1,TEMP*%
%TO.N,GND*%
X105905000Y-73525000D03*
%TO.P,U1,2,PROG*%
%TO.N,Net-(R5-Pad2)*%
X104635000Y-73525000D03*
%TO.P,U1,3,GND*%
%TO.N,GND*%
X103365000Y-73525000D03*
%TO.P,U1,4,VCC*%
%TO.N,VBUS*%
X102095000Y-73525000D03*
%TO.P,U1,5,BAT*%
%TO.N,Net-(Q1-Pad3)*%
X102095000Y-78475000D03*
%TO.P,U1,6,~{STDBY}*%
%TO.N,Net-(R2-Pad2)*%
X103365000Y-78475000D03*
%TO.P,U1,7,~{CHRG}*%
%TO.N,Net-(R1-Pad2)*%
X104635000Y-78475000D03*
%TO.P,U1,8,CE*%
%TO.N,VBUS*%
X105905000Y-78475000D03*
D20*
%TO.P,U1,9,EP*%
%TO.N,GND*%
X104000000Y-76000000D03*
%TD*%
D15*
%TO.P,C5,1*%
%TO.N,Net-(C5-Pad1)*%
X123130000Y-70825000D03*
%TO.P,C5,2*%
%TO.N,GND*%
X123130000Y-72375000D03*
%TD*%
D21*
%TO.P,R10,1*%
%TO.N,Net-(D4-Pad1)*%
X146200000Y-63575000D03*
%TO.P,R10,2*%
%TO.N,GND*%
X146200000Y-65225000D03*
%TD*%
D22*
%TO.P,D2,1,K*%
%TO.N,Net-(D2-Pad1)*%
X99487500Y-80900000D03*
%TO.P,D2,2,A*%
%TO.N,VBUS*%
X97912500Y-80900000D03*
%TD*%
D15*
%TO.P,C2,1*%
%TO.N,Net-(C2-Pad1)*%
X129550000Y-70825000D03*
%TO.P,C2,2*%
%TO.N,GND*%
X129550000Y-72375000D03*
%TD*%
D23*
%TO.P,R8,1*%
%TO.N,Net-(J1-PadB5)*%
X98000000Y-67025000D03*
%TO.P,R8,2*%
%TO.N,GND*%
X98000000Y-65375000D03*
%TD*%
D24*
%TO.P,D1,1,K*%
%TO.N,Net-(D1-Pad1)*%
X108312500Y-80900000D03*
%TO.P,D1,2,A*%
%TO.N,VBUS*%
X109887500Y-80900000D03*
%TD*%
D25*
%TO.P,SW3,1*%
%TO.N,Net-(R3-Pad1)*%
X125160000Y-78600000D03*
%TO.P,SW3,2*%
%TO.N,Net-(R3-Pad2)*%
X130240000Y-78600000D03*
%TD*%
D26*
%TO.P,SW1,*%
%TO.N,*%
X120700000Y-63965000D03*
X120700000Y-66235000D03*
X113100000Y-66235000D03*
X113100000Y-63965000D03*
D27*
%TO.P,SW1,1,A*%
%TO.N,Net-(C5-Pad1)*%
X119150000Y-67175000D03*
%TO.P,SW1,2,B*%
%TO.N,Net-(D3-Pad1)*%
X116150000Y-67175000D03*
%TO.P,SW1,3,C*%
%TO.N,unconnected-(SW1-Pad3)*%
X114650000Y-67175000D03*
%TD*%
D14*
%TO.P,R5,1*%
%TO.N,GND*%
X110125000Y-74300000D03*
%TO.P,R5,2*%
%TO.N,Net-(R5-Pad2)*%
X108475000Y-74300000D03*
%TD*%
D21*
%TO.P,R7,1*%
%TO.N,VBUS*%
X119900000Y-72075000D03*
%TO.P,R7,2*%
%TO.N,GND*%
X119900000Y-73725000D03*
%TD*%
D14*
%TO.P,R1,1*%
%TO.N,Net-(D1-Pad1)*%
X106625000Y-80900000D03*
%TO.P,R1,2*%
%TO.N,Net-(R1-Pad2)*%
X104975000Y-80900000D03*
%TD*%
D26*
%TO.P,SW2,*%
%TO.N,*%
X92500000Y-66280000D03*
X84900000Y-64010000D03*
X92500000Y-64010000D03*
X84900000Y-66280000D03*
D27*
%TO.P,SW2,1,A*%
%TO.N,Net-(J2-Pad1)*%
X90950000Y-67220000D03*
%TO.P,SW2,2,B*%
%TO.N,Net-(Q1-Pad3)*%
X87950000Y-67220000D03*
%TO.P,SW2,3,C*%
%TO.N,Net-(J4-Pad1)*%
X86450000Y-67220000D03*
%TD*%
D15*
%TO.P,C3,1*%
%TO.N,Net-(C2-Pad1)*%
X131500000Y-70825000D03*
%TO.P,C3,2*%
%TO.N,GND*%
X131500000Y-72375000D03*
%TD*%
D28*
%TO.P,D3,1,K*%
%TO.N,Net-(D3-Pad1)*%
X113500000Y-71650000D03*
%TO.P,D3,2,A*%
%TO.N,VBUS*%
X113500000Y-74150000D03*
%TD*%
D29*
%TO.P,JP1,1,A*%
%TO.N,Net-(D4-Pad2)*%
X142000000Y-65050000D03*
D30*
%TO.P,JP1,2,B*%
%TO.N,Net-(C2-Pad1)*%
X142000000Y-63750000D03*
%TD*%
D31*
%TO.P,J4,1,Pin_1*%
%TO.N,Net-(J4-Pad1)*%
X86000000Y-75750000D03*
%TO.P,J4,2,Pin_2*%
%TO.N,GND*%
X88000000Y-75750000D03*
D32*
%TO.P,J4,MP*%
%TO.N,unconnected-(J4-PadMP)*%
X83650000Y-81500000D03*
X90350000Y-81500000D03*
%TD*%
D33*
%TO.P,Q1,1,G*%
%TO.N,VBUS*%
X117750000Y-71600000D03*
%TO.P,Q1,2,S*%
%TO.N,Net-(D3-Pad1)*%
X115850000Y-71600000D03*
%TO.P,Q1,3,D*%
%TO.N,Net-(Q1-Pad3)*%
X116800000Y-74600000D03*
%TD*%
D34*
%TO.P,L1,1,1*%
%TO.N,Net-(L1-Pad1)*%
X124250000Y-67000000D03*
%TO.P,L1,2,2*%
%TO.N,Net-(L1-Pad2)*%
X128750000Y-67000000D03*
%TD*%
D23*
%TO.P,R9,1*%
%TO.N,Net-(J1-PadA5)*%
X110200000Y-67025000D03*
%TO.P,R9,2*%
%TO.N,GND*%
X110200000Y-65375000D03*
%TD*%
D35*
%TO.P,J1,A1,GND_A*%
%TO.N,GND*%
X107412500Y-68990000D03*
%TO.P,J1,A4,VBUS_A*%
%TO.N,VBUS*%
X106612500Y-68990000D03*
%TO.P,J1,A5,CC1*%
%TO.N,Net-(J1-PadA5)*%
X105312500Y-68990000D03*
%TO.P,J1,A6,DP1*%
%TO.N,unconnected-(J1-PadA6)*%
X104312500Y-68990000D03*
%TO.P,J1,A7,DN1*%
%TO.N,unconnected-(J1-PadA7)*%
X103812500Y-68990000D03*
%TO.P,J1,A8,SBU1*%
%TO.N,unconnected-(J1-PadA8)*%
X102812500Y-68990000D03*
%TO.P,J1,A9,VBUS_A*%
%TO.N,VBUS*%
X101512500Y-68990000D03*
%TO.P,J1,A12,GND_A*%
%TO.N,GND*%
X100712500Y-68990000D03*
%TO.P,J1,B1,GND_B*%
X101012500Y-68990000D03*
%TO.P,J1,B4,VBUS_B*%
%TO.N,VBUS*%
X101812500Y-68990000D03*
%TO.P,J1,B5,CC2*%
%TO.N,Net-(J1-PadB5)*%
X102312500Y-68990000D03*
%TO.P,J1,B6,DP2*%
%TO.N,unconnected-(J1-PadB6)*%
X103312500Y-68990000D03*
%TO.P,J1,B7,DN2*%
%TO.N,unconnected-(J1-PadB7)*%
X104812500Y-68990000D03*
%TO.P,J1,B8,SBU2*%
%TO.N,unconnected-(J1-PadB8)*%
X105812500Y-68990000D03*
%TO.P,J1,B9,VBUS_B*%
%TO.N,VBUS*%
X106312500Y-68990000D03*
%TO.P,J1,B12,GND_B*%
%TO.N,GND*%
X107112500Y-68990000D03*
D36*
%TO.P,J1,S1,SHIELD*%
%TO.N,unconnected-(J1-PadS1)*%
X108382500Y-68390000D03*
%TO.P,J1,S2,SHIELD*%
%TO.N,unconnected-(J1-PadS2)*%
X99742500Y-68390000D03*
D37*
%TO.P,J1,S3,SHIELD*%
%TO.N,unconnected-(J1-PadS3)*%
X108382500Y-64240000D03*
%TO.P,J1,S4,SHIELD*%
%TO.N,unconnected-(J1-PadS4)*%
X99742500Y-64240000D03*
%TD*%
D10*
%TO.P,R2,1*%
%TO.N,Net-(D2-Pad1)*%
X101275000Y-80900000D03*
%TO.P,R2,2*%
%TO.N,Net-(R2-Pad2)*%
X102925000Y-80900000D03*
%TD*%
%TO.P,R4,1*%
%TO.N,Net-(R3-Pad2)*%
X131475000Y-75300000D03*
%TO.P,R4,2*%
%TO.N,Net-(C2-Pad1)*%
X133125000Y-75300000D03*
%TD*%
D38*
%TO.P,C1,1*%
%TO.N,VBUS*%
X108625000Y-71700000D03*
%TO.P,C1,2*%
%TO.N,GND*%
X110175000Y-71700000D03*
%TD*%
D39*
%TO.P,J2,1,Pin_1*%
%TO.N,Net-(J2-Pad1)*%
X95000000Y-73000000D03*
X79000000Y-73000000D03*
%TD*%
%TO.P,J5,1,Pin_1*%
%TO.N,GND*%
X155125000Y-73000000D03*
X139125000Y-73000000D03*
%TD*%
D40*
%TO.N,GND*%
X107300000Y-76000000D03*
X112000000Y-83000000D03*
X132000000Y-78000000D03*
X82000000Y-83000000D03*
X126200000Y-73500000D03*
X112000000Y-78000000D03*
X142000000Y-83000000D03*
X112000000Y-68000000D03*
X132000000Y-68000000D03*
X133500000Y-73400000D03*
X131500000Y-73400000D03*
X76000000Y-78000000D03*
X100700000Y-76000000D03*
X112000000Y-63000000D03*
X132000000Y-63000000D03*
X158000000Y-78000000D03*
X102000000Y-63000000D03*
X82000000Y-78000000D03*
X158000000Y-68000000D03*
X92000000Y-83000000D03*
X129500000Y-73400000D03*
X92000000Y-78000000D03*
X132000000Y-83000000D03*
X152000000Y-78000000D03*
X152000000Y-68000000D03*
X123100000Y-73500000D03*
X142000000Y-78000000D03*
X122000000Y-63000000D03*
X152000000Y-83000000D03*
X152000000Y-63000000D03*
X103400000Y-72200000D03*
X82000000Y-68000000D03*
X142000000Y-68000000D03*
X122000000Y-78000000D03*
X82000000Y-63000000D03*
X76000000Y-68000000D03*
X122000000Y-83000000D03*
%TO.N,VBUS*%
X100700000Y-78000000D03*
X107325000Y-77975000D03*
%TO.N,Net-(J2-Pad1)*%
X95000000Y-68900000D03*
%TD*%
D41*
%TO.N,Net-(J1-PadA5)*%
X106307500Y-67025000D02*
X105312500Y-68020000D01*
X110200000Y-67025000D02*
X106307500Y-67025000D01*
X105312500Y-68020000D02*
X105312500Y-68890000D01*
%TO.N,GND*%
X126000000Y-73300000D02*
X126200000Y-73500000D01*
X126500000Y-71050000D02*
X126500000Y-72500000D01*
X126000000Y-72500000D02*
X126000000Y-73300000D01*
X126500000Y-72500000D02*
X126500000Y-73200000D01*
X103400000Y-73490000D02*
X103365000Y-73525000D01*
X103400000Y-72200000D02*
X103400000Y-73490000D01*
X126500000Y-73200000D02*
X126200000Y-73500000D01*
D42*
%TO.N,VBUS*%
X97912500Y-79287500D02*
X97912500Y-80400000D01*
D41*
X105800000Y-71000000D02*
X106200000Y-71000000D01*
D42*
X109887500Y-79187500D02*
X109887500Y-80400000D01*
D41*
X106612500Y-70587500D02*
X106200000Y-71000000D01*
D42*
X107325000Y-77975000D02*
X108675000Y-77975000D01*
D43*
X102190000Y-71090000D02*
X102100000Y-71000000D01*
D41*
X113500000Y-78500000D02*
X111600000Y-80400000D01*
X119900000Y-72075000D02*
X118225000Y-72075000D01*
X117750000Y-71600000D02*
X115200000Y-74150000D01*
D43*
X112225000Y-72875000D02*
X113500000Y-74150000D01*
D42*
X108675000Y-77975000D02*
X109887500Y-79187500D01*
D41*
X106312500Y-68890000D02*
X106312500Y-70487500D01*
X111600000Y-80400000D02*
X109887500Y-80400000D01*
X101512500Y-70412500D02*
X102100000Y-71000000D01*
X101812500Y-70312500D02*
X102500000Y-71000000D01*
X106312500Y-70487500D02*
X105800000Y-71000000D01*
D43*
X108625000Y-71700000D02*
X109800000Y-72875000D01*
D41*
X115200000Y-74150000D02*
X113500000Y-74150000D01*
X106612500Y-68890000D02*
X106612500Y-70587500D01*
D42*
X100700000Y-78000000D02*
X99200000Y-78000000D01*
X99200000Y-78000000D02*
X97912500Y-79287500D01*
D43*
X109800000Y-72875000D02*
X112225000Y-72875000D01*
X108625000Y-71700000D02*
X108015000Y-71090000D01*
D41*
X118225000Y-72075000D02*
X117750000Y-71600000D01*
X101812500Y-68890000D02*
X101812500Y-70312500D01*
X113500000Y-74150000D02*
X113500000Y-78500000D01*
D42*
X102100000Y-71000000D02*
X102095000Y-73525000D01*
X105905000Y-77975000D02*
X107325000Y-77975000D01*
D41*
X101512500Y-68890000D02*
X101512500Y-70412500D01*
D43*
X108015000Y-71090000D02*
X102190000Y-71090000D01*
D42*
%TO.N,Net-(D1-Pad1)*%
X106625000Y-80400000D02*
X108312500Y-80400000D01*
D43*
%TO.N,Net-(D3-Pad1)*%
X116250000Y-68550000D02*
X116250000Y-67175000D01*
X113500000Y-71650000D02*
X115800000Y-71650000D01*
X115850000Y-68950000D02*
X115850000Y-71600000D01*
X116250000Y-68550000D02*
X115850000Y-68950000D01*
X115800000Y-71650000D02*
X115850000Y-71600000D01*
D41*
%TO.N,Net-(D4-Pad1)*%
X144300000Y-63612500D02*
X146162500Y-63612500D01*
X146162500Y-63612500D02*
X146200000Y-63575000D01*
%TO.N,Net-(J1-PadB5)*%
X102312500Y-67940049D02*
X102312500Y-68890000D01*
X101397451Y-67025000D02*
X102312500Y-67940049D01*
X98000000Y-67025000D02*
X101397451Y-67025000D01*
D43*
%TO.N,Net-(C2-Pad1)*%
X127625000Y-70825000D02*
X127625000Y-70850000D01*
D41*
X135000000Y-72000000D02*
X134025000Y-71025000D01*
D43*
X129550000Y-70825000D02*
X131500000Y-70825000D01*
X133500000Y-70825000D02*
X133700000Y-70825000D01*
X133700000Y-70825000D02*
X134250000Y-70275000D01*
X129550000Y-70825000D02*
X127625000Y-70825000D01*
D41*
X141550000Y-63300000D02*
X135425000Y-63300000D01*
X135425000Y-63300000D02*
X134250000Y-64475000D01*
D43*
X131500000Y-70825000D02*
X133500000Y-70825000D01*
D41*
X133125000Y-75300000D02*
X134000000Y-75300000D01*
X135000000Y-74300000D02*
X135000000Y-72000000D01*
X142000000Y-63750000D02*
X141550000Y-63300000D01*
X134000000Y-75300000D02*
X135000000Y-74300000D01*
D43*
X134250000Y-64475000D02*
X134250000Y-70275000D01*
D42*
%TO.N,Net-(D2-Pad1)*%
X101275000Y-80400000D02*
X99487500Y-80400000D01*
%TO.N,Net-(C5-Pad1)*%
X125475000Y-70825000D02*
X125475000Y-70850000D01*
D43*
X119250000Y-68650000D02*
X121425000Y-70825000D01*
X119250000Y-68650000D02*
X119250000Y-67175000D01*
X121425000Y-70825000D02*
X123130000Y-70825000D01*
X123130000Y-70825000D02*
X125375000Y-70825000D01*
D41*
X125500000Y-70850000D02*
X125500000Y-72500000D01*
%TO.N,Net-(L1-Pad1)*%
X126000000Y-70850000D02*
X126000000Y-68300000D01*
X126000000Y-68300000D02*
X124700000Y-67000000D01*
%TO.N,Net-(L1-Pad2)*%
X127000000Y-68300000D02*
X128300000Y-67000000D01*
X127000000Y-70850000D02*
X127000000Y-68300000D01*
D42*
%TO.N,Net-(R1-Pad2)*%
X104635000Y-80060000D02*
X104975000Y-80400000D01*
X104635000Y-77975000D02*
X104635000Y-80060000D01*
D41*
%TO.N,Net-(D4-Pad2)*%
X144162500Y-65050000D02*
X144300000Y-65187500D01*
X142000000Y-65050000D02*
X144162500Y-65050000D01*
D43*
%TO.N,Net-(J4-Pad1)*%
X86450000Y-67220000D02*
X86450000Y-69650000D01*
X86450000Y-69650000D02*
X86000000Y-70100000D01*
X86000000Y-70100000D02*
X86000000Y-75750000D01*
D42*
%TO.N,Net-(R2-Pad2)*%
X103365000Y-77975000D02*
X103365000Y-79960000D01*
X103365000Y-79960000D02*
X102925000Y-80400000D01*
D41*
%TO.N,Net-(R3-Pad1)*%
X126325000Y-76475000D02*
X125160000Y-77640000D01*
X127000000Y-72500000D02*
X127000000Y-74250000D01*
X128050000Y-75300000D02*
X126325000Y-75300000D01*
X126325000Y-75300000D02*
X126325000Y-76475000D01*
X127000000Y-74250000D02*
X128050000Y-75300000D01*
X125160000Y-77640000D02*
X125160000Y-78600000D01*
D43*
%TO.N,Net-(J2-Pad1)*%
X90950000Y-68350000D02*
X91500000Y-68900000D01*
X90950000Y-67220000D02*
X90950000Y-68350000D01*
X91500000Y-68900000D02*
X95000000Y-68900000D01*
%TO.N,Net-(Q1-Pad3)*%
X87950000Y-72050000D02*
X93000000Y-77100000D01*
X93000000Y-77100000D02*
X101449000Y-77100000D01*
X116800000Y-76150000D02*
X116800000Y-74600000D01*
X101449000Y-77100000D02*
X102095000Y-77746000D01*
X102095000Y-77746000D02*
X102095000Y-78475000D01*
X95800000Y-82600000D02*
X110350000Y-82600000D01*
X110350000Y-82600000D02*
X116800000Y-76150000D01*
X93000000Y-77100000D02*
X94800000Y-78900000D01*
X94800000Y-81600000D02*
X95800000Y-82600000D01*
X94800000Y-78900000D02*
X94800000Y-81600000D01*
X87950000Y-67220000D02*
X87950000Y-72050000D01*
D41*
%TO.N,Net-(R3-Pad2)*%
X129700000Y-75300000D02*
X129700000Y-76900000D01*
X129700000Y-75300000D02*
X131475000Y-75300000D01*
X130240000Y-77440000D02*
X130240000Y-78600000D01*
X129700000Y-76900000D02*
X130240000Y-77440000D01*
%TO.N,Net-(R5-Pad2)*%
X108475000Y-73575000D02*
X106615000Y-71715000D01*
X108475000Y-73575000D02*
X108475000Y-74300000D01*
X105494984Y-71715000D02*
X104635000Y-72574984D01*
X106615000Y-71715000D02*
X105494984Y-71715000D01*
X104635000Y-72574984D02*
X104635000Y-73525000D01*
%TD*%
%TA.AperFunction,Conductor*%
%TO.N,GND*%
G36*
X158941121Y-62021002D02*
G01*
X158987614Y-62074658D01*
X158999000Y-62127000D01*
X158999000Y-83873000D01*
X158978998Y-83941121D01*
X158925342Y-83987614D01*
X158873000Y-83999000D01*
X75127000Y-83999000D01*
X75058879Y-83978998D01*
X75012386Y-83925342D01*
X75001000Y-83873000D01*
X75001000Y-81100000D01*
X76394551Y-81100000D01*
X76414317Y-81351148D01*
X76415471Y-81355955D01*
X76415472Y-81355961D01*
X76433149Y-81429591D01*
X76473127Y-81596111D01*
X76475020Y-81600682D01*
X76475021Y-81600684D01*
X76554945Y-81793637D01*
X76569534Y-81828859D01*
X76701164Y-82043659D01*
X76704376Y-82047419D01*
X76704379Y-82047424D01*
X76849256Y-82217052D01*
X76864776Y-82235224D01*
X76868538Y-82238437D01*
X77052576Y-82395621D01*
X77052581Y-82395624D01*
X77056341Y-82398836D01*
X77271141Y-82530466D01*
X77275711Y-82532359D01*
X77275715Y-82532361D01*
X77499316Y-82624979D01*
X77503889Y-82626873D01*
X77588289Y-82647135D01*
X77744039Y-82684528D01*
X77744045Y-82684529D01*
X77748852Y-82685683D01*
X77837149Y-82692632D01*
X77934661Y-82700307D01*
X77934670Y-82700307D01*
X77937118Y-82700500D01*
X78062882Y-82700500D01*
X78065330Y-82700307D01*
X78065339Y-82700307D01*
X78162851Y-82692632D01*
X78251148Y-82685683D01*
X78255955Y-82684529D01*
X78255961Y-82684528D01*
X78411711Y-82647135D01*
X78496111Y-82626873D01*
X78500684Y-82624979D01*
X78724285Y-82532361D01*
X78724289Y-82532359D01*
X78728859Y-82530466D01*
X78943659Y-82398836D01*
X78947419Y-82395624D01*
X78947424Y-82395621D01*
X79131462Y-82238437D01*
X79135224Y-82235224D01*
X79150744Y-82217052D01*
X79295621Y-82047424D01*
X79295624Y-82047419D01*
X79298836Y-82043659D01*
X79430466Y-81828859D01*
X79445056Y-81793637D01*
X79524979Y-81600684D01*
X79524980Y-81600682D01*
X79526873Y-81596111D01*
X79566851Y-81429591D01*
X79584528Y-81355961D01*
X79584529Y-81355955D01*
X79585683Y-81351148D01*
X79605449Y-81100000D01*
X79585683Y-80848852D01*
X79576809Y-80811886D01*
X79528028Y-80608701D01*
X79526873Y-80603889D01*
X79524615Y-80598437D01*
X79432361Y-80375715D01*
X79432359Y-80375711D01*
X79430466Y-80371141D01*
X79298836Y-80156341D01*
X79295624Y-80152581D01*
X79295621Y-80152576D01*
X79162035Y-79996167D01*
X82699500Y-79996167D01*
X82699501Y-83003832D01*
X82702481Y-83035368D01*
X82705024Y-83042609D01*
X82705024Y-83042610D01*
X82726750Y-83104476D01*
X82747366Y-83163183D01*
X82827850Y-83272150D01*
X82936817Y-83352634D01*
X82945704Y-83355755D01*
X82945706Y-83355756D01*
X83044000Y-83390274D01*
X83064632Y-83397519D01*
X83072278Y-83398242D01*
X83072279Y-83398242D01*
X83078249Y-83398806D01*
X83096167Y-83400500D01*
X83649719Y-83400500D01*
X84203832Y-83400499D01*
X84206782Y-83400220D01*
X84206787Y-83400220D01*
X84217406Y-83399216D01*
X84235368Y-83397519D01*
X84242609Y-83394976D01*
X84242610Y-83394976D01*
X84354294Y-83355756D01*
X84354296Y-83355755D01*
X84363183Y-83352634D01*
X84472150Y-83272150D01*
X84552634Y-83163183D01*
X84574121Y-83101998D01*
X84594974Y-83042615D01*
X84597519Y-83035368D01*
X84600500Y-83003833D01*
X84600499Y-79996168D01*
X84600499Y-79996167D01*
X89399500Y-79996167D01*
X89399501Y-83003832D01*
X89402481Y-83035368D01*
X89405024Y-83042609D01*
X89405024Y-83042610D01*
X89426750Y-83104476D01*
X89447366Y-83163183D01*
X89527850Y-83272150D01*
X89636817Y-83352634D01*
X89645704Y-83355755D01*
X89645706Y-83355756D01*
X89744000Y-83390274D01*
X89764632Y-83397519D01*
X89772278Y-83398242D01*
X89772279Y-83398242D01*
X89778249Y-83398806D01*
X89796167Y-83400500D01*
X90349719Y-83400500D01*
X90903832Y-83400499D01*
X90906782Y-83400220D01*
X90906787Y-83400220D01*
X90917406Y-83399216D01*
X90935368Y-83397519D01*
X90942609Y-83394976D01*
X90942610Y-83394976D01*
X91054294Y-83355756D01*
X91054296Y-83355755D01*
X91063183Y-83352634D01*
X91172150Y-83272150D01*
X91252634Y-83163183D01*
X91274121Y-83101998D01*
X91294974Y-83042615D01*
X91297519Y-83035368D01*
X91300500Y-83003833D01*
X91300499Y-79996168D01*
X91297519Y-79964632D01*
X91272753Y-79894107D01*
X91255756Y-79845706D01*
X91255755Y-79845704D01*
X91252634Y-79836817D01*
X91172150Y-79727850D01*
X91063183Y-79647366D01*
X91054296Y-79644245D01*
X91054294Y-79644244D01*
X90942615Y-79605026D01*
X90935368Y-79602481D01*
X90927722Y-79601758D01*
X90927721Y-79601758D01*
X90921751Y-79601194D01*
X90903833Y-79599500D01*
X90350281Y-79599500D01*
X89796168Y-79599501D01*
X89793218Y-79599780D01*
X89793213Y-79599780D01*
X89782594Y-79600784D01*
X89764632Y-79602481D01*
X89757391Y-79605024D01*
X89757390Y-79605024D01*
X89645706Y-79644244D01*
X89645704Y-79644245D01*
X89636817Y-79647366D01*
X89527850Y-79727850D01*
X89447366Y-79836817D01*
X89444245Y-79845704D01*
X89444244Y-79845706D01*
X89427247Y-79894107D01*
X89402481Y-79964632D01*
X89399500Y-79996167D01*
X84600499Y-79996167D01*
X84597519Y-79964632D01*
X84572753Y-79894107D01*
X84555756Y-79845706D01*
X84555755Y-79845704D01*
X84552634Y-79836817D01*
X84472150Y-79727850D01*
X84363183Y-79647366D01*
X84354296Y-79644245D01*
X84354294Y-79644244D01*
X84242615Y-79605026D01*
X84235368Y-79602481D01*
X84227722Y-79601758D01*
X84227721Y-79601758D01*
X84221751Y-79601194D01*
X84203833Y-79599500D01*
X83650281Y-79599500D01*
X83096168Y-79599501D01*
X83093218Y-79599780D01*
X83093213Y-79599780D01*
X83082594Y-79600784D01*
X83064632Y-79602481D01*
X83057391Y-79605024D01*
X83057390Y-79605024D01*
X82945706Y-79644244D01*
X82945704Y-79644245D01*
X82936817Y-79647366D01*
X82827850Y-79727850D01*
X82747366Y-79836817D01*
X82744245Y-79845704D01*
X82744244Y-79845706D01*
X82727247Y-79894107D01*
X82702481Y-79964632D01*
X82699500Y-79996167D01*
X79162035Y-79996167D01*
X79138437Y-79968538D01*
X79135224Y-79964776D01*
X79116167Y-79948500D01*
X78947424Y-79804379D01*
X78947419Y-79804376D01*
X78943659Y-79801164D01*
X78758925Y-79687958D01*
X78733079Y-79672120D01*
X78728859Y-79669534D01*
X78724289Y-79667641D01*
X78724285Y-79667639D01*
X78500684Y-79575021D01*
X78500682Y-79575020D01*
X78496111Y-79573127D01*
X78411711Y-79552865D01*
X78255961Y-79515472D01*
X78255955Y-79515471D01*
X78251148Y-79514317D01*
X78162851Y-79507368D01*
X78065339Y-79499693D01*
X78065330Y-79499693D01*
X78062882Y-79499500D01*
X77937118Y-79499500D01*
X77934670Y-79499693D01*
X77934661Y-79499693D01*
X77837149Y-79507368D01*
X77748852Y-79514317D01*
X77744045Y-79515471D01*
X77744039Y-79515472D01*
X77588289Y-79552865D01*
X77503889Y-79573127D01*
X77499318Y-79575020D01*
X77499316Y-79575021D01*
X77275715Y-79667639D01*
X77275711Y-79667641D01*
X77271141Y-79669534D01*
X77266921Y-79672120D01*
X77241075Y-79687958D01*
X77056341Y-79801164D01*
X77052581Y-79804376D01*
X77052576Y-79804379D01*
X76883833Y-79948500D01*
X76864776Y-79964776D01*
X76861563Y-79968538D01*
X76704379Y-80152576D01*
X76704376Y-80152581D01*
X76701164Y-80156341D01*
X76569534Y-80371141D01*
X76567641Y-80375711D01*
X76567639Y-80375715D01*
X76475385Y-80598437D01*
X76473127Y-80603889D01*
X76471972Y-80608701D01*
X76423192Y-80811886D01*
X76414317Y-80848852D01*
X76394551Y-81100000D01*
X75001000Y-81100000D01*
X75001000Y-77303834D01*
X85299500Y-77303834D01*
X85299778Y-77306773D01*
X85299778Y-77306777D01*
X85301758Y-77327722D01*
X85302481Y-77335369D01*
X85347366Y-77463184D01*
X85352958Y-77470754D01*
X85352959Y-77470757D01*
X85414812Y-77554498D01*
X85427850Y-77572150D01*
X85435421Y-77577742D01*
X85529243Y-77647041D01*
X85529246Y-77647042D01*
X85536816Y-77652634D01*
X85664631Y-77697519D01*
X85672277Y-77698242D01*
X85672278Y-77698242D01*
X85678248Y-77698806D01*
X85696166Y-77700500D01*
X86303834Y-77700500D01*
X86321752Y-77698806D01*
X86327722Y-77698242D01*
X86327723Y-77698242D01*
X86335369Y-77697519D01*
X86463184Y-77652634D01*
X86470754Y-77647042D01*
X86470757Y-77647041D01*
X86564579Y-77577742D01*
X86572150Y-77572150D01*
X86585188Y-77554498D01*
X86647041Y-77470757D01*
X86647042Y-77470754D01*
X86652634Y-77463184D01*
X86697519Y-77335369D01*
X86698242Y-77327722D01*
X86700222Y-77306777D01*
X86700222Y-77306773D01*
X86700500Y-77303834D01*
X86700500Y-77297095D01*
X86992001Y-77297095D01*
X86992338Y-77303614D01*
X87002257Y-77399206D01*
X87005149Y-77412600D01*
X87056588Y-77566784D01*
X87062761Y-77579962D01*
X87148063Y-77717807D01*
X87157099Y-77729208D01*
X87271829Y-77843739D01*
X87283240Y-77852751D01*
X87421243Y-77937816D01*
X87434424Y-77943963D01*
X87588710Y-77995138D01*
X87602086Y-77998005D01*
X87696438Y-78007672D01*
X87702854Y-78008000D01*
X87727885Y-78008000D01*
X87743124Y-78003525D01*
X87744329Y-78002135D01*
X87746000Y-77994452D01*
X87746000Y-77989884D01*
X88254000Y-77989884D01*
X88258475Y-78005123D01*
X88259865Y-78006328D01*
X88267548Y-78007999D01*
X88297095Y-78007999D01*
X88303614Y-78007662D01*
X88399206Y-77997743D01*
X88412600Y-77994851D01*
X88566784Y-77943412D01*
X88579962Y-77937239D01*
X88717807Y-77851937D01*
X88729208Y-77842901D01*
X88843739Y-77728171D01*
X88852751Y-77716760D01*
X88937816Y-77578757D01*
X88943963Y-77565576D01*
X88995138Y-77411290D01*
X88998005Y-77397914D01*
X89007672Y-77303562D01*
X89008000Y-77297146D01*
X89008000Y-76022115D01*
X89003525Y-76006876D01*
X89002135Y-76005671D01*
X88994452Y-76004000D01*
X88272115Y-76004000D01*
X88256876Y-76008475D01*
X88255671Y-76009865D01*
X88254000Y-76017548D01*
X88254000Y-77989884D01*
X87746000Y-77989884D01*
X87746000Y-76022115D01*
X87741525Y-76006876D01*
X87740135Y-76005671D01*
X87732452Y-76004000D01*
X87010116Y-76004000D01*
X86994877Y-76008475D01*
X86993672Y-76009865D01*
X86992001Y-76017548D01*
X86992001Y-77297095D01*
X86700500Y-77297095D01*
X86700500Y-75477885D01*
X86992000Y-75477885D01*
X86996475Y-75493124D01*
X86997865Y-75494329D01*
X87005548Y-75496000D01*
X87727885Y-75496000D01*
X87743124Y-75491525D01*
X87744329Y-75490135D01*
X87746000Y-75482452D01*
X87746000Y-73510116D01*
X87741525Y-73494877D01*
X87740135Y-73493672D01*
X87732452Y-73492001D01*
X87702905Y-73492001D01*
X87696386Y-73492338D01*
X87600794Y-73502257D01*
X87587400Y-73505149D01*
X87433216Y-73556588D01*
X87420038Y-73562761D01*
X87282193Y-73648063D01*
X87270792Y-73657099D01*
X87156261Y-73771829D01*
X87147249Y-73783240D01*
X87062184Y-73921243D01*
X87056037Y-73934424D01*
X87004862Y-74088710D01*
X87001995Y-74102086D01*
X86992328Y-74196438D01*
X86992000Y-74202855D01*
X86992000Y-75477885D01*
X86700500Y-75477885D01*
X86700500Y-74196166D01*
X86697519Y-74164631D01*
X86652634Y-74036816D01*
X86647042Y-74029246D01*
X86647041Y-74029243D01*
X86577742Y-73935421D01*
X86572150Y-73927850D01*
X86551640Y-73912701D01*
X86508730Y-73856140D01*
X86500500Y-73811350D01*
X86500500Y-70359504D01*
X86520502Y-70291383D01*
X86537405Y-70270409D01*
X86754280Y-70053534D01*
X86763624Y-70046068D01*
X86763292Y-70045678D01*
X86770128Y-70039860D01*
X86777720Y-70035070D01*
X86812756Y-69995399D01*
X86818102Y-69989712D01*
X86829320Y-69978494D01*
X86832010Y-69974905D01*
X86835450Y-69970316D01*
X86841832Y-69962477D01*
X86866682Y-69934339D01*
X86872623Y-69927612D01*
X86876437Y-69919489D01*
X86878508Y-69916336D01*
X86886327Y-69903324D01*
X86888143Y-69900006D01*
X86893526Y-69892824D01*
X86909858Y-69849259D01*
X86913783Y-69839944D01*
X86916517Y-69834121D01*
X86933553Y-69797837D01*
X86934935Y-69788964D01*
X86936042Y-69785342D01*
X86939891Y-69770672D01*
X86940702Y-69766983D01*
X86943852Y-69758581D01*
X86944517Y-69749636D01*
X86944519Y-69749626D01*
X86947302Y-69712172D01*
X86948452Y-69702145D01*
X86950500Y-69688991D01*
X86950500Y-69673797D01*
X86950846Y-69664460D01*
X86953811Y-69624557D01*
X86954476Y-69615609D01*
X86952603Y-69606833D01*
X86951992Y-69597876D01*
X86951998Y-69597876D01*
X86950500Y-69583683D01*
X86950500Y-68119745D01*
X86970502Y-68051624D01*
X87006497Y-68014980D01*
X87034239Y-67996443D01*
X87044552Y-67989552D01*
X87088867Y-67923231D01*
X87088903Y-67923051D01*
X87128139Y-67874361D01*
X87195502Y-67851940D01*
X87264293Y-67869498D01*
X87310267Y-67918876D01*
X87311133Y-67923231D01*
X87355448Y-67989552D01*
X87365761Y-67996443D01*
X87393503Y-68014980D01*
X87439030Y-68069458D01*
X87449500Y-68119745D01*
X87449500Y-71979819D01*
X87448172Y-71991704D01*
X87448682Y-71991745D01*
X87447962Y-72000691D01*
X87445981Y-72009447D01*
X87446537Y-72018407D01*
X87449258Y-72062264D01*
X87449500Y-72070067D01*
X87449500Y-72085940D01*
X87450135Y-72090374D01*
X87450948Y-72096050D01*
X87451978Y-72106106D01*
X87452799Y-72119329D01*
X87454859Y-72152538D01*
X87457907Y-72160982D01*
X87458676Y-72164694D01*
X87462343Y-72179399D01*
X87463404Y-72183027D01*
X87464677Y-72191918D01*
X87483939Y-72234282D01*
X87487746Y-72243637D01*
X87500491Y-72278943D01*
X87500493Y-72278947D01*
X87503540Y-72287387D01*
X87508835Y-72294635D01*
X87510611Y-72297975D01*
X87518274Y-72311089D01*
X87520303Y-72314261D01*
X87524016Y-72322428D01*
X87529871Y-72329223D01*
X87529873Y-72329226D01*
X87554387Y-72357675D01*
X87560675Y-72365595D01*
X87568522Y-72376336D01*
X87579265Y-72387079D01*
X87585623Y-72393925D01*
X87617600Y-72431037D01*
X87625134Y-72435920D01*
X87631896Y-72441819D01*
X87631892Y-72441824D01*
X87642986Y-72450800D01*
X88477446Y-73285260D01*
X88511472Y-73347572D01*
X88506407Y-73418387D01*
X88463860Y-73475223D01*
X88397340Y-73500034D01*
X88375509Y-73499699D01*
X88303562Y-73492328D01*
X88297145Y-73492000D01*
X88272115Y-73492000D01*
X88256876Y-73496475D01*
X88255671Y-73497865D01*
X88254000Y-73505548D01*
X88254000Y-75477885D01*
X88258475Y-75493124D01*
X88259865Y-75494329D01*
X88267548Y-75496000D01*
X88989884Y-75496000D01*
X89005123Y-75491525D01*
X89006328Y-75490135D01*
X89007999Y-75482452D01*
X89007999Y-74202905D01*
X89007662Y-74196388D01*
X89000207Y-74124542D01*
X89013072Y-74054721D01*
X89061643Y-74002938D01*
X89130498Y-73985636D01*
X89197778Y-74008306D01*
X89214629Y-74022443D01*
X92596466Y-77404280D01*
X92603932Y-77413624D01*
X92604322Y-77413292D01*
X92610140Y-77420128D01*
X92614930Y-77427720D01*
X92621658Y-77433662D01*
X92621659Y-77433663D01*
X92654600Y-77462755D01*
X92660288Y-77468102D01*
X94262595Y-79070409D01*
X94296621Y-79132721D01*
X94299500Y-79159504D01*
X94299500Y-81529819D01*
X94298172Y-81541704D01*
X94298682Y-81541745D01*
X94297962Y-81550691D01*
X94295981Y-81559447D01*
X94296537Y-81568407D01*
X94299258Y-81612264D01*
X94299500Y-81620067D01*
X94299500Y-81635940D01*
X94300135Y-81640374D01*
X94300948Y-81646050D01*
X94301978Y-81656106D01*
X94304859Y-81702538D01*
X94307907Y-81710982D01*
X94308676Y-81714694D01*
X94312343Y-81729399D01*
X94313404Y-81733027D01*
X94314677Y-81741918D01*
X94333939Y-81784282D01*
X94337746Y-81793637D01*
X94350491Y-81828943D01*
X94350493Y-81828947D01*
X94353540Y-81837387D01*
X94358835Y-81844635D01*
X94360611Y-81847975D01*
X94368274Y-81861089D01*
X94370303Y-81864261D01*
X94374016Y-81872428D01*
X94379871Y-81879223D01*
X94379873Y-81879226D01*
X94404387Y-81907675D01*
X94410675Y-81915595D01*
X94418522Y-81926336D01*
X94429265Y-81937079D01*
X94435623Y-81943925D01*
X94467600Y-81981037D01*
X94475134Y-81985920D01*
X94481896Y-81991819D01*
X94481892Y-81991824D01*
X94492986Y-82000800D01*
X95396466Y-82904280D01*
X95403932Y-82913624D01*
X95404322Y-82913292D01*
X95410140Y-82920128D01*
X95414930Y-82927720D01*
X95421658Y-82933662D01*
X95421659Y-82933663D01*
X95454600Y-82962755D01*
X95460288Y-82968102D01*
X95471507Y-82979321D01*
X95475095Y-82982010D01*
X95475096Y-82982011D01*
X95479684Y-82985450D01*
X95487523Y-82991832D01*
X95522388Y-83022623D01*
X95530506Y-83026434D01*
X95533659Y-83028506D01*
X95546680Y-83036329D01*
X95549989Y-83038141D01*
X95557176Y-83043527D01*
X95565581Y-83046678D01*
X95565583Y-83046679D01*
X95600737Y-83059857D01*
X95610057Y-83063784D01*
X95652163Y-83083553D01*
X95661035Y-83084934D01*
X95664658Y-83086042D01*
X95679317Y-83089888D01*
X95683014Y-83090701D01*
X95691420Y-83093852D01*
X95737843Y-83097302D01*
X95747856Y-83098452D01*
X95761009Y-83100500D01*
X95776204Y-83100500D01*
X95785542Y-83100846D01*
X95834392Y-83104476D01*
X95843168Y-83102603D01*
X95852125Y-83101992D01*
X95852125Y-83101998D01*
X95866318Y-83100500D01*
X110279819Y-83100500D01*
X110291704Y-83101828D01*
X110291745Y-83101318D01*
X110300691Y-83102038D01*
X110309447Y-83104019D01*
X110352980Y-83101318D01*
X110362264Y-83100742D01*
X110370067Y-83100500D01*
X110385940Y-83100500D01*
X110396052Y-83099052D01*
X110406106Y-83098022D01*
X110434097Y-83096285D01*
X110452538Y-83095141D01*
X110460982Y-83092093D01*
X110464694Y-83091324D01*
X110479399Y-83087657D01*
X110483027Y-83086596D01*
X110491918Y-83085323D01*
X110534282Y-83066061D01*
X110543637Y-83062254D01*
X110578943Y-83049509D01*
X110578947Y-83049507D01*
X110587387Y-83046460D01*
X110594635Y-83041165D01*
X110597975Y-83039389D01*
X110611089Y-83031726D01*
X110614261Y-83029697D01*
X110622428Y-83025984D01*
X110629223Y-83020129D01*
X110629226Y-83020127D01*
X110657675Y-82995613D01*
X110665596Y-82989324D01*
X110672402Y-82984352D01*
X110676336Y-82981478D01*
X110687079Y-82970735D01*
X110693926Y-82964377D01*
X110724237Y-82938259D01*
X110731037Y-82932400D01*
X110735920Y-82924866D01*
X110741819Y-82918104D01*
X110741824Y-82918108D01*
X110750800Y-82907014D01*
X112557814Y-81100000D01*
X154394551Y-81100000D01*
X154414317Y-81351148D01*
X154415471Y-81355955D01*
X154415472Y-81355961D01*
X154433149Y-81429591D01*
X154473127Y-81596111D01*
X154475020Y-81600682D01*
X154475021Y-81600684D01*
X154554945Y-81793637D01*
X154569534Y-81828859D01*
X154701164Y-82043659D01*
X154704376Y-82047419D01*
X154704379Y-82047424D01*
X154849256Y-82217052D01*
X154864776Y-82235224D01*
X154868538Y-82238437D01*
X155052576Y-82395621D01*
X155052581Y-82395624D01*
X155056341Y-82398836D01*
X155271141Y-82530466D01*
X155275711Y-82532359D01*
X155275715Y-82532361D01*
X155499316Y-82624979D01*
X155503889Y-82626873D01*
X155588289Y-82647135D01*
X155744039Y-82684528D01*
X155744045Y-82684529D01*
X155748852Y-82685683D01*
X155837149Y-82692632D01*
X155934661Y-82700307D01*
X155934670Y-82700307D01*
X155937118Y-82700500D01*
X156062882Y-82700500D01*
X156065330Y-82700307D01*
X156065339Y-82700307D01*
X156162851Y-82692632D01*
X156251148Y-82685683D01*
X156255955Y-82684529D01*
X156255961Y-82684528D01*
X156411711Y-82647135D01*
X156496111Y-82626873D01*
X156500684Y-82624979D01*
X156724285Y-82532361D01*
X156724289Y-82532359D01*
X156728859Y-82530466D01*
X156943659Y-82398836D01*
X156947419Y-82395624D01*
X156947424Y-82395621D01*
X157131462Y-82238437D01*
X157135224Y-82235224D01*
X157150744Y-82217052D01*
X157295621Y-82047424D01*
X157295624Y-82047419D01*
X157298836Y-82043659D01*
X157430466Y-81828859D01*
X157445056Y-81793637D01*
X157524979Y-81600684D01*
X157524980Y-81600682D01*
X157526873Y-81596111D01*
X157566851Y-81429591D01*
X157584528Y-81355961D01*
X157584529Y-81355955D01*
X157585683Y-81351148D01*
X157605449Y-81100000D01*
X157585683Y-80848852D01*
X157576809Y-80811886D01*
X157528028Y-80608701D01*
X157526873Y-80603889D01*
X157524615Y-80598437D01*
X157432361Y-80375715D01*
X157432359Y-80375711D01*
X157430466Y-80371141D01*
X157298836Y-80156341D01*
X157295624Y-80152581D01*
X157295621Y-80152576D01*
X157138437Y-79968538D01*
X157135224Y-79964776D01*
X157116167Y-79948500D01*
X156947424Y-79804379D01*
X156947419Y-79804376D01*
X156943659Y-79801164D01*
X156758925Y-79687958D01*
X156733079Y-79672120D01*
X156728859Y-79669534D01*
X156724289Y-79667641D01*
X156724285Y-79667639D01*
X156500684Y-79575021D01*
X156500682Y-79575020D01*
X156496111Y-79573127D01*
X156411711Y-79552865D01*
X156255961Y-79515472D01*
X156255955Y-79515471D01*
X156251148Y-79514317D01*
X156162851Y-79507368D01*
X156065339Y-79499693D01*
X156065330Y-79499693D01*
X156062882Y-79499500D01*
X155937118Y-79499500D01*
X155934670Y-79499693D01*
X155934661Y-79499693D01*
X155837149Y-79507368D01*
X155748852Y-79514317D01*
X155744045Y-79515471D01*
X155744039Y-79515472D01*
X155588289Y-79552865D01*
X155503889Y-79573127D01*
X155499318Y-79575020D01*
X155499316Y-79575021D01*
X155275715Y-79667639D01*
X155275711Y-79667641D01*
X155271141Y-79669534D01*
X155266921Y-79672120D01*
X155241075Y-79687958D01*
X155056341Y-79801164D01*
X155052581Y-79804376D01*
X155052576Y-79804379D01*
X154883833Y-79948500D01*
X154864776Y-79964776D01*
X154861563Y-79968538D01*
X154704379Y-80152576D01*
X154704376Y-80152581D01*
X154701164Y-80156341D01*
X154569534Y-80371141D01*
X154567641Y-80375711D01*
X154567639Y-80375715D01*
X154475385Y-80598437D01*
X154473127Y-80603889D01*
X154471972Y-80608701D01*
X154423192Y-80811886D01*
X154414317Y-80848852D01*
X154394551Y-81100000D01*
X112557814Y-81100000D01*
X117104280Y-76553534D01*
X117113624Y-76546068D01*
X117113292Y-76545678D01*
X117120128Y-76539860D01*
X117127720Y-76535070D01*
X117162756Y-76495399D01*
X117168102Y-76489712D01*
X117179320Y-76478494D01*
X117182010Y-76474905D01*
X117185450Y-76470316D01*
X117191832Y-76462477D01*
X117216682Y-76434339D01*
X117222623Y-76427612D01*
X117226437Y-76419489D01*
X117228508Y-76416336D01*
X117236327Y-76403324D01*
X117238143Y-76400006D01*
X117243526Y-76392824D01*
X117259858Y-76349259D01*
X117263783Y-76339944D01*
X117283553Y-76297837D01*
X117284935Y-76288964D01*
X117286042Y-76285342D01*
X117289891Y-76270672D01*
X117290702Y-76266983D01*
X117293852Y-76258581D01*
X117294517Y-76249636D01*
X117294519Y-76249626D01*
X117297302Y-76212172D01*
X117298452Y-76202145D01*
X117300500Y-76188991D01*
X117300500Y-76173797D01*
X117300846Y-76164460D01*
X117303811Y-76124557D01*
X117304476Y-76115609D01*
X117302603Y-76106833D01*
X117301992Y-76097876D01*
X117301998Y-76097876D01*
X117300500Y-76083683D01*
X117300500Y-75787371D01*
X117320502Y-75719250D01*
X117335568Y-75700555D01*
X117344552Y-75694552D01*
X117388550Y-75628705D01*
X123767001Y-75628705D01*
X123767264Y-75634454D01*
X123773132Y-75698315D01*
X123775743Y-75711351D01*
X123822715Y-75861243D01*
X123828921Y-75874988D01*
X123909824Y-76008574D01*
X123919131Y-76020443D01*
X124029557Y-76130869D01*
X124041426Y-76140176D01*
X124175012Y-76221079D01*
X124188757Y-76227285D01*
X124338644Y-76274256D01*
X124351694Y-76276869D01*
X124406586Y-76281913D01*
X124418124Y-76278525D01*
X124419329Y-76277135D01*
X124421000Y-76269452D01*
X124421000Y-75572115D01*
X124416525Y-75556876D01*
X124415135Y-75555671D01*
X124407452Y-75554000D01*
X123785116Y-75554000D01*
X123769877Y-75558475D01*
X123768672Y-75559865D01*
X123767001Y-75567548D01*
X123767001Y-75628705D01*
X117388550Y-75628705D01*
X117388867Y-75628231D01*
X117392377Y-75610588D01*
X117399293Y-75575816D01*
X117400500Y-75569748D01*
X117400500Y-75027885D01*
X123767000Y-75027885D01*
X123771475Y-75043124D01*
X123772865Y-75044329D01*
X123780548Y-75046000D01*
X124402885Y-75046000D01*
X124418124Y-75041525D01*
X124419329Y-75040135D01*
X124421000Y-75032452D01*
X124421000Y-74335116D01*
X124416525Y-74319877D01*
X124415135Y-74318672D01*
X124410706Y-74317709D01*
X124351685Y-74323132D01*
X124338649Y-74325743D01*
X124188757Y-74372715D01*
X124175012Y-74378921D01*
X124041426Y-74459824D01*
X124029557Y-74469131D01*
X123919131Y-74579557D01*
X123909824Y-74591426D01*
X123828921Y-74725012D01*
X123822715Y-74738757D01*
X123775744Y-74888644D01*
X123773131Y-74901694D01*
X123767266Y-74965521D01*
X123767000Y-74971309D01*
X123767000Y-75027885D01*
X117400500Y-75027885D01*
X117400500Y-73989294D01*
X118917709Y-73989294D01*
X118923132Y-74048315D01*
X118925743Y-74061351D01*
X118972715Y-74211243D01*
X118978921Y-74224988D01*
X119059824Y-74358574D01*
X119069131Y-74370443D01*
X119179557Y-74480869D01*
X119191426Y-74490176D01*
X119325012Y-74571079D01*
X119338757Y-74577285D01*
X119488644Y-74624256D01*
X119501694Y-74626869D01*
X119565521Y-74632734D01*
X119571309Y-74633000D01*
X119627885Y-74633000D01*
X119643124Y-74628525D01*
X119644329Y-74627135D01*
X119646000Y-74619452D01*
X119646000Y-74614884D01*
X120154000Y-74614884D01*
X120158475Y-74630123D01*
X120159865Y-74631328D01*
X120167548Y-74632999D01*
X120228705Y-74632999D01*
X120234454Y-74632736D01*
X120298315Y-74626868D01*
X120311351Y-74624257D01*
X120461243Y-74577285D01*
X120474988Y-74571079D01*
X120608574Y-74490176D01*
X120620443Y-74480869D01*
X120730869Y-74370443D01*
X120740176Y-74358574D01*
X120821079Y-74224988D01*
X120827285Y-74211243D01*
X120874256Y-74061356D01*
X120876869Y-74048306D01*
X120881913Y-73993414D01*
X120878525Y-73981876D01*
X120877135Y-73980671D01*
X120869452Y-73979000D01*
X120172115Y-73979000D01*
X120156876Y-73983475D01*
X120155671Y-73984865D01*
X120154000Y-73992548D01*
X120154000Y-74614884D01*
X119646000Y-74614884D01*
X119646000Y-73997115D01*
X119641525Y-73981876D01*
X119640135Y-73980671D01*
X119632452Y-73979000D01*
X118935116Y-73979000D01*
X118919877Y-73983475D01*
X118918672Y-73984865D01*
X118917709Y-73989294D01*
X117400500Y-73989294D01*
X117400500Y-73630252D01*
X117388867Y-73571769D01*
X117344552Y-73505448D01*
X117278231Y-73461133D01*
X117266062Y-73458712D01*
X117266061Y-73458712D01*
X117225816Y-73450707D01*
X117219748Y-73449500D01*
X116665016Y-73449500D01*
X116596895Y-73429498D01*
X116550402Y-73375842D01*
X116540298Y-73305568D01*
X116569792Y-73240988D01*
X116575921Y-73234405D01*
X117078573Y-72731753D01*
X117140885Y-72697727D01*
X117211700Y-72702792D01*
X117237671Y-72716083D01*
X117271769Y-72738867D01*
X117283938Y-72741288D01*
X117283939Y-72741288D01*
X117297946Y-72744074D01*
X117330252Y-72750500D01*
X118169748Y-72750500D01*
X118202054Y-72744074D01*
X118216061Y-72741288D01*
X118216062Y-72741288D01*
X118228231Y-72738867D01*
X118294552Y-72694552D01*
X118338867Y-72628231D01*
X118345271Y-72596039D01*
X118349293Y-72575816D01*
X118350500Y-72569748D01*
X118350500Y-72526500D01*
X118370502Y-72458379D01*
X118424158Y-72411886D01*
X118476500Y-72400500D01*
X119162241Y-72400500D01*
X119230362Y-72420502D01*
X119274508Y-72469297D01*
X119296950Y-72513342D01*
X119386658Y-72603050D01*
X119395488Y-72607549D01*
X119395492Y-72607552D01*
X119421013Y-72620555D01*
X119472629Y-72669303D01*
X119489695Y-72738217D01*
X119466795Y-72805419D01*
X119411197Y-72849572D01*
X119401490Y-72853056D01*
X119338757Y-72872715D01*
X119325012Y-72878921D01*
X119191426Y-72959824D01*
X119179557Y-72969131D01*
X119069131Y-73079557D01*
X119059824Y-73091426D01*
X118978921Y-73225012D01*
X118972715Y-73238757D01*
X118925744Y-73388644D01*
X118923131Y-73401694D01*
X118918087Y-73456586D01*
X118921475Y-73468124D01*
X118922865Y-73469329D01*
X118930548Y-73471000D01*
X120864884Y-73471000D01*
X120880123Y-73466525D01*
X120881328Y-73465135D01*
X120882291Y-73460706D01*
X120876868Y-73401685D01*
X120874257Y-73388649D01*
X120827285Y-73238757D01*
X120821079Y-73225012D01*
X120740176Y-73091426D01*
X120730869Y-73079557D01*
X120620443Y-72969131D01*
X120608574Y-72959824D01*
X120474988Y-72878921D01*
X120461243Y-72872715D01*
X120398510Y-72853056D01*
X120339488Y-72813599D01*
X120311168Y-72748495D01*
X120322541Y-72678415D01*
X120352177Y-72645438D01*
X122147000Y-72645438D01*
X122147337Y-72651953D01*
X122156894Y-72744057D01*
X122159788Y-72757456D01*
X122209381Y-72906107D01*
X122215555Y-72919286D01*
X122297788Y-73052173D01*
X122306824Y-73063574D01*
X122417429Y-73173986D01*
X122428840Y-73182998D01*
X122561880Y-73265004D01*
X122575061Y-73271151D01*
X122723814Y-73320491D01*
X122737190Y-73323358D01*
X122828097Y-73332672D01*
X122834513Y-73333000D01*
X122857885Y-73333000D01*
X122873124Y-73328525D01*
X122874329Y-73327135D01*
X122876000Y-73319452D01*
X122876000Y-73314885D01*
X123384000Y-73314885D01*
X123388475Y-73330124D01*
X123389865Y-73331329D01*
X123397548Y-73333000D01*
X123425438Y-73333000D01*
X123431953Y-73332663D01*
X123524057Y-73323106D01*
X123537456Y-73320212D01*
X123686107Y-73270619D01*
X123699286Y-73264445D01*
X123832173Y-73182212D01*
X123843574Y-73173176D01*
X123953986Y-73062571D01*
X123962998Y-73051160D01*
X124045004Y-72918120D01*
X124051151Y-72904939D01*
X124100491Y-72756186D01*
X124103358Y-72742810D01*
X124112672Y-72651903D01*
X124112929Y-72646874D01*
X124108525Y-72631876D01*
X124107135Y-72630671D01*
X124099452Y-72629000D01*
X123402115Y-72629000D01*
X123386876Y-72633475D01*
X123385671Y-72634865D01*
X123384000Y-72642548D01*
X123384000Y-73314885D01*
X122876000Y-73314885D01*
X122876000Y-72647115D01*
X122871525Y-72631876D01*
X122870135Y-72630671D01*
X122862452Y-72629000D01*
X122165115Y-72629000D01*
X122149876Y-72633475D01*
X122148671Y-72634865D01*
X122147000Y-72642548D01*
X122147000Y-72645438D01*
X120352177Y-72645438D01*
X120369997Y-72625609D01*
X120378987Y-72620555D01*
X120404508Y-72607552D01*
X120404512Y-72607549D01*
X120413342Y-72603050D01*
X120503050Y-72513342D01*
X120560646Y-72400304D01*
X120564286Y-72377325D01*
X120570372Y-72338894D01*
X120575500Y-72306519D01*
X120575499Y-71843482D01*
X120571836Y-71820351D01*
X120562198Y-71759494D01*
X120562197Y-71759492D01*
X120560646Y-71749696D01*
X120551792Y-71732318D01*
X120521296Y-71672468D01*
X120503050Y-71636658D01*
X120413342Y-71546950D01*
X120300304Y-71489354D01*
X120290515Y-71487804D01*
X120290513Y-71487803D01*
X120263151Y-71483470D01*
X120206519Y-71474500D01*
X119900062Y-71474500D01*
X119593482Y-71474501D01*
X119588589Y-71475276D01*
X119588588Y-71475276D01*
X119509494Y-71487802D01*
X119509492Y-71487803D01*
X119499696Y-71489354D01*
X119490859Y-71493857D01*
X119490858Y-71493857D01*
X119477821Y-71500500D01*
X119386658Y-71546950D01*
X119296950Y-71636658D01*
X119292450Y-71645490D01*
X119274508Y-71680703D01*
X119225760Y-71732318D01*
X119162241Y-71749500D01*
X118476500Y-71749500D01*
X118408379Y-71729498D01*
X118361886Y-71675842D01*
X118350500Y-71623500D01*
X118350500Y-70630252D01*
X118346524Y-70610263D01*
X118341288Y-70583939D01*
X118341288Y-70583938D01*
X118338867Y-70571769D01*
X118326067Y-70552612D01*
X118313729Y-70534148D01*
X118294552Y-70505448D01*
X118228231Y-70461133D01*
X118216062Y-70458712D01*
X118216061Y-70458712D01*
X118175816Y-70450707D01*
X118169748Y-70449500D01*
X117330252Y-70449500D01*
X117324184Y-70450707D01*
X117283939Y-70458712D01*
X117283938Y-70458712D01*
X117271769Y-70461133D01*
X117205448Y-70505448D01*
X117186271Y-70534148D01*
X117173934Y-70552612D01*
X117161133Y-70571769D01*
X117158712Y-70583938D01*
X117158712Y-70583939D01*
X117153476Y-70610263D01*
X117149500Y-70630252D01*
X117149500Y-71687984D01*
X117129498Y-71756105D01*
X117112595Y-71777079D01*
X116665595Y-72224079D01*
X116603283Y-72258105D01*
X116532468Y-72253040D01*
X116475632Y-72210493D01*
X116450821Y-72143973D01*
X116450500Y-72134984D01*
X116450500Y-70630252D01*
X116446524Y-70610263D01*
X116441288Y-70583939D01*
X116441288Y-70583938D01*
X116438867Y-70571769D01*
X116430561Y-70559339D01*
X116401446Y-70515765D01*
X116401445Y-70515764D01*
X116394552Y-70505448D01*
X116386501Y-70500068D01*
X116353380Y-70439415D01*
X116350500Y-70412629D01*
X116350500Y-69209504D01*
X116370502Y-69141383D01*
X116387405Y-69120409D01*
X116554280Y-68953534D01*
X116563624Y-68946068D01*
X116563292Y-68945678D01*
X116570128Y-68939860D01*
X116577720Y-68935070D01*
X116612756Y-68895399D01*
X116618102Y-68889712D01*
X116629320Y-68878494D01*
X116632010Y-68874905D01*
X116635450Y-68870316D01*
X116641832Y-68862477D01*
X116666682Y-68834339D01*
X116672623Y-68827612D01*
X116676437Y-68819489D01*
X116678508Y-68816336D01*
X116686327Y-68803324D01*
X116688143Y-68800006D01*
X116693526Y-68792824D01*
X116709858Y-68749259D01*
X116713783Y-68739944D01*
X116733553Y-68697837D01*
X116734935Y-68688964D01*
X116736042Y-68685342D01*
X116739891Y-68670672D01*
X116740702Y-68666983D01*
X116743852Y-68658581D01*
X116744517Y-68649636D01*
X116744519Y-68649626D01*
X116747302Y-68612172D01*
X116748452Y-68602145D01*
X116750500Y-68588991D01*
X116750500Y-68573797D01*
X116750846Y-68564460D01*
X116753811Y-68524557D01*
X116754476Y-68515609D01*
X116752603Y-68506833D01*
X116751992Y-68497876D01*
X116751998Y-68497876D01*
X116750500Y-68483683D01*
X116750500Y-67973872D01*
X116771734Y-67903871D01*
X116788867Y-67878231D01*
X116800500Y-67819748D01*
X118499500Y-67819748D01*
X118500707Y-67825816D01*
X118508324Y-67864107D01*
X118511133Y-67878231D01*
X118555448Y-67944552D01*
X118621769Y-67988867D01*
X118633938Y-67991288D01*
X118633939Y-67991288D01*
X118648082Y-67994101D01*
X118710992Y-68027009D01*
X118746123Y-68088704D01*
X118749500Y-68117680D01*
X118749500Y-68579819D01*
X118748172Y-68591704D01*
X118748682Y-68591745D01*
X118747962Y-68600691D01*
X118745981Y-68609447D01*
X118746537Y-68618407D01*
X118749258Y-68662264D01*
X118749500Y-68670067D01*
X118749500Y-68685940D01*
X118750135Y-68690374D01*
X118750948Y-68696050D01*
X118751978Y-68706106D01*
X118752566Y-68715578D01*
X118754859Y-68752538D01*
X118757907Y-68760982D01*
X118758676Y-68764694D01*
X118762343Y-68779399D01*
X118763404Y-68783027D01*
X118764677Y-68791918D01*
X118783939Y-68834282D01*
X118787746Y-68843637D01*
X118800491Y-68878943D01*
X118800493Y-68878947D01*
X118803540Y-68887387D01*
X118808835Y-68894635D01*
X118810611Y-68897975D01*
X118818274Y-68911089D01*
X118820303Y-68914261D01*
X118824016Y-68922428D01*
X118829871Y-68929223D01*
X118829873Y-68929226D01*
X118854387Y-68957675D01*
X118860675Y-68965595D01*
X118868522Y-68976336D01*
X118879265Y-68987079D01*
X118885623Y-68993925D01*
X118917600Y-69031037D01*
X118925134Y-69035920D01*
X118931896Y-69041819D01*
X118931892Y-69041824D01*
X118942986Y-69050800D01*
X121021466Y-71129280D01*
X121028932Y-71138624D01*
X121029322Y-71138292D01*
X121035140Y-71145128D01*
X121039930Y-71152720D01*
X121046658Y-71158662D01*
X121046659Y-71158663D01*
X121079600Y-71187755D01*
X121085288Y-71193102D01*
X121096506Y-71204320D01*
X121100094Y-71207009D01*
X121100095Y-71207010D01*
X121104684Y-71210450D01*
X121112523Y-71216832D01*
X121135798Y-71237387D01*
X121147388Y-71247623D01*
X121155511Y-71251437D01*
X121158664Y-71253508D01*
X121171676Y-71261327D01*
X121174994Y-71263143D01*
X121182176Y-71268526D01*
X121225741Y-71284858D01*
X121235050Y-71288780D01*
X121277163Y-71308553D01*
X121286036Y-71309935D01*
X121289658Y-71311042D01*
X121304328Y-71314891D01*
X121308017Y-71315702D01*
X121316419Y-71318852D01*
X121325364Y-71319517D01*
X121325374Y-71319519D01*
X121362828Y-71322302D01*
X121372855Y-71323452D01*
X121386009Y-71325500D01*
X121401203Y-71325500D01*
X121410541Y-71325846D01*
X121459391Y-71329476D01*
X121468167Y-71327603D01*
X121477124Y-71326992D01*
X121477124Y-71326998D01*
X121491317Y-71325500D01*
X122376300Y-71325500D01*
X122444421Y-71345502D01*
X122490914Y-71399158D01*
X122501018Y-71469432D01*
X122471524Y-71534012D01*
X122442604Y-71558644D01*
X122427824Y-71567790D01*
X122416426Y-71576824D01*
X122306014Y-71687429D01*
X122297002Y-71698840D01*
X122214996Y-71831880D01*
X122208849Y-71845061D01*
X122159509Y-71993814D01*
X122156642Y-72007190D01*
X122147328Y-72098097D01*
X122147071Y-72103126D01*
X122151475Y-72118124D01*
X122152865Y-72119329D01*
X122160548Y-72121000D01*
X124094885Y-72121000D01*
X124110124Y-72116525D01*
X124111329Y-72115135D01*
X124113000Y-72107452D01*
X124113000Y-72104562D01*
X124112663Y-72098047D01*
X124103106Y-72005943D01*
X124100212Y-71992544D01*
X124050619Y-71843893D01*
X124044445Y-71830714D01*
X123962212Y-71697827D01*
X123953176Y-71686426D01*
X123842571Y-71576014D01*
X123831163Y-71567005D01*
X123817788Y-71558760D01*
X123770295Y-71505987D01*
X123758873Y-71435915D01*
X123787147Y-71370792D01*
X123846141Y-71331292D01*
X123883905Y-71325500D01*
X125048500Y-71325500D01*
X125116621Y-71345502D01*
X125163114Y-71399158D01*
X125174500Y-71451500D01*
X125174500Y-72808480D01*
X125186858Y-72870609D01*
X125193752Y-72880927D01*
X125193753Y-72880929D01*
X125219383Y-72919286D01*
X125233935Y-72941065D01*
X125244251Y-72947958D01*
X125294071Y-72981247D01*
X125294073Y-72981248D01*
X125304391Y-72988142D01*
X125325501Y-72992341D01*
X125353981Y-72998006D01*
X125416890Y-73030914D01*
X125428835Y-73046127D01*
X125429769Y-73045418D01*
X125510799Y-73152171D01*
X125522829Y-73164201D01*
X125622742Y-73240039D01*
X125637567Y-73248392D01*
X125754646Y-73294747D01*
X125770217Y-73298701D01*
X125843294Y-73307544D01*
X125850848Y-73308000D01*
X126149146Y-73307999D01*
X126156705Y-73307544D01*
X126234868Y-73298086D01*
X126265140Y-73298087D01*
X126343293Y-73307544D01*
X126350848Y-73308000D01*
X126548499Y-73307999D01*
X126616620Y-73328001D01*
X126663113Y-73381656D01*
X126674500Y-73433999D01*
X126674500Y-74230290D01*
X126674020Y-74241272D01*
X126670736Y-74278807D01*
X126679789Y-74312591D01*
X126680491Y-74315210D01*
X126682870Y-74325942D01*
X126689412Y-74363045D01*
X126694923Y-74372590D01*
X126696115Y-74375866D01*
X126697592Y-74379034D01*
X126700446Y-74389684D01*
X126714065Y-74409133D01*
X126722055Y-74420544D01*
X126727962Y-74429816D01*
X126736849Y-74445209D01*
X126753586Y-74514204D01*
X126730365Y-74581296D01*
X126674558Y-74625183D01*
X126608019Y-74632657D01*
X126571470Y-74626868D01*
X126561407Y-74625274D01*
X126561405Y-74625274D01*
X126556519Y-74624500D01*
X126325047Y-74624500D01*
X126093482Y-74624501D01*
X126088589Y-74625276D01*
X126088588Y-74625276D01*
X126009494Y-74637802D01*
X126009492Y-74637803D01*
X125999696Y-74639354D01*
X125886658Y-74696950D01*
X125796950Y-74786658D01*
X125792451Y-74795488D01*
X125792448Y-74795492D01*
X125779445Y-74821013D01*
X125730697Y-74872629D01*
X125661783Y-74889695D01*
X125594581Y-74866795D01*
X125550428Y-74811197D01*
X125546944Y-74801490D01*
X125527285Y-74738757D01*
X125521079Y-74725012D01*
X125440176Y-74591426D01*
X125430869Y-74579557D01*
X125320443Y-74469131D01*
X125308574Y-74459824D01*
X125174988Y-74378921D01*
X125161243Y-74372715D01*
X125011356Y-74325744D01*
X124998306Y-74323131D01*
X124943414Y-74318087D01*
X124931876Y-74321475D01*
X124930671Y-74322865D01*
X124929000Y-74330548D01*
X124929000Y-76264884D01*
X124933475Y-76280123D01*
X124934865Y-76281328D01*
X124939294Y-76282291D01*
X124998315Y-76276868D01*
X125011351Y-76274257D01*
X125161243Y-76227285D01*
X125174988Y-76221079D01*
X125308574Y-76140176D01*
X125320443Y-76130869D01*
X125430869Y-76020443D01*
X125440176Y-76008574D01*
X125521079Y-75874988D01*
X125527285Y-75861243D01*
X125546944Y-75798510D01*
X125586401Y-75739488D01*
X125651505Y-75711168D01*
X125721585Y-75722541D01*
X125774391Y-75769997D01*
X125779445Y-75778987D01*
X125792448Y-75804508D01*
X125792449Y-75804509D01*
X125796950Y-75813342D01*
X125886658Y-75903050D01*
X125895491Y-75907550D01*
X125895490Y-75907550D01*
X125930703Y-75925492D01*
X125982318Y-75974240D01*
X125999500Y-76037759D01*
X125999500Y-76287984D01*
X125979498Y-76356105D01*
X125962595Y-76377079D01*
X124943785Y-77395889D01*
X124935681Y-77403316D01*
X124906806Y-77427545D01*
X124901293Y-77437094D01*
X124887961Y-77460185D01*
X124882055Y-77469456D01*
X124860446Y-77500316D01*
X124857592Y-77510966D01*
X124856115Y-77514134D01*
X124854923Y-77517410D01*
X124849412Y-77526955D01*
X124844556Y-77554498D01*
X124842870Y-77564058D01*
X124840492Y-77574785D01*
X124830736Y-77611193D01*
X124831697Y-77622178D01*
X124831697Y-77622180D01*
X124834020Y-77648728D01*
X124834500Y-77659710D01*
X124834500Y-77893500D01*
X124814498Y-77961621D01*
X124760842Y-78008114D01*
X124708500Y-78019500D01*
X124340252Y-78019500D01*
X124334184Y-78020707D01*
X124293939Y-78028712D01*
X124293938Y-78028712D01*
X124281769Y-78031133D01*
X124215448Y-78075448D01*
X124171133Y-78141769D01*
X124168712Y-78153938D01*
X124168712Y-78153939D01*
X124166633Y-78164391D01*
X124159500Y-78200252D01*
X124159500Y-78999748D01*
X124160707Y-79005816D01*
X124168023Y-79042594D01*
X124171133Y-79058231D01*
X124215448Y-79124552D01*
X124225761Y-79131443D01*
X124267757Y-79159504D01*
X124281769Y-79168867D01*
X124293938Y-79171288D01*
X124293939Y-79171288D01*
X124334184Y-79179293D01*
X124340252Y-79180500D01*
X125979748Y-79180500D01*
X125985816Y-79179293D01*
X126026061Y-79171288D01*
X126026062Y-79171288D01*
X126038231Y-79168867D01*
X126052244Y-79159504D01*
X126094239Y-79131443D01*
X126104552Y-79124552D01*
X126148867Y-79058231D01*
X126151978Y-79042594D01*
X126159293Y-79005816D01*
X126160500Y-78999748D01*
X126160500Y-78200252D01*
X126153367Y-78164391D01*
X126151288Y-78153939D01*
X126151288Y-78153938D01*
X126148867Y-78141769D01*
X126104552Y-78075448D01*
X126038231Y-78031133D01*
X126026062Y-78028712D01*
X126026061Y-78028712D01*
X125985816Y-78020707D01*
X125979748Y-78019500D01*
X125611500Y-78019500D01*
X125543379Y-77999498D01*
X125496886Y-77945842D01*
X125485500Y-77893500D01*
X125485500Y-77827016D01*
X125505502Y-77758895D01*
X125522405Y-77737921D01*
X126541215Y-76719111D01*
X126549319Y-76711684D01*
X126569749Y-76694541D01*
X126578194Y-76687455D01*
X126584012Y-76677377D01*
X126597039Y-76654815D01*
X126602945Y-76645544D01*
X126618230Y-76623715D01*
X126624554Y-76614684D01*
X126627408Y-76604034D01*
X126628885Y-76600866D01*
X126630077Y-76597590D01*
X126635588Y-76588045D01*
X126642130Y-76550942D01*
X126644509Y-76540210D01*
X126654264Y-76503807D01*
X126653274Y-76492481D01*
X126650979Y-76466257D01*
X126650500Y-76455276D01*
X126650500Y-76037759D01*
X126670502Y-75969638D01*
X126719297Y-75925492D01*
X126754510Y-75907550D01*
X126754509Y-75907550D01*
X126763342Y-75903050D01*
X126853050Y-75813342D01*
X126910646Y-75700304D01*
X126912699Y-75701350D01*
X126945108Y-75653956D01*
X127010506Y-75626321D01*
X127024865Y-75625500D01*
X127350135Y-75625500D01*
X127418256Y-75645502D01*
X127464044Y-75698344D01*
X127464354Y-75700304D01*
X127467919Y-75707301D01*
X127467920Y-75707303D01*
X127475684Y-75722541D01*
X127521950Y-75813342D01*
X127611658Y-75903050D01*
X127724696Y-75960646D01*
X127734485Y-75962196D01*
X127734487Y-75962197D01*
X127761849Y-75966530D01*
X127818481Y-75975500D01*
X128049953Y-75975500D01*
X128281518Y-75975499D01*
X128289468Y-75974240D01*
X128365506Y-75962198D01*
X128365508Y-75962197D01*
X128375304Y-75960646D01*
X128488342Y-75903050D01*
X128578050Y-75813342D01*
X128635646Y-75700304D01*
X128650500Y-75606519D01*
X128650499Y-74993482D01*
X128650499Y-74993481D01*
X129099500Y-74993481D01*
X129099501Y-75606518D01*
X129100276Y-75611409D01*
X129100276Y-75611412D01*
X129100449Y-75612501D01*
X129114354Y-75700304D01*
X129118855Y-75709137D01*
X129118857Y-75709142D01*
X129125684Y-75722541D01*
X129171950Y-75813342D01*
X129261658Y-75903050D01*
X129270491Y-75907550D01*
X129270490Y-75907550D01*
X129305703Y-75925492D01*
X129357318Y-75974240D01*
X129374500Y-76037759D01*
X129374500Y-76880290D01*
X129374020Y-76891272D01*
X129370736Y-76928807D01*
X129373590Y-76939456D01*
X129380491Y-76965210D01*
X129382870Y-76975942D01*
X129389412Y-77013045D01*
X129394923Y-77022590D01*
X129396115Y-77025866D01*
X129397592Y-77029034D01*
X129400446Y-77039684D01*
X129406770Y-77048715D01*
X129422055Y-77070544D01*
X129427961Y-77079815D01*
X129441293Y-77102906D01*
X129446806Y-77112455D01*
X129455251Y-77119541D01*
X129475675Y-77136679D01*
X129483780Y-77144106D01*
X129877596Y-77537923D01*
X129911621Y-77600235D01*
X129914500Y-77627018D01*
X129914500Y-77893500D01*
X129894498Y-77961621D01*
X129840842Y-78008114D01*
X129788500Y-78019500D01*
X129420252Y-78019500D01*
X129414184Y-78020707D01*
X129373939Y-78028712D01*
X129373938Y-78028712D01*
X129361769Y-78031133D01*
X129295448Y-78075448D01*
X129251133Y-78141769D01*
X129248712Y-78153938D01*
X129248712Y-78153939D01*
X129246633Y-78164391D01*
X129239500Y-78200252D01*
X129239500Y-78999748D01*
X129240707Y-79005816D01*
X129248023Y-79042594D01*
X129251133Y-79058231D01*
X129295448Y-79124552D01*
X129305761Y-79131443D01*
X129347757Y-79159504D01*
X129361769Y-79168867D01*
X129373938Y-79171288D01*
X129373939Y-79171288D01*
X129414184Y-79179293D01*
X129420252Y-79180500D01*
X131059748Y-79180500D01*
X131065816Y-79179293D01*
X131106061Y-79171288D01*
X131106062Y-79171288D01*
X131118231Y-79168867D01*
X131132244Y-79159504D01*
X131174239Y-79131443D01*
X131184552Y-79124552D01*
X131228867Y-79058231D01*
X131231978Y-79042594D01*
X131239293Y-79005816D01*
X131240500Y-78999748D01*
X131240500Y-78200252D01*
X131233367Y-78164391D01*
X131231288Y-78153939D01*
X131231288Y-78153938D01*
X131228867Y-78141769D01*
X131184552Y-78075448D01*
X131118231Y-78031133D01*
X131106062Y-78028712D01*
X131106061Y-78028712D01*
X131065816Y-78020707D01*
X131059748Y-78019500D01*
X130691500Y-78019500D01*
X130623379Y-77999498D01*
X130576886Y-77945842D01*
X130565500Y-77893500D01*
X130565500Y-77459710D01*
X130565980Y-77448728D01*
X130568303Y-77422175D01*
X130568303Y-77422170D01*
X130569263Y-77411193D01*
X130559508Y-77374783D01*
X130557133Y-77364072D01*
X130550588Y-77326955D01*
X130545078Y-77317411D01*
X130543886Y-77314135D01*
X130542407Y-77310964D01*
X130539554Y-77300316D01*
X130527675Y-77283350D01*
X130517941Y-77269449D01*
X130512036Y-77260179D01*
X130498707Y-77237092D01*
X130498704Y-77237088D01*
X130493194Y-77227545D01*
X130464330Y-77203325D01*
X130456227Y-77195900D01*
X130062405Y-76802079D01*
X130028380Y-76739766D01*
X130025500Y-76712983D01*
X130025500Y-76037759D01*
X130045502Y-75969638D01*
X130094297Y-75925492D01*
X130129510Y-75907550D01*
X130129509Y-75907550D01*
X130138342Y-75903050D01*
X130228050Y-75813342D01*
X130285646Y-75700304D01*
X130287699Y-75701350D01*
X130320108Y-75653956D01*
X130385506Y-75626321D01*
X130399865Y-75625500D01*
X130775135Y-75625500D01*
X130843256Y-75645502D01*
X130889044Y-75698344D01*
X130889354Y-75700304D01*
X130892919Y-75707301D01*
X130892920Y-75707303D01*
X130900684Y-75722541D01*
X130946950Y-75813342D01*
X131036658Y-75903050D01*
X131149696Y-75960646D01*
X131159485Y-75962196D01*
X131159487Y-75962197D01*
X131186849Y-75966530D01*
X131243481Y-75975500D01*
X131474953Y-75975500D01*
X131706518Y-75975499D01*
X131714468Y-75974240D01*
X131790506Y-75962198D01*
X131790508Y-75962197D01*
X131800304Y-75960646D01*
X131913342Y-75903050D01*
X132003050Y-75813342D01*
X132060646Y-75700304D01*
X132075500Y-75606519D01*
X132075499Y-74993482D01*
X132072651Y-74975499D01*
X132062198Y-74909494D01*
X132062197Y-74909492D01*
X132060646Y-74899696D01*
X132003050Y-74786658D01*
X131913342Y-74696950D01*
X131800304Y-74639354D01*
X131790515Y-74637804D01*
X131790513Y-74637803D01*
X131758519Y-74632736D01*
X131706519Y-74624500D01*
X131475047Y-74624500D01*
X131243482Y-74624501D01*
X131238589Y-74625276D01*
X131238588Y-74625276D01*
X131159494Y-74637802D01*
X131159492Y-74637803D01*
X131149696Y-74639354D01*
X131036658Y-74696950D01*
X130946950Y-74786658D01*
X130889354Y-74899696D01*
X130887301Y-74898650D01*
X130854892Y-74946044D01*
X130789494Y-74973679D01*
X130775135Y-74974500D01*
X130399865Y-74974500D01*
X130331744Y-74954498D01*
X130285956Y-74901656D01*
X130285646Y-74899696D01*
X130281146Y-74890863D01*
X130259964Y-74849293D01*
X130228050Y-74786658D01*
X130138342Y-74696950D01*
X130025304Y-74639354D01*
X130015515Y-74637804D01*
X130015513Y-74637803D01*
X129983519Y-74632736D01*
X129931519Y-74624500D01*
X129700047Y-74624500D01*
X129468482Y-74624501D01*
X129463589Y-74625276D01*
X129463588Y-74625276D01*
X129384494Y-74637802D01*
X129384492Y-74637803D01*
X129374696Y-74639354D01*
X129261658Y-74696950D01*
X129171950Y-74786658D01*
X129114354Y-74899696D01*
X129112804Y-74909485D01*
X129112803Y-74909487D01*
X129109714Y-74928990D01*
X129099500Y-74993481D01*
X128650499Y-74993481D01*
X128647651Y-74975499D01*
X128637198Y-74909494D01*
X128637197Y-74909492D01*
X128635646Y-74899696D01*
X128578050Y-74786658D01*
X128488342Y-74696950D01*
X128375304Y-74639354D01*
X128365515Y-74637804D01*
X128365513Y-74637803D01*
X128333519Y-74632736D01*
X128281519Y-74624500D01*
X128242802Y-74624500D01*
X127887019Y-74624501D01*
X127818899Y-74604499D01*
X127797924Y-74587597D01*
X127362405Y-74152079D01*
X127328380Y-74089766D01*
X127325500Y-74062983D01*
X127325500Y-73126500D01*
X127345502Y-73058379D01*
X127399158Y-73011886D01*
X127451500Y-73000500D01*
X127633480Y-73000500D01*
X127695609Y-72988142D01*
X127705927Y-72981248D01*
X127705929Y-72981247D01*
X127755749Y-72947958D01*
X127766065Y-72941065D01*
X127780617Y-72919286D01*
X127806247Y-72880929D01*
X127806248Y-72880927D01*
X127813142Y-72870609D01*
X127825500Y-72808480D01*
X127825500Y-72645438D01*
X128567000Y-72645438D01*
X128567337Y-72651953D01*
X128576894Y-72744057D01*
X128579788Y-72757456D01*
X128629381Y-72906107D01*
X128635555Y-72919286D01*
X128717788Y-73052173D01*
X128726824Y-73063574D01*
X128837429Y-73173986D01*
X128848840Y-73182998D01*
X128981880Y-73265004D01*
X128995061Y-73271151D01*
X129143814Y-73320491D01*
X129157190Y-73323358D01*
X129248097Y-73332672D01*
X129254513Y-73333000D01*
X129277885Y-73333000D01*
X129293124Y-73328525D01*
X129294329Y-73327135D01*
X129296000Y-73319452D01*
X129296000Y-73314885D01*
X129804000Y-73314885D01*
X129808475Y-73330124D01*
X129809865Y-73331329D01*
X129817548Y-73333000D01*
X129845438Y-73333000D01*
X129851953Y-73332663D01*
X129944057Y-73323106D01*
X129957456Y-73320212D01*
X130106107Y-73270619D01*
X130119286Y-73264445D01*
X130252173Y-73182212D01*
X130263574Y-73173176D01*
X130373986Y-73062571D01*
X130382998Y-73051160D01*
X130417752Y-72994779D01*
X130470525Y-72947285D01*
X130540596Y-72935862D01*
X130605720Y-72964137D01*
X130632157Y-72994592D01*
X130667793Y-73052179D01*
X130676824Y-73063574D01*
X130787429Y-73173986D01*
X130798840Y-73182998D01*
X130931880Y-73265004D01*
X130945061Y-73271151D01*
X131093814Y-73320491D01*
X131107190Y-73323358D01*
X131198097Y-73332672D01*
X131204513Y-73333000D01*
X131227885Y-73333000D01*
X131243124Y-73328525D01*
X131244329Y-73327135D01*
X131246000Y-73319452D01*
X131246000Y-73314885D01*
X131754000Y-73314885D01*
X131758475Y-73330124D01*
X131759865Y-73331329D01*
X131767548Y-73333000D01*
X131795438Y-73333000D01*
X131801953Y-73332663D01*
X131894057Y-73323106D01*
X131907456Y-73320212D01*
X132056107Y-73270619D01*
X132069286Y-73264445D01*
X132202173Y-73182212D01*
X132213574Y-73173176D01*
X132323986Y-73062571D01*
X132332998Y-73051160D01*
X132392703Y-72954300D01*
X132445475Y-72906807D01*
X132515547Y-72895383D01*
X132580671Y-72923657D01*
X132607108Y-72954113D01*
X132667793Y-73052179D01*
X132676824Y-73063574D01*
X132787429Y-73173986D01*
X132798840Y-73182998D01*
X132931880Y-73265004D01*
X132945061Y-73271151D01*
X133093814Y-73320491D01*
X133107190Y-73323358D01*
X133198097Y-73332672D01*
X133204513Y-73333000D01*
X133227885Y-73333000D01*
X133243124Y-73328525D01*
X133244329Y-73327135D01*
X133246000Y-73319452D01*
X133246000Y-72647115D01*
X133241525Y-72631876D01*
X133240135Y-72630671D01*
X133232452Y-72629000D01*
X132517000Y-72629000D01*
X132517000Y-72628895D01*
X132475746Y-72630369D01*
X132469453Y-72629000D01*
X131772115Y-72629000D01*
X131756876Y-72633475D01*
X131755671Y-72634865D01*
X131754000Y-72642548D01*
X131754000Y-73314885D01*
X131246000Y-73314885D01*
X131246000Y-72647115D01*
X131241525Y-72631876D01*
X131240135Y-72630671D01*
X131232452Y-72629000D01*
X129822115Y-72629000D01*
X129806876Y-72633475D01*
X129805671Y-72634865D01*
X129804000Y-72642548D01*
X129804000Y-73314885D01*
X129296000Y-73314885D01*
X129296000Y-72647115D01*
X129291525Y-72631876D01*
X129290135Y-72630671D01*
X129282452Y-72629000D01*
X128585115Y-72629000D01*
X128569876Y-72633475D01*
X128568671Y-72634865D01*
X128567000Y-72642548D01*
X128567000Y-72645438D01*
X127825500Y-72645438D01*
X127825500Y-72191520D01*
X127813142Y-72129391D01*
X127806248Y-72119073D01*
X127806247Y-72119071D01*
X127772958Y-72069251D01*
X127766065Y-72058935D01*
X127752865Y-72050115D01*
X127705929Y-72018753D01*
X127705927Y-72018752D01*
X127695609Y-72011858D01*
X127633480Y-71999500D01*
X127366520Y-71999500D01*
X127360452Y-72000707D01*
X127316561Y-72009437D01*
X127316560Y-72009438D01*
X127304391Y-72011858D01*
X127296341Y-72017237D01*
X127227629Y-72024625D01*
X127204594Y-72017862D01*
X127195609Y-72011858D01*
X127183435Y-72009437D01*
X127178999Y-72007599D01*
X127123718Y-71963051D01*
X127101297Y-71895687D01*
X127110065Y-71844806D01*
X127119748Y-71820351D01*
X127123701Y-71804783D01*
X127132544Y-71731706D01*
X127133000Y-71724152D01*
X127133000Y-71603101D01*
X127153002Y-71534980D01*
X127206658Y-71488487D01*
X127276932Y-71478383D01*
X127298741Y-71484367D01*
X127304391Y-71488142D01*
X127316560Y-71490562D01*
X127316561Y-71490563D01*
X127357281Y-71498662D01*
X127366520Y-71500500D01*
X127633480Y-71500500D01*
X127695609Y-71488142D01*
X127705927Y-71481248D01*
X127705929Y-71481247D01*
X127755749Y-71447958D01*
X127766065Y-71441065D01*
X127772958Y-71430749D01*
X127772960Y-71430747D01*
X127805866Y-71381499D01*
X127860342Y-71335971D01*
X127910631Y-71325500D01*
X128796300Y-71325500D01*
X128864421Y-71345502D01*
X128910914Y-71399158D01*
X128921018Y-71469432D01*
X128891524Y-71534012D01*
X128862604Y-71558644D01*
X128847824Y-71567790D01*
X128836426Y-71576824D01*
X128726014Y-71687429D01*
X128717002Y-71698840D01*
X128634996Y-71831880D01*
X128628849Y-71845061D01*
X128579509Y-71993814D01*
X128576642Y-72007190D01*
X128567328Y-72098097D01*
X128567071Y-72103126D01*
X128571475Y-72118124D01*
X128572865Y-72119329D01*
X128580548Y-72121000D01*
X132483000Y-72121000D01*
X132483000Y-72121105D01*
X132524254Y-72119631D01*
X132530547Y-72121000D01*
X133628000Y-72121000D01*
X133696121Y-72141002D01*
X133742614Y-72194658D01*
X133754000Y-72247000D01*
X133754000Y-73314885D01*
X133758475Y-73330124D01*
X133759865Y-73331329D01*
X133767548Y-73333000D01*
X133795438Y-73333000D01*
X133801953Y-73332663D01*
X133894057Y-73323106D01*
X133907456Y-73320212D01*
X134056107Y-73270619D01*
X134069286Y-73264445D01*
X134202173Y-73182212D01*
X134213574Y-73173176D01*
X134323986Y-73062571D01*
X134332998Y-73051160D01*
X134415004Y-72918120D01*
X134421152Y-72904937D01*
X134428907Y-72881556D01*
X134469338Y-72823196D01*
X134534902Y-72795959D01*
X134604783Y-72808492D01*
X134656795Y-72856817D01*
X134674500Y-72921223D01*
X134674500Y-74112984D01*
X134654498Y-74181105D01*
X134637595Y-74202079D01*
X133910684Y-74928990D01*
X133848372Y-74963016D01*
X133777557Y-74957951D01*
X133720721Y-74915404D01*
X133709322Y-74897098D01*
X133708783Y-74896039D01*
X133653050Y-74786658D01*
X133563342Y-74696950D01*
X133450304Y-74639354D01*
X133440515Y-74637804D01*
X133440513Y-74637803D01*
X133408519Y-74632736D01*
X133356519Y-74624500D01*
X133125047Y-74624500D01*
X132893482Y-74624501D01*
X132888589Y-74625276D01*
X132888588Y-74625276D01*
X132809494Y-74637802D01*
X132809492Y-74637803D01*
X132799696Y-74639354D01*
X132686658Y-74696950D01*
X132596950Y-74786658D01*
X132539354Y-74899696D01*
X132537804Y-74909485D01*
X132537803Y-74909487D01*
X132534714Y-74928990D01*
X132524500Y-74993481D01*
X132524501Y-75606518D01*
X132525276Y-75611409D01*
X132525276Y-75611412D01*
X132525449Y-75612501D01*
X132539354Y-75700304D01*
X132543855Y-75709137D01*
X132543857Y-75709142D01*
X132550684Y-75722541D01*
X132596950Y-75813342D01*
X132686658Y-75903050D01*
X132799696Y-75960646D01*
X132809485Y-75962196D01*
X132809487Y-75962197D01*
X132836849Y-75966530D01*
X132893481Y-75975500D01*
X133124953Y-75975500D01*
X133356518Y-75975499D01*
X133364468Y-75974240D01*
X133440506Y-75962198D01*
X133440508Y-75962197D01*
X133450304Y-75960646D01*
X133563342Y-75903050D01*
X133653050Y-75813342D01*
X133710646Y-75700304D01*
X133712699Y-75701350D01*
X133745108Y-75653956D01*
X133810506Y-75626321D01*
X133824865Y-75625500D01*
X133980290Y-75625500D01*
X133991272Y-75625980D01*
X134017820Y-75628303D01*
X134017822Y-75628303D01*
X134028807Y-75629264D01*
X134065215Y-75619508D01*
X134075942Y-75617130D01*
X134082004Y-75616061D01*
X134113045Y-75610588D01*
X134122590Y-75605077D01*
X134125866Y-75603885D01*
X134129034Y-75602408D01*
X134139684Y-75599554D01*
X134170544Y-75577945D01*
X134179815Y-75572039D01*
X134202906Y-75558707D01*
X134212455Y-75553194D01*
X134236685Y-75524317D01*
X134244111Y-75516215D01*
X135216215Y-74544111D01*
X135224319Y-74536684D01*
X135244749Y-74519541D01*
X135253194Y-74512455D01*
X135258707Y-74502906D01*
X135272039Y-74479815D01*
X135277945Y-74470544D01*
X135293230Y-74448715D01*
X135299554Y-74439684D01*
X135302408Y-74429034D01*
X135303885Y-74425866D01*
X135305077Y-74422590D01*
X135310588Y-74413045D01*
X135311278Y-74409133D01*
X138080612Y-74409133D01*
X138089325Y-74420653D01*
X138187018Y-74492284D01*
X138194928Y-74497227D01*
X138417890Y-74614533D01*
X138426453Y-74618256D01*
X138664304Y-74701318D01*
X138673313Y-74703732D01*
X138920842Y-74750727D01*
X138930098Y-74751781D01*
X139181857Y-74761673D01*
X139191171Y-74761347D01*
X139441615Y-74733920D01*
X139450792Y-74732219D01*
X139694431Y-74668074D01*
X139703251Y-74665037D01*
X139934736Y-74565583D01*
X139943008Y-74561276D01*
X140157249Y-74428700D01*
X140164188Y-74423658D01*
X140172518Y-74411019D01*
X140171414Y-74409133D01*
X154080612Y-74409133D01*
X154089325Y-74420653D01*
X154187018Y-74492284D01*
X154194928Y-74497227D01*
X154417890Y-74614533D01*
X154426453Y-74618256D01*
X154664304Y-74701318D01*
X154673313Y-74703732D01*
X154920842Y-74750727D01*
X154930098Y-74751781D01*
X155181857Y-74761673D01*
X155191171Y-74761347D01*
X155441615Y-74733920D01*
X155450792Y-74732219D01*
X155694431Y-74668074D01*
X155703251Y-74665037D01*
X155934736Y-74565583D01*
X155943008Y-74561276D01*
X156157249Y-74428700D01*
X156164188Y-74423658D01*
X156172518Y-74411019D01*
X156166456Y-74400666D01*
X155137812Y-73372022D01*
X155123868Y-73364408D01*
X155122035Y-73364539D01*
X155115420Y-73368790D01*
X154087270Y-74396940D01*
X154080612Y-74409133D01*
X140171414Y-74409133D01*
X140166456Y-74400666D01*
X139137812Y-73372022D01*
X139123868Y-73364408D01*
X139122035Y-73364539D01*
X139115420Y-73368790D01*
X138087270Y-74396940D01*
X138080612Y-74409133D01*
X135311278Y-74409133D01*
X135317130Y-74375942D01*
X135319509Y-74365210D01*
X135321287Y-74358574D01*
X135329264Y-74328807D01*
X135328294Y-74317709D01*
X135325979Y-74291257D01*
X135325500Y-74280276D01*
X135325500Y-72958523D01*
X137362898Y-72958523D01*
X137374987Y-73210175D01*
X137376124Y-73219435D01*
X137425274Y-73466535D01*
X137427768Y-73475528D01*
X137512900Y-73712639D01*
X137516700Y-73721174D01*
X137635946Y-73943101D01*
X137640957Y-73950968D01*
X137704446Y-74035990D01*
X137715704Y-74044439D01*
X137728123Y-74037667D01*
X138752978Y-73012812D01*
X138759356Y-73001132D01*
X139489408Y-73001132D01*
X139489539Y-73002965D01*
X139493790Y-73009580D01*
X140524913Y-74040703D01*
X140537293Y-74047463D01*
X140545634Y-74041219D01*
X140671765Y-73845127D01*
X140676212Y-73836936D01*
X140779691Y-73607222D01*
X140782882Y-73598455D01*
X140851269Y-73355976D01*
X140853129Y-73346834D01*
X140885116Y-73095396D01*
X140885597Y-73089108D01*
X140887847Y-73003160D01*
X140887696Y-72996851D01*
X140884848Y-72958523D01*
X153362898Y-72958523D01*
X153374987Y-73210175D01*
X153376124Y-73219435D01*
X153425274Y-73466535D01*
X153427768Y-73475528D01*
X153512900Y-73712639D01*
X153516700Y-73721174D01*
X153635946Y-73943101D01*
X153640957Y-73950968D01*
X153704446Y-74035990D01*
X153715704Y-74044439D01*
X153728123Y-74037667D01*
X154752978Y-73012812D01*
X154759356Y-73001132D01*
X155489408Y-73001132D01*
X155489539Y-73002965D01*
X155493790Y-73009580D01*
X156524913Y-74040703D01*
X156537293Y-74047463D01*
X156545634Y-74041219D01*
X156671765Y-73845127D01*
X156676212Y-73836936D01*
X156779691Y-73607222D01*
X156782882Y-73598455D01*
X156851269Y-73355976D01*
X156853129Y-73346834D01*
X156885116Y-73095396D01*
X156885597Y-73089108D01*
X156887847Y-73003160D01*
X156887696Y-72996851D01*
X156868912Y-72744074D01*
X156867536Y-72734868D01*
X156811929Y-72489126D01*
X156809205Y-72480215D01*
X156717888Y-72245392D01*
X156713877Y-72236983D01*
X156588854Y-72018240D01*
X156583643Y-72010514D01*
X156546391Y-71963261D01*
X156534466Y-71954790D01*
X156522934Y-71961276D01*
X155497022Y-72987188D01*
X155489408Y-73001132D01*
X154759356Y-73001132D01*
X154760592Y-72998868D01*
X154760461Y-72997035D01*
X154756210Y-72990420D01*
X153726321Y-71960531D01*
X153713013Y-71953264D01*
X153702974Y-71960386D01*
X153692761Y-71972666D01*
X153687346Y-71980258D01*
X153556646Y-72195646D01*
X153552408Y-72203963D01*
X153454981Y-72436299D01*
X153452020Y-72445149D01*
X153390006Y-72689331D01*
X153388384Y-72698528D01*
X153363143Y-72949198D01*
X153362898Y-72958523D01*
X140884848Y-72958523D01*
X140868912Y-72744074D01*
X140867536Y-72734868D01*
X140811929Y-72489126D01*
X140809205Y-72480215D01*
X140717888Y-72245392D01*
X140713877Y-72236983D01*
X140588854Y-72018240D01*
X140583643Y-72010514D01*
X140546391Y-71963261D01*
X140534466Y-71954790D01*
X140522934Y-71961276D01*
X139497022Y-72987188D01*
X139489408Y-73001132D01*
X138759356Y-73001132D01*
X138760592Y-72998868D01*
X138760461Y-72997035D01*
X138756210Y-72990420D01*
X137726321Y-71960531D01*
X137713013Y-71953264D01*
X137702974Y-71960386D01*
X137692761Y-71972666D01*
X137687346Y-71980258D01*
X137556646Y-72195646D01*
X137552408Y-72203963D01*
X137454981Y-72436299D01*
X137452020Y-72445149D01*
X137390006Y-72689331D01*
X137388384Y-72698528D01*
X137363143Y-72949198D01*
X137362898Y-72958523D01*
X135325500Y-72958523D01*
X135325500Y-72019713D01*
X135325979Y-72008732D01*
X135328303Y-71982170D01*
X135328303Y-71982168D01*
X135329263Y-71971193D01*
X135319508Y-71934783D01*
X135317133Y-71924072D01*
X135314934Y-71911602D01*
X135310588Y-71886955D01*
X135305078Y-71877411D01*
X135303886Y-71874135D01*
X135302407Y-71870964D01*
X135299554Y-71860316D01*
X135277940Y-71829448D01*
X135272036Y-71820179D01*
X135258707Y-71797092D01*
X135258704Y-71797088D01*
X135253194Y-71787545D01*
X135224330Y-71763325D01*
X135216227Y-71755899D01*
X135049131Y-71588803D01*
X138078216Y-71588803D01*
X138082789Y-71598579D01*
X139112188Y-72627978D01*
X139126132Y-72635592D01*
X139127965Y-72635461D01*
X139134580Y-72631210D01*
X140163419Y-71602371D01*
X140169803Y-71590681D01*
X140168344Y-71588803D01*
X154078216Y-71588803D01*
X154082789Y-71598579D01*
X155112188Y-72627978D01*
X155126132Y-72635592D01*
X155127965Y-72635461D01*
X155134580Y-72631210D01*
X156163419Y-71602371D01*
X156169803Y-71590681D01*
X156160391Y-71578570D01*
X156023593Y-71483670D01*
X156015565Y-71478942D01*
X155789593Y-71367505D01*
X155780960Y-71364017D01*
X155540998Y-71287205D01*
X155531938Y-71285029D01*
X155283260Y-71244529D01*
X155273973Y-71243717D01*
X155022053Y-71240419D01*
X155012742Y-71240989D01*
X154763097Y-71274964D01*
X154753978Y-71276902D01*
X154512098Y-71347404D01*
X154503367Y-71350667D01*
X154274558Y-71456151D01*
X154266406Y-71460670D01*
X154087353Y-71578062D01*
X154078216Y-71588803D01*
X140168344Y-71588803D01*
X140160391Y-71578570D01*
X140023593Y-71483670D01*
X140015565Y-71478942D01*
X139789593Y-71367505D01*
X139780960Y-71364017D01*
X139540998Y-71287205D01*
X139531938Y-71285029D01*
X139283260Y-71244529D01*
X139273973Y-71243717D01*
X139022053Y-71240419D01*
X139012742Y-71240989D01*
X138763097Y-71274964D01*
X138753978Y-71276902D01*
X138512098Y-71347404D01*
X138503367Y-71350667D01*
X138274558Y-71456151D01*
X138266406Y-71460670D01*
X138087353Y-71578062D01*
X138078216Y-71588803D01*
X135049131Y-71588803D01*
X134435666Y-70975338D01*
X134401640Y-70913026D01*
X134406705Y-70842211D01*
X134435666Y-70797148D01*
X134554280Y-70678534D01*
X134563624Y-70671068D01*
X134563292Y-70670678D01*
X134570128Y-70664860D01*
X134577720Y-70660070D01*
X134589728Y-70646474D01*
X134612755Y-70620400D01*
X134618102Y-70614712D01*
X134629320Y-70603494D01*
X134634826Y-70596148D01*
X134635450Y-70595316D01*
X134641832Y-70587477D01*
X134666682Y-70559339D01*
X134672623Y-70552612D01*
X134676437Y-70544489D01*
X134678508Y-70541336D01*
X134686327Y-70528324D01*
X134688143Y-70525006D01*
X134693526Y-70517824D01*
X134709858Y-70474259D01*
X134713783Y-70464944D01*
X134714461Y-70463500D01*
X134733553Y-70422837D01*
X134734935Y-70413964D01*
X134736042Y-70410342D01*
X134739891Y-70395672D01*
X134740702Y-70391983D01*
X134743852Y-70383581D01*
X134744517Y-70374636D01*
X134744519Y-70374626D01*
X134747302Y-70337172D01*
X134748452Y-70327145D01*
X134750500Y-70313991D01*
X134750500Y-70298797D01*
X134750846Y-70289460D01*
X134753811Y-70249557D01*
X134754476Y-70240609D01*
X134752603Y-70231833D01*
X134751992Y-70222876D01*
X134751998Y-70222876D01*
X134750500Y-70208683D01*
X134750500Y-65651500D01*
X134770502Y-65583379D01*
X134824158Y-65536886D01*
X134876500Y-65525500D01*
X135119748Y-65525500D01*
X135125816Y-65524293D01*
X135166061Y-65516288D01*
X135166062Y-65516288D01*
X135178231Y-65513867D01*
X135199028Y-65499971D01*
X135226238Y-65481789D01*
X135244552Y-65469552D01*
X135288867Y-65403231D01*
X135300500Y-65344748D01*
X135300500Y-65061752D01*
X135320502Y-64993631D01*
X135374158Y-64947138D01*
X135444432Y-64937034D01*
X135509012Y-64966528D01*
X135543243Y-65014348D01*
X135571770Y-65084603D01*
X135576413Y-65093794D01*
X135687694Y-65275388D01*
X135693777Y-65283699D01*
X135833213Y-65444667D01*
X135840580Y-65451883D01*
X136004434Y-65587916D01*
X136012881Y-65593831D01*
X136196756Y-65701279D01*
X136206042Y-65705729D01*
X136405001Y-65781703D01*
X136414899Y-65784579D01*
X136518250Y-65805606D01*
X136532299Y-65804410D01*
X136536000Y-65794065D01*
X136536000Y-65793517D01*
X137044000Y-65793517D01*
X137048064Y-65807359D01*
X137061478Y-65809393D01*
X137068184Y-65808534D01*
X137078262Y-65806392D01*
X137282255Y-65745191D01*
X137291842Y-65741433D01*
X137483095Y-65647739D01*
X137491945Y-65642464D01*
X137665328Y-65518792D01*
X137673200Y-65512139D01*
X137824052Y-65361812D01*
X137830730Y-65353965D01*
X137955003Y-65181020D01*
X137960313Y-65172183D01*
X138054670Y-64981267D01*
X138058469Y-64971672D01*
X138120377Y-64767910D01*
X138122555Y-64757837D01*
X138123986Y-64746962D01*
X138121775Y-64732778D01*
X138108617Y-64729000D01*
X137062115Y-64729000D01*
X137046876Y-64733475D01*
X137045671Y-64734865D01*
X137044000Y-64742548D01*
X137044000Y-65793517D01*
X136536000Y-65793517D01*
X136536000Y-64347000D01*
X136556002Y-64278879D01*
X136609658Y-64232386D01*
X136662000Y-64221000D01*
X138108344Y-64221000D01*
X138121875Y-64217027D01*
X138123180Y-64207947D01*
X138081214Y-64040875D01*
X138077894Y-64031124D01*
X137992972Y-63835814D01*
X137988104Y-63826736D01*
X137983708Y-63819941D01*
X137963500Y-63751881D01*
X137983296Y-63683700D01*
X138036810Y-63637045D01*
X138089499Y-63625500D01*
X140919507Y-63625500D01*
X140987628Y-63645502D01*
X141034121Y-63699158D01*
X141045505Y-63752269D01*
X141045386Y-63771834D01*
X141045108Y-63817307D01*
X141045447Y-63819780D01*
X141045572Y-63823635D01*
X141045572Y-64250000D01*
X141046779Y-64256068D01*
X141058223Y-64313599D01*
X141061133Y-64328231D01*
X141068026Y-64338547D01*
X141072777Y-64350017D01*
X141069063Y-64351555D01*
X141083528Y-64397751D01*
X141068688Y-64448289D01*
X141072777Y-64449983D01*
X141068026Y-64461453D01*
X141061133Y-64471769D01*
X141058712Y-64483938D01*
X141058712Y-64483939D01*
X141055355Y-64500816D01*
X141045572Y-64550000D01*
X141045572Y-65040916D01*
X141045570Y-65041686D01*
X141045213Y-65100194D01*
X141045108Y-65117307D01*
X141045717Y-65121750D01*
X141045717Y-65121756D01*
X141047181Y-65132442D01*
X141052974Y-65174732D01*
X141054205Y-65179039D01*
X141054206Y-65179044D01*
X141058998Y-65195810D01*
X141092331Y-65312441D01*
X141115999Y-65365351D01*
X141118385Y-65369133D01*
X141118389Y-65369140D01*
X141139899Y-65403231D01*
X141192425Y-65486479D01*
X141219471Y-65518258D01*
X141225635Y-65525500D01*
X141229992Y-65530620D01*
X141233356Y-65533591D01*
X141307598Y-65599158D01*
X141337343Y-65625428D01*
X141385785Y-65657248D01*
X141389841Y-65659152D01*
X141389844Y-65659154D01*
X141431292Y-65678614D01*
X141515430Y-65718117D01*
X141519713Y-65719426D01*
X141519717Y-65719428D01*
X141550565Y-65728859D01*
X141570861Y-65735064D01*
X141575284Y-65735753D01*
X141575290Y-65735754D01*
X141707958Y-65756410D01*
X141707963Y-65756410D01*
X141712379Y-65757098D01*
X141716845Y-65757153D01*
X141716850Y-65757153D01*
X141743958Y-65757484D01*
X141770335Y-65757806D01*
X141774777Y-65757225D01*
X141774780Y-65757225D01*
X141788031Y-65755492D01*
X141804368Y-65754428D01*
X142185480Y-65754428D01*
X142204863Y-65755928D01*
X142206367Y-65756162D01*
X142212379Y-65757098D01*
X142216845Y-65757153D01*
X142216850Y-65757153D01*
X142243958Y-65757484D01*
X142270335Y-65757806D01*
X142274777Y-65757225D01*
X142274780Y-65757225D01*
X142338145Y-65748939D01*
X142412349Y-65739236D01*
X142416665Y-65738031D01*
X142416670Y-65738030D01*
X142449516Y-65728859D01*
X142468177Y-65723649D01*
X142474098Y-65721044D01*
X142595168Y-65667771D01*
X142595169Y-65667771D01*
X142599270Y-65665966D01*
X142630582Y-65646476D01*
X142644661Y-65637713D01*
X142644665Y-65637710D01*
X142648476Y-65635338D01*
X142651908Y-65632453D01*
X142651915Y-65632448D01*
X142754679Y-65546066D01*
X142754680Y-65546065D01*
X142758111Y-65543181D01*
X142790484Y-65506974D01*
X142793753Y-65503318D01*
X142793757Y-65503313D01*
X142796745Y-65499971D01*
X142799315Y-65496111D01*
X142842203Y-65431681D01*
X142896601Y-65386058D01*
X142947090Y-65375500D01*
X143506789Y-65375500D01*
X143574910Y-65395502D01*
X143621403Y-65449158D01*
X143631238Y-65481789D01*
X143633491Y-65496011D01*
X143640049Y-65537420D01*
X143644550Y-65546253D01*
X143644550Y-65546254D01*
X143652245Y-65561356D01*
X143700342Y-65655751D01*
X143794249Y-65749658D01*
X143862567Y-65784468D01*
X143893137Y-65800044D01*
X143912580Y-65809951D01*
X144010754Y-65825500D01*
X144589246Y-65825500D01*
X144687420Y-65809951D01*
X144706864Y-65800044D01*
X144737433Y-65784468D01*
X144805751Y-65749658D01*
X144899658Y-65655751D01*
X144947755Y-65561356D01*
X144955450Y-65546254D01*
X144955450Y-65546253D01*
X144959951Y-65537420D01*
X144968185Y-65485431D01*
X144998597Y-65421278D01*
X145058865Y-65383751D01*
X145129855Y-65384765D01*
X145189027Y-65423998D01*
X145218106Y-65493614D01*
X145223132Y-65548315D01*
X145225743Y-65561351D01*
X145272715Y-65711243D01*
X145278921Y-65724988D01*
X145359824Y-65858574D01*
X145369131Y-65870443D01*
X145479557Y-65980869D01*
X145491426Y-65990176D01*
X145625012Y-66071079D01*
X145638757Y-66077285D01*
X145788644Y-66124256D01*
X145801694Y-66126869D01*
X145865521Y-66132734D01*
X145871309Y-66133000D01*
X145927885Y-66133000D01*
X145943124Y-66128525D01*
X145944329Y-66127135D01*
X145946000Y-66119452D01*
X145946000Y-66114884D01*
X146454000Y-66114884D01*
X146458475Y-66130123D01*
X146459865Y-66131328D01*
X146467548Y-66132999D01*
X146528705Y-66132999D01*
X146534454Y-66132736D01*
X146598315Y-66126868D01*
X146611351Y-66124257D01*
X146761243Y-66077285D01*
X146774988Y-66071079D01*
X146908574Y-65990176D01*
X146920443Y-65980869D01*
X147030869Y-65870443D01*
X147040176Y-65858574D01*
X147121079Y-65724988D01*
X147127285Y-65711243D01*
X147174256Y-65561356D01*
X147176869Y-65548306D01*
X147181913Y-65493414D01*
X147178525Y-65481876D01*
X147177135Y-65480671D01*
X147169452Y-65479000D01*
X146472115Y-65479000D01*
X146456876Y-65483475D01*
X146455671Y-65484865D01*
X146454000Y-65492548D01*
X146454000Y-66114884D01*
X145946000Y-66114884D01*
X145946000Y-65097000D01*
X145966002Y-65028879D01*
X145999330Y-65000000D01*
X154394551Y-65000000D01*
X154414317Y-65251148D01*
X154415471Y-65255955D01*
X154415472Y-65255961D01*
X154447885Y-65390968D01*
X154473127Y-65496111D01*
X154475020Y-65500682D01*
X154475021Y-65500684D01*
X154565628Y-65719428D01*
X154569534Y-65728859D01*
X154701164Y-65943659D01*
X154704376Y-65947419D01*
X154704379Y-65947424D01*
X154809991Y-66071079D01*
X154864776Y-66135224D01*
X154868538Y-66138437D01*
X155052576Y-66295621D01*
X155052581Y-66295624D01*
X155056341Y-66298836D01*
X155271141Y-66430466D01*
X155275711Y-66432359D01*
X155275715Y-66432361D01*
X155497397Y-66524184D01*
X155503889Y-66526873D01*
X155543735Y-66536439D01*
X155744039Y-66584528D01*
X155744045Y-66584529D01*
X155748852Y-66585683D01*
X155837149Y-66592632D01*
X155934661Y-66600307D01*
X155934670Y-66600307D01*
X155937118Y-66600500D01*
X156062882Y-66600500D01*
X156065330Y-66600307D01*
X156065339Y-66600307D01*
X156162851Y-66592632D01*
X156251148Y-66585683D01*
X156255955Y-66584529D01*
X156255961Y-66584528D01*
X156456265Y-66536439D01*
X156496111Y-66526873D01*
X156502603Y-66524184D01*
X156724285Y-66432361D01*
X156724289Y-66432359D01*
X156728859Y-66430466D01*
X156943659Y-66298836D01*
X156947419Y-66295624D01*
X156947424Y-66295621D01*
X157131462Y-66138437D01*
X157135224Y-66135224D01*
X157190009Y-66071079D01*
X157295621Y-65947424D01*
X157295624Y-65947419D01*
X157298836Y-65943659D01*
X157430466Y-65728859D01*
X157434373Y-65719428D01*
X157524979Y-65500684D01*
X157524980Y-65500682D01*
X157526873Y-65496111D01*
X157552115Y-65390968D01*
X157584528Y-65255961D01*
X157584529Y-65255955D01*
X157585683Y-65251148D01*
X157605449Y-65000000D01*
X157585683Y-64748852D01*
X157583901Y-64741426D01*
X157541362Y-64564239D01*
X157526873Y-64503889D01*
X157519097Y-64485116D01*
X157432361Y-64275715D01*
X157432359Y-64275711D01*
X157430466Y-64271141D01*
X157298836Y-64056341D01*
X157295624Y-64052581D01*
X157295621Y-64052576D01*
X157150744Y-63882948D01*
X157135224Y-63864776D01*
X157067014Y-63806519D01*
X156947424Y-63704379D01*
X156947419Y-63704376D01*
X156943659Y-63701164D01*
X156728859Y-63569534D01*
X156724289Y-63567641D01*
X156724285Y-63567639D01*
X156500684Y-63475021D01*
X156500682Y-63475020D01*
X156496111Y-63473127D01*
X156411711Y-63452865D01*
X156255961Y-63415472D01*
X156255955Y-63415471D01*
X156251148Y-63414317D01*
X156162851Y-63407368D01*
X156065339Y-63399693D01*
X156065330Y-63399693D01*
X156062882Y-63399500D01*
X155937118Y-63399500D01*
X155934670Y-63399693D01*
X155934661Y-63399693D01*
X155837149Y-63407368D01*
X155748852Y-63414317D01*
X155744045Y-63415471D01*
X155744039Y-63415472D01*
X155588289Y-63452865D01*
X155503889Y-63473127D01*
X155499318Y-63475020D01*
X155499316Y-63475021D01*
X155275715Y-63567639D01*
X155275711Y-63567641D01*
X155271141Y-63569534D01*
X155056341Y-63701164D01*
X155052581Y-63704376D01*
X155052576Y-63704379D01*
X154932986Y-63806519D01*
X154864776Y-63864776D01*
X154849256Y-63882948D01*
X154704379Y-64052576D01*
X154704376Y-64052581D01*
X154701164Y-64056341D01*
X154569534Y-64271141D01*
X154567641Y-64275711D01*
X154567639Y-64275715D01*
X154480903Y-64485116D01*
X154473127Y-64503889D01*
X154458638Y-64564239D01*
X154416100Y-64741426D01*
X154414317Y-64748852D01*
X154394551Y-65000000D01*
X145999330Y-65000000D01*
X146019658Y-64982386D01*
X146072000Y-64971000D01*
X147164884Y-64971000D01*
X147180123Y-64966525D01*
X147181328Y-64965135D01*
X147182291Y-64960706D01*
X147176868Y-64901685D01*
X147174257Y-64888649D01*
X147127285Y-64738757D01*
X147121079Y-64725012D01*
X147040176Y-64591426D01*
X147030869Y-64579557D01*
X146920443Y-64469131D01*
X146908574Y-64459824D01*
X146774988Y-64378921D01*
X146761243Y-64372715D01*
X146698510Y-64353056D01*
X146639488Y-64313599D01*
X146611168Y-64248495D01*
X146622541Y-64178415D01*
X146669997Y-64125609D01*
X146678987Y-64120555D01*
X146704508Y-64107552D01*
X146704512Y-64107549D01*
X146713342Y-64103050D01*
X146803050Y-64013342D01*
X146860646Y-63900304D01*
X146863098Y-63884826D01*
X146872789Y-63823635D01*
X146875500Y-63806519D01*
X146875499Y-63343482D01*
X146871025Y-63315233D01*
X146862198Y-63259494D01*
X146862197Y-63259492D01*
X146860646Y-63249696D01*
X146803050Y-63136658D01*
X146713342Y-63046950D01*
X146600304Y-62989354D01*
X146590515Y-62987804D01*
X146590513Y-62987803D01*
X146559365Y-62982870D01*
X146506519Y-62974500D01*
X146200062Y-62974500D01*
X145893482Y-62974501D01*
X145888589Y-62975276D01*
X145888588Y-62975276D01*
X145809494Y-62987802D01*
X145809492Y-62987803D01*
X145799696Y-62989354D01*
X145686658Y-63046950D01*
X145596950Y-63136658D01*
X145575041Y-63179658D01*
X145555401Y-63218203D01*
X145506653Y-63269818D01*
X145443134Y-63287000D01*
X145049607Y-63287000D01*
X144981486Y-63266998D01*
X144937341Y-63218203D01*
X144904162Y-63153086D01*
X144904158Y-63153080D01*
X144899658Y-63144249D01*
X144805751Y-63050342D01*
X144687420Y-62990049D01*
X144589246Y-62974500D01*
X144010754Y-62974500D01*
X143912580Y-62990049D01*
X143794249Y-63050342D01*
X143700342Y-63144249D01*
X143640049Y-63262580D01*
X143624500Y-63360754D01*
X143624500Y-63864246D01*
X143640049Y-63962420D01*
X143700342Y-64080751D01*
X143794249Y-64174658D01*
X143912580Y-64234951D01*
X144010754Y-64250500D01*
X144589246Y-64250500D01*
X144687420Y-64234951D01*
X144805751Y-64174658D01*
X144899658Y-64080751D01*
X144904159Y-64071918D01*
X144904162Y-64071914D01*
X144937341Y-64006797D01*
X144986089Y-63955182D01*
X145049607Y-63938000D01*
X145481348Y-63938000D01*
X145549469Y-63958002D01*
X145585209Y-63997505D01*
X145586617Y-63996482D01*
X145592449Y-64004509D01*
X145596950Y-64013342D01*
X145686658Y-64103050D01*
X145695488Y-64107549D01*
X145695492Y-64107552D01*
X145721013Y-64120555D01*
X145772629Y-64169303D01*
X145789695Y-64238217D01*
X145766795Y-64305419D01*
X145711197Y-64349572D01*
X145701490Y-64353056D01*
X145638757Y-64372715D01*
X145625012Y-64378921D01*
X145491426Y-64459824D01*
X145479557Y-64469131D01*
X145369131Y-64579557D01*
X145359824Y-64591426D01*
X145278921Y-64725012D01*
X145272715Y-64738757D01*
X145225744Y-64888644D01*
X145223131Y-64901693D01*
X145222466Y-64908926D01*
X145196313Y-64974930D01*
X145138628Y-65016317D01*
X145067724Y-65019947D01*
X145006114Y-64984667D01*
X144972546Y-64917104D01*
X144970854Y-64906417D01*
X144959951Y-64837580D01*
X144899658Y-64719249D01*
X144805751Y-64625342D01*
X144687420Y-64565049D01*
X144589246Y-64549500D01*
X144010754Y-64549500D01*
X143912580Y-64565049D01*
X143794249Y-64625342D01*
X143731996Y-64687595D01*
X143669684Y-64721621D01*
X143642901Y-64724500D01*
X143080428Y-64724500D01*
X143012307Y-64704498D01*
X142965814Y-64650842D01*
X142954428Y-64598500D01*
X142954428Y-64550000D01*
X142944645Y-64500816D01*
X142941288Y-64483939D01*
X142941288Y-64483938D01*
X142938867Y-64471769D01*
X142931974Y-64461453D01*
X142927223Y-64449983D01*
X142930937Y-64448445D01*
X142916472Y-64402249D01*
X142931312Y-64351711D01*
X142927223Y-64350017D01*
X142931974Y-64338547D01*
X142938867Y-64328231D01*
X142941778Y-64313599D01*
X142953221Y-64256068D01*
X142954428Y-64250000D01*
X142954428Y-63759845D01*
X142954449Y-63757536D01*
X142955581Y-63695784D01*
X142955663Y-63691311D01*
X142948498Y-63633792D01*
X142910825Y-63495612D01*
X142906856Y-63486439D01*
X142889587Y-63446534D01*
X142889585Y-63446531D01*
X142887806Y-63442419D01*
X142812866Y-63320367D01*
X142775843Y-63275772D01*
X142669659Y-63179658D01*
X142621605Y-63147245D01*
X142492713Y-63084798D01*
X142437496Y-63067176D01*
X142296258Y-63043414D01*
X142293835Y-63043197D01*
X142293830Y-63043196D01*
X142277886Y-63041766D01*
X142264843Y-63040596D01*
X142262419Y-63040566D01*
X142262412Y-63040566D01*
X142259327Y-63040529D01*
X142252501Y-63040445D01*
X142221019Y-63042495D01*
X142218603Y-63042841D01*
X142208422Y-63044299D01*
X142190560Y-63045572D01*
X141819611Y-63045572D01*
X141801086Y-63044025D01*
X141801073Y-63044129D01*
X141798741Y-63043829D01*
X141798708Y-63043826D01*
X141798690Y-63043823D01*
X141796258Y-63043414D01*
X141793831Y-63043196D01*
X141793821Y-63043195D01*
X141781145Y-63042058D01*
X141777885Y-63041766D01*
X141716871Y-63019483D01*
X141689684Y-63000446D01*
X141679034Y-62997592D01*
X141675866Y-62996115D01*
X141672590Y-62994923D01*
X141663045Y-62989412D01*
X141629301Y-62983462D01*
X141625942Y-62982870D01*
X141615215Y-62980492D01*
X141578807Y-62970736D01*
X141567822Y-62971697D01*
X141567820Y-62971697D01*
X141541272Y-62974020D01*
X141530290Y-62974500D01*
X135444710Y-62974500D01*
X135433728Y-62974020D01*
X135407180Y-62971697D01*
X135407178Y-62971697D01*
X135396193Y-62970736D01*
X135359785Y-62980492D01*
X135349058Y-62982870D01*
X135345699Y-62983462D01*
X135311955Y-62989412D01*
X135302410Y-62994923D01*
X135299134Y-62996115D01*
X135295966Y-62997592D01*
X135285316Y-63000446D01*
X135254456Y-63022055D01*
X135245185Y-63027961D01*
X135223563Y-63040445D01*
X135212545Y-63046806D01*
X135194308Y-63068540D01*
X135188315Y-63075682D01*
X135180889Y-63083785D01*
X134877079Y-63387595D01*
X134814767Y-63421621D01*
X134787984Y-63424500D01*
X133380252Y-63424500D01*
X133374184Y-63425707D01*
X133333939Y-63433712D01*
X133333938Y-63433712D01*
X133321769Y-63436133D01*
X133255448Y-63480448D01*
X133211133Y-63546769D01*
X133199500Y-63605252D01*
X133199500Y-65344748D01*
X133211133Y-65403231D01*
X133255448Y-65469552D01*
X133273762Y-65481789D01*
X133300973Y-65499971D01*
X133321769Y-65513867D01*
X133333938Y-65516288D01*
X133333939Y-65516288D01*
X133374184Y-65524293D01*
X133380252Y-65525500D01*
X133623500Y-65525500D01*
X133691621Y-65545502D01*
X133738114Y-65599158D01*
X133749500Y-65651500D01*
X133749500Y-70015497D01*
X133729498Y-70083618D01*
X133712595Y-70104592D01*
X133679592Y-70137595D01*
X133617280Y-70171621D01*
X133590497Y-70174500D01*
X133216512Y-70174500D01*
X133156149Y-70184060D01*
X133126665Y-70188730D01*
X133126663Y-70188731D01*
X133116874Y-70190281D01*
X132996780Y-70251472D01*
X132960657Y-70287595D01*
X132898345Y-70321621D01*
X132871562Y-70324500D01*
X132128438Y-70324500D01*
X132060317Y-70304498D01*
X132039343Y-70287595D01*
X132003220Y-70251472D01*
X131883126Y-70190281D01*
X131873337Y-70188731D01*
X131873335Y-70188730D01*
X131843851Y-70184060D01*
X131783488Y-70174500D01*
X131216512Y-70174500D01*
X131156149Y-70184060D01*
X131126665Y-70188730D01*
X131126663Y-70188731D01*
X131116874Y-70190281D01*
X130996780Y-70251472D01*
X130960657Y-70287595D01*
X130898345Y-70321621D01*
X130871562Y-70324500D01*
X130178438Y-70324500D01*
X130110317Y-70304498D01*
X130089343Y-70287595D01*
X130053220Y-70251472D01*
X129933126Y-70190281D01*
X129923337Y-70188731D01*
X129923335Y-70188730D01*
X129893851Y-70184060D01*
X129833488Y-70174500D01*
X129266512Y-70174500D01*
X129206149Y-70184060D01*
X129176665Y-70188730D01*
X129176663Y-70188731D01*
X129166874Y-70190281D01*
X129046780Y-70251472D01*
X129010657Y-70287595D01*
X128948345Y-70321621D01*
X128921562Y-70324500D01*
X127877222Y-70324500D01*
X127809101Y-70304498D01*
X127781943Y-70277820D01*
X127781735Y-70278028D01*
X127772958Y-70269251D01*
X127766065Y-70258935D01*
X127712099Y-70222876D01*
X127705929Y-70218753D01*
X127705927Y-70218752D01*
X127695609Y-70211858D01*
X127633480Y-70199500D01*
X127451500Y-70199500D01*
X127383379Y-70179498D01*
X127336886Y-70125842D01*
X127325500Y-70073500D01*
X127325500Y-69413304D01*
X127345502Y-69345183D01*
X127399158Y-69298690D01*
X127476081Y-69289725D01*
X127524184Y-69299293D01*
X127530252Y-69300500D01*
X129969748Y-69300500D01*
X129975816Y-69299293D01*
X130016061Y-69291288D01*
X130016062Y-69291288D01*
X130028231Y-69288867D01*
X130094552Y-69244552D01*
X130138867Y-69178231D01*
X130142869Y-69158115D01*
X130149293Y-69125816D01*
X130150500Y-69119748D01*
X130150500Y-64880252D01*
X130147668Y-64866014D01*
X130141288Y-64833939D01*
X130141288Y-64833938D01*
X130138867Y-64821769D01*
X130094552Y-64755448D01*
X130028231Y-64711133D01*
X130016062Y-64708712D01*
X130016061Y-64708712D01*
X129975816Y-64700707D01*
X129969748Y-64699500D01*
X127530252Y-64699500D01*
X127524184Y-64700707D01*
X127483939Y-64708712D01*
X127483938Y-64708712D01*
X127471769Y-64711133D01*
X127405448Y-64755448D01*
X127361133Y-64821769D01*
X127358712Y-64833938D01*
X127358712Y-64833939D01*
X127352332Y-64866014D01*
X127349500Y-64880252D01*
X127349500Y-67437984D01*
X127329498Y-67506105D01*
X127312595Y-67527079D01*
X126783785Y-68055889D01*
X126775682Y-68063315D01*
X126746806Y-68087545D01*
X126741293Y-68097094D01*
X126727961Y-68120185D01*
X126722055Y-68129456D01*
X126700446Y-68160316D01*
X126697592Y-68170966D01*
X126696115Y-68174134D01*
X126694923Y-68177410D01*
X126689412Y-68186955D01*
X126684364Y-68215587D01*
X126682870Y-68224058D01*
X126680492Y-68234785D01*
X126670736Y-68271193D01*
X126671697Y-68282178D01*
X126671697Y-68282180D01*
X126674020Y-68308728D01*
X126674500Y-68319710D01*
X126674500Y-69766000D01*
X126654498Y-69834121D01*
X126600842Y-69880614D01*
X126548501Y-69892000D01*
X126451501Y-69892001D01*
X126383380Y-69872000D01*
X126336887Y-69818344D01*
X126325500Y-69766001D01*
X126325500Y-68319710D01*
X126325980Y-68308728D01*
X126328303Y-68282180D01*
X126328303Y-68282178D01*
X126329264Y-68271193D01*
X126319508Y-68234785D01*
X126317130Y-68224058D01*
X126315636Y-68215587D01*
X126310588Y-68186955D01*
X126305077Y-68177410D01*
X126303885Y-68174134D01*
X126302408Y-68170966D01*
X126299554Y-68160316D01*
X126277945Y-68129456D01*
X126272039Y-68120185D01*
X126258707Y-68097094D01*
X126253194Y-68087545D01*
X126224317Y-68063315D01*
X126216215Y-68055889D01*
X125687405Y-67527079D01*
X125653379Y-67464767D01*
X125650500Y-67437984D01*
X125650500Y-64880252D01*
X125647668Y-64866014D01*
X125641288Y-64833939D01*
X125641288Y-64833938D01*
X125638867Y-64821769D01*
X125594552Y-64755448D01*
X125528231Y-64711133D01*
X125516062Y-64708712D01*
X125516061Y-64708712D01*
X125475816Y-64700707D01*
X125469748Y-64699500D01*
X123030252Y-64699500D01*
X123024184Y-64700707D01*
X122983939Y-64708712D01*
X122983938Y-64708712D01*
X122971769Y-64711133D01*
X122905448Y-64755448D01*
X122861133Y-64821769D01*
X122858712Y-64833938D01*
X122858712Y-64833939D01*
X122852332Y-64866014D01*
X122849500Y-64880252D01*
X122849500Y-69119748D01*
X122850707Y-69125816D01*
X122857132Y-69158115D01*
X122861133Y-69178231D01*
X122905448Y-69244552D01*
X122971769Y-69288867D01*
X122983938Y-69291288D01*
X122983939Y-69291288D01*
X123024184Y-69299293D01*
X123030252Y-69300500D01*
X125469748Y-69300500D01*
X125475816Y-69299293D01*
X125523919Y-69289725D01*
X125594633Y-69296053D01*
X125650700Y-69339608D01*
X125674500Y-69413304D01*
X125674500Y-70073500D01*
X125654498Y-70141621D01*
X125600842Y-70188114D01*
X125548500Y-70199500D01*
X125366520Y-70199500D01*
X125304391Y-70211858D01*
X125294073Y-70218752D01*
X125294071Y-70218753D01*
X125287901Y-70222876D01*
X125233935Y-70258935D01*
X125227042Y-70269251D01*
X125218265Y-70278028D01*
X125217299Y-70277062D01*
X125173070Y-70314028D01*
X125122778Y-70324500D01*
X123758438Y-70324500D01*
X123690317Y-70304498D01*
X123669343Y-70287595D01*
X123633220Y-70251472D01*
X123513126Y-70190281D01*
X123503337Y-70188731D01*
X123503335Y-70188730D01*
X123473851Y-70184060D01*
X123413488Y-70174500D01*
X122846512Y-70174500D01*
X122786149Y-70184060D01*
X122756665Y-70188730D01*
X122756663Y-70188731D01*
X122746874Y-70190281D01*
X122626780Y-70251472D01*
X122590657Y-70287595D01*
X122528345Y-70321621D01*
X122501562Y-70324500D01*
X121684503Y-70324500D01*
X121616382Y-70304498D01*
X121595408Y-70287595D01*
X119787405Y-68479591D01*
X119753379Y-68417279D01*
X119750500Y-68390496D01*
X119750500Y-67973872D01*
X119771734Y-67903871D01*
X119788867Y-67878231D01*
X119800500Y-67819748D01*
X119800500Y-66719748D01*
X120099500Y-66719748D01*
X120111133Y-66778231D01*
X120118026Y-66788547D01*
X120126134Y-66800681D01*
X120155448Y-66844552D01*
X120221769Y-66888867D01*
X120233938Y-66891288D01*
X120233939Y-66891288D01*
X120259856Y-66896443D01*
X120280252Y-66900500D01*
X121119748Y-66900500D01*
X121140144Y-66896443D01*
X121166061Y-66891288D01*
X121166062Y-66891288D01*
X121178231Y-66888867D01*
X121244552Y-66844552D01*
X121273866Y-66800681D01*
X121281974Y-66788547D01*
X121288867Y-66778231D01*
X121300500Y-66719748D01*
X121300500Y-65750252D01*
X121288867Y-65691769D01*
X121244552Y-65625448D01*
X121178231Y-65581133D01*
X121166062Y-65578712D01*
X121166061Y-65578712D01*
X121125816Y-65570707D01*
X121119748Y-65569500D01*
X120280252Y-65569500D01*
X120274184Y-65570707D01*
X120233939Y-65578712D01*
X120233938Y-65578712D01*
X120221769Y-65581133D01*
X120155448Y-65625448D01*
X120111133Y-65691769D01*
X120099500Y-65750252D01*
X120099500Y-66719748D01*
X119800500Y-66719748D01*
X119800500Y-66530252D01*
X119795766Y-66506453D01*
X119791288Y-66483939D01*
X119791288Y-66483938D01*
X119788867Y-66471769D01*
X119744552Y-66405448D01*
X119678231Y-66361133D01*
X119666062Y-66358712D01*
X119666061Y-66358712D01*
X119625816Y-66350707D01*
X119619748Y-66349500D01*
X118680252Y-66349500D01*
X118674184Y-66350707D01*
X118633939Y-66358712D01*
X118633938Y-66358712D01*
X118621769Y-66361133D01*
X118555448Y-66405448D01*
X118511133Y-66471769D01*
X118508712Y-66483938D01*
X118508712Y-66483939D01*
X118504234Y-66506453D01*
X118499500Y-66530252D01*
X118499500Y-67819748D01*
X116800500Y-67819748D01*
X116800500Y-66530252D01*
X116795766Y-66506453D01*
X116791288Y-66483939D01*
X116791288Y-66483938D01*
X116788867Y-66471769D01*
X116744552Y-66405448D01*
X116678231Y-66361133D01*
X116666062Y-66358712D01*
X116666061Y-66358712D01*
X116625816Y-66350707D01*
X116619748Y-66349500D01*
X115680252Y-66349500D01*
X115674184Y-66350707D01*
X115633939Y-66358712D01*
X115633938Y-66358712D01*
X115621769Y-66361133D01*
X115555448Y-66405448D01*
X115511133Y-66471769D01*
X115511097Y-66471949D01*
X115471861Y-66520639D01*
X115404498Y-66543060D01*
X115335707Y-66525502D01*
X115289733Y-66476124D01*
X115288867Y-66471769D01*
X115244552Y-66405448D01*
X115178231Y-66361133D01*
X115166062Y-66358712D01*
X115166061Y-66358712D01*
X115125816Y-66350707D01*
X115119748Y-66349500D01*
X114180252Y-66349500D01*
X114174184Y-66350707D01*
X114133939Y-66358712D01*
X114133938Y-66358712D01*
X114121769Y-66361133D01*
X114055448Y-66405448D01*
X114011133Y-66471769D01*
X114008712Y-66483938D01*
X114008712Y-66483939D01*
X114004234Y-66506453D01*
X113999500Y-66530252D01*
X113999500Y-67819748D01*
X114000707Y-67825816D01*
X114008324Y-67864107D01*
X114011133Y-67878231D01*
X114055448Y-67944552D01*
X114121769Y-67988867D01*
X114133938Y-67991288D01*
X114133939Y-67991288D01*
X114159856Y-67996443D01*
X114180252Y-68000500D01*
X115119748Y-68000500D01*
X115140144Y-67996443D01*
X115166061Y-67991288D01*
X115166062Y-67991288D01*
X115178231Y-67988867D01*
X115244552Y-67944552D01*
X115288867Y-67878231D01*
X115288903Y-67878051D01*
X115328139Y-67829361D01*
X115395502Y-67806940D01*
X115464293Y-67824498D01*
X115510267Y-67873876D01*
X115511133Y-67878231D01*
X115555448Y-67944552D01*
X115621769Y-67988867D01*
X115633938Y-67991288D01*
X115633939Y-67991288D01*
X115648082Y-67994101D01*
X115710992Y-68027009D01*
X115746123Y-68088704D01*
X115749500Y-68117680D01*
X115749500Y-68290497D01*
X115729498Y-68358618D01*
X115712595Y-68379592D01*
X115545721Y-68546466D01*
X115536377Y-68553932D01*
X115536709Y-68554322D01*
X115529873Y-68560140D01*
X115522280Y-68564930D01*
X115516338Y-68571658D01*
X115487244Y-68604601D01*
X115481897Y-68610289D01*
X115470680Y-68621506D01*
X115467991Y-68625094D01*
X115467990Y-68625095D01*
X115464550Y-68629684D01*
X115458168Y-68637523D01*
X115436318Y-68662264D01*
X115427377Y-68672388D01*
X115423563Y-68680511D01*
X115421492Y-68683664D01*
X115413673Y-68696676D01*
X115411856Y-68699995D01*
X115406474Y-68707176D01*
X115392829Y-68743575D01*
X115390144Y-68750736D01*
X115386217Y-68760053D01*
X115370263Y-68794034D01*
X115370262Y-68794037D01*
X115366447Y-68802163D01*
X115365065Y-68811037D01*
X115363961Y-68814650D01*
X115360115Y-68829307D01*
X115359301Y-68833010D01*
X115356148Y-68841420D01*
X115352698Y-68887843D01*
X115351548Y-68897856D01*
X115349500Y-68911009D01*
X115349500Y-68926204D01*
X115349154Y-68935541D01*
X115345524Y-68984392D01*
X115347397Y-68993168D01*
X115348008Y-69002125D01*
X115348002Y-69002125D01*
X115349500Y-69016318D01*
X115349500Y-70412629D01*
X115329498Y-70480750D01*
X115314432Y-70499445D01*
X115305448Y-70505448D01*
X115298555Y-70515764D01*
X115298554Y-70515765D01*
X115269439Y-70559339D01*
X115261133Y-70571769D01*
X115258712Y-70583938D01*
X115258712Y-70583939D01*
X115253476Y-70610263D01*
X115249500Y-70630252D01*
X115249500Y-71023500D01*
X115229498Y-71091621D01*
X115175842Y-71138114D01*
X115123500Y-71149500D01*
X114302634Y-71149500D01*
X114234513Y-71129498D01*
X114189679Y-71075850D01*
X114188867Y-71071769D01*
X114144552Y-71005448D01*
X114078231Y-70961133D01*
X114066062Y-70958712D01*
X114066061Y-70958712D01*
X114025816Y-70950707D01*
X114019748Y-70949500D01*
X112980252Y-70949500D01*
X112974184Y-70950707D01*
X112933939Y-70958712D01*
X112933938Y-70958712D01*
X112921769Y-70961133D01*
X112855448Y-71005448D01*
X112811133Y-71071769D01*
X112799500Y-71130252D01*
X112799500Y-72169748D01*
X112800707Y-72175816D01*
X112807605Y-72210493D01*
X112811133Y-72228231D01*
X112855448Y-72294552D01*
X112867525Y-72302622D01*
X112899430Y-72323940D01*
X112921769Y-72338867D01*
X112933938Y-72341288D01*
X112933939Y-72341288D01*
X112974184Y-72349293D01*
X112980252Y-72350500D01*
X114019748Y-72350500D01*
X114025816Y-72349293D01*
X114066061Y-72341288D01*
X114066062Y-72341288D01*
X114078231Y-72338867D01*
X114100571Y-72323940D01*
X114132475Y-72302622D01*
X114144552Y-72294552D01*
X114188867Y-72228231D01*
X114189719Y-72223946D01*
X114230771Y-72173002D01*
X114302634Y-72150500D01*
X115123500Y-72150500D01*
X115191621Y-72170502D01*
X115238114Y-72224158D01*
X115249500Y-72276500D01*
X115249500Y-72569748D01*
X115250707Y-72575816D01*
X115254730Y-72596039D01*
X115261133Y-72628231D01*
X115305448Y-72694552D01*
X115371769Y-72738867D01*
X115383938Y-72741288D01*
X115383939Y-72741288D01*
X115397946Y-72744074D01*
X115430252Y-72750500D01*
X115834984Y-72750500D01*
X115903105Y-72770502D01*
X115949598Y-72824158D01*
X115959702Y-72894432D01*
X115930208Y-72959012D01*
X115924079Y-72965595D01*
X115102079Y-73787595D01*
X115039767Y-73821621D01*
X115012984Y-73824500D01*
X114326500Y-73824500D01*
X114258379Y-73804498D01*
X114211886Y-73750842D01*
X114200500Y-73698500D01*
X114200500Y-73630252D01*
X114188867Y-73571769D01*
X114144552Y-73505448D01*
X114078231Y-73461133D01*
X114066062Y-73458712D01*
X114066061Y-73458712D01*
X114025816Y-73450707D01*
X114019748Y-73449500D01*
X113559504Y-73449500D01*
X113491383Y-73429498D01*
X113470409Y-73412595D01*
X112628534Y-72570720D01*
X112621068Y-72561376D01*
X112620678Y-72561708D01*
X112614860Y-72554872D01*
X112610070Y-72547280D01*
X112570399Y-72512244D01*
X112564712Y-72506898D01*
X112553494Y-72495680D01*
X112549562Y-72492733D01*
X112545316Y-72489550D01*
X112537477Y-72483168D01*
X112509339Y-72458318D01*
X112502612Y-72452377D01*
X112494489Y-72448563D01*
X112491336Y-72446492D01*
X112478324Y-72438673D01*
X112475005Y-72436856D01*
X112467824Y-72431474D01*
X112424261Y-72415143D01*
X112414947Y-72411217D01*
X112380966Y-72395263D01*
X112380963Y-72395262D01*
X112372837Y-72391447D01*
X112363963Y-72390065D01*
X112360350Y-72388961D01*
X112345693Y-72385115D01*
X112341990Y-72384301D01*
X112333580Y-72381148D01*
X112287157Y-72377698D01*
X112277144Y-72376548D01*
X112263991Y-72374500D01*
X112248796Y-72374500D01*
X112239459Y-72374154D01*
X112224036Y-72373008D01*
X112190608Y-72370524D01*
X112181832Y-72372397D01*
X112172875Y-72373008D01*
X112172875Y-72373002D01*
X112158682Y-72374500D01*
X111206037Y-72374500D01*
X111137916Y-72354498D01*
X111091423Y-72300842D01*
X111081319Y-72230568D01*
X111086444Y-72208832D01*
X111120491Y-72106186D01*
X111123358Y-72092810D01*
X111132672Y-72001903D01*
X111133000Y-71995487D01*
X111133000Y-71972115D01*
X111128525Y-71956876D01*
X111127135Y-71955671D01*
X111119452Y-71954000D01*
X110047000Y-71954000D01*
X109978879Y-71933998D01*
X109932386Y-71880342D01*
X109921000Y-71828000D01*
X109921000Y-71427885D01*
X110429000Y-71427885D01*
X110433475Y-71443124D01*
X110434865Y-71444329D01*
X110442548Y-71446000D01*
X111114885Y-71446000D01*
X111130124Y-71441525D01*
X111131329Y-71440135D01*
X111133000Y-71432452D01*
X111133000Y-71404562D01*
X111132663Y-71398047D01*
X111123106Y-71305943D01*
X111120212Y-71292544D01*
X111070619Y-71143893D01*
X111064445Y-71130714D01*
X110982212Y-70997827D01*
X110973176Y-70986426D01*
X110862571Y-70876014D01*
X110851160Y-70867002D01*
X110718120Y-70784996D01*
X110704939Y-70778849D01*
X110556186Y-70729509D01*
X110542810Y-70726642D01*
X110451903Y-70717328D01*
X110446874Y-70717071D01*
X110431876Y-70721475D01*
X110430671Y-70722865D01*
X110429000Y-70730548D01*
X110429000Y-71427885D01*
X109921000Y-71427885D01*
X109921000Y-70735115D01*
X109916525Y-70719876D01*
X109915135Y-70718671D01*
X109907452Y-70717000D01*
X109904562Y-70717000D01*
X109898047Y-70717337D01*
X109805943Y-70726894D01*
X109792544Y-70729788D01*
X109643893Y-70779381D01*
X109630714Y-70785555D01*
X109497827Y-70867788D01*
X109486426Y-70876824D01*
X109376014Y-70987429D01*
X109367002Y-70998840D01*
X109310914Y-71089832D01*
X109258142Y-71137325D01*
X109188070Y-71148749D01*
X109122946Y-71120475D01*
X109114559Y-71112811D01*
X109103220Y-71101472D01*
X108983126Y-71040281D01*
X108973337Y-71038731D01*
X108973335Y-71038730D01*
X108943851Y-71034060D01*
X108883488Y-71024500D01*
X108709504Y-71024500D01*
X108641383Y-71004498D01*
X108620409Y-70987595D01*
X108418534Y-70785720D01*
X108411068Y-70776376D01*
X108410678Y-70776708D01*
X108404860Y-70769872D01*
X108400070Y-70762280D01*
X108360399Y-70727244D01*
X108354712Y-70721898D01*
X108343494Y-70710680D01*
X108339905Y-70707990D01*
X108335316Y-70704550D01*
X108327477Y-70698168D01*
X108299339Y-70673318D01*
X108292612Y-70667377D01*
X108284489Y-70663563D01*
X108281336Y-70661492D01*
X108268324Y-70653673D01*
X108265005Y-70651856D01*
X108257824Y-70646474D01*
X108214261Y-70630143D01*
X108204947Y-70626217D01*
X108170966Y-70610263D01*
X108170963Y-70610262D01*
X108162837Y-70606447D01*
X108153963Y-70605065D01*
X108150350Y-70603961D01*
X108135693Y-70600115D01*
X108131990Y-70599301D01*
X108123580Y-70596148D01*
X108077157Y-70592698D01*
X108067144Y-70591548D01*
X108053991Y-70589500D01*
X108038796Y-70589500D01*
X108029459Y-70589154D01*
X108014036Y-70588008D01*
X107980608Y-70585524D01*
X107971832Y-70587397D01*
X107962875Y-70588008D01*
X107962875Y-70588002D01*
X107948682Y-70589500D01*
X107064000Y-70589500D01*
X106995879Y-70569498D01*
X106949386Y-70515842D01*
X106938000Y-70463500D01*
X106938000Y-70135476D01*
X106958002Y-70067355D01*
X106960386Y-70064171D01*
X106962500Y-70054452D01*
X106962500Y-69584826D01*
X106962667Y-69581422D01*
X106963000Y-69579748D01*
X106963000Y-68966000D01*
X106983002Y-68897879D01*
X107036658Y-68851386D01*
X107089000Y-68840000D01*
X107684500Y-68840000D01*
X107752621Y-68860002D01*
X107799114Y-68913658D01*
X107810500Y-68966000D01*
X107810500Y-69014000D01*
X107790498Y-69082121D01*
X107736842Y-69128614D01*
X107684500Y-69140000D01*
X107580615Y-69140000D01*
X107565376Y-69144475D01*
X107564171Y-69145865D01*
X107562500Y-69153548D01*
X107562500Y-70049884D01*
X107566975Y-70065123D01*
X107568365Y-70066328D01*
X107576048Y-70067999D01*
X107607169Y-70067999D01*
X107613990Y-70067629D01*
X107664852Y-70062105D01*
X107680104Y-70058479D01*
X107800554Y-70013324D01*
X107816149Y-70004786D01*
X107918224Y-69928285D01*
X107930785Y-69915724D01*
X108007286Y-69813649D01*
X108015824Y-69798054D01*
X108060978Y-69677606D01*
X108064605Y-69662351D01*
X108070131Y-69611486D01*
X108070500Y-69604672D01*
X108070500Y-69592080D01*
X108090502Y-69523959D01*
X108144158Y-69477466D01*
X108214432Y-69467362D01*
X108239181Y-69473529D01*
X108266968Y-69483533D01*
X108275530Y-69484162D01*
X108275531Y-69484162D01*
X108342180Y-69489057D01*
X108417391Y-69494580D01*
X108425806Y-69492883D01*
X108425809Y-69492883D01*
X108491726Y-69479591D01*
X108565243Y-69464767D01*
X108699632Y-69396293D01*
X108717637Y-69379737D01*
X108753590Y-69346676D01*
X108810656Y-69294201D01*
X108866409Y-69204280D01*
X108885610Y-69173313D01*
X108885611Y-69173310D01*
X108890135Y-69166014D01*
X108932215Y-69021175D01*
X108933000Y-69010485D01*
X108933000Y-67802215D01*
X108931510Y-67791334D01*
X108918872Y-67699082D01*
X108917706Y-67690568D01*
X108881715Y-67607397D01*
X108861217Y-67560029D01*
X108861216Y-67560027D01*
X108857805Y-67552145D01*
X108852398Y-67545467D01*
X108850160Y-67541773D01*
X108831980Y-67473144D01*
X108853789Y-67405580D01*
X108908664Y-67360533D01*
X108957935Y-67350500D01*
X109462241Y-67350500D01*
X109530362Y-67370502D01*
X109574508Y-67419297D01*
X109596950Y-67463342D01*
X109686658Y-67553050D01*
X109799696Y-67610646D01*
X109809485Y-67612196D01*
X109809487Y-67612197D01*
X109836849Y-67616530D01*
X109893481Y-67625500D01*
X110199938Y-67625500D01*
X110506518Y-67625499D01*
X110511412Y-67624724D01*
X110590506Y-67612198D01*
X110590508Y-67612197D01*
X110600304Y-67610646D01*
X110713342Y-67553050D01*
X110803050Y-67463342D01*
X110860646Y-67350304D01*
X110875500Y-67256519D01*
X110875499Y-66793482D01*
X110874724Y-66788588D01*
X110863822Y-66719748D01*
X112499500Y-66719748D01*
X112511133Y-66778231D01*
X112518026Y-66788547D01*
X112526134Y-66800681D01*
X112555448Y-66844552D01*
X112621769Y-66888867D01*
X112633938Y-66891288D01*
X112633939Y-66891288D01*
X112659856Y-66896443D01*
X112680252Y-66900500D01*
X113519748Y-66900500D01*
X113540144Y-66896443D01*
X113566061Y-66891288D01*
X113566062Y-66891288D01*
X113578231Y-66888867D01*
X113644552Y-66844552D01*
X113673866Y-66800681D01*
X113681974Y-66788547D01*
X113688867Y-66778231D01*
X113700500Y-66719748D01*
X113700500Y-65750252D01*
X113688867Y-65691769D01*
X113644552Y-65625448D01*
X113578231Y-65581133D01*
X113566062Y-65578712D01*
X113566061Y-65578712D01*
X113525816Y-65570707D01*
X113519748Y-65569500D01*
X112680252Y-65569500D01*
X112674184Y-65570707D01*
X112633939Y-65578712D01*
X112633938Y-65578712D01*
X112621769Y-65581133D01*
X112555448Y-65625448D01*
X112511133Y-65691769D01*
X112499500Y-65750252D01*
X112499500Y-66719748D01*
X110863822Y-66719748D01*
X110862198Y-66709494D01*
X110862197Y-66709492D01*
X110860646Y-66699696D01*
X110851792Y-66682318D01*
X110825492Y-66630703D01*
X110803050Y-66586658D01*
X110713342Y-66496950D01*
X110704512Y-66492451D01*
X110704508Y-66492448D01*
X110678987Y-66479445D01*
X110627371Y-66430697D01*
X110610305Y-66361783D01*
X110633205Y-66294581D01*
X110688803Y-66250428D01*
X110698510Y-66246944D01*
X110761243Y-66227285D01*
X110774988Y-66221079D01*
X110908574Y-66140176D01*
X110920443Y-66130869D01*
X111030869Y-66020443D01*
X111040176Y-66008574D01*
X111121079Y-65874988D01*
X111127285Y-65861243D01*
X111174256Y-65711356D01*
X111176869Y-65698306D01*
X111181913Y-65643414D01*
X111178525Y-65631876D01*
X111177135Y-65630671D01*
X111169452Y-65629000D01*
X109235116Y-65629000D01*
X109219877Y-65633475D01*
X109218672Y-65634865D01*
X109217709Y-65639294D01*
X109223132Y-65698315D01*
X109225743Y-65711351D01*
X109272715Y-65861243D01*
X109278921Y-65874988D01*
X109359824Y-66008574D01*
X109369131Y-66020443D01*
X109479557Y-66130869D01*
X109491426Y-66140176D01*
X109625012Y-66221079D01*
X109638757Y-66227285D01*
X109701490Y-66246944D01*
X109760512Y-66286401D01*
X109788832Y-66351505D01*
X109777459Y-66421585D01*
X109730003Y-66474391D01*
X109721013Y-66479445D01*
X109695492Y-66492448D01*
X109695488Y-66492451D01*
X109686658Y-66496950D01*
X109596950Y-66586658D01*
X109589897Y-66600500D01*
X109574508Y-66630703D01*
X109525760Y-66682318D01*
X109462241Y-66699500D01*
X106327198Y-66699500D01*
X106316216Y-66699020D01*
X106289680Y-66696698D01*
X106289678Y-66696698D01*
X106278693Y-66695737D01*
X106268043Y-66698591D01*
X106268041Y-66698591D01*
X106242304Y-66705488D01*
X106231569Y-66707868D01*
X106231558Y-66707870D01*
X106194455Y-66714412D01*
X106184907Y-66719924D01*
X106181630Y-66721117D01*
X106178462Y-66722594D01*
X106167816Y-66725447D01*
X106158787Y-66731769D01*
X106136953Y-66747057D01*
X106127685Y-66752961D01*
X106095045Y-66771806D01*
X106087962Y-66780247D01*
X106087961Y-66780248D01*
X106070820Y-66800676D01*
X106063394Y-66808779D01*
X105096287Y-67775886D01*
X105088184Y-67783312D01*
X105067749Y-67800460D01*
X105059306Y-67807545D01*
X105053796Y-67817089D01*
X105053795Y-67817090D01*
X105040461Y-67840185D01*
X105034555Y-67849456D01*
X105012946Y-67880316D01*
X105010092Y-67890966D01*
X105008615Y-67894134D01*
X105007423Y-67897410D01*
X105001912Y-67906955D01*
X104996853Y-67935650D01*
X104995370Y-67944058D01*
X104992992Y-67954785D01*
X104983236Y-67991193D01*
X104984197Y-68002178D01*
X104984197Y-68002180D01*
X104986520Y-68028728D01*
X104987000Y-68039710D01*
X104987000Y-68093500D01*
X104966998Y-68161621D01*
X104913342Y-68208114D01*
X104861000Y-68219500D01*
X104642752Y-68219500D01*
X104587079Y-68230574D01*
X104537921Y-68230574D01*
X104482248Y-68219500D01*
X104142752Y-68219500D01*
X104087079Y-68230574D01*
X104037921Y-68230574D01*
X103982248Y-68219500D01*
X103642752Y-68219500D01*
X103587079Y-68230574D01*
X103537921Y-68230574D01*
X103482248Y-68219500D01*
X103142752Y-68219500D01*
X103087079Y-68230574D01*
X103037921Y-68230574D01*
X102982248Y-68219500D01*
X102764000Y-68219500D01*
X102695879Y-68199498D01*
X102649386Y-68145842D01*
X102638000Y-68093500D01*
X102638000Y-67959759D01*
X102638480Y-67948777D01*
X102640803Y-67922229D01*
X102640803Y-67922227D01*
X102641764Y-67911242D01*
X102632008Y-67874834D01*
X102629630Y-67864107D01*
X102628652Y-67858561D01*
X102623088Y-67827004D01*
X102617577Y-67817459D01*
X102616385Y-67814183D01*
X102614908Y-67811015D01*
X102612054Y-67800365D01*
X102590445Y-67769505D01*
X102584539Y-67760234D01*
X102571207Y-67737143D01*
X102565694Y-67727594D01*
X102536817Y-67703364D01*
X102528715Y-67695938D01*
X101641562Y-66808785D01*
X101634135Y-66800681D01*
X101616992Y-66780251D01*
X101616993Y-66780251D01*
X101609906Y-66771806D01*
X101597681Y-66764748D01*
X101577266Y-66752961D01*
X101567995Y-66747055D01*
X101546166Y-66731770D01*
X101537135Y-66725446D01*
X101526485Y-66722592D01*
X101523317Y-66721115D01*
X101520041Y-66719923D01*
X101510496Y-66714412D01*
X101476752Y-66708462D01*
X101473393Y-66707870D01*
X101462666Y-66705492D01*
X101426258Y-66695736D01*
X101415273Y-66696697D01*
X101415271Y-66696697D01*
X101388723Y-66699020D01*
X101377741Y-66699500D01*
X98737759Y-66699500D01*
X98669638Y-66679498D01*
X98625492Y-66630703D01*
X98610103Y-66600500D01*
X98603050Y-66586658D01*
X98513342Y-66496950D01*
X98504512Y-66492451D01*
X98504508Y-66492448D01*
X98478987Y-66479445D01*
X98427371Y-66430697D01*
X98410305Y-66361783D01*
X98433205Y-66294581D01*
X98488803Y-66250428D01*
X98498510Y-66246944D01*
X98561243Y-66227285D01*
X98574988Y-66221079D01*
X98708574Y-66140176D01*
X98720443Y-66130869D01*
X98830869Y-66020443D01*
X98840176Y-66008574D01*
X98921079Y-65874988D01*
X98927285Y-65861243D01*
X98974256Y-65711356D01*
X98976869Y-65698306D01*
X98981913Y-65643414D01*
X98978525Y-65631876D01*
X98977135Y-65630671D01*
X98969452Y-65629000D01*
X97035116Y-65629000D01*
X97019877Y-65633475D01*
X97018672Y-65634865D01*
X97017709Y-65639294D01*
X97023132Y-65698315D01*
X97025743Y-65711351D01*
X97072715Y-65861243D01*
X97078921Y-65874988D01*
X97159824Y-66008574D01*
X97169131Y-66020443D01*
X97279557Y-66130869D01*
X97291426Y-66140176D01*
X97425012Y-66221079D01*
X97438757Y-66227285D01*
X97501490Y-66246944D01*
X97560512Y-66286401D01*
X97588832Y-66351505D01*
X97577459Y-66421585D01*
X97530003Y-66474391D01*
X97521013Y-66479445D01*
X97495492Y-66492448D01*
X97495488Y-66492451D01*
X97486658Y-66496950D01*
X97396950Y-66586658D01*
X97339354Y-66699696D01*
X97337804Y-66709485D01*
X97337803Y-66709487D01*
X97335961Y-66721117D01*
X97324500Y-66793481D01*
X97324501Y-67256518D01*
X97339354Y-67350304D01*
X97343855Y-67359137D01*
X97343857Y-67359142D01*
X97349645Y-67370502D01*
X97396950Y-67463342D01*
X97486658Y-67553050D01*
X97599696Y-67610646D01*
X97609485Y-67612196D01*
X97609487Y-67612197D01*
X97636849Y-67616530D01*
X97693481Y-67625500D01*
X97999938Y-67625500D01*
X98306518Y-67625499D01*
X98311412Y-67624724D01*
X98390506Y-67612198D01*
X98390508Y-67612197D01*
X98400304Y-67610646D01*
X98513342Y-67553050D01*
X98603050Y-67463342D01*
X98625492Y-67419297D01*
X98674240Y-67367682D01*
X98737759Y-67350500D01*
X99171855Y-67350500D01*
X99239976Y-67370502D01*
X99286469Y-67424158D01*
X99296573Y-67494432D01*
X99278942Y-67542896D01*
X99239390Y-67606687D01*
X99239389Y-67606690D01*
X99234865Y-67613986D01*
X99192785Y-67758825D01*
X99192000Y-67769515D01*
X99192000Y-68977785D01*
X99192582Y-68982030D01*
X99192582Y-68982037D01*
X99197278Y-69016318D01*
X99207294Y-69089432D01*
X99210706Y-69097316D01*
X99210706Y-69097317D01*
X99261037Y-69213624D01*
X99267195Y-69227855D01*
X99362114Y-69345070D01*
X99485058Y-69432442D01*
X99626968Y-69483533D01*
X99635530Y-69484162D01*
X99635531Y-69484162D01*
X99702180Y-69489057D01*
X99777391Y-69494580D01*
X99785806Y-69492883D01*
X99785809Y-69492883D01*
X99903596Y-69469132D01*
X99974326Y-69475274D01*
X100030507Y-69518682D01*
X100054501Y-69592646D01*
X100054501Y-69604669D01*
X100054871Y-69611490D01*
X100060395Y-69662352D01*
X100064021Y-69677604D01*
X100109176Y-69798054D01*
X100117714Y-69813649D01*
X100194215Y-69915724D01*
X100206776Y-69928285D01*
X100308851Y-70004786D01*
X100324446Y-70013324D01*
X100444894Y-70058478D01*
X100460149Y-70062105D01*
X100511014Y-70067631D01*
X100517828Y-70068000D01*
X100544385Y-70068000D01*
X100559624Y-70063525D01*
X100560829Y-70062135D01*
X100562500Y-70054452D01*
X100562500Y-69158115D01*
X100558025Y-69142876D01*
X100556635Y-69141671D01*
X100548952Y-69140000D01*
X100440500Y-69140000D01*
X100372379Y-69119998D01*
X100325886Y-69066342D01*
X100314500Y-69014000D01*
X100314500Y-68966000D01*
X100334502Y-68897879D01*
X100388158Y-68851386D01*
X100440500Y-68840000D01*
X101036000Y-68840000D01*
X101104121Y-68860002D01*
X101150614Y-68913658D01*
X101162000Y-68966000D01*
X101162000Y-69579748D01*
X101162333Y-69581422D01*
X101162500Y-69584826D01*
X101162500Y-70049884D01*
X101175723Y-70094917D01*
X101181898Y-70104527D01*
X101187000Y-70140018D01*
X101187000Y-70392790D01*
X101186520Y-70403772D01*
X101183236Y-70441307D01*
X101186090Y-70451956D01*
X101192991Y-70477710D01*
X101195370Y-70488442D01*
X101201912Y-70525545D01*
X101207423Y-70535090D01*
X101208615Y-70538366D01*
X101210092Y-70541534D01*
X101212946Y-70552184D01*
X101225070Y-70569498D01*
X101234555Y-70583044D01*
X101240461Y-70592315D01*
X101248747Y-70606666D01*
X101259306Y-70624955D01*
X101267751Y-70632041D01*
X101288175Y-70649179D01*
X101296279Y-70656606D01*
X101562063Y-70922390D01*
X101596089Y-70984702D01*
X101598725Y-71003678D01*
X101600900Y-71038730D01*
X101604182Y-71091621D01*
X101604859Y-71102538D01*
X101653540Y-71237387D01*
X101658836Y-71244636D01*
X101674566Y-71266168D01*
X101698599Y-71332973D01*
X101698824Y-71340746D01*
X101696877Y-72323940D01*
X101676740Y-72392021D01*
X101667253Y-72403768D01*
X101662167Y-72407167D01*
X101655274Y-72417483D01*
X101615463Y-72477064D01*
X101615462Y-72477066D01*
X101608570Y-72487381D01*
X101594500Y-72558115D01*
X101594501Y-74491884D01*
X101595708Y-74497950D01*
X101595708Y-74497955D01*
X101604889Y-74544111D01*
X101608570Y-74562619D01*
X101615464Y-74572936D01*
X101615464Y-74572937D01*
X101651500Y-74626869D01*
X101662167Y-74642833D01*
X101742381Y-74696430D01*
X101754550Y-74698851D01*
X101763220Y-74702442D01*
X101818500Y-74746991D01*
X101841000Y-74818850D01*
X101841000Y-75727885D01*
X101845475Y-75743124D01*
X101846865Y-75744329D01*
X101854548Y-75746000D01*
X106140884Y-75746000D01*
X106156123Y-75741525D01*
X106157328Y-75740135D01*
X106158999Y-75732452D01*
X106158999Y-75135327D01*
X106179001Y-75067206D01*
X106232657Y-75020713D01*
X106269860Y-75010240D01*
X106287389Y-75008119D01*
X106302953Y-75004166D01*
X106427549Y-74954835D01*
X106442380Y-74946478D01*
X106548725Y-74865757D01*
X106560757Y-74853725D01*
X106641478Y-74747380D01*
X106649835Y-74732549D01*
X106699166Y-74607953D01*
X106703119Y-74592388D01*
X106712544Y-74514498D01*
X106713000Y-74506943D01*
X106713000Y-73797115D01*
X106708525Y-73781876D01*
X106707135Y-73780671D01*
X106699452Y-73779000D01*
X105777000Y-73779000D01*
X105708879Y-73758998D01*
X105662386Y-73705342D01*
X105651000Y-73653000D01*
X105651000Y-73397000D01*
X105671002Y-73328879D01*
X105724658Y-73282386D01*
X105777000Y-73271000D01*
X106694885Y-73271000D01*
X106710124Y-73266525D01*
X106711329Y-73265135D01*
X106713000Y-73257452D01*
X106713000Y-72577516D01*
X106733002Y-72509395D01*
X106786658Y-72462902D01*
X106856932Y-72452798D01*
X106921512Y-72482292D01*
X106928091Y-72488417D01*
X107997547Y-73557874D01*
X108031572Y-73620184D01*
X108026507Y-73690999D01*
X107997546Y-73736062D01*
X107946950Y-73786658D01*
X107889354Y-73899696D01*
X107887804Y-73909485D01*
X107887803Y-73909487D01*
X107884895Y-73927850D01*
X107874500Y-73993481D01*
X107874501Y-74606518D01*
X107875276Y-74611411D01*
X107875276Y-74611412D01*
X107887649Y-74689536D01*
X107889354Y-74700304D01*
X107893857Y-74709141D01*
X107893857Y-74709142D01*
X107901943Y-74725012D01*
X107946950Y-74813342D01*
X108036658Y-74903050D01*
X108149696Y-74960646D01*
X108159485Y-74962196D01*
X108159487Y-74962197D01*
X108186849Y-74966530D01*
X108243481Y-74975500D01*
X108474953Y-74975500D01*
X108706518Y-74975499D01*
X108712826Y-74974500D01*
X108790506Y-74962198D01*
X108790508Y-74962197D01*
X108800304Y-74960646D01*
X108913342Y-74903050D01*
X109003050Y-74813342D01*
X109007551Y-74804509D01*
X109007552Y-74804508D01*
X109020555Y-74778987D01*
X109069303Y-74727371D01*
X109138217Y-74710305D01*
X109205419Y-74733205D01*
X109249572Y-74788803D01*
X109253056Y-74798510D01*
X109272715Y-74861243D01*
X109278921Y-74874988D01*
X109359824Y-75008574D01*
X109369131Y-75020443D01*
X109479557Y-75130869D01*
X109491426Y-75140176D01*
X109625012Y-75221079D01*
X109638757Y-75227285D01*
X109788644Y-75274256D01*
X109801694Y-75276869D01*
X109856586Y-75281913D01*
X109868124Y-75278525D01*
X109869329Y-75277135D01*
X109871000Y-75269452D01*
X109871000Y-75264884D01*
X110379000Y-75264884D01*
X110383475Y-75280123D01*
X110384865Y-75281328D01*
X110389294Y-75282291D01*
X110448315Y-75276868D01*
X110461351Y-75274257D01*
X110611243Y-75227285D01*
X110624988Y-75221079D01*
X110758574Y-75140176D01*
X110770443Y-75130869D01*
X110880869Y-75020443D01*
X110890176Y-75008574D01*
X110971079Y-74874988D01*
X110977285Y-74861243D01*
X111024256Y-74711356D01*
X111026869Y-74698306D01*
X111032734Y-74634479D01*
X111033000Y-74628691D01*
X111033000Y-74572115D01*
X111028525Y-74556876D01*
X111027135Y-74555671D01*
X111019452Y-74554000D01*
X110397115Y-74554000D01*
X110381876Y-74558475D01*
X110380671Y-74559865D01*
X110379000Y-74567548D01*
X110379000Y-75264884D01*
X109871000Y-75264884D01*
X109871000Y-74172000D01*
X109891002Y-74103879D01*
X109944658Y-74057386D01*
X109997000Y-74046000D01*
X111014884Y-74046000D01*
X111030123Y-74041525D01*
X111031328Y-74040135D01*
X111032999Y-74032452D01*
X111032999Y-73971295D01*
X111032736Y-73965546D01*
X111026868Y-73901685D01*
X111024257Y-73888649D01*
X110977285Y-73738757D01*
X110971079Y-73725012D01*
X110890176Y-73591425D01*
X110880629Y-73579251D01*
X110854333Y-73513304D01*
X110867866Y-73443609D01*
X110916930Y-73392294D01*
X110979779Y-73375500D01*
X111965496Y-73375500D01*
X112033617Y-73395502D01*
X112054591Y-73412405D01*
X112762595Y-74120409D01*
X112796621Y-74182721D01*
X112799500Y-74209504D01*
X112799500Y-74669748D01*
X112800707Y-74675816D01*
X112805181Y-74698306D01*
X112811133Y-74728231D01*
X112855448Y-74794552D01*
X112921769Y-74838867D01*
X112933938Y-74841288D01*
X112933939Y-74841288D01*
X112974184Y-74849293D01*
X112980252Y-74850500D01*
X113048500Y-74850500D01*
X113116621Y-74870502D01*
X113163114Y-74924158D01*
X113174500Y-74976500D01*
X113174500Y-78312984D01*
X113154498Y-78381105D01*
X113137595Y-78402079D01*
X111502079Y-80037595D01*
X111439767Y-80071621D01*
X111412984Y-80074500D01*
X110414000Y-80074500D01*
X110345879Y-80054498D01*
X110299386Y-80000842D01*
X110288000Y-79948500D01*
X110288000Y-79124067D01*
X110284936Y-79114636D01*
X110284935Y-79114632D01*
X110281203Y-79103147D01*
X110276587Y-79083922D01*
X110274697Y-79071988D01*
X110274697Y-79071987D01*
X110273146Y-79062196D01*
X110268645Y-79053363D01*
X110268644Y-79053359D01*
X110263159Y-79042594D01*
X110255593Y-79024330D01*
X110248796Y-79003410D01*
X110235861Y-78985607D01*
X110225535Y-78968755D01*
X110220054Y-78957998D01*
X110215550Y-78949158D01*
X110192987Y-78926595D01*
X110192984Y-78926591D01*
X108935909Y-77669516D01*
X108935905Y-77669513D01*
X108913342Y-77646950D01*
X108893746Y-77636965D01*
X108876893Y-77626639D01*
X108859090Y-77613704D01*
X108838166Y-77606905D01*
X108819906Y-77599341D01*
X108809141Y-77593856D01*
X108809137Y-77593855D01*
X108800304Y-77589354D01*
X108790513Y-77587803D01*
X108790512Y-77587803D01*
X108778578Y-77585913D01*
X108759353Y-77581297D01*
X108747868Y-77577565D01*
X108747864Y-77577564D01*
X108738433Y-77574500D01*
X107831731Y-77574500D01*
X107763610Y-77554498D01*
X107753540Y-77546382D01*
X107753282Y-77546718D01*
X107711039Y-77514304D01*
X107627841Y-77450464D01*
X107481762Y-77389956D01*
X107325000Y-77369318D01*
X107168238Y-77389956D01*
X107022159Y-77450464D01*
X106896718Y-77546718D01*
X106894928Y-77544386D01*
X106845052Y-77571621D01*
X106818269Y-77574500D01*
X106522109Y-77574500D01*
X106453988Y-77554498D01*
X106407495Y-77500842D01*
X106398532Y-77473086D01*
X106391430Y-77437381D01*
X106375335Y-77413292D01*
X106344726Y-77367483D01*
X106337833Y-77357167D01*
X106327517Y-77350274D01*
X106267937Y-77310464D01*
X106267936Y-77310464D01*
X106257619Y-77303570D01*
X106245450Y-77301149D01*
X106236780Y-77297558D01*
X106181500Y-77253009D01*
X106159000Y-77181150D01*
X106159000Y-76272115D01*
X106154525Y-76256876D01*
X106153135Y-76255671D01*
X106145452Y-76254000D01*
X104272115Y-76254000D01*
X104256876Y-76258475D01*
X104255671Y-76259865D01*
X104254000Y-76267548D01*
X104254000Y-77256567D01*
X104233998Y-77324688D01*
X104217095Y-77345662D01*
X104212483Y-77350274D01*
X104202167Y-77357167D01*
X104195274Y-77367483D01*
X104155463Y-77427064D01*
X104155462Y-77427066D01*
X104148570Y-77437381D01*
X104134500Y-77508115D01*
X104134501Y-79441884D01*
X104135708Y-79447950D01*
X104135708Y-79447955D01*
X104145999Y-79499693D01*
X104148570Y-79512619D01*
X104201036Y-79591140D01*
X104201038Y-79591144D01*
X104202167Y-79592833D01*
X104202016Y-79592934D01*
X104231621Y-79647150D01*
X104234500Y-79673933D01*
X104234500Y-80123433D01*
X104237564Y-80132864D01*
X104237565Y-80132868D01*
X104241297Y-80144353D01*
X104245913Y-80163578D01*
X104249354Y-80185304D01*
X104253855Y-80194137D01*
X104253856Y-80194141D01*
X104259341Y-80204906D01*
X104266905Y-80223166D01*
X104273704Y-80244090D01*
X104286639Y-80261893D01*
X104296965Y-80278745D01*
X104306950Y-80298342D01*
X104329513Y-80320905D01*
X104329516Y-80320909D01*
X104365158Y-80356551D01*
X104399184Y-80418863D01*
X104395896Y-80484584D01*
X104393857Y-80490858D01*
X104389354Y-80499696D01*
X104374500Y-80593481D01*
X104374501Y-81206518D01*
X104375276Y-81211409D01*
X104375276Y-81211412D01*
X104387314Y-81287420D01*
X104389354Y-81300304D01*
X104446950Y-81413342D01*
X104536658Y-81503050D01*
X104649696Y-81560646D01*
X104659485Y-81562196D01*
X104659487Y-81562197D01*
X104686849Y-81566530D01*
X104743481Y-81575500D01*
X104974953Y-81575500D01*
X105206518Y-81575499D01*
X105211412Y-81574724D01*
X105290506Y-81562198D01*
X105290508Y-81562197D01*
X105300304Y-81560646D01*
X105413342Y-81503050D01*
X105503050Y-81413342D01*
X105560646Y-81300304D01*
X105575500Y-81206519D01*
X105575499Y-80593482D01*
X105575499Y-80593481D01*
X106024500Y-80593481D01*
X106024501Y-81206518D01*
X106025276Y-81211409D01*
X106025276Y-81211412D01*
X106037314Y-81287420D01*
X106039354Y-81300304D01*
X106096950Y-81413342D01*
X106186658Y-81503050D01*
X106299696Y-81560646D01*
X106309485Y-81562196D01*
X106309487Y-81562197D01*
X106336849Y-81566530D01*
X106393481Y-81575500D01*
X106624953Y-81575500D01*
X106856518Y-81575499D01*
X106861412Y-81574724D01*
X106940506Y-81562198D01*
X106940508Y-81562197D01*
X106950304Y-81560646D01*
X107063342Y-81503050D01*
X107153050Y-81413342D01*
X107210646Y-81300304D01*
X107225500Y-81206519D01*
X107225499Y-80926499D01*
X107245501Y-80858380D01*
X107299156Y-80811887D01*
X107351499Y-80800500D01*
X107548500Y-80800500D01*
X107616621Y-80820502D01*
X107663114Y-80874158D01*
X107674500Y-80926500D01*
X107674500Y-81189246D01*
X107690049Y-81287420D01*
X107750342Y-81405751D01*
X107844249Y-81499658D01*
X107962580Y-81559951D01*
X108060754Y-81575500D01*
X108564246Y-81575500D01*
X108662420Y-81559951D01*
X108780751Y-81499658D01*
X108874658Y-81405751D01*
X108934951Y-81287420D01*
X108950500Y-81189246D01*
X108950500Y-80610754D01*
X108934951Y-80512580D01*
X108874658Y-80394249D01*
X108780751Y-80300342D01*
X108723306Y-80271072D01*
X108668244Y-80216010D01*
X108640550Y-80161658D01*
X108550842Y-80071950D01*
X108437804Y-80014354D01*
X108428015Y-80012804D01*
X108428013Y-80012803D01*
X108400651Y-80008470D01*
X108344019Y-79999500D01*
X106593481Y-79999500D01*
X106536849Y-80008470D01*
X106509487Y-80012803D01*
X106509485Y-80012804D01*
X106499696Y-80014354D01*
X106386658Y-80071950D01*
X106296950Y-80161658D01*
X106273394Y-80207890D01*
X106261103Y-80232012D01*
X106212355Y-80283627D01*
X106206059Y-80287065D01*
X106186658Y-80296950D01*
X106096950Y-80386658D01*
X106039354Y-80499696D01*
X106024500Y-80593481D01*
X105575499Y-80593481D01*
X105574724Y-80588588D01*
X105562198Y-80509494D01*
X105562197Y-80509490D01*
X105560646Y-80499696D01*
X105503050Y-80386658D01*
X105413342Y-80296950D01*
X105399066Y-80289676D01*
X105347452Y-80240928D01*
X105344322Y-80233941D01*
X105343861Y-80234176D01*
X105339361Y-80225343D01*
X105336296Y-80215911D01*
X105280484Y-80139091D01*
X105072405Y-79931012D01*
X105038379Y-79868700D01*
X105035500Y-79841917D01*
X105035500Y-79673933D01*
X105055502Y-79605812D01*
X105063779Y-79595542D01*
X105067833Y-79592833D01*
X105114536Y-79522937D01*
X105114537Y-79522936D01*
X105114538Y-79522934D01*
X105121430Y-79512619D01*
X105135500Y-79441885D01*
X105135499Y-77840498D01*
X105155501Y-77772378D01*
X105209157Y-77725885D01*
X105261499Y-77714499D01*
X105278500Y-77714499D01*
X105346621Y-77734501D01*
X105393114Y-77788157D01*
X105404500Y-77840499D01*
X105404501Y-78638911D01*
X105404501Y-79441884D01*
X105405708Y-79447950D01*
X105405708Y-79447955D01*
X105415999Y-79499693D01*
X105418570Y-79512619D01*
X105472167Y-79592833D01*
X105482483Y-79599726D01*
X105542064Y-79639537D01*
X105542066Y-79639538D01*
X105552381Y-79646430D01*
X105623115Y-79660500D01*
X105904977Y-79660500D01*
X106186884Y-79660499D01*
X106192950Y-79659292D01*
X106192955Y-79659292D01*
X106245448Y-79648851D01*
X106245449Y-79648851D01*
X106257619Y-79646430D01*
X106318409Y-79605812D01*
X106327517Y-79599726D01*
X106337833Y-79592833D01*
X106384536Y-79522937D01*
X106384537Y-79522936D01*
X106384538Y-79522934D01*
X106391430Y-79512619D01*
X106405500Y-79441885D01*
X106405499Y-78501500D01*
X106425501Y-78433379D01*
X106479157Y-78386886D01*
X106531499Y-78375500D01*
X106818269Y-78375500D01*
X106886390Y-78395502D01*
X106896460Y-78403618D01*
X106896718Y-78403282D01*
X107022159Y-78499536D01*
X107168238Y-78560044D01*
X107325000Y-78580682D01*
X107333188Y-78579604D01*
X107473574Y-78561122D01*
X107481762Y-78560044D01*
X107627841Y-78499536D01*
X107753282Y-78403282D01*
X107755072Y-78405614D01*
X107804948Y-78378379D01*
X107831731Y-78375500D01*
X108456917Y-78375500D01*
X108525038Y-78395502D01*
X108546012Y-78412405D01*
X109450095Y-79316488D01*
X109484121Y-79378800D01*
X109487000Y-79405583D01*
X109487000Y-80188835D01*
X109466998Y-80256956D01*
X109435063Y-80290769D01*
X109428081Y-80295842D01*
X109419249Y-80300342D01*
X109325342Y-80394249D01*
X109265049Y-80512580D01*
X109249500Y-80610754D01*
X109249500Y-81189246D01*
X109265049Y-81287420D01*
X109325342Y-81405751D01*
X109419249Y-81499658D01*
X109537580Y-81559951D01*
X109635754Y-81575500D01*
X110139246Y-81575500D01*
X110237420Y-81559951D01*
X110355751Y-81499658D01*
X110449658Y-81405751D01*
X110509951Y-81287420D01*
X110525500Y-81189246D01*
X110525500Y-80851500D01*
X110545502Y-80783379D01*
X110599158Y-80736886D01*
X110651500Y-80725500D01*
X111212496Y-80725500D01*
X111280617Y-80745502D01*
X111327110Y-80799158D01*
X111337214Y-80869432D01*
X111307720Y-80934012D01*
X111301591Y-80940595D01*
X110179591Y-82062595D01*
X110117279Y-82096621D01*
X110090496Y-82099500D01*
X96059504Y-82099500D01*
X95991383Y-82079498D01*
X95970409Y-82062595D01*
X95337405Y-81429591D01*
X95303379Y-81367279D01*
X95300500Y-81340496D01*
X95300500Y-78970176D01*
X95301828Y-78958296D01*
X95301317Y-78958255D01*
X95302037Y-78949307D01*
X95304018Y-78940552D01*
X95300742Y-78887745D01*
X95300500Y-78879943D01*
X95300500Y-78864060D01*
X95299863Y-78859610D01*
X95299052Y-78853942D01*
X95298022Y-78843891D01*
X95295697Y-78806420D01*
X95295697Y-78806419D01*
X95295141Y-78797461D01*
X95292093Y-78789017D01*
X95291328Y-78785324D01*
X95287653Y-78770584D01*
X95286596Y-78766968D01*
X95285323Y-78758082D01*
X95266067Y-78715730D01*
X95262255Y-78706367D01*
X95246460Y-78662613D01*
X95241162Y-78655361D01*
X95239383Y-78652015D01*
X95231726Y-78638911D01*
X95229697Y-78635739D01*
X95225984Y-78627572D01*
X95220129Y-78620776D01*
X95220127Y-78620774D01*
X95195610Y-78592321D01*
X95189325Y-78584405D01*
X95184352Y-78577598D01*
X95184346Y-78577591D01*
X95181477Y-78573664D01*
X95170741Y-78562928D01*
X95164383Y-78556081D01*
X95138259Y-78525763D01*
X95132400Y-78518963D01*
X95124866Y-78514079D01*
X95118104Y-78508181D01*
X95118108Y-78508176D01*
X95107013Y-78499200D01*
X94423409Y-77815595D01*
X94389384Y-77753283D01*
X94394449Y-77682467D01*
X94436996Y-77625632D01*
X94503516Y-77600821D01*
X94512505Y-77600500D01*
X98728917Y-77600500D01*
X98797038Y-77620502D01*
X98843531Y-77674158D01*
X98853635Y-77744432D01*
X98824141Y-77809012D01*
X98818012Y-77815595D01*
X97607016Y-79026591D01*
X97607013Y-79026595D01*
X97584450Y-79049158D01*
X97579946Y-79057998D01*
X97574465Y-79068755D01*
X97564139Y-79085607D01*
X97551204Y-79103410D01*
X97547558Y-79114632D01*
X97544407Y-79124330D01*
X97536841Y-79142594D01*
X97531356Y-79153359D01*
X97531355Y-79153363D01*
X97526854Y-79162196D01*
X97525303Y-79171987D01*
X97525303Y-79171988D01*
X97523413Y-79183922D01*
X97518797Y-79203147D01*
X97515065Y-79214632D01*
X97515064Y-79214636D01*
X97512000Y-79224067D01*
X97512000Y-80188835D01*
X97491998Y-80256956D01*
X97460063Y-80290769D01*
X97453081Y-80295842D01*
X97444249Y-80300342D01*
X97350342Y-80394249D01*
X97290049Y-80512580D01*
X97274500Y-80610754D01*
X97274500Y-81189246D01*
X97290049Y-81287420D01*
X97350342Y-81405751D01*
X97444249Y-81499658D01*
X97562580Y-81559951D01*
X97660754Y-81575500D01*
X98164246Y-81575500D01*
X98262420Y-81559951D01*
X98380751Y-81499658D01*
X98474658Y-81405751D01*
X98534951Y-81287420D01*
X98550500Y-81189246D01*
X98849500Y-81189246D01*
X98865049Y-81287420D01*
X98925342Y-81405751D01*
X99019249Y-81499658D01*
X99137580Y-81559951D01*
X99235754Y-81575500D01*
X99739246Y-81575500D01*
X99837420Y-81559951D01*
X99955751Y-81499658D01*
X100049658Y-81405751D01*
X100109951Y-81287420D01*
X100125500Y-81189246D01*
X100125500Y-80926500D01*
X100145502Y-80858379D01*
X100199158Y-80811886D01*
X100251500Y-80800500D01*
X100548500Y-80800500D01*
X100616621Y-80820502D01*
X100663114Y-80874158D01*
X100674500Y-80926500D01*
X100674501Y-81206518D01*
X100675276Y-81211409D01*
X100675276Y-81211412D01*
X100687314Y-81287420D01*
X100689354Y-81300304D01*
X100746950Y-81413342D01*
X100836658Y-81503050D01*
X100949696Y-81560646D01*
X100959485Y-81562196D01*
X100959487Y-81562197D01*
X100986849Y-81566530D01*
X101043481Y-81575500D01*
X101274953Y-81575500D01*
X101506518Y-81575499D01*
X101511412Y-81574724D01*
X101590506Y-81562198D01*
X101590508Y-81562197D01*
X101600304Y-81560646D01*
X101713342Y-81503050D01*
X101803050Y-81413342D01*
X101860646Y-81300304D01*
X101875500Y-81206519D01*
X101875499Y-80593482D01*
X101874724Y-80588588D01*
X101862198Y-80509494D01*
X101862197Y-80509490D01*
X101860646Y-80499696D01*
X101803050Y-80386658D01*
X101713342Y-80296950D01*
X101693960Y-80287074D01*
X101642346Y-80238328D01*
X101638897Y-80232012D01*
X101626607Y-80207890D01*
X101603050Y-80161658D01*
X101513342Y-80071950D01*
X101400304Y-80014354D01*
X101390515Y-80012804D01*
X101390513Y-80012803D01*
X101363151Y-80008470D01*
X101306519Y-79999500D01*
X99455981Y-79999500D01*
X99399349Y-80008470D01*
X99371987Y-80012803D01*
X99371985Y-80012804D01*
X99362196Y-80014354D01*
X99249158Y-80071950D01*
X99159450Y-80161658D01*
X99131756Y-80216010D01*
X99076694Y-80271072D01*
X99019249Y-80300342D01*
X98925342Y-80394249D01*
X98865049Y-80512580D01*
X98849500Y-80610754D01*
X98849500Y-81189246D01*
X98550500Y-81189246D01*
X98550500Y-80610754D01*
X98534951Y-80512580D01*
X98474658Y-80394249D01*
X98380751Y-80300342D01*
X98371919Y-80295842D01*
X98364937Y-80290769D01*
X98321584Y-80234546D01*
X98313000Y-80188835D01*
X98313000Y-79505583D01*
X98333002Y-79437462D01*
X98349905Y-79416488D01*
X99328988Y-78437405D01*
X99391300Y-78403379D01*
X99418083Y-78400500D01*
X100193269Y-78400500D01*
X100261390Y-78420502D01*
X100271460Y-78428618D01*
X100271718Y-78428282D01*
X100397159Y-78524536D01*
X100543238Y-78585044D01*
X100700000Y-78605682D01*
X100708188Y-78604604D01*
X100848574Y-78586122D01*
X100856762Y-78585044D01*
X101002841Y-78524536D01*
X101116393Y-78437405D01*
X101121736Y-78433305D01*
X101128282Y-78428282D01*
X101224536Y-78302841D01*
X101285044Y-78156762D01*
X101305682Y-78000000D01*
X101303264Y-77981637D01*
X101314202Y-77911491D01*
X101361329Y-77858392D01*
X101429682Y-77839200D01*
X101497561Y-77860009D01*
X101517280Y-77876094D01*
X101557594Y-77916407D01*
X101591620Y-77978719D01*
X101594500Y-78005504D01*
X101594500Y-78510940D01*
X101594501Y-78510944D01*
X101594501Y-79441884D01*
X101595708Y-79447950D01*
X101595708Y-79447955D01*
X101605999Y-79499693D01*
X101608570Y-79512619D01*
X101662167Y-79592833D01*
X101672483Y-79599726D01*
X101732064Y-79639537D01*
X101732066Y-79639538D01*
X101742381Y-79646430D01*
X101813115Y-79660500D01*
X102094977Y-79660500D01*
X102376884Y-79660499D01*
X102382950Y-79659292D01*
X102382955Y-79659292D01*
X102435448Y-79648851D01*
X102435449Y-79648851D01*
X102447619Y-79646430D01*
X102508409Y-79605812D01*
X102517517Y-79599726D01*
X102527833Y-79592833D01*
X102574536Y-79522937D01*
X102574537Y-79522936D01*
X102574538Y-79522934D01*
X102581430Y-79512619D01*
X102595500Y-79441885D01*
X102595500Y-77840499D01*
X102615502Y-77772379D01*
X102669158Y-77725886D01*
X102721500Y-77714500D01*
X102738500Y-77714500D01*
X102806621Y-77734502D01*
X102853114Y-77788158D01*
X102864500Y-77840500D01*
X102864501Y-78638911D01*
X102864501Y-79441884D01*
X102865708Y-79447950D01*
X102865708Y-79447955D01*
X102875999Y-79499693D01*
X102878570Y-79512619D01*
X102931036Y-79591140D01*
X102931038Y-79591144D01*
X102932167Y-79592833D01*
X102932016Y-79592934D01*
X102961621Y-79647150D01*
X102964500Y-79673933D01*
X102964500Y-79741917D01*
X102944498Y-79810038D01*
X102927595Y-79831012D01*
X102619516Y-80139091D01*
X102595437Y-80172233D01*
X102571370Y-80205359D01*
X102563704Y-80215910D01*
X102560640Y-80225339D01*
X102556137Y-80234177D01*
X102552602Y-80232376D01*
X102523487Y-80274954D01*
X102500932Y-80289677D01*
X102486658Y-80296950D01*
X102396950Y-80386658D01*
X102339354Y-80499696D01*
X102324500Y-80593481D01*
X102324501Y-81206518D01*
X102325276Y-81211409D01*
X102325276Y-81211412D01*
X102337314Y-81287420D01*
X102339354Y-81300304D01*
X102396950Y-81413342D01*
X102486658Y-81503050D01*
X102599696Y-81560646D01*
X102609485Y-81562196D01*
X102609487Y-81562197D01*
X102636849Y-81566530D01*
X102693481Y-81575500D01*
X102924953Y-81575500D01*
X103156518Y-81575499D01*
X103161412Y-81574724D01*
X103240506Y-81562198D01*
X103240508Y-81562197D01*
X103250304Y-81560646D01*
X103363342Y-81503050D01*
X103453050Y-81413342D01*
X103510646Y-81300304D01*
X103525500Y-81206519D01*
X103525499Y-80593482D01*
X103510646Y-80499696D01*
X103506143Y-80490858D01*
X103504104Y-80484582D01*
X103502077Y-80413614D01*
X103534842Y-80356551D01*
X103670484Y-80220909D01*
X103670487Y-80220905D01*
X103693050Y-80198342D01*
X103703035Y-80178745D01*
X103713361Y-80161893D01*
X103726296Y-80144090D01*
X103733095Y-80123166D01*
X103740659Y-80104906D01*
X103746144Y-80094141D01*
X103746145Y-80094137D01*
X103750646Y-80085304D01*
X103754087Y-80063578D01*
X103758703Y-80044353D01*
X103762435Y-80032868D01*
X103762436Y-80032864D01*
X103765500Y-80023433D01*
X103765500Y-79673933D01*
X103785502Y-79605812D01*
X103793779Y-79595542D01*
X103797833Y-79592833D01*
X103844536Y-79522937D01*
X103844537Y-79522936D01*
X103844538Y-79522934D01*
X103851430Y-79512619D01*
X103865500Y-79441885D01*
X103865499Y-77508116D01*
X103864292Y-77502048D01*
X103864292Y-77502045D01*
X103853851Y-77449552D01*
X103853850Y-77449549D01*
X103851430Y-77437381D01*
X103835335Y-77413292D01*
X103804726Y-77367483D01*
X103797833Y-77357167D01*
X103787517Y-77350274D01*
X103782905Y-77345662D01*
X103748879Y-77283350D01*
X103746000Y-77256567D01*
X103746000Y-76272115D01*
X103741525Y-76256876D01*
X103740135Y-76255671D01*
X103732452Y-76254000D01*
X101859116Y-76254000D01*
X101843877Y-76258475D01*
X101842672Y-76259865D01*
X101841001Y-76267548D01*
X101841001Y-76530599D01*
X101820999Y-76598720D01*
X101767343Y-76645213D01*
X101697069Y-76655317D01*
X101670772Y-76648581D01*
X101648266Y-76640144D01*
X101638947Y-76636217D01*
X101604966Y-76620263D01*
X101604963Y-76620262D01*
X101596837Y-76616447D01*
X101587963Y-76615065D01*
X101584350Y-76613961D01*
X101569693Y-76610115D01*
X101565990Y-76609301D01*
X101557580Y-76606148D01*
X101511157Y-76602698D01*
X101501144Y-76601548D01*
X101487991Y-76599500D01*
X101472796Y-76599500D01*
X101463459Y-76599154D01*
X101448036Y-76598008D01*
X101414608Y-76595524D01*
X101405832Y-76597397D01*
X101396875Y-76598008D01*
X101396875Y-76598002D01*
X101382682Y-76599500D01*
X93259503Y-76599500D01*
X93191382Y-76579498D01*
X93170408Y-76562595D01*
X89572254Y-72964440D01*
X93544963Y-72964440D01*
X93545260Y-72969592D01*
X93545260Y-72969596D01*
X93558396Y-73197403D01*
X93558397Y-73197409D01*
X93558694Y-73202562D01*
X93573109Y-73266525D01*
X93602175Y-73395502D01*
X93611131Y-73435245D01*
X93613075Y-73440032D01*
X93613076Y-73440036D01*
X93669730Y-73579557D01*
X93700867Y-73656239D01*
X93703572Y-73660654D01*
X93703573Y-73660655D01*
X93735429Y-73712639D01*
X93825493Y-73859609D01*
X93981660Y-74039894D01*
X94165176Y-74192252D01*
X94371112Y-74312591D01*
X94375937Y-74314433D01*
X94375938Y-74314434D01*
X94430099Y-74335116D01*
X94593937Y-74397680D01*
X94599005Y-74398711D01*
X94599008Y-74398712D01*
X94706316Y-74420544D01*
X94827666Y-74445233D01*
X94832839Y-74445423D01*
X94832842Y-74445423D01*
X95060861Y-74453784D01*
X95060865Y-74453784D01*
X95066025Y-74453973D01*
X95107069Y-74448715D01*
X95297489Y-74424321D01*
X95297490Y-74424321D01*
X95302609Y-74423665D01*
X95531068Y-74355125D01*
X95745264Y-74250191D01*
X95826492Y-74192252D01*
X95935242Y-74114681D01*
X95939445Y-74111683D01*
X95947277Y-74103879D01*
X96054414Y-73997115D01*
X96108397Y-73943320D01*
X96114790Y-73934424D01*
X96244564Y-73753823D01*
X96247582Y-73749623D01*
X96252953Y-73738757D01*
X96350969Y-73540437D01*
X96350970Y-73540435D01*
X96353263Y-73535795D01*
X96413773Y-73336632D01*
X96421098Y-73312521D01*
X96421098Y-73312520D01*
X96422600Y-73307577D01*
X96423769Y-73298701D01*
X96453296Y-73074421D01*
X96453297Y-73074414D01*
X96453733Y-73071099D01*
X96453917Y-73063574D01*
X96455389Y-73003364D01*
X96455389Y-73003360D01*
X96455471Y-73000000D01*
X96445733Y-72881556D01*
X96436351Y-72767435D01*
X96436350Y-72767429D01*
X96435927Y-72762284D01*
X96404847Y-72638547D01*
X96379080Y-72535963D01*
X96379079Y-72535959D01*
X96377821Y-72530952D01*
X96375762Y-72526216D01*
X96284772Y-72316953D01*
X96284770Y-72316950D01*
X96282712Y-72312216D01*
X96153155Y-72111951D01*
X96149062Y-72107452D01*
X95996107Y-71939358D01*
X95996105Y-71939357D01*
X95992629Y-71935536D01*
X95988578Y-71932337D01*
X95988574Y-71932333D01*
X95809500Y-71790909D01*
X95809496Y-71790907D01*
X95805445Y-71787707D01*
X95786193Y-71777079D01*
X95708937Y-71734432D01*
X95596631Y-71672436D01*
X95591762Y-71670712D01*
X95591758Y-71670710D01*
X95376663Y-71594541D01*
X95376661Y-71594540D01*
X95371794Y-71592817D01*
X95231296Y-71567790D01*
X95142060Y-71551894D01*
X95142056Y-71551894D01*
X95136972Y-71550988D01*
X95053140Y-71549964D01*
X94903640Y-71548137D01*
X94903638Y-71548137D01*
X94898471Y-71548074D01*
X94662698Y-71584153D01*
X94435982Y-71658255D01*
X94431394Y-71660643D01*
X94431390Y-71660645D01*
X94272644Y-71743283D01*
X94224414Y-71768390D01*
X94220281Y-71771493D01*
X94220278Y-71771495D01*
X94052049Y-71897806D01*
X94033675Y-71911602D01*
X93991562Y-71955671D01*
X93889699Y-72062264D01*
X93868887Y-72084042D01*
X93865973Y-72088314D01*
X93865972Y-72088315D01*
X93793614Y-72194388D01*
X93734475Y-72281082D01*
X93701951Y-72351149D01*
X93637905Y-72489126D01*
X93634051Y-72497428D01*
X93570309Y-72727272D01*
X93569760Y-72732409D01*
X93546047Y-72954300D01*
X93544963Y-72964440D01*
X89572254Y-72964440D01*
X88487405Y-71879591D01*
X88453379Y-71817279D01*
X88450500Y-71790496D01*
X88450500Y-68119745D01*
X88470502Y-68051624D01*
X88506497Y-68014980D01*
X88534239Y-67996443D01*
X88544552Y-67989552D01*
X88588867Y-67923231D01*
X88592105Y-67906955D01*
X88599293Y-67870816D01*
X88600500Y-67864748D01*
X90299500Y-67864748D01*
X90300707Y-67870816D01*
X90307896Y-67906955D01*
X90311133Y-67923231D01*
X90355448Y-67989552D01*
X90365761Y-67996443D01*
X90393503Y-68014980D01*
X90439030Y-68069458D01*
X90449500Y-68119745D01*
X90449500Y-68279819D01*
X90448172Y-68291704D01*
X90448682Y-68291745D01*
X90447962Y-68300691D01*
X90445981Y-68309447D01*
X90446537Y-68318407D01*
X90449258Y-68362264D01*
X90449500Y-68370067D01*
X90449500Y-68385940D01*
X90450135Y-68390374D01*
X90450948Y-68396050D01*
X90451978Y-68406106D01*
X90454859Y-68452538D01*
X90457907Y-68460982D01*
X90458676Y-68464694D01*
X90462343Y-68479399D01*
X90463404Y-68483027D01*
X90464677Y-68491918D01*
X90483939Y-68534282D01*
X90487746Y-68543637D01*
X90500491Y-68578943D01*
X90500493Y-68578947D01*
X90503540Y-68587387D01*
X90508835Y-68594635D01*
X90510611Y-68597975D01*
X90518274Y-68611089D01*
X90520303Y-68614261D01*
X90524016Y-68622428D01*
X90529871Y-68629223D01*
X90529873Y-68629226D01*
X90554387Y-68657675D01*
X90560675Y-68665595D01*
X90568522Y-68676336D01*
X90579265Y-68687079D01*
X90585623Y-68693925D01*
X90617600Y-68731037D01*
X90625134Y-68735920D01*
X90631896Y-68741819D01*
X90631892Y-68741824D01*
X90642986Y-68750800D01*
X91096466Y-69204280D01*
X91103932Y-69213624D01*
X91104322Y-69213292D01*
X91110140Y-69220128D01*
X91114930Y-69227720D01*
X91121658Y-69233662D01*
X91121659Y-69233663D01*
X91154600Y-69262755D01*
X91160288Y-69268102D01*
X91171506Y-69279320D01*
X91175094Y-69282009D01*
X91175095Y-69282010D01*
X91179684Y-69285450D01*
X91187523Y-69291832D01*
X91196789Y-69300015D01*
X91222388Y-69322623D01*
X91230511Y-69326437D01*
X91233664Y-69328508D01*
X91246676Y-69336327D01*
X91249994Y-69338143D01*
X91257176Y-69343526D01*
X91300741Y-69359858D01*
X91310050Y-69363780D01*
X91352163Y-69383553D01*
X91361036Y-69384935D01*
X91364658Y-69386042D01*
X91379328Y-69389891D01*
X91383017Y-69390702D01*
X91391419Y-69393852D01*
X91400364Y-69394517D01*
X91400374Y-69394519D01*
X91437828Y-69397302D01*
X91447855Y-69398452D01*
X91461009Y-69400500D01*
X91476203Y-69400500D01*
X91485541Y-69400846D01*
X91534391Y-69404476D01*
X91543167Y-69402603D01*
X91552124Y-69401992D01*
X91552124Y-69401998D01*
X91566317Y-69400500D01*
X94623922Y-69400500D01*
X94686923Y-69417381D01*
X94690604Y-69419506D01*
X94697159Y-69424536D01*
X94843238Y-69485044D01*
X95000000Y-69505682D01*
X95008188Y-69504604D01*
X95148574Y-69486122D01*
X95156762Y-69485044D01*
X95302841Y-69424536D01*
X95428282Y-69328282D01*
X95524536Y-69202841D01*
X95585044Y-69056762D01*
X95592120Y-69003018D01*
X95604604Y-68908188D01*
X95605682Y-68900000D01*
X95585044Y-68743238D01*
X95524536Y-68597159D01*
X95428282Y-68471718D01*
X95302841Y-68375464D01*
X95168239Y-68319710D01*
X95164391Y-68318116D01*
X95156762Y-68314956D01*
X95109456Y-68308728D01*
X95008188Y-68295396D01*
X95000000Y-68294318D01*
X94991812Y-68295396D01*
X94890545Y-68308728D01*
X94843238Y-68314956D01*
X94835609Y-68318116D01*
X94831761Y-68319710D01*
X94697159Y-68375464D01*
X94690604Y-68380494D01*
X94686923Y-68382619D01*
X94623922Y-68399500D01*
X91759504Y-68399500D01*
X91691383Y-68379498D01*
X91670408Y-68362595D01*
X91504938Y-68197124D01*
X91470913Y-68134812D01*
X91475978Y-68063996D01*
X91524031Y-68003265D01*
X91534236Y-67996446D01*
X91534239Y-67996443D01*
X91544552Y-67989552D01*
X91588867Y-67923231D01*
X91592105Y-67906955D01*
X91599293Y-67870816D01*
X91600500Y-67864748D01*
X91600500Y-66764748D01*
X91899500Y-66764748D01*
X91900707Y-66770816D01*
X91908260Y-66808785D01*
X91911133Y-66823231D01*
X91955448Y-66889552D01*
X92021769Y-66933867D01*
X92033938Y-66936288D01*
X92033939Y-66936288D01*
X92074184Y-66944293D01*
X92080252Y-66945500D01*
X92919748Y-66945500D01*
X92925816Y-66944293D01*
X92966061Y-66936288D01*
X92966062Y-66936288D01*
X92978231Y-66933867D01*
X93044552Y-66889552D01*
X93088867Y-66823231D01*
X93091741Y-66808785D01*
X93099293Y-66770816D01*
X93100500Y-66764748D01*
X93100500Y-65795252D01*
X93088867Y-65736769D01*
X93044552Y-65670448D01*
X92978231Y-65626133D01*
X92966062Y-65623712D01*
X92966061Y-65623712D01*
X92925816Y-65615707D01*
X92919748Y-65614500D01*
X92080252Y-65614500D01*
X92074184Y-65615707D01*
X92033939Y-65623712D01*
X92033938Y-65623712D01*
X92021769Y-65626133D01*
X91955448Y-65670448D01*
X91911133Y-65736769D01*
X91899500Y-65795252D01*
X91899500Y-66764748D01*
X91600500Y-66764748D01*
X91600500Y-66575252D01*
X91588867Y-66516769D01*
X91544552Y-66450448D01*
X91478231Y-66406133D01*
X91466062Y-66403712D01*
X91466061Y-66403712D01*
X91425816Y-66395707D01*
X91419748Y-66394500D01*
X90480252Y-66394500D01*
X90474184Y-66395707D01*
X90433939Y-66403712D01*
X90433938Y-66403712D01*
X90421769Y-66406133D01*
X90355448Y-66450448D01*
X90311133Y-66516769D01*
X90299500Y-66575252D01*
X90299500Y-67864748D01*
X88600500Y-67864748D01*
X88600500Y-66575252D01*
X88588867Y-66516769D01*
X88544552Y-66450448D01*
X88478231Y-66406133D01*
X88466062Y-66403712D01*
X88466061Y-66403712D01*
X88425816Y-66395707D01*
X88419748Y-66394500D01*
X87480252Y-66394500D01*
X87474184Y-66395707D01*
X87433939Y-66403712D01*
X87433938Y-66403712D01*
X87421769Y-66406133D01*
X87355448Y-66450448D01*
X87311133Y-66516769D01*
X87311097Y-66516949D01*
X87271861Y-66565639D01*
X87204498Y-66588060D01*
X87135707Y-66570502D01*
X87089733Y-66521124D01*
X87088867Y-66516769D01*
X87044552Y-66450448D01*
X86978231Y-66406133D01*
X86966062Y-66403712D01*
X86966061Y-66403712D01*
X86925816Y-66395707D01*
X86919748Y-66394500D01*
X85980252Y-66394500D01*
X85974184Y-66395707D01*
X85933939Y-66403712D01*
X85933938Y-66403712D01*
X85921769Y-66406133D01*
X85855448Y-66450448D01*
X85811133Y-66516769D01*
X85799500Y-66575252D01*
X85799500Y-67864748D01*
X85800707Y-67870816D01*
X85807896Y-67906955D01*
X85811133Y-67923231D01*
X85855448Y-67989552D01*
X85865761Y-67996443D01*
X85893503Y-68014980D01*
X85939030Y-68069458D01*
X85949500Y-68119745D01*
X85949500Y-69390496D01*
X85929498Y-69458617D01*
X85912595Y-69479591D01*
X85695720Y-69696466D01*
X85686376Y-69703932D01*
X85686708Y-69704322D01*
X85679872Y-69710140D01*
X85672280Y-69714930D01*
X85666338Y-69721658D01*
X85666337Y-69721659D01*
X85637245Y-69754600D01*
X85631898Y-69760288D01*
X85620680Y-69771506D01*
X85617991Y-69775094D01*
X85617990Y-69775095D01*
X85614550Y-69779684D01*
X85608168Y-69787523D01*
X85577377Y-69822388D01*
X85573563Y-69830511D01*
X85571492Y-69833664D01*
X85563673Y-69846676D01*
X85561856Y-69849995D01*
X85556474Y-69857176D01*
X85553325Y-69865577D01*
X85553324Y-69865578D01*
X85540144Y-69900736D01*
X85536217Y-69910053D01*
X85520263Y-69944034D01*
X85520262Y-69944037D01*
X85516447Y-69952163D01*
X85515065Y-69961037D01*
X85513961Y-69964650D01*
X85510115Y-69979307D01*
X85509301Y-69983010D01*
X85506148Y-69991420D01*
X85502698Y-70037843D01*
X85501548Y-70047856D01*
X85499500Y-70061009D01*
X85499500Y-70076204D01*
X85499154Y-70085541D01*
X85495524Y-70134392D01*
X85497397Y-70143168D01*
X85498008Y-70152125D01*
X85498002Y-70152125D01*
X85499500Y-70166318D01*
X85499500Y-73811350D01*
X85479498Y-73879471D01*
X85448360Y-73912701D01*
X85427850Y-73927850D01*
X85422258Y-73935421D01*
X85352959Y-74029243D01*
X85352958Y-74029246D01*
X85347366Y-74036816D01*
X85302481Y-74164631D01*
X85299500Y-74196166D01*
X85299500Y-77303834D01*
X75001000Y-77303834D01*
X75001000Y-72964440D01*
X77544963Y-72964440D01*
X77545260Y-72969592D01*
X77545260Y-72969596D01*
X77558396Y-73197403D01*
X77558397Y-73197409D01*
X77558694Y-73202562D01*
X77573109Y-73266525D01*
X77602175Y-73395502D01*
X77611131Y-73435245D01*
X77613075Y-73440032D01*
X77613076Y-73440036D01*
X77669730Y-73579557D01*
X77700867Y-73656239D01*
X77703572Y-73660654D01*
X77703573Y-73660655D01*
X77735429Y-73712639D01*
X77825493Y-73859609D01*
X77981660Y-74039894D01*
X78165176Y-74192252D01*
X78371112Y-74312591D01*
X78375937Y-74314433D01*
X78375938Y-74314434D01*
X78430099Y-74335116D01*
X78593937Y-74397680D01*
X78599005Y-74398711D01*
X78599008Y-74398712D01*
X78706316Y-74420544D01*
X78827666Y-74445233D01*
X78832839Y-74445423D01*
X78832842Y-74445423D01*
X79060861Y-74453784D01*
X79060865Y-74453784D01*
X79066025Y-74453973D01*
X79107069Y-74448715D01*
X79297489Y-74424321D01*
X79297490Y-74424321D01*
X79302609Y-74423665D01*
X79531068Y-74355125D01*
X79745264Y-74250191D01*
X79826492Y-74192252D01*
X79935242Y-74114681D01*
X79939445Y-74111683D01*
X79947277Y-74103879D01*
X80054414Y-73997115D01*
X80108397Y-73943320D01*
X80114790Y-73934424D01*
X80244564Y-73753823D01*
X80247582Y-73749623D01*
X80252953Y-73738757D01*
X80350969Y-73540437D01*
X80350970Y-73540435D01*
X80353263Y-73535795D01*
X80413773Y-73336632D01*
X80421098Y-73312521D01*
X80421098Y-73312520D01*
X80422600Y-73307577D01*
X80423769Y-73298701D01*
X80453296Y-73074421D01*
X80453297Y-73074414D01*
X80453733Y-73071099D01*
X80453917Y-73063574D01*
X80455389Y-73003364D01*
X80455389Y-73003360D01*
X80455471Y-73000000D01*
X80445733Y-72881556D01*
X80436351Y-72767435D01*
X80436350Y-72767429D01*
X80435927Y-72762284D01*
X80404847Y-72638547D01*
X80379080Y-72535963D01*
X80379079Y-72535959D01*
X80377821Y-72530952D01*
X80375762Y-72526216D01*
X80284772Y-72316953D01*
X80284770Y-72316950D01*
X80282712Y-72312216D01*
X80153155Y-72111951D01*
X80149062Y-72107452D01*
X79996107Y-71939358D01*
X79996105Y-71939357D01*
X79992629Y-71935536D01*
X79988578Y-71932337D01*
X79988574Y-71932333D01*
X79809500Y-71790909D01*
X79809496Y-71790907D01*
X79805445Y-71787707D01*
X79786193Y-71777079D01*
X79708937Y-71734432D01*
X79596631Y-71672436D01*
X79591762Y-71670712D01*
X79591758Y-71670710D01*
X79376663Y-71594541D01*
X79376661Y-71594540D01*
X79371794Y-71592817D01*
X79231296Y-71567790D01*
X79142060Y-71551894D01*
X79142056Y-71551894D01*
X79136972Y-71550988D01*
X79053140Y-71549964D01*
X78903640Y-71548137D01*
X78903638Y-71548137D01*
X78898471Y-71548074D01*
X78662698Y-71584153D01*
X78435982Y-71658255D01*
X78431394Y-71660643D01*
X78431390Y-71660645D01*
X78272644Y-71743283D01*
X78224414Y-71768390D01*
X78220281Y-71771493D01*
X78220278Y-71771495D01*
X78052049Y-71897806D01*
X78033675Y-71911602D01*
X77991562Y-71955671D01*
X77889699Y-72062264D01*
X77868887Y-72084042D01*
X77865973Y-72088314D01*
X77865972Y-72088315D01*
X77793614Y-72194388D01*
X77734475Y-72281082D01*
X77701951Y-72351149D01*
X77637905Y-72489126D01*
X77634051Y-72497428D01*
X77570309Y-72727272D01*
X77569760Y-72732409D01*
X77546047Y-72954300D01*
X77544963Y-72964440D01*
X75001000Y-72964440D01*
X75001000Y-66764748D01*
X84299500Y-66764748D01*
X84300707Y-66770816D01*
X84308260Y-66808785D01*
X84311133Y-66823231D01*
X84355448Y-66889552D01*
X84421769Y-66933867D01*
X84433938Y-66936288D01*
X84433939Y-66936288D01*
X84474184Y-66944293D01*
X84480252Y-66945500D01*
X85319748Y-66945500D01*
X85325816Y-66944293D01*
X85366061Y-66936288D01*
X85366062Y-66936288D01*
X85378231Y-66933867D01*
X85444552Y-66889552D01*
X85488867Y-66823231D01*
X85491741Y-66808785D01*
X85499293Y-66770816D01*
X85500500Y-66764748D01*
X85500500Y-65795252D01*
X85488867Y-65736769D01*
X85444552Y-65670448D01*
X85378231Y-65626133D01*
X85366062Y-65623712D01*
X85366061Y-65623712D01*
X85325816Y-65615707D01*
X85319748Y-65614500D01*
X84480252Y-65614500D01*
X84474184Y-65615707D01*
X84433939Y-65623712D01*
X84433938Y-65623712D01*
X84421769Y-65626133D01*
X84355448Y-65670448D01*
X84311133Y-65736769D01*
X84299500Y-65795252D01*
X84299500Y-66764748D01*
X75001000Y-66764748D01*
X75001000Y-65000000D01*
X76394551Y-65000000D01*
X76414317Y-65251148D01*
X76415471Y-65255955D01*
X76415472Y-65255961D01*
X76447885Y-65390968D01*
X76473127Y-65496111D01*
X76475020Y-65500682D01*
X76475021Y-65500684D01*
X76565628Y-65719428D01*
X76569534Y-65728859D01*
X76701164Y-65943659D01*
X76704376Y-65947419D01*
X76704379Y-65947424D01*
X76809991Y-66071079D01*
X76864776Y-66135224D01*
X76868538Y-66138437D01*
X77052576Y-66295621D01*
X77052581Y-66295624D01*
X77056341Y-66298836D01*
X77271141Y-66430466D01*
X77275711Y-66432359D01*
X77275715Y-66432361D01*
X77497397Y-66524184D01*
X77503889Y-66526873D01*
X77543735Y-66536439D01*
X77744039Y-66584528D01*
X77744045Y-66584529D01*
X77748852Y-66585683D01*
X77837149Y-66592632D01*
X77934661Y-66600307D01*
X77934670Y-66600307D01*
X77937118Y-66600500D01*
X78062882Y-66600500D01*
X78065330Y-66600307D01*
X78065339Y-66600307D01*
X78162851Y-66592632D01*
X78251148Y-66585683D01*
X78255955Y-66584529D01*
X78255961Y-66584528D01*
X78456265Y-66536439D01*
X78496111Y-66526873D01*
X78502603Y-66524184D01*
X78724285Y-66432361D01*
X78724289Y-66432359D01*
X78728859Y-66430466D01*
X78943659Y-66298836D01*
X78947419Y-66295624D01*
X78947424Y-66295621D01*
X79131462Y-66138437D01*
X79135224Y-66135224D01*
X79190009Y-66071079D01*
X79295621Y-65947424D01*
X79295624Y-65947419D01*
X79298836Y-65943659D01*
X79430466Y-65728859D01*
X79434373Y-65719428D01*
X79524979Y-65500684D01*
X79524980Y-65500682D01*
X79526873Y-65496111D01*
X79552115Y-65390968D01*
X79584528Y-65255961D01*
X79584529Y-65255955D01*
X79585683Y-65251148D01*
X79587654Y-65226105D01*
X86499031Y-65226105D01*
X86500805Y-65233492D01*
X86500805Y-65233496D01*
X86526030Y-65338561D01*
X86538612Y-65390968D01*
X86542093Y-65397712D01*
X86542094Y-65397715D01*
X86610692Y-65530620D01*
X86616375Y-65541631D01*
X86621367Y-65547353D01*
X86621368Y-65547355D01*
X86652794Y-65583379D01*
X86727831Y-65669396D01*
X86759665Y-65691769D01*
X86860330Y-65762518D01*
X86860332Y-65762519D01*
X86866547Y-65766887D01*
X87024513Y-65828476D01*
X87032046Y-65829468D01*
X87032047Y-65829468D01*
X87149739Y-65844962D01*
X87153826Y-65845500D01*
X87242516Y-65845500D01*
X87368320Y-65830276D01*
X87526923Y-65770345D01*
X87547156Y-65756439D01*
X87660392Y-65678614D01*
X87660393Y-65678613D01*
X87666651Y-65674312D01*
X87676200Y-65663595D01*
X87774388Y-65553392D01*
X87774390Y-65553388D01*
X87779440Y-65547721D01*
X87783614Y-65539839D01*
X87855224Y-65404589D01*
X87858776Y-65397881D01*
X87900081Y-65233441D01*
X87900120Y-65226105D01*
X89499031Y-65226105D01*
X89500805Y-65233492D01*
X89500805Y-65233496D01*
X89526030Y-65338561D01*
X89538612Y-65390968D01*
X89542093Y-65397712D01*
X89542094Y-65397715D01*
X89610692Y-65530620D01*
X89616375Y-65541631D01*
X89621367Y-65547353D01*
X89621368Y-65547355D01*
X89652794Y-65583379D01*
X89727831Y-65669396D01*
X89759665Y-65691769D01*
X89860330Y-65762518D01*
X89860332Y-65762519D01*
X89866547Y-65766887D01*
X90024513Y-65828476D01*
X90032046Y-65829468D01*
X90032047Y-65829468D01*
X90149739Y-65844962D01*
X90153826Y-65845500D01*
X90242516Y-65845500D01*
X90368320Y-65830276D01*
X90526923Y-65770345D01*
X90547156Y-65756439D01*
X90660392Y-65678614D01*
X90660393Y-65678613D01*
X90666651Y-65674312D01*
X90676200Y-65663595D01*
X90774388Y-65553392D01*
X90774390Y-65553388D01*
X90779440Y-65547721D01*
X90783614Y-65539839D01*
X90855224Y-65404589D01*
X90858776Y-65397881D01*
X90900081Y-65233441D01*
X90900294Y-65192883D01*
X90900746Y-65106586D01*
X97018087Y-65106586D01*
X97021475Y-65118124D01*
X97022865Y-65119329D01*
X97030548Y-65121000D01*
X97727885Y-65121000D01*
X97743124Y-65116525D01*
X97744329Y-65115135D01*
X97746000Y-65107452D01*
X97746000Y-65102885D01*
X98254000Y-65102885D01*
X98258475Y-65118124D01*
X98259865Y-65119329D01*
X98267548Y-65121000D01*
X98964884Y-65121000D01*
X98980123Y-65116525D01*
X98981328Y-65115135D01*
X98982291Y-65110706D01*
X98976868Y-65051685D01*
X98974257Y-65038649D01*
X98927285Y-64888757D01*
X98921079Y-64875012D01*
X98840176Y-64741426D01*
X98830869Y-64729557D01*
X98779097Y-64677785D01*
X99192000Y-64677785D01*
X99192582Y-64682030D01*
X99192582Y-64682037D01*
X99197512Y-64718026D01*
X99207294Y-64789432D01*
X99210706Y-64797316D01*
X99210706Y-64797317D01*
X99262543Y-64917104D01*
X99267195Y-64927855D01*
X99362114Y-65045070D01*
X99485058Y-65132442D01*
X99626968Y-65183533D01*
X99635530Y-65184162D01*
X99635531Y-65184162D01*
X99693798Y-65188441D01*
X99777391Y-65194580D01*
X99785806Y-65192883D01*
X99785809Y-65192883D01*
X99875823Y-65174732D01*
X99925243Y-65164767D01*
X100059632Y-65096293D01*
X100170656Y-64994201D01*
X100229663Y-64899032D01*
X100245610Y-64873313D01*
X100245611Y-64873310D01*
X100250135Y-64866014D01*
X100292215Y-64721175D01*
X100293000Y-64710485D01*
X100293000Y-64677785D01*
X107832000Y-64677785D01*
X107832582Y-64682030D01*
X107832582Y-64682037D01*
X107837512Y-64718026D01*
X107847294Y-64789432D01*
X107850706Y-64797316D01*
X107850706Y-64797317D01*
X107902543Y-64917104D01*
X107907195Y-64927855D01*
X108002114Y-65045070D01*
X108125058Y-65132442D01*
X108266968Y-65183533D01*
X108275530Y-65184162D01*
X108275531Y-65184162D01*
X108333798Y-65188441D01*
X108417391Y-65194580D01*
X108425806Y-65192883D01*
X108425809Y-65192883D01*
X108484218Y-65181105D01*
X114699031Y-65181105D01*
X114700805Y-65188492D01*
X114700805Y-65188496D01*
X114721667Y-65275388D01*
X114738612Y-65345968D01*
X114742093Y-65352712D01*
X114742094Y-65352715D01*
X114802398Y-65469552D01*
X114816375Y-65496631D01*
X114821367Y-65502353D01*
X114821368Y-65502355D01*
X114872834Y-65561351D01*
X114927831Y-65624396D01*
X114949029Y-65639294D01*
X115060330Y-65717518D01*
X115060332Y-65717519D01*
X115066547Y-65721887D01*
X115224513Y-65783476D01*
X115232046Y-65784468D01*
X115232047Y-65784468D01*
X115349739Y-65799962D01*
X115353826Y-65800500D01*
X115442516Y-65800500D01*
X115568320Y-65785276D01*
X115726923Y-65725345D01*
X115808329Y-65669396D01*
X115860392Y-65633614D01*
X115860393Y-65633613D01*
X115866651Y-65629312D01*
X115876132Y-65618671D01*
X115974388Y-65508392D01*
X115974390Y-65508388D01*
X115979440Y-65502721D01*
X115984827Y-65492548D01*
X116055224Y-65359589D01*
X116058776Y-65352881D01*
X116100081Y-65188441D01*
X116100120Y-65181105D01*
X117699031Y-65181105D01*
X117700805Y-65188492D01*
X117700805Y-65188496D01*
X117721667Y-65275388D01*
X117738612Y-65345968D01*
X117742093Y-65352712D01*
X117742094Y-65352715D01*
X117802398Y-65469552D01*
X117816375Y-65496631D01*
X117821367Y-65502353D01*
X117821368Y-65502355D01*
X117872834Y-65561351D01*
X117927831Y-65624396D01*
X117949029Y-65639294D01*
X118060330Y-65717518D01*
X118060332Y-65717519D01*
X118066547Y-65721887D01*
X118224513Y-65783476D01*
X118232046Y-65784468D01*
X118232047Y-65784468D01*
X118349739Y-65799962D01*
X118353826Y-65800500D01*
X118442516Y-65800500D01*
X118568320Y-65785276D01*
X118726923Y-65725345D01*
X118808329Y-65669396D01*
X118860392Y-65633614D01*
X118860393Y-65633613D01*
X118866651Y-65629312D01*
X118876132Y-65618671D01*
X118974388Y-65508392D01*
X118974390Y-65508388D01*
X118979440Y-65502721D01*
X118984827Y-65492548D01*
X119055224Y-65359589D01*
X119058776Y-65352881D01*
X119100081Y-65188441D01*
X119100226Y-65160868D01*
X119100625Y-65084603D01*
X119100969Y-65018895D01*
X119097617Y-65004930D01*
X119063161Y-64861417D01*
X119061388Y-64854032D01*
X119052897Y-64837580D01*
X118987108Y-64710117D01*
X118987108Y-64710116D01*
X118983625Y-64703369D01*
X118978313Y-64697279D01*
X118912083Y-64621359D01*
X118872169Y-64575604D01*
X118797482Y-64523113D01*
X118739670Y-64482482D01*
X118739668Y-64482481D01*
X118733453Y-64478113D01*
X118660701Y-64449748D01*
X120099500Y-64449748D01*
X120100707Y-64455816D01*
X120105627Y-64480548D01*
X120111133Y-64508231D01*
X120155448Y-64574552D01*
X120221769Y-64618867D01*
X120233938Y-64621288D01*
X120233939Y-64621288D01*
X120259283Y-64626329D01*
X120280252Y-64630500D01*
X121119748Y-64630500D01*
X121140717Y-64626329D01*
X121166061Y-64621288D01*
X121166062Y-64621288D01*
X121178231Y-64618867D01*
X121244552Y-64574552D01*
X121288867Y-64508231D01*
X121294374Y-64480548D01*
X121299293Y-64455816D01*
X121300500Y-64449748D01*
X121300500Y-63480252D01*
X121288867Y-63421769D01*
X121244552Y-63355448D01*
X121178231Y-63311133D01*
X121166062Y-63308712D01*
X121166061Y-63308712D01*
X121125816Y-63300707D01*
X121119748Y-63299500D01*
X120280252Y-63299500D01*
X120274184Y-63300707D01*
X120233939Y-63308712D01*
X120233938Y-63308712D01*
X120221769Y-63311133D01*
X120155448Y-63355448D01*
X120111133Y-63421769D01*
X120099500Y-63480252D01*
X120099500Y-64449748D01*
X118660701Y-64449748D01*
X118575487Y-64416524D01*
X118567954Y-64415532D01*
X118567953Y-64415532D01*
X118450261Y-64400038D01*
X118450260Y-64400038D01*
X118446174Y-64399500D01*
X118357484Y-64399500D01*
X118231680Y-64414724D01*
X118073077Y-64474655D01*
X118066819Y-64478956D01*
X117941554Y-64565049D01*
X117933349Y-64570688D01*
X117928297Y-64576358D01*
X117928296Y-64576359D01*
X117825612Y-64691608D01*
X117825610Y-64691612D01*
X117820560Y-64697279D01*
X117817008Y-64703988D01*
X117817007Y-64703989D01*
X117797185Y-64741426D01*
X117741224Y-64847119D01*
X117699919Y-65011559D01*
X117699879Y-65019157D01*
X117699879Y-65019159D01*
X117699605Y-65071495D01*
X117699031Y-65181105D01*
X116100120Y-65181105D01*
X116100226Y-65160868D01*
X116100625Y-65084603D01*
X116100969Y-65018895D01*
X116097617Y-65004930D01*
X116063161Y-64861417D01*
X116061388Y-64854032D01*
X116052897Y-64837580D01*
X115987108Y-64710117D01*
X115987108Y-64710116D01*
X115983625Y-64703369D01*
X115978313Y-64697279D01*
X115912083Y-64621359D01*
X115872169Y-64575604D01*
X115797482Y-64523113D01*
X115739670Y-64482482D01*
X115739668Y-64482481D01*
X115733453Y-64478113D01*
X115575487Y-64416524D01*
X115567954Y-64415532D01*
X115567953Y-64415532D01*
X115450261Y-64400038D01*
X115450260Y-64400038D01*
X115446174Y-64399500D01*
X115357484Y-64399500D01*
X115231680Y-64414724D01*
X115073077Y-64474655D01*
X115066819Y-64478956D01*
X114941554Y-64565049D01*
X114933349Y-64570688D01*
X114928297Y-64576358D01*
X114928296Y-64576359D01*
X114825612Y-64691608D01*
X114825610Y-64691612D01*
X114820560Y-64697279D01*
X114817008Y-64703988D01*
X114817007Y-64703989D01*
X114797185Y-64741426D01*
X114741224Y-64847119D01*
X114699919Y-65011559D01*
X114699879Y-65019157D01*
X114699879Y-65019159D01*
X114699605Y-65071495D01*
X114699031Y-65181105D01*
X108484218Y-65181105D01*
X108515823Y-65174732D01*
X108565243Y-65164767D01*
X108679431Y-65106586D01*
X109218087Y-65106586D01*
X109221475Y-65118124D01*
X109222865Y-65119329D01*
X109230548Y-65121000D01*
X109927885Y-65121000D01*
X109943124Y-65116525D01*
X109944329Y-65115135D01*
X109946000Y-65107452D01*
X109946000Y-65102885D01*
X110454000Y-65102885D01*
X110458475Y-65118124D01*
X110459865Y-65119329D01*
X110467548Y-65121000D01*
X111164884Y-65121000D01*
X111180123Y-65116525D01*
X111181328Y-65115135D01*
X111182291Y-65110706D01*
X111176868Y-65051685D01*
X111174257Y-65038649D01*
X111127285Y-64888757D01*
X111121079Y-64875012D01*
X111040176Y-64741426D01*
X111030869Y-64729557D01*
X110920443Y-64619131D01*
X110908574Y-64609824D01*
X110774988Y-64528921D01*
X110761243Y-64522715D01*
X110611356Y-64475744D01*
X110598306Y-64473131D01*
X110534479Y-64467266D01*
X110528691Y-64467000D01*
X110472115Y-64467000D01*
X110456876Y-64471475D01*
X110455671Y-64472865D01*
X110454000Y-64480548D01*
X110454000Y-65102885D01*
X109946000Y-65102885D01*
X109946000Y-64485116D01*
X109941525Y-64469877D01*
X109940135Y-64468672D01*
X109932452Y-64467001D01*
X109871295Y-64467001D01*
X109865546Y-64467264D01*
X109801685Y-64473132D01*
X109788649Y-64475743D01*
X109638757Y-64522715D01*
X109625012Y-64528921D01*
X109491426Y-64609824D01*
X109479557Y-64619131D01*
X109369131Y-64729557D01*
X109359824Y-64741426D01*
X109278921Y-64875012D01*
X109272715Y-64888757D01*
X109225744Y-65038644D01*
X109223131Y-65051694D01*
X109218087Y-65106586D01*
X108679431Y-65106586D01*
X108699632Y-65096293D01*
X108810656Y-64994201D01*
X108869663Y-64899032D01*
X108885610Y-64873313D01*
X108885611Y-64873310D01*
X108890135Y-64866014D01*
X108932215Y-64721175D01*
X108933000Y-64710485D01*
X108933000Y-64449748D01*
X112499500Y-64449748D01*
X112500707Y-64455816D01*
X112505627Y-64480548D01*
X112511133Y-64508231D01*
X112555448Y-64574552D01*
X112621769Y-64618867D01*
X112633938Y-64621288D01*
X112633939Y-64621288D01*
X112659283Y-64626329D01*
X112680252Y-64630500D01*
X113519748Y-64630500D01*
X113540717Y-64626329D01*
X113566061Y-64621288D01*
X113566062Y-64621288D01*
X113578231Y-64618867D01*
X113644552Y-64574552D01*
X113688867Y-64508231D01*
X113694374Y-64480548D01*
X113699293Y-64455816D01*
X113700500Y-64449748D01*
X113700500Y-63480252D01*
X113688867Y-63421769D01*
X113644552Y-63355448D01*
X113578231Y-63311133D01*
X113566062Y-63308712D01*
X113566061Y-63308712D01*
X113525816Y-63300707D01*
X113519748Y-63299500D01*
X112680252Y-63299500D01*
X112674184Y-63300707D01*
X112633939Y-63308712D01*
X112633938Y-63308712D01*
X112621769Y-63311133D01*
X112555448Y-63355448D01*
X112511133Y-63421769D01*
X112499500Y-63480252D01*
X112499500Y-64449748D01*
X108933000Y-64449748D01*
X108933000Y-63802215D01*
X108928839Y-63771834D01*
X108919157Y-63701164D01*
X108917706Y-63690568D01*
X108883464Y-63611439D01*
X108861217Y-63560029D01*
X108861216Y-63560027D01*
X108857805Y-63552145D01*
X108769442Y-63443026D01*
X108768293Y-63441607D01*
X108762886Y-63434930D01*
X108651044Y-63355448D01*
X108646944Y-63352534D01*
X108639942Y-63347558D01*
X108498032Y-63296467D01*
X108489470Y-63295838D01*
X108489469Y-63295838D01*
X108422821Y-63290944D01*
X108347609Y-63285420D01*
X108339194Y-63287117D01*
X108339191Y-63287117D01*
X108292823Y-63296467D01*
X108199757Y-63315233D01*
X108065368Y-63383707D01*
X107954344Y-63485799D01*
X107933645Y-63519184D01*
X107879390Y-63606687D01*
X107879389Y-63606690D01*
X107874865Y-63613986D01*
X107832785Y-63758825D01*
X107832000Y-63769515D01*
X107832000Y-64677785D01*
X100293000Y-64677785D01*
X100293000Y-63802215D01*
X100288839Y-63771834D01*
X100279157Y-63701164D01*
X100277706Y-63690568D01*
X100243464Y-63611439D01*
X100221217Y-63560029D01*
X100221216Y-63560027D01*
X100217805Y-63552145D01*
X100129442Y-63443026D01*
X100128293Y-63441607D01*
X100122886Y-63434930D01*
X100011044Y-63355448D01*
X100006944Y-63352534D01*
X99999942Y-63347558D01*
X99858032Y-63296467D01*
X99849470Y-63295838D01*
X99849469Y-63295838D01*
X99782821Y-63290944D01*
X99707609Y-63285420D01*
X99699194Y-63287117D01*
X99699191Y-63287117D01*
X99652823Y-63296467D01*
X99559757Y-63315233D01*
X99425368Y-63383707D01*
X99314344Y-63485799D01*
X99293645Y-63519184D01*
X99239390Y-63606687D01*
X99239389Y-63606690D01*
X99234865Y-63613986D01*
X99192785Y-63758825D01*
X99192000Y-63769515D01*
X99192000Y-64677785D01*
X98779097Y-64677785D01*
X98720443Y-64619131D01*
X98708574Y-64609824D01*
X98574988Y-64528921D01*
X98561243Y-64522715D01*
X98411356Y-64475744D01*
X98398306Y-64473131D01*
X98334479Y-64467266D01*
X98328691Y-64467000D01*
X98272115Y-64467000D01*
X98256876Y-64471475D01*
X98255671Y-64472865D01*
X98254000Y-64480548D01*
X98254000Y-65102885D01*
X97746000Y-65102885D01*
X97746000Y-64485116D01*
X97741525Y-64469877D01*
X97740135Y-64468672D01*
X97732452Y-64467001D01*
X97671295Y-64467001D01*
X97665546Y-64467264D01*
X97601685Y-64473132D01*
X97588649Y-64475743D01*
X97438757Y-64522715D01*
X97425012Y-64528921D01*
X97291426Y-64609824D01*
X97279557Y-64619131D01*
X97169131Y-64729557D01*
X97159824Y-64741426D01*
X97078921Y-64875012D01*
X97072715Y-64888757D01*
X97025744Y-65038644D01*
X97023131Y-65051694D01*
X97018087Y-65106586D01*
X90900746Y-65106586D01*
X90900779Y-65100194D01*
X90900969Y-65063895D01*
X90896450Y-65045070D01*
X90863161Y-64906417D01*
X90861388Y-64899032D01*
X90856027Y-64888644D01*
X90787108Y-64755117D01*
X90787108Y-64755116D01*
X90783625Y-64748369D01*
X90778313Y-64742279D01*
X90716192Y-64671069D01*
X90672169Y-64620604D01*
X90608140Y-64575604D01*
X90539670Y-64527482D01*
X90539668Y-64527481D01*
X90533453Y-64523113D01*
X90460701Y-64494748D01*
X91899500Y-64494748D01*
X91911133Y-64553231D01*
X91955448Y-64619552D01*
X92021769Y-64663867D01*
X92033938Y-64666288D01*
X92033939Y-64666288D01*
X92070172Y-64673495D01*
X92080252Y-64675500D01*
X92919748Y-64675500D01*
X92929828Y-64673495D01*
X92966061Y-64666288D01*
X92966062Y-64666288D01*
X92978231Y-64663867D01*
X93044552Y-64619552D01*
X93088867Y-64553231D01*
X93100500Y-64494748D01*
X93100500Y-63525252D01*
X93088867Y-63466769D01*
X93044552Y-63400448D01*
X92978231Y-63356133D01*
X92966062Y-63353712D01*
X92966061Y-63353712D01*
X92925816Y-63345707D01*
X92919748Y-63344500D01*
X92080252Y-63344500D01*
X92074184Y-63345707D01*
X92033939Y-63353712D01*
X92033938Y-63353712D01*
X92021769Y-63356133D01*
X91955448Y-63400448D01*
X91911133Y-63466769D01*
X91899500Y-63525252D01*
X91899500Y-64494748D01*
X90460701Y-64494748D01*
X90375487Y-64461524D01*
X90367954Y-64460532D01*
X90367953Y-64460532D01*
X90250261Y-64445038D01*
X90250260Y-64445038D01*
X90246174Y-64444500D01*
X90157484Y-64444500D01*
X90031680Y-64459724D01*
X89873077Y-64519655D01*
X89866819Y-64523956D01*
X89758358Y-64598500D01*
X89733349Y-64615688D01*
X89728297Y-64621358D01*
X89728296Y-64621359D01*
X89625612Y-64736608D01*
X89625610Y-64736612D01*
X89620560Y-64742279D01*
X89617008Y-64748988D01*
X89617007Y-64748989D01*
X89613587Y-64755448D01*
X89541224Y-64892119D01*
X89499919Y-65056559D01*
X89499879Y-65064157D01*
X89499879Y-65064159D01*
X89499548Y-65127466D01*
X89499031Y-65226105D01*
X87900120Y-65226105D01*
X87900294Y-65192883D01*
X87900779Y-65100194D01*
X87900969Y-65063895D01*
X87896450Y-65045070D01*
X87863161Y-64906417D01*
X87861388Y-64899032D01*
X87856027Y-64888644D01*
X87787108Y-64755117D01*
X87787108Y-64755116D01*
X87783625Y-64748369D01*
X87778313Y-64742279D01*
X87716192Y-64671069D01*
X87672169Y-64620604D01*
X87608140Y-64575604D01*
X87539670Y-64527482D01*
X87539668Y-64527481D01*
X87533453Y-64523113D01*
X87375487Y-64461524D01*
X87367954Y-64460532D01*
X87367953Y-64460532D01*
X87250261Y-64445038D01*
X87250260Y-64445038D01*
X87246174Y-64444500D01*
X87157484Y-64444500D01*
X87031680Y-64459724D01*
X86873077Y-64519655D01*
X86866819Y-64523956D01*
X86758358Y-64598500D01*
X86733349Y-64615688D01*
X86728297Y-64621358D01*
X86728296Y-64621359D01*
X86625612Y-64736608D01*
X86625610Y-64736612D01*
X86620560Y-64742279D01*
X86617008Y-64748988D01*
X86617007Y-64748989D01*
X86613587Y-64755448D01*
X86541224Y-64892119D01*
X86499919Y-65056559D01*
X86499879Y-65064157D01*
X86499879Y-65064159D01*
X86499548Y-65127466D01*
X86499031Y-65226105D01*
X79587654Y-65226105D01*
X79605449Y-65000000D01*
X79585683Y-64748852D01*
X79583901Y-64741426D01*
X79541362Y-64564239D01*
X79526873Y-64503889D01*
X79523087Y-64494748D01*
X84299500Y-64494748D01*
X84311133Y-64553231D01*
X84355448Y-64619552D01*
X84421769Y-64663867D01*
X84433938Y-64666288D01*
X84433939Y-64666288D01*
X84470172Y-64673495D01*
X84480252Y-64675500D01*
X85319748Y-64675500D01*
X85329828Y-64673495D01*
X85366061Y-64666288D01*
X85366062Y-64666288D01*
X85378231Y-64663867D01*
X85444552Y-64619552D01*
X85488867Y-64553231D01*
X85500500Y-64494748D01*
X85500500Y-63525252D01*
X85488867Y-63466769D01*
X85444552Y-63400448D01*
X85378231Y-63356133D01*
X85366062Y-63353712D01*
X85366061Y-63353712D01*
X85325816Y-63345707D01*
X85319748Y-63344500D01*
X84480252Y-63344500D01*
X84474184Y-63345707D01*
X84433939Y-63353712D01*
X84433938Y-63353712D01*
X84421769Y-63356133D01*
X84355448Y-63400448D01*
X84311133Y-63466769D01*
X84299500Y-63525252D01*
X84299500Y-64494748D01*
X79523087Y-64494748D01*
X79519097Y-64485116D01*
X79432361Y-64275715D01*
X79432359Y-64275711D01*
X79430466Y-64271141D01*
X79298836Y-64056341D01*
X79295624Y-64052581D01*
X79295621Y-64052576D01*
X79150744Y-63882948D01*
X79135224Y-63864776D01*
X79067014Y-63806519D01*
X78947424Y-63704379D01*
X78947419Y-63704376D01*
X78943659Y-63701164D01*
X78728859Y-63569534D01*
X78724289Y-63567641D01*
X78724285Y-63567639D01*
X78500684Y-63475021D01*
X78500682Y-63475020D01*
X78496111Y-63473127D01*
X78411711Y-63452865D01*
X78255961Y-63415472D01*
X78255955Y-63415471D01*
X78251148Y-63414317D01*
X78162851Y-63407368D01*
X78065339Y-63399693D01*
X78065330Y-63399693D01*
X78062882Y-63399500D01*
X77937118Y-63399500D01*
X77934670Y-63399693D01*
X77934661Y-63399693D01*
X77837149Y-63407368D01*
X77748852Y-63414317D01*
X77744045Y-63415471D01*
X77744039Y-63415472D01*
X77588289Y-63452865D01*
X77503889Y-63473127D01*
X77499318Y-63475020D01*
X77499316Y-63475021D01*
X77275715Y-63567639D01*
X77275711Y-63567641D01*
X77271141Y-63569534D01*
X77056341Y-63701164D01*
X77052581Y-63704376D01*
X77052576Y-63704379D01*
X76932986Y-63806519D01*
X76864776Y-63864776D01*
X76849256Y-63882948D01*
X76704379Y-64052576D01*
X76704376Y-64052581D01*
X76701164Y-64056341D01*
X76569534Y-64271141D01*
X76567641Y-64275711D01*
X76567639Y-64275715D01*
X76480903Y-64485116D01*
X76473127Y-64503889D01*
X76458638Y-64564239D01*
X76416100Y-64741426D01*
X76414317Y-64748852D01*
X76394551Y-65000000D01*
X75001000Y-65000000D01*
X75001000Y-62127000D01*
X75021002Y-62058879D01*
X75074658Y-62012386D01*
X75127000Y-62001000D01*
X158873000Y-62001000D01*
X158941121Y-62021002D01*
G37*
%TD.AperFunction*%
%TA.AperFunction,Conductor*%
G36*
X104923089Y-71610502D02*
G01*
X104969582Y-71664158D01*
X104979686Y-71734432D01*
X104950192Y-71799012D01*
X104944063Y-71805595D01*
X104447062Y-72302596D01*
X104384750Y-72336622D01*
X104365448Y-72338697D01*
X104365467Y-72338894D01*
X104359303Y-72339501D01*
X104353116Y-72339501D01*
X104347050Y-72340708D01*
X104347045Y-72340708D01*
X104316933Y-72346698D01*
X104282381Y-72353570D01*
X104272059Y-72360467D01*
X104263355Y-72364072D01*
X104192765Y-72371661D01*
X104129278Y-72339882D01*
X104105364Y-72309516D01*
X104101479Y-72302622D01*
X104020757Y-72196275D01*
X104008725Y-72184243D01*
X103902380Y-72103522D01*
X103887549Y-72095165D01*
X103762953Y-72045834D01*
X103747388Y-72041881D01*
X103669498Y-72032456D01*
X103661943Y-72032000D01*
X103637115Y-72032000D01*
X103621876Y-72036475D01*
X103620671Y-72037865D01*
X103619000Y-72045548D01*
X103619000Y-73653000D01*
X103598998Y-73721121D01*
X103545342Y-73767614D01*
X103493000Y-73779000D01*
X103237000Y-73779000D01*
X103168879Y-73758998D01*
X103122386Y-73705342D01*
X103111000Y-73653000D01*
X103111000Y-72050115D01*
X103106525Y-72034876D01*
X103105135Y-72033671D01*
X103097452Y-72032000D01*
X103068057Y-72032000D01*
X103060502Y-72032456D01*
X102982612Y-72041881D01*
X102967047Y-72045834D01*
X102842451Y-72095165D01*
X102827620Y-72103522D01*
X102721275Y-72184243D01*
X102713412Y-72192106D01*
X102651100Y-72226132D01*
X102580285Y-72221067D01*
X102523449Y-72178520D01*
X102498638Y-72112000D01*
X102498317Y-72102761D01*
X102498321Y-72101057D01*
X102498925Y-71795887D01*
X102499083Y-71716250D01*
X102519220Y-71648169D01*
X102572968Y-71601783D01*
X102625083Y-71590500D01*
X104854968Y-71590500D01*
X104923089Y-71610502D01*
G37*
%TD.AperFunction*%
%TD*%
M02*
