%TF.GenerationSoftware,KiCad,Pcbnew,(6.0.11-0)*%
%TF.CreationDate,2024-11-14T16:08:27+08:00*%
%TF.ProjectId,Li-Po_charger,4c692d50-6f5f-4636-9861-726765722e6b,V1.0*%
%TF.SameCoordinates,Original*%
%TF.FileFunction,Paste,Top*%
%TF.FilePolarity,Positive*%
%FSLAX46Y46*%
G04 Gerber Fmt 4.6, Leading zero omitted, Abs format (unit mm)*
G04 Created by KiCad (PCBNEW (6.0.11-0)) date 2024-11-14 16:08:27*
%MOMM*%
%LPD*%
G01*
G04 APERTURE LIST*
G04 Aperture macros list*
%AMRoundRect*
0 Rectangle with rounded corners*
0 $1 Rounding radius*
0 $2 $3 $4 $5 $6 $7 $8 $9 X,Y pos of 4 corners*
0 Add a 4 corners polygon primitive as box body*
4,1,4,$2,$3,$4,$5,$6,$7,$8,$9,$2,$3,0*
0 Add four circle primitives for the rounded corners*
1,1,$1+$1,$2,$3*
1,1,$1+$1,$4,$5*
1,1,$1+$1,$6,$7*
1,1,$1+$1,$8,$9*
0 Add four rect primitives between the rounded corners*
20,1,$1+$1,$2,$3,$4,$5,0*
20,1,$1+$1,$4,$5,$6,$7,0*
20,1,$1+$1,$6,$7,$8,$9,0*
20,1,$1+$1,$8,$9,$2,$3,0*%
G04 Aperture macros list end*
%ADD10C,0.010000*%
%ADD11RoundRect,0.200000X-0.200000X-0.275000X0.200000X-0.275000X0.200000X0.275000X-0.200000X0.275000X0*%
%ADD12RoundRect,0.218750X-0.256250X0.218750X-0.256250X-0.218750X0.256250X-0.218750X0.256250X0.218750X0*%
%ADD13RoundRect,0.200000X0.200000X0.275000X-0.200000X0.275000X-0.200000X-0.275000X0.200000X-0.275000X0*%
%ADD14RoundRect,0.225000X-0.250000X0.225000X-0.250000X-0.225000X0.250000X-0.225000X0.250000X0.225000X0*%
%ADD15RoundRect,0.012500X0.112500X-0.287500X0.112500X0.287500X-0.112500X0.287500X-0.112500X-0.287500X0*%
%ADD16RoundRect,0.012500X0.112500X-0.437500X0.112500X0.437500X-0.112500X0.437500X-0.112500X-0.437500X0*%
%ADD17RoundRect,0.042000X-0.258000X0.943000X-0.258000X-0.943000X0.258000X-0.943000X0.258000X0.943000X0*%
%ADD18RoundRect,0.200000X-0.275000X0.200000X-0.275000X-0.200000X0.275000X-0.200000X0.275000X0.200000X0*%
%ADD19RoundRect,0.218750X0.218750X0.256250X-0.218750X0.256250X-0.218750X-0.256250X0.218750X-0.256250X0*%
%ADD20RoundRect,0.200000X0.275000X-0.200000X0.275000X0.200000X-0.275000X0.200000X-0.275000X-0.200000X0*%
%ADD21RoundRect,0.218750X-0.218750X-0.256250X0.218750X-0.256250X0.218750X0.256250X-0.218750X0.256250X0*%
%ADD22R,1.600000X0.760000*%
%ADD23R,0.800000X0.930000*%
%ADD24R,0.900000X1.250000*%
%ADD25R,1.000000X1.000000*%
%ADD26RoundRect,0.250000X-0.250000X-1.500000X0.250000X-1.500000X0.250000X1.500000X-0.250000X1.500000X0*%
%ADD27RoundRect,0.250001X-0.499999X-1.449999X0.499999X-1.449999X0.499999X1.449999X-0.499999X1.449999X0*%
%ADD28R,0.800000X1.900000*%
%ADD29R,2.400000X4.200000*%
%ADD30R,0.300000X1.140000*%
%ADD31RoundRect,0.225000X-0.225000X-0.250000X0.225000X-0.250000X0.225000X0.250000X-0.225000X0.250000X0*%
%ADD32C,2.500000*%
G04 APERTURE END LIST*
%TO.C,U2*%
G36*
X126583000Y-71151000D02*
G01*
X126585000Y-71151000D01*
X126588000Y-71152000D01*
X126590000Y-71152000D01*
X126593000Y-71153000D01*
X126595000Y-71154000D01*
X126598000Y-71155000D01*
X126600000Y-71157000D01*
X126602000Y-71158000D01*
X126604000Y-71160000D01*
X126606000Y-71161000D01*
X126614000Y-71169000D01*
X126615000Y-71171000D01*
X126617000Y-71173000D01*
X126618000Y-71175000D01*
X126620000Y-71177000D01*
X126621000Y-71180000D01*
X126622000Y-71182000D01*
X126623000Y-71185000D01*
X126623000Y-71187000D01*
X126624000Y-71190000D01*
X126624000Y-71192000D01*
X126625000Y-71195000D01*
X126625000Y-71655000D01*
X126624000Y-71658000D01*
X126624000Y-71660000D01*
X126623000Y-71663000D01*
X126623000Y-71665000D01*
X126622000Y-71668000D01*
X126621000Y-71670000D01*
X126620000Y-71673000D01*
X126618000Y-71675000D01*
X126617000Y-71677000D01*
X126615000Y-71679000D01*
X126614000Y-71681000D01*
X126606000Y-71689000D01*
X126604000Y-71690000D01*
X126602000Y-71692000D01*
X126600000Y-71693000D01*
X126598000Y-71695000D01*
X126595000Y-71696000D01*
X126593000Y-71697000D01*
X126590000Y-71698000D01*
X126588000Y-71698000D01*
X126585000Y-71699000D01*
X126583000Y-71699000D01*
X126580000Y-71700000D01*
X126420000Y-71700000D01*
X126417000Y-71699000D01*
X126415000Y-71699000D01*
X126412000Y-71698000D01*
X126410000Y-71698000D01*
X126407000Y-71697000D01*
X126405000Y-71696000D01*
X126402000Y-71695000D01*
X126400000Y-71693000D01*
X126398000Y-71692000D01*
X126396000Y-71690000D01*
X126394000Y-71689000D01*
X126386000Y-71681000D01*
X126385000Y-71679000D01*
X126383000Y-71677000D01*
X126382000Y-71675000D01*
X126380000Y-71673000D01*
X126379000Y-71670000D01*
X126378000Y-71668000D01*
X126377000Y-71665000D01*
X126377000Y-71663000D01*
X126376000Y-71660000D01*
X126376000Y-71658000D01*
X126375000Y-71655000D01*
X126375000Y-71195000D01*
X126376000Y-71192000D01*
X126376000Y-71190000D01*
X126377000Y-71187000D01*
X126377000Y-71185000D01*
X126378000Y-71182000D01*
X126379000Y-71180000D01*
X126380000Y-71177000D01*
X126382000Y-71175000D01*
X126383000Y-71173000D01*
X126385000Y-71171000D01*
X126386000Y-71169000D01*
X126394000Y-71161000D01*
X126396000Y-71160000D01*
X126398000Y-71158000D01*
X126400000Y-71157000D01*
X126402000Y-71155000D01*
X126405000Y-71154000D01*
X126407000Y-71153000D01*
X126410000Y-71152000D01*
X126412000Y-71152000D01*
X126415000Y-71151000D01*
X126417000Y-71151000D01*
X126420000Y-71150000D01*
X126580000Y-71150000D01*
X126583000Y-71151000D01*
G37*
D10*
X126583000Y-71151000D02*
X126585000Y-71151000D01*
X126588000Y-71152000D01*
X126590000Y-71152000D01*
X126593000Y-71153000D01*
X126595000Y-71154000D01*
X126598000Y-71155000D01*
X126600000Y-71157000D01*
X126602000Y-71158000D01*
X126604000Y-71160000D01*
X126606000Y-71161000D01*
X126614000Y-71169000D01*
X126615000Y-71171000D01*
X126617000Y-71173000D01*
X126618000Y-71175000D01*
X126620000Y-71177000D01*
X126621000Y-71180000D01*
X126622000Y-71182000D01*
X126623000Y-71185000D01*
X126623000Y-71187000D01*
X126624000Y-71190000D01*
X126624000Y-71192000D01*
X126625000Y-71195000D01*
X126625000Y-71655000D01*
X126624000Y-71658000D01*
X126624000Y-71660000D01*
X126623000Y-71663000D01*
X126623000Y-71665000D01*
X126622000Y-71668000D01*
X126621000Y-71670000D01*
X126620000Y-71673000D01*
X126618000Y-71675000D01*
X126617000Y-71677000D01*
X126615000Y-71679000D01*
X126614000Y-71681000D01*
X126606000Y-71689000D01*
X126604000Y-71690000D01*
X126602000Y-71692000D01*
X126600000Y-71693000D01*
X126598000Y-71695000D01*
X126595000Y-71696000D01*
X126593000Y-71697000D01*
X126590000Y-71698000D01*
X126588000Y-71698000D01*
X126585000Y-71699000D01*
X126583000Y-71699000D01*
X126580000Y-71700000D01*
X126420000Y-71700000D01*
X126417000Y-71699000D01*
X126415000Y-71699000D01*
X126412000Y-71698000D01*
X126410000Y-71698000D01*
X126407000Y-71697000D01*
X126405000Y-71696000D01*
X126402000Y-71695000D01*
X126400000Y-71693000D01*
X126398000Y-71692000D01*
X126396000Y-71690000D01*
X126394000Y-71689000D01*
X126386000Y-71681000D01*
X126385000Y-71679000D01*
X126383000Y-71677000D01*
X126382000Y-71675000D01*
X126380000Y-71673000D01*
X126379000Y-71670000D01*
X126378000Y-71668000D01*
X126377000Y-71665000D01*
X126377000Y-71663000D01*
X126376000Y-71660000D01*
X126376000Y-71658000D01*
X126375000Y-71655000D01*
X126375000Y-71195000D01*
X126376000Y-71192000D01*
X126376000Y-71190000D01*
X126377000Y-71187000D01*
X126377000Y-71185000D01*
X126378000Y-71182000D01*
X126379000Y-71180000D01*
X126380000Y-71177000D01*
X126382000Y-71175000D01*
X126383000Y-71173000D01*
X126385000Y-71171000D01*
X126386000Y-71169000D01*
X126394000Y-71161000D01*
X126396000Y-71160000D01*
X126398000Y-71158000D01*
X126400000Y-71157000D01*
X126402000Y-71155000D01*
X126405000Y-71154000D01*
X126407000Y-71153000D01*
X126410000Y-71152000D01*
X126412000Y-71152000D01*
X126415000Y-71151000D01*
X126417000Y-71151000D01*
X126420000Y-71150000D01*
X126580000Y-71150000D01*
X126583000Y-71151000D01*
G36*
X126583000Y-70401000D02*
G01*
X126585000Y-70401000D01*
X126588000Y-70402000D01*
X126590000Y-70402000D01*
X126593000Y-70403000D01*
X126595000Y-70404000D01*
X126598000Y-70405000D01*
X126600000Y-70407000D01*
X126602000Y-70408000D01*
X126604000Y-70410000D01*
X126606000Y-70411000D01*
X126614000Y-70419000D01*
X126615000Y-70421000D01*
X126617000Y-70423000D01*
X126618000Y-70425000D01*
X126620000Y-70427000D01*
X126621000Y-70430000D01*
X126622000Y-70432000D01*
X126623000Y-70435000D01*
X126623000Y-70437000D01*
X126624000Y-70440000D01*
X126624000Y-70442000D01*
X126625000Y-70445000D01*
X126625000Y-70905000D01*
X126624000Y-70908000D01*
X126624000Y-70910000D01*
X126623000Y-70913000D01*
X126623000Y-70915000D01*
X126622000Y-70918000D01*
X126621000Y-70920000D01*
X126620000Y-70923000D01*
X126618000Y-70925000D01*
X126617000Y-70927000D01*
X126615000Y-70929000D01*
X126614000Y-70931000D01*
X126606000Y-70939000D01*
X126604000Y-70940000D01*
X126602000Y-70942000D01*
X126600000Y-70943000D01*
X126598000Y-70945000D01*
X126595000Y-70946000D01*
X126593000Y-70947000D01*
X126590000Y-70948000D01*
X126588000Y-70948000D01*
X126585000Y-70949000D01*
X126583000Y-70949000D01*
X126580000Y-70950000D01*
X126420000Y-70950000D01*
X126417000Y-70949000D01*
X126415000Y-70949000D01*
X126412000Y-70948000D01*
X126410000Y-70948000D01*
X126407000Y-70947000D01*
X126405000Y-70946000D01*
X126402000Y-70945000D01*
X126400000Y-70943000D01*
X126398000Y-70942000D01*
X126396000Y-70940000D01*
X126394000Y-70939000D01*
X126386000Y-70931000D01*
X126385000Y-70929000D01*
X126383000Y-70927000D01*
X126382000Y-70925000D01*
X126380000Y-70923000D01*
X126379000Y-70920000D01*
X126378000Y-70918000D01*
X126377000Y-70915000D01*
X126377000Y-70913000D01*
X126376000Y-70910000D01*
X126376000Y-70908000D01*
X126375000Y-70905000D01*
X126375000Y-70445000D01*
X126376000Y-70442000D01*
X126376000Y-70440000D01*
X126377000Y-70437000D01*
X126377000Y-70435000D01*
X126378000Y-70432000D01*
X126379000Y-70430000D01*
X126380000Y-70427000D01*
X126382000Y-70425000D01*
X126383000Y-70423000D01*
X126385000Y-70421000D01*
X126386000Y-70419000D01*
X126394000Y-70411000D01*
X126396000Y-70410000D01*
X126398000Y-70408000D01*
X126400000Y-70407000D01*
X126402000Y-70405000D01*
X126405000Y-70404000D01*
X126407000Y-70403000D01*
X126410000Y-70402000D01*
X126412000Y-70402000D01*
X126415000Y-70401000D01*
X126417000Y-70401000D01*
X126420000Y-70400000D01*
X126580000Y-70400000D01*
X126583000Y-70401000D01*
G37*
X126583000Y-70401000D02*
X126585000Y-70401000D01*
X126588000Y-70402000D01*
X126590000Y-70402000D01*
X126593000Y-70403000D01*
X126595000Y-70404000D01*
X126598000Y-70405000D01*
X126600000Y-70407000D01*
X126602000Y-70408000D01*
X126604000Y-70410000D01*
X126606000Y-70411000D01*
X126614000Y-70419000D01*
X126615000Y-70421000D01*
X126617000Y-70423000D01*
X126618000Y-70425000D01*
X126620000Y-70427000D01*
X126621000Y-70430000D01*
X126622000Y-70432000D01*
X126623000Y-70435000D01*
X126623000Y-70437000D01*
X126624000Y-70440000D01*
X126624000Y-70442000D01*
X126625000Y-70445000D01*
X126625000Y-70905000D01*
X126624000Y-70908000D01*
X126624000Y-70910000D01*
X126623000Y-70913000D01*
X126623000Y-70915000D01*
X126622000Y-70918000D01*
X126621000Y-70920000D01*
X126620000Y-70923000D01*
X126618000Y-70925000D01*
X126617000Y-70927000D01*
X126615000Y-70929000D01*
X126614000Y-70931000D01*
X126606000Y-70939000D01*
X126604000Y-70940000D01*
X126602000Y-70942000D01*
X126600000Y-70943000D01*
X126598000Y-70945000D01*
X126595000Y-70946000D01*
X126593000Y-70947000D01*
X126590000Y-70948000D01*
X126588000Y-70948000D01*
X126585000Y-70949000D01*
X126583000Y-70949000D01*
X126580000Y-70950000D01*
X126420000Y-70950000D01*
X126417000Y-70949000D01*
X126415000Y-70949000D01*
X126412000Y-70948000D01*
X126410000Y-70948000D01*
X126407000Y-70947000D01*
X126405000Y-70946000D01*
X126402000Y-70945000D01*
X126400000Y-70943000D01*
X126398000Y-70942000D01*
X126396000Y-70940000D01*
X126394000Y-70939000D01*
X126386000Y-70931000D01*
X126385000Y-70929000D01*
X126383000Y-70927000D01*
X126382000Y-70925000D01*
X126380000Y-70923000D01*
X126379000Y-70920000D01*
X126378000Y-70918000D01*
X126377000Y-70915000D01*
X126377000Y-70913000D01*
X126376000Y-70910000D01*
X126376000Y-70908000D01*
X126375000Y-70905000D01*
X126375000Y-70445000D01*
X126376000Y-70442000D01*
X126376000Y-70440000D01*
X126377000Y-70437000D01*
X126377000Y-70435000D01*
X126378000Y-70432000D01*
X126379000Y-70430000D01*
X126380000Y-70427000D01*
X126382000Y-70425000D01*
X126383000Y-70423000D01*
X126385000Y-70421000D01*
X126386000Y-70419000D01*
X126394000Y-70411000D01*
X126396000Y-70410000D01*
X126398000Y-70408000D01*
X126400000Y-70407000D01*
X126402000Y-70405000D01*
X126405000Y-70404000D01*
X126407000Y-70403000D01*
X126410000Y-70402000D01*
X126412000Y-70402000D01*
X126415000Y-70401000D01*
X126417000Y-70401000D01*
X126420000Y-70400000D01*
X126580000Y-70400000D01*
X126583000Y-70401000D01*
%TO.C,U1*%
G36*
X104820000Y-76645000D02*
G01*
X103180000Y-76645000D01*
X103180000Y-75355000D01*
X104820000Y-75355000D01*
X104820000Y-76645000D01*
G37*
X104820000Y-76645000D02*
X103180000Y-76645000D01*
X103180000Y-75355000D01*
X104820000Y-75355000D01*
X104820000Y-76645000D01*
%TD*%
D11*
%TO.C,R3*%
X128050000Y-75300000D03*
X129700000Y-75300000D03*
%TD*%
D12*
%TO.C,D4*%
X144300000Y-63612500D03*
X144300000Y-65187500D03*
%TD*%
D13*
%TO.C,R6*%
X126325000Y-75300000D03*
X124675000Y-75300000D03*
%TD*%
D14*
%TO.C,C4*%
X133500000Y-70825000D03*
X133500000Y-72375000D03*
%TD*%
D15*
%TO.C,U2*%
X125500000Y-72500000D03*
X126000000Y-72500000D03*
X126500000Y-72500000D03*
X127000000Y-72500000D03*
X127500000Y-72500000D03*
D16*
X127500000Y-70850000D03*
X127000000Y-70850000D03*
X126000000Y-70850000D03*
X125500000Y-70850000D03*
%TD*%
D17*
%TO.C,U1*%
X105905000Y-73525000D03*
X104635000Y-73525000D03*
X103365000Y-73525000D03*
X102095000Y-73525000D03*
X102095000Y-78475000D03*
X103365000Y-78475000D03*
X104635000Y-78475000D03*
X105905000Y-78475000D03*
%TD*%
D14*
%TO.C,C5*%
X123130000Y-70825000D03*
X123130000Y-72375000D03*
%TD*%
D18*
%TO.C,R10*%
X146200000Y-63575000D03*
X146200000Y-65225000D03*
%TD*%
D19*
%TO.C,D2*%
X99487500Y-80900000D03*
X97912500Y-80900000D03*
%TD*%
D14*
%TO.C,C2*%
X129550000Y-70825000D03*
X129550000Y-72375000D03*
%TD*%
D20*
%TO.C,R8*%
X98000000Y-67025000D03*
X98000000Y-65375000D03*
%TD*%
D21*
%TO.C,D1*%
X108312500Y-80900000D03*
X109887500Y-80900000D03*
%TD*%
D22*
%TO.C,SW3*%
X125160000Y-78600000D03*
X130240000Y-78600000D03*
%TD*%
D23*
%TO.C,SW1*%
X120700000Y-63965000D03*
X120700000Y-66235000D03*
X113100000Y-66235000D03*
X113100000Y-63965000D03*
D24*
X119150000Y-67175000D03*
X116150000Y-67175000D03*
X114650000Y-67175000D03*
%TD*%
D13*
%TO.C,R5*%
X110125000Y-74300000D03*
X108475000Y-74300000D03*
%TD*%
D18*
%TO.C,R7*%
X119900000Y-72075000D03*
X119900000Y-73725000D03*
%TD*%
D13*
%TO.C,R1*%
X106625000Y-80900000D03*
X104975000Y-80900000D03*
%TD*%
D23*
%TO.C,SW2*%
X92500000Y-66280000D03*
X84900000Y-64010000D03*
X92500000Y-64010000D03*
X84900000Y-66280000D03*
D24*
X90950000Y-67220000D03*
X87950000Y-67220000D03*
X86450000Y-67220000D03*
%TD*%
D14*
%TO.C,C3*%
X131500000Y-70825000D03*
X131500000Y-72375000D03*
%TD*%
D25*
%TO.C,D3*%
X113500000Y-71650000D03*
X113500000Y-74150000D03*
%TD*%
D26*
%TO.C,J4*%
X86000000Y-75750000D03*
X88000000Y-75750000D03*
D27*
X83650000Y-81500000D03*
X90350000Y-81500000D03*
%TD*%
D28*
%TO.C,Q1*%
X117750000Y-71600000D03*
X115850000Y-71600000D03*
X116800000Y-74600000D03*
%TD*%
D29*
%TO.C,L1*%
X124250000Y-67000000D03*
X128750000Y-67000000D03*
%TD*%
D20*
%TO.C,R9*%
X110200000Y-67025000D03*
X110200000Y-65375000D03*
%TD*%
D30*
%TO.C,J1*%
X107412500Y-68990000D03*
X106612500Y-68990000D03*
X105312500Y-68990000D03*
X104312500Y-68990000D03*
X103812500Y-68990000D03*
X102812500Y-68990000D03*
X101512500Y-68990000D03*
X100712500Y-68990000D03*
X101012500Y-68990000D03*
X101812500Y-68990000D03*
X102312500Y-68990000D03*
X103312500Y-68990000D03*
X104812500Y-68990000D03*
X105812500Y-68990000D03*
X106312500Y-68990000D03*
X107112500Y-68990000D03*
%TD*%
D11*
%TO.C,R2*%
X101275000Y-80900000D03*
X102925000Y-80900000D03*
%TD*%
%TO.C,R4*%
X131475000Y-75300000D03*
X133125000Y-75300000D03*
%TD*%
D31*
%TO.C,C1*%
X108625000Y-71700000D03*
X110175000Y-71700000D03*
%TD*%
D32*
%TO.C,J2*%
X95000000Y-73000000D03*
X79000000Y-73000000D03*
%TD*%
%TO.C,J5*%
X155125000Y-73000000D03*
X139125000Y-73000000D03*
%TD*%
M02*
