M48
; DRILL file {KiCad (6.0.11-0)} date 2024 November 14, Thursday 16:08:31
; FORMAT={-:-/ absolute / metric / decimal}
; #@! TF.CreationDate,2024-11-14T16:08:31+08:00
; #@! TF.GenerationSoftware,Kicad,Pcbnew,(6.0.11-0)
; #@! TF.FileFunction,MixedPlating,1,2
FMAT,2
METRIC
; #@! TA.AperFunction,Plated,PTH,ViaDrill
T1C0.400
; #@! TA.AperFunction,Plated,PTH,ComponentDrill
T2C0.600
; #@! TA.AperFunction,Plated,PTH,ComponentDrill
T3C1.000
; #@! TA.AperFunction,Plated,PTH,ComponentDrill
T4C1.850
; #@! TA.AperFunction,NonPlated,NPTH,ComponentDrill
T5C0.650
; #@! TA.AperFunction,NonPlated,NPTH,ComponentDrill
T6C0.900
; #@! TA.AperFunction,NonPlated,NPTH,ComponentDrill
T7C2.700
%
G90
G05
T1
X76.0Y-68.0
X76.0Y-78.0
X82.0Y-63.0
X82.0Y-68.0
X82.0Y-78.0
X82.0Y-83.0
X92.0Y-78.0
X92.0Y-83.0
X95.0Y-68.9
X100.7Y-76.0
X100.7Y-78.0
X102.0Y-63.0
X103.4Y-72.2
X107.3Y-76.0
X107.325Y-77.975
X112.0Y-63.0
X112.0Y-68.0
X112.0Y-78.0
X112.0Y-83.0
X122.0Y-63.0
X122.0Y-78.0
X122.0Y-83.0
X123.1Y-73.5
X126.2Y-73.5
X129.5Y-73.4
X131.5Y-73.4
X132.0Y-63.0
X132.0Y-68.0
X132.0Y-78.0
X132.0Y-83.0
X133.5Y-73.4
X142.0Y-68.0
X142.0Y-78.0
X142.0Y-83.0
X152.0Y-63.0
X152.0Y-68.0
X152.0Y-78.0
X152.0Y-83.0
X158.0Y-68.0
X158.0Y-78.0
T3
X134.25Y-64.475
X136.79Y-64.475
T4
X79.0Y-73.0
X95.0Y-73.0
X139.125Y-73.0
X155.125Y-73.0
T5
X101.172Y-67.89
X106.953Y-67.89
T6
X87.2Y-65.145
X90.2Y-65.145
X115.4Y-65.1
X118.4Y-65.1
T7
X78.0Y-65.0
X78.0Y-81.1
X156.0Y-65.0
X156.0Y-81.1
T2
G00X99.742Y-64.64
M15
G01X99.742Y-63.84
M16
G05
G00X99.742Y-68.94
M15
G01X99.742Y-67.84
M16
G05
G00X108.382Y-64.64
M15
G01X108.382Y-63.84
M16
G05
G00X108.382Y-68.94
M15
G01X108.382Y-67.84
M16
G05
T0
M30
