%TF.GenerationSoftware,KiCad,Pcbnew,(6.0.11-0)*%
%TF.CreationDate,2024-11-14T16:08:27+08:00*%
%TF.ProjectId,Li-Po_charger,4c692d50-6f5f-4636-9861-726765722e6b,V1.0*%
%TF.SameCoordinates,Original*%
%TF.FileFunction,Copper,L2,Bot*%
%TF.FilePolarity,Positive*%
%FSLAX46Y46*%
G04 Gerber Fmt 4.6, Leading zero omitted, Abs format (unit mm)*
G04 Created by KiCad (PCBNEW (6.0.11-0)) date 2024-11-14 16:08:27*
%MOMM*%
%LPD*%
G01*
G04 APERTURE LIST*
%TA.AperFunction,ComponentPad*%
%ADD10R,1.700000X1.700000*%
%TD*%
%TA.AperFunction,ComponentPad*%
%ADD11O,1.700000X1.700000*%
%TD*%
%TA.AperFunction,ComponentPad*%
%ADD12O,1.000000X2.100000*%
%TD*%
%TA.AperFunction,ComponentPad*%
%ADD13O,1.000000X1.800000*%
%TD*%
%TA.AperFunction,SMDPad,CuDef*%
%ADD14R,5.000000X3.500000*%
%TD*%
%TA.AperFunction,ComponentPad*%
%ADD15C,2.500000*%
%TD*%
%TA.AperFunction,SMDPad,CuDef*%
%ADD16R,5.000000X5.500000*%
%TD*%
%TA.AperFunction,ViaPad*%
%ADD17C,0.800000*%
%TD*%
%TA.AperFunction,Conductor*%
%ADD18C,0.400000*%
%TD*%
%TA.AperFunction,Conductor*%
%ADD19C,1.000000*%
%TD*%
G04 APERTURE END LIST*
D10*
%TO.P,J3,1,Pin_1*%
%TO.N,Net-(C2-Pad1)*%
X134250000Y-64475000D03*
D11*
%TO.P,J3,2,Pin_2*%
%TO.N,GND*%
X136790000Y-64475000D03*
%TD*%
D12*
%TO.P,J1,S1,SHIELD*%
%TO.N,unconnected-(J1-PadS1)*%
X108382500Y-68390000D03*
%TO.P,J1,S2,SHIELD*%
%TO.N,unconnected-(J1-PadS2)*%
X99742500Y-68390000D03*
D13*
%TO.P,J1,S3,SHIELD*%
%TO.N,unconnected-(J1-PadS3)*%
X108382500Y-64240000D03*
%TO.P,J1,S4,SHIELD*%
%TO.N,unconnected-(J1-PadS4)*%
X99742500Y-64240000D03*
%TD*%
D14*
%TO.P,J2,1,Pin_1*%
%TO.N,Net-(J2-Pad1)*%
X78500000Y-73000000D03*
D15*
X95000000Y-73000000D03*
D16*
X95500000Y-73000000D03*
D15*
X79000000Y-73000000D03*
%TD*%
D16*
%TO.P,J5,1,Pin_1*%
%TO.N,GND*%
X138625000Y-73000000D03*
D14*
X155625000Y-73000000D03*
D15*
X155125000Y-73000000D03*
X139125000Y-73000000D03*
%TD*%
D17*
%TO.N,GND*%
X107300000Y-76000000D03*
X112000000Y-83000000D03*
X132000000Y-78000000D03*
X82000000Y-83000000D03*
X126200000Y-73500000D03*
X112000000Y-78000000D03*
X142000000Y-83000000D03*
X112000000Y-68000000D03*
X132000000Y-68000000D03*
X133500000Y-73400000D03*
X131500000Y-73400000D03*
X76000000Y-78000000D03*
X100700000Y-76000000D03*
X112000000Y-63000000D03*
X132000000Y-63000000D03*
X158000000Y-78000000D03*
X102000000Y-63000000D03*
X82000000Y-78000000D03*
X158000000Y-68000000D03*
X92000000Y-83000000D03*
X129500000Y-73400000D03*
X92000000Y-78000000D03*
X132000000Y-83000000D03*
X152000000Y-78000000D03*
X152000000Y-68000000D03*
X123100000Y-73500000D03*
X142000000Y-78000000D03*
X122000000Y-63000000D03*
X152000000Y-83000000D03*
X152000000Y-63000000D03*
X103400000Y-72200000D03*
X82000000Y-68000000D03*
X142000000Y-68000000D03*
X122000000Y-78000000D03*
X82000000Y-63000000D03*
X76000000Y-68000000D03*
X122000000Y-83000000D03*
%TO.N,VBUS*%
X100700000Y-78000000D03*
X107325000Y-77975000D03*
%TO.N,Net-(J2-Pad1)*%
X95000000Y-68900000D03*
%TD*%
D18*
%TO.N,VBUS*%
X107325000Y-77975000D02*
X100725000Y-77975000D01*
X100725000Y-77975000D02*
X100700000Y-78000000D01*
D19*
%TO.N,Net-(J2-Pad1)*%
X95000000Y-73000000D02*
X95000000Y-68900000D01*
X79000000Y-73000000D02*
X95000000Y-73000000D01*
%TD*%
%TA.AperFunction,Conductor*%
%TO.N,GND*%
G36*
X158941121Y-62021002D02*
G01*
X158987614Y-62074658D01*
X158999000Y-62127000D01*
X158999000Y-83873000D01*
X158978998Y-83941121D01*
X158925342Y-83987614D01*
X158873000Y-83999000D01*
X75127000Y-83999000D01*
X75058879Y-83978998D01*
X75012386Y-83925342D01*
X75001000Y-83873000D01*
X75001000Y-81100000D01*
X76394551Y-81100000D01*
X76414317Y-81351148D01*
X76473127Y-81596111D01*
X76569534Y-81828859D01*
X76701164Y-82043659D01*
X76704376Y-82047419D01*
X76704379Y-82047424D01*
X76849256Y-82217052D01*
X76864776Y-82235224D01*
X76868538Y-82238437D01*
X77052576Y-82395621D01*
X77052581Y-82395624D01*
X77056341Y-82398836D01*
X77271141Y-82530466D01*
X77275711Y-82532359D01*
X77275715Y-82532361D01*
X77499316Y-82624979D01*
X77503889Y-82626873D01*
X77588289Y-82647135D01*
X77744039Y-82684528D01*
X77744045Y-82684529D01*
X77748852Y-82685683D01*
X77837149Y-82692632D01*
X77934661Y-82700307D01*
X77934670Y-82700307D01*
X77937118Y-82700500D01*
X78062882Y-82700500D01*
X78065330Y-82700307D01*
X78065339Y-82700307D01*
X78162851Y-82692632D01*
X78251148Y-82685683D01*
X78255955Y-82684529D01*
X78255961Y-82684528D01*
X78411711Y-82647135D01*
X78496111Y-82626873D01*
X78500684Y-82624979D01*
X78724285Y-82532361D01*
X78724289Y-82532359D01*
X78728859Y-82530466D01*
X78943659Y-82398836D01*
X78947419Y-82395624D01*
X78947424Y-82395621D01*
X79131462Y-82238437D01*
X79135224Y-82235224D01*
X79150744Y-82217052D01*
X79295621Y-82047424D01*
X79295624Y-82047419D01*
X79298836Y-82043659D01*
X79430466Y-81828859D01*
X79526873Y-81596111D01*
X79585683Y-81351148D01*
X79605449Y-81100000D01*
X154394551Y-81100000D01*
X154414317Y-81351148D01*
X154473127Y-81596111D01*
X154569534Y-81828859D01*
X154701164Y-82043659D01*
X154704376Y-82047419D01*
X154704379Y-82047424D01*
X154849256Y-82217052D01*
X154864776Y-82235224D01*
X154868538Y-82238437D01*
X155052576Y-82395621D01*
X155052581Y-82395624D01*
X155056341Y-82398836D01*
X155271141Y-82530466D01*
X155275711Y-82532359D01*
X155275715Y-82532361D01*
X155499316Y-82624979D01*
X155503889Y-82626873D01*
X155588289Y-82647135D01*
X155744039Y-82684528D01*
X155744045Y-82684529D01*
X155748852Y-82685683D01*
X155837149Y-82692632D01*
X155934661Y-82700307D01*
X155934670Y-82700307D01*
X155937118Y-82700500D01*
X156062882Y-82700500D01*
X156065330Y-82700307D01*
X156065339Y-82700307D01*
X156162851Y-82692632D01*
X156251148Y-82685683D01*
X156255955Y-82684529D01*
X156255961Y-82684528D01*
X156411711Y-82647135D01*
X156496111Y-82626873D01*
X156500684Y-82624979D01*
X156724285Y-82532361D01*
X156724289Y-82532359D01*
X156728859Y-82530466D01*
X156943659Y-82398836D01*
X156947419Y-82395624D01*
X156947424Y-82395621D01*
X157131462Y-82238437D01*
X157135224Y-82235224D01*
X157150744Y-82217052D01*
X157295621Y-82047424D01*
X157295624Y-82047419D01*
X157298836Y-82043659D01*
X157430466Y-81828859D01*
X157526873Y-81596111D01*
X157585683Y-81351148D01*
X157605449Y-81100000D01*
X157585683Y-80848852D01*
X157526873Y-80603889D01*
X157430466Y-80371141D01*
X157298836Y-80156341D01*
X157295624Y-80152581D01*
X157295621Y-80152576D01*
X157138437Y-79968538D01*
X157135224Y-79964776D01*
X157117052Y-79949256D01*
X156947424Y-79804379D01*
X156947419Y-79804376D01*
X156943659Y-79801164D01*
X156728859Y-79669534D01*
X156724289Y-79667641D01*
X156724285Y-79667639D01*
X156500684Y-79575021D01*
X156500682Y-79575020D01*
X156496111Y-79573127D01*
X156411711Y-79552865D01*
X156255961Y-79515472D01*
X156255955Y-79515471D01*
X156251148Y-79514317D01*
X156162851Y-79507368D01*
X156065339Y-79499693D01*
X156065330Y-79499693D01*
X156062882Y-79499500D01*
X155937118Y-79499500D01*
X155934670Y-79499693D01*
X155934661Y-79499693D01*
X155837149Y-79507368D01*
X155748852Y-79514317D01*
X155744045Y-79515471D01*
X155744039Y-79515472D01*
X155588289Y-79552865D01*
X155503889Y-79573127D01*
X155499318Y-79575020D01*
X155499316Y-79575021D01*
X155275715Y-79667639D01*
X155275711Y-79667641D01*
X155271141Y-79669534D01*
X155056341Y-79801164D01*
X155052581Y-79804376D01*
X155052576Y-79804379D01*
X154882948Y-79949256D01*
X154864776Y-79964776D01*
X154861563Y-79968538D01*
X154704379Y-80152576D01*
X154704376Y-80152581D01*
X154701164Y-80156341D01*
X154569534Y-80371141D01*
X154473127Y-80603889D01*
X154414317Y-80848852D01*
X154394551Y-81100000D01*
X79605449Y-81100000D01*
X79585683Y-80848852D01*
X79526873Y-80603889D01*
X79430466Y-80371141D01*
X79298836Y-80156341D01*
X79295624Y-80152581D01*
X79295621Y-80152576D01*
X79138437Y-79968538D01*
X79135224Y-79964776D01*
X79117052Y-79949256D01*
X78947424Y-79804379D01*
X78947419Y-79804376D01*
X78943659Y-79801164D01*
X78728859Y-79669534D01*
X78724289Y-79667641D01*
X78724285Y-79667639D01*
X78500684Y-79575021D01*
X78500682Y-79575020D01*
X78496111Y-79573127D01*
X78411711Y-79552865D01*
X78255961Y-79515472D01*
X78255955Y-79515471D01*
X78251148Y-79514317D01*
X78162851Y-79507368D01*
X78065339Y-79499693D01*
X78065330Y-79499693D01*
X78062882Y-79499500D01*
X77937118Y-79499500D01*
X77934670Y-79499693D01*
X77934661Y-79499693D01*
X77837149Y-79507368D01*
X77748852Y-79514317D01*
X77744045Y-79515471D01*
X77744039Y-79515472D01*
X77588289Y-79552865D01*
X77503889Y-79573127D01*
X77499318Y-79575020D01*
X77499316Y-79575021D01*
X77275715Y-79667639D01*
X77275711Y-79667641D01*
X77271141Y-79669534D01*
X77056341Y-79801164D01*
X77052581Y-79804376D01*
X77052576Y-79804379D01*
X76882948Y-79949256D01*
X76864776Y-79964776D01*
X76861563Y-79968538D01*
X76704379Y-80152576D01*
X76704376Y-80152581D01*
X76701164Y-80156341D01*
X76569534Y-80371141D01*
X76473127Y-80603889D01*
X76414317Y-80848852D01*
X76394551Y-81100000D01*
X75001000Y-81100000D01*
X75001000Y-78000000D01*
X100094318Y-78000000D01*
X100114956Y-78156762D01*
X100175464Y-78302841D01*
X100271718Y-78428282D01*
X100397159Y-78524536D01*
X100543238Y-78585044D01*
X100700000Y-78605682D01*
X100708188Y-78604604D01*
X100848574Y-78586122D01*
X100856762Y-78585044D01*
X101002841Y-78524536D01*
X101128282Y-78428282D01*
X101133305Y-78421736D01*
X101139150Y-78415891D01*
X101140839Y-78417580D01*
X101188298Y-78382928D01*
X101230920Y-78375500D01*
X106818269Y-78375500D01*
X106886390Y-78395502D01*
X106896460Y-78403618D01*
X106896718Y-78403282D01*
X107022159Y-78499536D01*
X107168238Y-78560044D01*
X107325000Y-78580682D01*
X107333188Y-78579604D01*
X107473574Y-78561122D01*
X107481762Y-78560044D01*
X107627841Y-78499536D01*
X107729232Y-78421736D01*
X107746736Y-78408305D01*
X107753282Y-78403282D01*
X107849536Y-78277841D01*
X107910044Y-78131762D01*
X107930682Y-77975000D01*
X107910044Y-77818238D01*
X107849536Y-77672159D01*
X107753282Y-77546718D01*
X107627841Y-77450464D01*
X107481762Y-77389956D01*
X107325000Y-77369318D01*
X107168238Y-77389956D01*
X107022159Y-77450464D01*
X106896718Y-77546718D01*
X106894928Y-77544386D01*
X106845052Y-77571621D01*
X106818269Y-77574500D01*
X101174679Y-77574500D01*
X101106558Y-77554498D01*
X101097975Y-77548462D01*
X101009397Y-77480494D01*
X101009392Y-77480491D01*
X101002841Y-77475464D01*
X100856762Y-77414956D01*
X100700000Y-77394318D01*
X100543238Y-77414956D01*
X100397159Y-77475464D01*
X100271718Y-77571718D01*
X100175464Y-77697159D01*
X100114956Y-77843238D01*
X100094318Y-78000000D01*
X75001000Y-78000000D01*
X75001000Y-74769748D01*
X75799500Y-74769748D01*
X75811133Y-74828231D01*
X75855448Y-74894552D01*
X75921769Y-74938867D01*
X75933938Y-74941288D01*
X75933939Y-74941288D01*
X75974184Y-74949293D01*
X75980252Y-74950500D01*
X81019748Y-74950500D01*
X81025816Y-74949293D01*
X81066061Y-74941288D01*
X81066062Y-74941288D01*
X81078231Y-74938867D01*
X81144552Y-74894552D01*
X81188867Y-74828231D01*
X81200500Y-74769748D01*
X81200500Y-73826500D01*
X81220502Y-73758379D01*
X81274158Y-73711886D01*
X81326500Y-73700500D01*
X92673500Y-73700500D01*
X92741621Y-73720502D01*
X92788114Y-73774158D01*
X92799500Y-73826500D01*
X92799500Y-75769748D01*
X92811133Y-75828231D01*
X92855448Y-75894552D01*
X92921769Y-75938867D01*
X92933938Y-75941288D01*
X92933939Y-75941288D01*
X92974184Y-75949293D01*
X92980252Y-75950500D01*
X98019748Y-75950500D01*
X98025816Y-75949293D01*
X98066061Y-75941288D01*
X98066062Y-75941288D01*
X98078231Y-75938867D01*
X98144552Y-75894552D01*
X98188867Y-75828231D01*
X98195543Y-75794669D01*
X135617001Y-75794669D01*
X135617371Y-75801490D01*
X135622895Y-75852352D01*
X135626521Y-75867604D01*
X135671676Y-75988054D01*
X135680214Y-76003649D01*
X135756715Y-76105724D01*
X135769276Y-76118285D01*
X135871351Y-76194786D01*
X135886946Y-76203324D01*
X136007394Y-76248478D01*
X136022649Y-76252105D01*
X136073514Y-76257631D01*
X136080328Y-76258000D01*
X138352885Y-76258000D01*
X138368124Y-76253525D01*
X138369329Y-76252135D01*
X138371000Y-76244452D01*
X138371000Y-76239884D01*
X138879000Y-76239884D01*
X138883475Y-76255123D01*
X138884865Y-76256328D01*
X138892548Y-76257999D01*
X141169669Y-76257999D01*
X141176490Y-76257629D01*
X141227352Y-76252105D01*
X141242604Y-76248479D01*
X141363054Y-76203324D01*
X141378649Y-76194786D01*
X141480724Y-76118285D01*
X141493285Y-76105724D01*
X141569786Y-76003649D01*
X141578324Y-75988054D01*
X141623478Y-75867606D01*
X141627105Y-75852351D01*
X141632631Y-75801486D01*
X141633000Y-75794672D01*
X141633000Y-74794669D01*
X152617001Y-74794669D01*
X152617371Y-74801490D01*
X152622895Y-74852352D01*
X152626521Y-74867604D01*
X152671676Y-74988054D01*
X152680214Y-75003649D01*
X152756715Y-75105724D01*
X152769276Y-75118285D01*
X152871351Y-75194786D01*
X152886946Y-75203324D01*
X153007394Y-75248478D01*
X153022649Y-75252105D01*
X153073514Y-75257631D01*
X153080328Y-75258000D01*
X155352885Y-75258000D01*
X155368124Y-75253525D01*
X155369329Y-75252135D01*
X155371000Y-75244452D01*
X155371000Y-75239884D01*
X155879000Y-75239884D01*
X155883475Y-75255123D01*
X155884865Y-75256328D01*
X155892548Y-75257999D01*
X158169669Y-75257999D01*
X158176490Y-75257629D01*
X158227352Y-75252105D01*
X158242604Y-75248479D01*
X158363054Y-75203324D01*
X158378649Y-75194786D01*
X158480724Y-75118285D01*
X158493285Y-75105724D01*
X158569786Y-75003649D01*
X158578324Y-74988054D01*
X158623478Y-74867606D01*
X158627105Y-74852351D01*
X158632631Y-74801486D01*
X158633000Y-74794672D01*
X158633000Y-73272115D01*
X158628525Y-73256876D01*
X158627135Y-73255671D01*
X158619452Y-73254000D01*
X155897115Y-73254000D01*
X155881876Y-73258475D01*
X155880671Y-73259865D01*
X155879000Y-73267548D01*
X155879000Y-75239884D01*
X155371000Y-75239884D01*
X155371000Y-73272115D01*
X155366525Y-73256876D01*
X155365135Y-73255671D01*
X155357452Y-73254000D01*
X152635116Y-73254000D01*
X152619877Y-73258475D01*
X152618672Y-73259865D01*
X152617001Y-73267548D01*
X152617001Y-74794669D01*
X141633000Y-74794669D01*
X141633000Y-73272115D01*
X141628525Y-73256876D01*
X141627135Y-73255671D01*
X141619452Y-73254000D01*
X138897115Y-73254000D01*
X138881876Y-73258475D01*
X138880671Y-73259865D01*
X138879000Y-73267548D01*
X138879000Y-76239884D01*
X138371000Y-76239884D01*
X138371000Y-73272115D01*
X138366525Y-73256876D01*
X138365135Y-73255671D01*
X138357452Y-73254000D01*
X135635116Y-73254000D01*
X135619877Y-73258475D01*
X135618672Y-73259865D01*
X135617001Y-73267548D01*
X135617001Y-75794669D01*
X98195543Y-75794669D01*
X98200500Y-75769748D01*
X98200500Y-72727885D01*
X135617000Y-72727885D01*
X135621475Y-72743124D01*
X135622865Y-72744329D01*
X135630548Y-72746000D01*
X138352885Y-72746000D01*
X138368124Y-72741525D01*
X138369329Y-72740135D01*
X138371000Y-72732452D01*
X138371000Y-72727885D01*
X138879000Y-72727885D01*
X138883475Y-72743124D01*
X138884865Y-72744329D01*
X138892548Y-72746000D01*
X141614884Y-72746000D01*
X141630123Y-72741525D01*
X141631328Y-72740135D01*
X141632999Y-72732452D01*
X141632999Y-72727885D01*
X152617000Y-72727885D01*
X152621475Y-72743124D01*
X152622865Y-72744329D01*
X152630548Y-72746000D01*
X155352885Y-72746000D01*
X155368124Y-72741525D01*
X155369329Y-72740135D01*
X155371000Y-72732452D01*
X155371000Y-72727885D01*
X155879000Y-72727885D01*
X155883475Y-72743124D01*
X155884865Y-72744329D01*
X155892548Y-72746000D01*
X158614884Y-72746000D01*
X158630123Y-72741525D01*
X158631328Y-72740135D01*
X158632999Y-72732452D01*
X158632999Y-71205331D01*
X158632629Y-71198510D01*
X158627105Y-71147648D01*
X158623479Y-71132396D01*
X158578324Y-71011946D01*
X158569786Y-70996351D01*
X158493285Y-70894276D01*
X158480724Y-70881715D01*
X158378649Y-70805214D01*
X158363054Y-70796676D01*
X158242606Y-70751522D01*
X158227351Y-70747895D01*
X158176486Y-70742369D01*
X158169672Y-70742000D01*
X155897115Y-70742000D01*
X155881876Y-70746475D01*
X155880671Y-70747865D01*
X155879000Y-70755548D01*
X155879000Y-72727885D01*
X155371000Y-72727885D01*
X155371000Y-70760116D01*
X155366525Y-70744877D01*
X155365135Y-70743672D01*
X155357452Y-70742001D01*
X153080331Y-70742001D01*
X153073510Y-70742371D01*
X153022648Y-70747895D01*
X153007396Y-70751521D01*
X152886946Y-70796676D01*
X152871351Y-70805214D01*
X152769276Y-70881715D01*
X152756715Y-70894276D01*
X152680214Y-70996351D01*
X152671676Y-71011946D01*
X152626522Y-71132394D01*
X152622895Y-71147649D01*
X152617369Y-71198514D01*
X152617000Y-71205328D01*
X152617000Y-72727885D01*
X141632999Y-72727885D01*
X141632999Y-70205331D01*
X141632629Y-70198510D01*
X141627105Y-70147648D01*
X141623479Y-70132396D01*
X141578324Y-70011946D01*
X141569786Y-69996351D01*
X141493285Y-69894276D01*
X141480724Y-69881715D01*
X141378649Y-69805214D01*
X141363054Y-69796676D01*
X141242606Y-69751522D01*
X141227351Y-69747895D01*
X141176486Y-69742369D01*
X141169672Y-69742000D01*
X138897115Y-69742000D01*
X138881876Y-69746475D01*
X138880671Y-69747865D01*
X138879000Y-69755548D01*
X138879000Y-72727885D01*
X138371000Y-72727885D01*
X138371000Y-69760116D01*
X138366525Y-69744877D01*
X138365135Y-69743672D01*
X138357452Y-69742001D01*
X136080331Y-69742001D01*
X136073510Y-69742371D01*
X136022648Y-69747895D01*
X136007396Y-69751521D01*
X135886946Y-69796676D01*
X135871351Y-69805214D01*
X135769276Y-69881715D01*
X135756715Y-69894276D01*
X135680214Y-69996351D01*
X135671676Y-70011946D01*
X135626522Y-70132394D01*
X135622895Y-70147649D01*
X135617369Y-70198514D01*
X135617000Y-70205328D01*
X135617000Y-72727885D01*
X98200500Y-72727885D01*
X98200500Y-70230252D01*
X98188867Y-70171769D01*
X98144552Y-70105448D01*
X98078231Y-70061133D01*
X98066062Y-70058712D01*
X98066061Y-70058712D01*
X98025816Y-70050707D01*
X98019748Y-70049500D01*
X95826500Y-70049500D01*
X95758379Y-70029498D01*
X95711886Y-69975842D01*
X95700500Y-69923500D01*
X95700500Y-68977785D01*
X99192000Y-68977785D01*
X99192582Y-68982030D01*
X99192582Y-68982037D01*
X99197944Y-69021175D01*
X99207294Y-69089432D01*
X99210706Y-69097316D01*
X99210706Y-69097317D01*
X99243593Y-69173313D01*
X99267195Y-69227855D01*
X99362114Y-69345070D01*
X99485058Y-69432442D01*
X99626968Y-69483533D01*
X99635530Y-69484162D01*
X99635531Y-69484162D01*
X99702180Y-69489057D01*
X99777391Y-69494580D01*
X99785806Y-69492883D01*
X99785809Y-69492883D01*
X99851317Y-69479673D01*
X99925243Y-69464767D01*
X100059632Y-69396293D01*
X100170656Y-69294201D01*
X100216680Y-69219971D01*
X100245610Y-69173313D01*
X100245611Y-69173310D01*
X100250135Y-69166014D01*
X100292215Y-69021175D01*
X100293000Y-69010485D01*
X100293000Y-68977785D01*
X107832000Y-68977785D01*
X107832582Y-68982030D01*
X107832582Y-68982037D01*
X107837944Y-69021175D01*
X107847294Y-69089432D01*
X107850706Y-69097316D01*
X107850706Y-69097317D01*
X107883593Y-69173313D01*
X107907195Y-69227855D01*
X108002114Y-69345070D01*
X108125058Y-69432442D01*
X108266968Y-69483533D01*
X108275530Y-69484162D01*
X108275531Y-69484162D01*
X108342180Y-69489057D01*
X108417391Y-69494580D01*
X108425806Y-69492883D01*
X108425809Y-69492883D01*
X108491317Y-69479673D01*
X108565243Y-69464767D01*
X108699632Y-69396293D01*
X108810656Y-69294201D01*
X108856680Y-69219971D01*
X108885610Y-69173313D01*
X108885611Y-69173310D01*
X108890135Y-69166014D01*
X108932215Y-69021175D01*
X108933000Y-69010485D01*
X108933000Y-67802215D01*
X108928839Y-67771834D01*
X108918872Y-67699082D01*
X108917706Y-67690568D01*
X108881715Y-67607397D01*
X108861217Y-67560029D01*
X108861216Y-67560027D01*
X108857805Y-67552145D01*
X108762886Y-67434930D01*
X108639942Y-67347558D01*
X108498032Y-67296467D01*
X108489470Y-67295838D01*
X108489469Y-67295838D01*
X108422821Y-67290944D01*
X108347609Y-67285420D01*
X108339194Y-67287117D01*
X108339191Y-67287117D01*
X108292823Y-67296467D01*
X108199757Y-67315233D01*
X108065368Y-67383707D01*
X107954344Y-67485799D01*
X107917348Y-67545467D01*
X107879390Y-67606687D01*
X107879389Y-67606690D01*
X107874865Y-67613986D01*
X107832785Y-67758825D01*
X107832000Y-67769515D01*
X107832000Y-68977785D01*
X100293000Y-68977785D01*
X100293000Y-67890000D01*
X100592034Y-67890000D01*
X100611813Y-68040236D01*
X100669802Y-68180233D01*
X100762049Y-68300451D01*
X100882267Y-68392698D01*
X101022264Y-68450687D01*
X101134780Y-68465500D01*
X101210220Y-68465500D01*
X101322736Y-68450687D01*
X101462733Y-68392698D01*
X101582951Y-68300451D01*
X101675198Y-68180233D01*
X101733187Y-68040236D01*
X101752966Y-67890000D01*
X106372034Y-67890000D01*
X106391813Y-68040236D01*
X106449802Y-68180233D01*
X106542049Y-68300451D01*
X106662267Y-68392698D01*
X106802264Y-68450687D01*
X106914780Y-68465500D01*
X106990220Y-68465500D01*
X107102736Y-68450687D01*
X107242733Y-68392698D01*
X107362951Y-68300451D01*
X107455198Y-68180233D01*
X107513187Y-68040236D01*
X107532966Y-67890000D01*
X107513187Y-67739764D01*
X107455198Y-67599767D01*
X107362951Y-67479549D01*
X107242733Y-67387302D01*
X107102736Y-67329313D01*
X106990220Y-67314500D01*
X106914780Y-67314500D01*
X106802264Y-67329313D01*
X106662267Y-67387302D01*
X106542049Y-67479549D01*
X106449802Y-67599767D01*
X106391813Y-67739764D01*
X106372034Y-67890000D01*
X101752966Y-67890000D01*
X101733187Y-67739764D01*
X101675198Y-67599767D01*
X101582951Y-67479549D01*
X101462733Y-67387302D01*
X101322736Y-67329313D01*
X101210220Y-67314500D01*
X101134780Y-67314500D01*
X101022264Y-67329313D01*
X100882267Y-67387302D01*
X100762049Y-67479549D01*
X100669802Y-67599767D01*
X100611813Y-67739764D01*
X100592034Y-67890000D01*
X100293000Y-67890000D01*
X100293000Y-67802215D01*
X100288839Y-67771834D01*
X100278872Y-67699082D01*
X100277706Y-67690568D01*
X100241715Y-67607397D01*
X100221217Y-67560029D01*
X100221216Y-67560027D01*
X100217805Y-67552145D01*
X100122886Y-67434930D01*
X99999942Y-67347558D01*
X99858032Y-67296467D01*
X99849470Y-67295838D01*
X99849469Y-67295838D01*
X99782821Y-67290944D01*
X99707609Y-67285420D01*
X99699194Y-67287117D01*
X99699191Y-67287117D01*
X99652823Y-67296467D01*
X99559757Y-67315233D01*
X99425368Y-67383707D01*
X99314344Y-67485799D01*
X99277348Y-67545467D01*
X99239390Y-67606687D01*
X99239389Y-67606690D01*
X99234865Y-67613986D01*
X99192785Y-67758825D01*
X99192000Y-67769515D01*
X99192000Y-68977785D01*
X95700500Y-68977785D01*
X95700500Y-68857484D01*
X95685276Y-68731680D01*
X95625345Y-68573077D01*
X95541228Y-68450687D01*
X95533614Y-68439608D01*
X95533613Y-68439607D01*
X95529312Y-68433349D01*
X95517514Y-68422837D01*
X95408392Y-68325612D01*
X95408388Y-68325610D01*
X95402721Y-68320560D01*
X95252881Y-68241224D01*
X95088441Y-68199919D01*
X95080843Y-68199879D01*
X95080841Y-68199879D01*
X95003668Y-68199475D01*
X94918895Y-68199031D01*
X94911508Y-68200805D01*
X94911504Y-68200805D01*
X94768162Y-68235220D01*
X94754032Y-68238612D01*
X94747288Y-68242093D01*
X94747285Y-68242094D01*
X94634221Y-68300451D01*
X94603369Y-68316375D01*
X94475604Y-68427831D01*
X94378113Y-68566547D01*
X94316524Y-68724513D01*
X94299500Y-68853826D01*
X94299500Y-69923500D01*
X94279498Y-69991621D01*
X94225842Y-70038114D01*
X94173500Y-70049500D01*
X92980252Y-70049500D01*
X92974184Y-70050707D01*
X92933939Y-70058712D01*
X92933938Y-70058712D01*
X92921769Y-70061133D01*
X92855448Y-70105448D01*
X92811133Y-70171769D01*
X92799500Y-70230252D01*
X92799500Y-72173500D01*
X92779498Y-72241621D01*
X92725842Y-72288114D01*
X92673500Y-72299500D01*
X81326500Y-72299500D01*
X81258379Y-72279498D01*
X81211886Y-72225842D01*
X81200500Y-72173500D01*
X81200500Y-71230252D01*
X81188867Y-71171769D01*
X81144552Y-71105448D01*
X81078231Y-71061133D01*
X81066062Y-71058712D01*
X81066061Y-71058712D01*
X81025816Y-71050707D01*
X81019748Y-71049500D01*
X75980252Y-71049500D01*
X75974184Y-71050707D01*
X75933939Y-71058712D01*
X75933938Y-71058712D01*
X75921769Y-71061133D01*
X75855448Y-71105448D01*
X75811133Y-71171769D01*
X75799500Y-71230252D01*
X75799500Y-74769748D01*
X75001000Y-74769748D01*
X75001000Y-65000000D01*
X76394551Y-65000000D01*
X76414317Y-65251148D01*
X76415471Y-65255955D01*
X76415472Y-65255961D01*
X76447885Y-65390968D01*
X76473127Y-65496111D01*
X76475020Y-65500682D01*
X76475021Y-65500684D01*
X76546713Y-65673763D01*
X76569534Y-65728859D01*
X76701164Y-65943659D01*
X76704376Y-65947419D01*
X76704379Y-65947424D01*
X76849256Y-66117052D01*
X76864776Y-66135224D01*
X76868538Y-66138437D01*
X77052576Y-66295621D01*
X77052581Y-66295624D01*
X77056341Y-66298836D01*
X77271141Y-66430466D01*
X77275711Y-66432359D01*
X77275715Y-66432361D01*
X77499316Y-66524979D01*
X77503889Y-66526873D01*
X77588289Y-66547135D01*
X77744039Y-66584528D01*
X77744045Y-66584529D01*
X77748852Y-66585683D01*
X77837149Y-66592632D01*
X77934661Y-66600307D01*
X77934670Y-66600307D01*
X77937118Y-66600500D01*
X78062882Y-66600500D01*
X78065330Y-66600307D01*
X78065339Y-66600307D01*
X78162851Y-66592632D01*
X78251148Y-66585683D01*
X78255955Y-66584529D01*
X78255961Y-66584528D01*
X78411711Y-66547135D01*
X78496111Y-66526873D01*
X78500684Y-66524979D01*
X78724285Y-66432361D01*
X78724289Y-66432359D01*
X78728859Y-66430466D01*
X78943659Y-66298836D01*
X78947419Y-66295624D01*
X78947424Y-66295621D01*
X79131462Y-66138437D01*
X79135224Y-66135224D01*
X79150744Y-66117052D01*
X79295621Y-65947424D01*
X79295624Y-65947419D01*
X79298836Y-65943659D01*
X79430466Y-65728859D01*
X79453288Y-65673763D01*
X79524979Y-65500684D01*
X79524980Y-65500682D01*
X79526873Y-65496111D01*
X79552115Y-65390968D01*
X79584528Y-65255961D01*
X79584529Y-65255955D01*
X79585683Y-65251148D01*
X79587654Y-65226105D01*
X86499031Y-65226105D01*
X86500805Y-65233492D01*
X86500805Y-65233496D01*
X86505043Y-65251148D01*
X86538612Y-65390968D01*
X86542093Y-65397712D01*
X86542094Y-65397715D01*
X86573849Y-65459239D01*
X86616375Y-65541631D01*
X86621367Y-65547353D01*
X86621368Y-65547355D01*
X86656752Y-65587916D01*
X86727831Y-65669396D01*
X86734045Y-65673763D01*
X86860330Y-65762518D01*
X86860332Y-65762519D01*
X86866547Y-65766887D01*
X87024513Y-65828476D01*
X87032046Y-65829468D01*
X87032047Y-65829468D01*
X87149739Y-65844962D01*
X87153826Y-65845500D01*
X87242516Y-65845500D01*
X87368320Y-65830276D01*
X87526923Y-65770345D01*
X87593414Y-65724647D01*
X87660392Y-65678614D01*
X87660393Y-65678613D01*
X87666651Y-65674312D01*
X87711125Y-65624396D01*
X87774388Y-65553392D01*
X87774390Y-65553388D01*
X87779440Y-65547721D01*
X87786238Y-65534883D01*
X87855224Y-65404589D01*
X87858776Y-65397881D01*
X87900081Y-65233441D01*
X87900120Y-65226105D01*
X89499031Y-65226105D01*
X89500805Y-65233492D01*
X89500805Y-65233496D01*
X89505043Y-65251148D01*
X89538612Y-65390968D01*
X89542093Y-65397712D01*
X89542094Y-65397715D01*
X89573849Y-65459239D01*
X89616375Y-65541631D01*
X89621367Y-65547353D01*
X89621368Y-65547355D01*
X89656752Y-65587916D01*
X89727831Y-65669396D01*
X89734045Y-65673763D01*
X89860330Y-65762518D01*
X89860332Y-65762519D01*
X89866547Y-65766887D01*
X90024513Y-65828476D01*
X90032046Y-65829468D01*
X90032047Y-65829468D01*
X90149739Y-65844962D01*
X90153826Y-65845500D01*
X90242516Y-65845500D01*
X90368320Y-65830276D01*
X90526923Y-65770345D01*
X90593414Y-65724647D01*
X90660392Y-65678614D01*
X90660393Y-65678613D01*
X90666651Y-65674312D01*
X90711125Y-65624396D01*
X90774388Y-65553392D01*
X90774390Y-65553388D01*
X90779440Y-65547721D01*
X90786238Y-65534883D01*
X90855224Y-65404589D01*
X90858776Y-65397881D01*
X90900081Y-65233441D01*
X90900294Y-65192883D01*
X90900830Y-65090476D01*
X90900969Y-65063895D01*
X90896450Y-65045070D01*
X90863161Y-64906417D01*
X90861388Y-64899032D01*
X90848114Y-64873313D01*
X90787108Y-64755117D01*
X90787108Y-64755116D01*
X90783625Y-64748369D01*
X90778313Y-64742279D01*
X90722051Y-64677785D01*
X99192000Y-64677785D01*
X99192582Y-64682030D01*
X99192582Y-64682037D01*
X99197944Y-64721175D01*
X99207294Y-64789432D01*
X99210706Y-64797316D01*
X99210706Y-64797317D01*
X99251731Y-64892119D01*
X99267195Y-64927855D01*
X99362114Y-65045070D01*
X99485058Y-65132442D01*
X99626968Y-65183533D01*
X99635530Y-65184162D01*
X99635531Y-65184162D01*
X99693798Y-65188441D01*
X99777391Y-65194580D01*
X99785806Y-65192883D01*
X99785809Y-65192883D01*
X99851317Y-65179674D01*
X99925243Y-65164767D01*
X100059632Y-65096293D01*
X100170656Y-64994201D01*
X100229663Y-64899032D01*
X100245610Y-64873313D01*
X100245611Y-64873310D01*
X100250135Y-64866014D01*
X100292215Y-64721175D01*
X100293000Y-64710485D01*
X100293000Y-64677785D01*
X107832000Y-64677785D01*
X107832582Y-64682030D01*
X107832582Y-64682037D01*
X107837944Y-64721175D01*
X107847294Y-64789432D01*
X107850706Y-64797316D01*
X107850706Y-64797317D01*
X107891731Y-64892119D01*
X107907195Y-64927855D01*
X108002114Y-65045070D01*
X108125058Y-65132442D01*
X108266968Y-65183533D01*
X108275530Y-65184162D01*
X108275531Y-65184162D01*
X108333798Y-65188441D01*
X108417391Y-65194580D01*
X108425806Y-65192883D01*
X108425809Y-65192883D01*
X108484220Y-65181105D01*
X114699031Y-65181105D01*
X114700805Y-65188492D01*
X114700805Y-65188496D01*
X114721667Y-65275388D01*
X114738612Y-65345968D01*
X114742093Y-65352712D01*
X114742094Y-65352715D01*
X114802398Y-65469552D01*
X114816375Y-65496631D01*
X114821367Y-65502353D01*
X114821368Y-65502355D01*
X114883808Y-65573931D01*
X114927831Y-65624396D01*
X114934045Y-65628763D01*
X115060330Y-65717518D01*
X115060332Y-65717519D01*
X115066547Y-65721887D01*
X115224513Y-65783476D01*
X115232046Y-65784468D01*
X115232047Y-65784468D01*
X115304946Y-65794065D01*
X115353826Y-65800500D01*
X115442516Y-65800500D01*
X115568320Y-65785276D01*
X115726923Y-65725345D01*
X115808329Y-65669396D01*
X115860392Y-65633614D01*
X115860393Y-65633613D01*
X115866651Y-65629312D01*
X115934294Y-65553392D01*
X115974388Y-65508392D01*
X115974390Y-65508388D01*
X115979440Y-65502721D01*
X115986238Y-65489883D01*
X116055224Y-65359589D01*
X116058776Y-65352881D01*
X116100081Y-65188441D01*
X116100120Y-65181105D01*
X117699031Y-65181105D01*
X117700805Y-65188492D01*
X117700805Y-65188496D01*
X117721667Y-65275388D01*
X117738612Y-65345968D01*
X117742093Y-65352712D01*
X117742094Y-65352715D01*
X117802398Y-65469552D01*
X117816375Y-65496631D01*
X117821367Y-65502353D01*
X117821368Y-65502355D01*
X117883808Y-65573931D01*
X117927831Y-65624396D01*
X117934045Y-65628763D01*
X118060330Y-65717518D01*
X118060332Y-65717519D01*
X118066547Y-65721887D01*
X118224513Y-65783476D01*
X118232046Y-65784468D01*
X118232047Y-65784468D01*
X118304946Y-65794065D01*
X118353826Y-65800500D01*
X118442516Y-65800500D01*
X118568320Y-65785276D01*
X118726923Y-65725345D01*
X118808329Y-65669396D01*
X118860392Y-65633614D01*
X118860393Y-65633613D01*
X118866651Y-65629312D01*
X118934294Y-65553392D01*
X118974388Y-65508392D01*
X118974390Y-65508388D01*
X118979440Y-65502721D01*
X118986238Y-65489883D01*
X119055224Y-65359589D01*
X119058776Y-65352881D01*
X119060819Y-65344748D01*
X133199500Y-65344748D01*
X133211133Y-65403231D01*
X133255448Y-65469552D01*
X133321769Y-65513867D01*
X133333938Y-65516288D01*
X133333939Y-65516288D01*
X133374184Y-65524293D01*
X133380252Y-65525500D01*
X135119748Y-65525500D01*
X135125816Y-65524293D01*
X135166061Y-65516288D01*
X135166062Y-65516288D01*
X135178231Y-65513867D01*
X135244552Y-65469552D01*
X135288867Y-65403231D01*
X135300500Y-65344748D01*
X135300500Y-65061752D01*
X135320502Y-64993631D01*
X135374158Y-64947138D01*
X135444432Y-64937034D01*
X135509012Y-64966528D01*
X135543243Y-65014348D01*
X135571770Y-65084603D01*
X135576413Y-65093794D01*
X135687694Y-65275388D01*
X135693777Y-65283699D01*
X135833213Y-65444667D01*
X135840580Y-65451883D01*
X136004434Y-65587916D01*
X136012881Y-65593831D01*
X136196756Y-65701279D01*
X136206042Y-65705729D01*
X136405001Y-65781703D01*
X136414899Y-65784579D01*
X136518250Y-65805606D01*
X136532299Y-65804410D01*
X136536000Y-65794065D01*
X136536000Y-65793517D01*
X137044000Y-65793517D01*
X137048064Y-65807359D01*
X137061478Y-65809393D01*
X137068184Y-65808534D01*
X137078262Y-65806392D01*
X137282255Y-65745191D01*
X137291842Y-65741433D01*
X137483095Y-65647739D01*
X137491945Y-65642464D01*
X137665328Y-65518792D01*
X137673200Y-65512139D01*
X137824052Y-65361812D01*
X137830730Y-65353965D01*
X137955003Y-65181020D01*
X137960313Y-65172183D01*
X138045412Y-65000000D01*
X154394551Y-65000000D01*
X154414317Y-65251148D01*
X154415471Y-65255955D01*
X154415472Y-65255961D01*
X154447885Y-65390968D01*
X154473127Y-65496111D01*
X154475020Y-65500682D01*
X154475021Y-65500684D01*
X154546713Y-65673763D01*
X154569534Y-65728859D01*
X154701164Y-65943659D01*
X154704376Y-65947419D01*
X154704379Y-65947424D01*
X154849256Y-66117052D01*
X154864776Y-66135224D01*
X154868538Y-66138437D01*
X155052576Y-66295621D01*
X155052581Y-66295624D01*
X155056341Y-66298836D01*
X155271141Y-66430466D01*
X155275711Y-66432359D01*
X155275715Y-66432361D01*
X155499316Y-66524979D01*
X155503889Y-66526873D01*
X155588289Y-66547135D01*
X155744039Y-66584528D01*
X155744045Y-66584529D01*
X155748852Y-66585683D01*
X155837149Y-66592632D01*
X155934661Y-66600307D01*
X155934670Y-66600307D01*
X155937118Y-66600500D01*
X156062882Y-66600500D01*
X156065330Y-66600307D01*
X156065339Y-66600307D01*
X156162851Y-66592632D01*
X156251148Y-66585683D01*
X156255955Y-66584529D01*
X156255961Y-66584528D01*
X156411711Y-66547135D01*
X156496111Y-66526873D01*
X156500684Y-66524979D01*
X156724285Y-66432361D01*
X156724289Y-66432359D01*
X156728859Y-66430466D01*
X156943659Y-66298836D01*
X156947419Y-66295624D01*
X156947424Y-66295621D01*
X157131462Y-66138437D01*
X157135224Y-66135224D01*
X157150744Y-66117052D01*
X157295621Y-65947424D01*
X157295624Y-65947419D01*
X157298836Y-65943659D01*
X157430466Y-65728859D01*
X157453288Y-65673763D01*
X157524979Y-65500684D01*
X157524980Y-65500682D01*
X157526873Y-65496111D01*
X157552115Y-65390968D01*
X157584528Y-65255961D01*
X157584529Y-65255955D01*
X157585683Y-65251148D01*
X157605449Y-65000000D01*
X157585683Y-64748852D01*
X157582744Y-64736608D01*
X157532537Y-64527482D01*
X157526873Y-64503889D01*
X157518006Y-64482482D01*
X157432361Y-64275715D01*
X157432359Y-64275711D01*
X157430466Y-64271141D01*
X157298836Y-64056341D01*
X157295624Y-64052581D01*
X157295621Y-64052576D01*
X157138437Y-63868538D01*
X157135224Y-63864776D01*
X157101314Y-63835814D01*
X156947424Y-63704379D01*
X156947419Y-63704376D01*
X156943659Y-63701164D01*
X156728859Y-63569534D01*
X156724289Y-63567641D01*
X156724285Y-63567639D01*
X156500684Y-63475021D01*
X156500682Y-63475020D01*
X156496111Y-63473127D01*
X156411711Y-63452865D01*
X156255961Y-63415472D01*
X156255955Y-63415471D01*
X156251148Y-63414317D01*
X156162851Y-63407368D01*
X156065339Y-63399693D01*
X156065330Y-63399693D01*
X156062882Y-63399500D01*
X155937118Y-63399500D01*
X155934670Y-63399693D01*
X155934661Y-63399693D01*
X155837149Y-63407368D01*
X155748852Y-63414317D01*
X155744045Y-63415471D01*
X155744039Y-63415472D01*
X155588289Y-63452865D01*
X155503889Y-63473127D01*
X155499318Y-63475020D01*
X155499316Y-63475021D01*
X155275715Y-63567639D01*
X155275711Y-63567641D01*
X155271141Y-63569534D01*
X155056341Y-63701164D01*
X155052581Y-63704376D01*
X155052576Y-63704379D01*
X154898686Y-63835814D01*
X154864776Y-63864776D01*
X154861563Y-63868538D01*
X154704379Y-64052576D01*
X154704376Y-64052581D01*
X154701164Y-64056341D01*
X154569534Y-64271141D01*
X154567641Y-64275711D01*
X154567639Y-64275715D01*
X154481994Y-64482482D01*
X154473127Y-64503889D01*
X154467463Y-64527482D01*
X154417257Y-64736608D01*
X154414317Y-64748852D01*
X154394551Y-65000000D01*
X138045412Y-65000000D01*
X138054670Y-64981267D01*
X138058469Y-64971672D01*
X138120377Y-64767910D01*
X138122555Y-64757837D01*
X138123986Y-64746962D01*
X138121775Y-64732778D01*
X138108617Y-64729000D01*
X137062115Y-64729000D01*
X137046876Y-64733475D01*
X137045671Y-64734865D01*
X137044000Y-64742548D01*
X137044000Y-65793517D01*
X136536000Y-65793517D01*
X136536000Y-64202885D01*
X137044000Y-64202885D01*
X137048475Y-64218124D01*
X137049865Y-64219329D01*
X137057548Y-64221000D01*
X138108344Y-64221000D01*
X138121875Y-64217027D01*
X138123180Y-64207947D01*
X138081214Y-64040875D01*
X138077894Y-64031124D01*
X137992972Y-63835814D01*
X137988105Y-63826739D01*
X137872426Y-63647926D01*
X137866136Y-63639757D01*
X137722806Y-63482240D01*
X137715273Y-63475215D01*
X137548139Y-63343222D01*
X137539552Y-63337517D01*
X137353117Y-63234599D01*
X137343705Y-63230369D01*
X137142959Y-63159280D01*
X137132988Y-63156646D01*
X137061837Y-63143972D01*
X137048540Y-63145432D01*
X137044000Y-63159989D01*
X137044000Y-64202885D01*
X136536000Y-64202885D01*
X136536000Y-63158102D01*
X136532082Y-63144758D01*
X136517806Y-63142771D01*
X136479324Y-63148660D01*
X136469288Y-63151051D01*
X136266868Y-63217212D01*
X136257359Y-63221209D01*
X136068463Y-63319542D01*
X136059738Y-63325036D01*
X135889433Y-63452905D01*
X135881726Y-63459748D01*
X135734590Y-63613717D01*
X135728104Y-63621727D01*
X135608098Y-63797649D01*
X135603000Y-63806623D01*
X135540788Y-63940647D01*
X135493964Y-63994014D01*
X135425720Y-64013595D01*
X135357725Y-63993171D01*
X135311565Y-63939229D01*
X135300500Y-63887597D01*
X135300500Y-63605252D01*
X135288867Y-63546769D01*
X135244552Y-63480448D01*
X135178231Y-63436133D01*
X135166062Y-63433712D01*
X135166061Y-63433712D01*
X135125816Y-63425707D01*
X135119748Y-63424500D01*
X133380252Y-63424500D01*
X133374184Y-63425707D01*
X133333939Y-63433712D01*
X133333938Y-63433712D01*
X133321769Y-63436133D01*
X133255448Y-63480448D01*
X133211133Y-63546769D01*
X133199500Y-63605252D01*
X133199500Y-65344748D01*
X119060819Y-65344748D01*
X119100081Y-65188441D01*
X119100226Y-65160868D01*
X119100625Y-65084603D01*
X119100969Y-65018895D01*
X119097617Y-65004930D01*
X119063161Y-64861417D01*
X119061388Y-64854032D01*
X119028046Y-64789432D01*
X118987108Y-64710117D01*
X118987108Y-64710116D01*
X118983625Y-64703369D01*
X118978313Y-64697279D01*
X118877163Y-64581329D01*
X118872169Y-64575604D01*
X118793555Y-64520353D01*
X118739670Y-64482482D01*
X118739668Y-64482481D01*
X118733453Y-64478113D01*
X118575487Y-64416524D01*
X118567954Y-64415532D01*
X118567953Y-64415532D01*
X118450261Y-64400038D01*
X118450260Y-64400038D01*
X118446174Y-64399500D01*
X118357484Y-64399500D01*
X118231680Y-64414724D01*
X118073077Y-64474655D01*
X118066819Y-64478956D01*
X117996214Y-64527482D01*
X117933349Y-64570688D01*
X117928297Y-64576358D01*
X117928296Y-64576359D01*
X117825612Y-64691608D01*
X117825610Y-64691612D01*
X117820560Y-64697279D01*
X117817008Y-64703988D01*
X117817007Y-64703989D01*
X117801764Y-64732778D01*
X117741224Y-64847119D01*
X117699919Y-65011559D01*
X117699879Y-65019157D01*
X117699879Y-65019159D01*
X117699605Y-65071495D01*
X117699031Y-65181105D01*
X116100120Y-65181105D01*
X116100226Y-65160868D01*
X116100625Y-65084603D01*
X116100969Y-65018895D01*
X116097617Y-65004930D01*
X116063161Y-64861417D01*
X116061388Y-64854032D01*
X116028046Y-64789432D01*
X115987108Y-64710117D01*
X115987108Y-64710116D01*
X115983625Y-64703369D01*
X115978313Y-64697279D01*
X115877163Y-64581329D01*
X115872169Y-64575604D01*
X115793555Y-64520353D01*
X115739670Y-64482482D01*
X115739668Y-64482481D01*
X115733453Y-64478113D01*
X115575487Y-64416524D01*
X115567954Y-64415532D01*
X115567953Y-64415532D01*
X115450261Y-64400038D01*
X115450260Y-64400038D01*
X115446174Y-64399500D01*
X115357484Y-64399500D01*
X115231680Y-64414724D01*
X115073077Y-64474655D01*
X115066819Y-64478956D01*
X114996214Y-64527482D01*
X114933349Y-64570688D01*
X114928297Y-64576358D01*
X114928296Y-64576359D01*
X114825612Y-64691608D01*
X114825610Y-64691612D01*
X114820560Y-64697279D01*
X114817008Y-64703988D01*
X114817007Y-64703989D01*
X114801764Y-64732778D01*
X114741224Y-64847119D01*
X114699919Y-65011559D01*
X114699879Y-65019157D01*
X114699879Y-65019159D01*
X114699605Y-65071495D01*
X114699031Y-65181105D01*
X108484220Y-65181105D01*
X108491317Y-65179674D01*
X108565243Y-65164767D01*
X108699632Y-65096293D01*
X108810656Y-64994201D01*
X108869663Y-64899032D01*
X108885610Y-64873313D01*
X108885611Y-64873310D01*
X108890135Y-64866014D01*
X108932215Y-64721175D01*
X108933000Y-64710485D01*
X108933000Y-63802215D01*
X108928839Y-63771834D01*
X108918872Y-63699082D01*
X108917706Y-63690568D01*
X108883464Y-63611439D01*
X108861217Y-63560029D01*
X108861216Y-63560027D01*
X108857805Y-63552145D01*
X108762886Y-63434930D01*
X108639942Y-63347558D01*
X108498032Y-63296467D01*
X108489470Y-63295838D01*
X108489469Y-63295838D01*
X108422821Y-63290944D01*
X108347609Y-63285420D01*
X108339194Y-63287117D01*
X108339191Y-63287117D01*
X108292823Y-63296467D01*
X108199757Y-63315233D01*
X108065368Y-63383707D01*
X107954344Y-63485799D01*
X107922937Y-63536453D01*
X107879390Y-63606687D01*
X107879389Y-63606690D01*
X107874865Y-63613986D01*
X107832785Y-63758825D01*
X107832000Y-63769515D01*
X107832000Y-64677785D01*
X100293000Y-64677785D01*
X100293000Y-63802215D01*
X100288839Y-63771834D01*
X100278872Y-63699082D01*
X100277706Y-63690568D01*
X100243464Y-63611439D01*
X100221217Y-63560029D01*
X100221216Y-63560027D01*
X100217805Y-63552145D01*
X100122886Y-63434930D01*
X99999942Y-63347558D01*
X99858032Y-63296467D01*
X99849470Y-63295838D01*
X99849469Y-63295838D01*
X99782821Y-63290944D01*
X99707609Y-63285420D01*
X99699194Y-63287117D01*
X99699191Y-63287117D01*
X99652823Y-63296467D01*
X99559757Y-63315233D01*
X99425368Y-63383707D01*
X99314344Y-63485799D01*
X99282937Y-63536453D01*
X99239390Y-63606687D01*
X99239389Y-63606690D01*
X99234865Y-63613986D01*
X99192785Y-63758825D01*
X99192000Y-63769515D01*
X99192000Y-64677785D01*
X90722051Y-64677785D01*
X90677163Y-64626329D01*
X90672169Y-64620604D01*
X90601146Y-64570688D01*
X90539670Y-64527482D01*
X90539668Y-64527481D01*
X90533453Y-64523113D01*
X90375487Y-64461524D01*
X90367954Y-64460532D01*
X90367953Y-64460532D01*
X90250261Y-64445038D01*
X90250260Y-64445038D01*
X90246174Y-64444500D01*
X90157484Y-64444500D01*
X90031680Y-64459724D01*
X89873077Y-64519655D01*
X89866819Y-64523956D01*
X89790573Y-64576359D01*
X89733349Y-64615688D01*
X89728297Y-64621358D01*
X89728296Y-64621359D01*
X89625612Y-64736608D01*
X89625610Y-64736612D01*
X89620560Y-64742279D01*
X89617008Y-64748988D01*
X89617007Y-64748989D01*
X89612322Y-64757837D01*
X89541224Y-64892119D01*
X89499919Y-65056559D01*
X89499031Y-65226105D01*
X87900120Y-65226105D01*
X87900294Y-65192883D01*
X87900830Y-65090476D01*
X87900969Y-65063895D01*
X87896450Y-65045070D01*
X87863161Y-64906417D01*
X87861388Y-64899032D01*
X87848114Y-64873313D01*
X87787108Y-64755117D01*
X87787108Y-64755116D01*
X87783625Y-64748369D01*
X87778313Y-64742279D01*
X87677163Y-64626329D01*
X87672169Y-64620604D01*
X87601146Y-64570688D01*
X87539670Y-64527482D01*
X87539668Y-64527481D01*
X87533453Y-64523113D01*
X87375487Y-64461524D01*
X87367954Y-64460532D01*
X87367953Y-64460532D01*
X87250261Y-64445038D01*
X87250260Y-64445038D01*
X87246174Y-64444500D01*
X87157484Y-64444500D01*
X87031680Y-64459724D01*
X86873077Y-64519655D01*
X86866819Y-64523956D01*
X86790573Y-64576359D01*
X86733349Y-64615688D01*
X86728297Y-64621358D01*
X86728296Y-64621359D01*
X86625612Y-64736608D01*
X86625610Y-64736612D01*
X86620560Y-64742279D01*
X86617008Y-64748988D01*
X86617007Y-64748989D01*
X86612322Y-64757837D01*
X86541224Y-64892119D01*
X86499919Y-65056559D01*
X86499031Y-65226105D01*
X79587654Y-65226105D01*
X79605449Y-65000000D01*
X79585683Y-64748852D01*
X79582744Y-64736608D01*
X79532537Y-64527482D01*
X79526873Y-64503889D01*
X79518006Y-64482482D01*
X79432361Y-64275715D01*
X79432359Y-64275711D01*
X79430466Y-64271141D01*
X79298836Y-64056341D01*
X79295624Y-64052581D01*
X79295621Y-64052576D01*
X79138437Y-63868538D01*
X79135224Y-63864776D01*
X79101314Y-63835814D01*
X78947424Y-63704379D01*
X78947419Y-63704376D01*
X78943659Y-63701164D01*
X78728859Y-63569534D01*
X78724289Y-63567641D01*
X78724285Y-63567639D01*
X78500684Y-63475021D01*
X78500682Y-63475020D01*
X78496111Y-63473127D01*
X78411711Y-63452865D01*
X78255961Y-63415472D01*
X78255955Y-63415471D01*
X78251148Y-63414317D01*
X78162851Y-63407368D01*
X78065339Y-63399693D01*
X78065330Y-63399693D01*
X78062882Y-63399500D01*
X77937118Y-63399500D01*
X77934670Y-63399693D01*
X77934661Y-63399693D01*
X77837149Y-63407368D01*
X77748852Y-63414317D01*
X77744045Y-63415471D01*
X77744039Y-63415472D01*
X77588289Y-63452865D01*
X77503889Y-63473127D01*
X77499318Y-63475020D01*
X77499316Y-63475021D01*
X77275715Y-63567639D01*
X77275711Y-63567641D01*
X77271141Y-63569534D01*
X77056341Y-63701164D01*
X77052581Y-63704376D01*
X77052576Y-63704379D01*
X76898686Y-63835814D01*
X76864776Y-63864776D01*
X76861563Y-63868538D01*
X76704379Y-64052576D01*
X76704376Y-64052581D01*
X76701164Y-64056341D01*
X76569534Y-64271141D01*
X76567641Y-64275711D01*
X76567639Y-64275715D01*
X76481994Y-64482482D01*
X76473127Y-64503889D01*
X76467463Y-64527482D01*
X76417257Y-64736608D01*
X76414317Y-64748852D01*
X76394551Y-65000000D01*
X75001000Y-65000000D01*
X75001000Y-62127000D01*
X75021002Y-62058879D01*
X75074658Y-62012386D01*
X75127000Y-62001000D01*
X158873000Y-62001000D01*
X158941121Y-62021002D01*
G37*
%TD.AperFunction*%
%TD*%
M02*
